<svg width="20" height="20" viewBox="0 0 20 20" fill="none" xmlns="http://www.w3.org/2000/svg">
<path d="M11.5693 7.46669L9.03591 9.99999L11.5693 12.5333C11.6428 12.6042 11.7014 12.6891 11.7417 12.7829C11.7821 12.8768 11.8033 12.9777 11.8043 13.0798C11.8052 13.1819 11.7858 13.2832 11.7472 13.3778C11.7085 13.4723 11.6515 13.5583 11.5793 13.6305C11.5071 13.7028 11.4212 13.76 11.3267 13.7987C11.2322 13.8374 11.1309 13.8569 11.0288 13.856C10.9266 13.8552 10.8257 13.8341 10.7318 13.7938C10.6379 13.7535 10.553 13.695 10.482 13.6215L7.40511 10.5446C7.33363 10.4732 7.27697 10.3883 7.23828 10.295C7.19959 10.2016 7.17969 10.1015 7.17969 10.0005C7.17969 9.89943 7.19959 9.79938 7.23828 9.70602C7.27697 9.61266 7.33363 9.52781 7.40511 9.45637L10.482 6.37945C10.5525 6.30387 10.6374 6.24333 10.7317 6.20129C10.8261 6.15925 10.928 6.13663 11.0313 6.13481C11.1346 6.13299 11.2372 6.15196 11.333 6.19065C11.4287 6.22934 11.5157 6.28687 11.5887 6.35992C11.6618 6.43296 11.7194 6.52005 11.7581 6.61583C11.7968 6.71161 11.8158 6.81415 11.814 6.91744C11.8122 7.02072 11.7895 7.12256 11.7475 7.21691C11.7054 7.31127 11.6448 7.39627 11.5693 7.46669ZM20 9.99999C20 11.9778 19.4135 13.9113 18.3147 15.5557C17.2159 17.2002 15.6541 18.4819 13.8268 19.2388C11.9996 19.9956 9.98889 20.1936 8.04908 19.8078C6.10927 19.4219 4.32748 18.4696 2.92895 17.071C1.53043 15.6725 0.577993 13.8907 0.192141 11.9509C-0.193711 10.0111 0.00436293 8.00038 0.761238 6.17312C1.51811 4.34586 2.79983 2.78413 4.44431 1.68532C6.0888 0.586507 8.0222 0 10 0C12.6513 0.0029861 15.193 1.05747 17.0677 2.93219C18.9425 4.8069 19.997 7.34874 20 9.99999ZM18.4615 9.99999C18.4615 8.32646 17.9653 6.69046 17.0355 5.29897C16.1057 3.90748 14.7843 2.82305 13.2381 2.18261C11.692 1.54218 9.99062 1.3746 8.34925 1.70109C6.70787 2.02758 5.20018 2.83343 4.01682 4.0168C2.83345 5.20016 2.02754 6.70785 1.70105 8.34922C1.37456 9.9906 1.54214 11.6919 2.18257 13.238C2.82301 14.7842 3.90757 16.1057 5.29906 17.0355C6.69055 17.9653 8.32648 18.4615 10 18.4615C12.2434 18.4591 14.3942 17.5669 15.9805 15.9806C17.5668 14.3942 18.4591 12.2434 18.4615 9.99999Z" fill="#484848"/>
</svg>
