<svg width="17" height="20" viewBox="0 0 17 20" fill="none" xmlns="http://www.w3.org/2000/svg">
<path d="M15.937 12.2818L8.93701 19.2818C8.86745 19.3515 8.78479 19.4067 8.69385 19.4444C8.60291 19.4821 8.50543 19.5015 8.40698 19.5015C8.30853 19.5015 8.21106 19.4821 8.12012 19.4444C8.02917 19.4067 7.94652 19.3515 7.87695 19.2818L0.876953 12.2818C0.736256 12.1411 0.657227 11.9503 0.657227 11.7513C0.657227 11.5523 0.736256 11.3615 0.876953 11.2208C1.01765 11.0801 1.20849 11.001 1.40747 11.001C1.60645 11.001 1.79729 11.0801 1.93799 11.2208L7.65796 16.9407V0.75177C7.65796 0.552858 7.73697 0.362149 7.87762 0.221497C8.01828 0.0808443 8.20905 0.00177002 8.40796 0.00177002C8.60687 0.00177002 8.79764 0.0808443 8.93829 0.221497C9.07895 0.362149 9.15796 0.552858 9.15796 0.75177V16.9407L14.878 11.2208C14.9467 11.1471 15.0295 11.0881 15.1216 11.0472C15.2136 11.0063 15.313 10.9844 15.4137 10.9827C15.5144 10.981 15.6144 10.9996 15.7078 11.0374C15.8011 11.0752 15.8859 11.1314 15.957 11.2027C16.0282 11.274 16.0843 11.3589 16.1219 11.4523C16.1595 11.5458 16.178 11.6458 16.1761 11.7465C16.1742 11.8472 16.152 11.9466 16.111 12.0385C16.0699 12.1305 16.0108 12.2132 15.937 12.2818Z" fill="#484848"/>
</svg>
