<svg width="17" height="20" viewBox="0 0 17 20" fill="none" xmlns="http://www.w3.org/2000/svg">
<path d="M15.937 8.2818C15.8674 8.35146 15.7848 8.40669 15.6938 8.4444C15.6029 8.4821 15.5054 8.50153 15.407 8.50153C15.3085 8.50153 15.2111 8.4821 15.1201 8.4444C15.0292 8.40669 14.9465 8.35146 14.877 8.2818L9.15698 2.56183V18.7518C9.15698 18.9507 9.07797 19.1414 8.93732 19.282C8.79666 19.4227 8.60589 19.5018 8.40698 19.5018C8.20807 19.5018 8.0173 19.4227 7.87665 19.282C7.736 19.1414 7.65698 18.9507 7.65698 18.7518V2.56281L1.93701 8.28278C1.79631 8.42347 1.60547 8.5025 1.40649 8.5025C1.20752 8.5025 1.01667 8.42347 0.875977 8.28278C0.735279 8.14208 0.65625 7.95123 0.65625 7.75226C0.65625 7.55328 0.735279 7.36244 0.875977 7.22174L7.87598 0.221741C7.94563 0.152046 8.02836 0.0967421 8.11938 0.059021C8.21041 0.0212999 8.30796 0.00189209 8.40649 0.00189209C8.50503 0.00189209 8.60258 0.0212999 8.6936 0.059021C8.78463 0.0967421 8.86736 0.152046 8.93701 0.221741L15.937 7.22174C16.0067 7.29131 16.0619 7.37396 16.0996 7.4649C16.1373 7.55585 16.1567 7.65332 16.1567 7.75177C16.1567 7.85022 16.1373 7.94769 16.0996 8.03864C16.0619 8.12958 16.0067 8.21223 15.937 8.2818Z" fill="#484848"/>
</svg>
