<svg width="21" height="16" viewBox="0 0 21 16" fill="none" xmlns="http://www.w3.org/2000/svg">
<path d="M19.9368 8.2818L12.9368 15.2818C12.7953 15.4184 12.6057 15.4938 12.4091 15.492C12.2124 15.4902 12.0244 15.4113 11.8854 15.2722C11.7464 15.133 11.6676 14.9449 11.666 14.7482C11.6643 14.5516 11.74 14.3622 11.8767 14.2208L17.5967 8.50079H1.40674C1.20783 8.50079 1.01706 8.42178 0.876404 8.28113C0.735752 8.14048 0.656738 7.94971 0.656738 7.75079C0.656738 7.55188 0.735752 7.36111 0.876404 7.22046C1.01706 7.07981 1.20783 7.00079 1.40674 7.00079H17.5958L11.8757 1.28076C11.735 1.14006 11.656 0.94922 11.656 0.750244C11.656 0.551268 11.735 0.360485 11.8757 0.219788C12.0164 0.0790903 12.2073 0 12.4062 0C12.6052 0 12.7961 0.0790903 12.9368 0.219788L19.9368 7.21979C20.0776 7.36062 20.1567 7.55163 20.1567 7.75079C20.1567 7.94995 20.0776 8.14096 19.9368 8.2818Z" fill="#484848"/>
</svg>
