<svg width="16" height="10" viewBox="0 0 16 10" fill="none" xmlns="http://www.w3.org/2000/svg">
<path d="M15.4786 1.57772L8.49346 9.35477C8.43947 9.41497 8.37532 9.4627 8.30474 9.49528C8.23416 9.52786 8.1585 9.54464 8.08209 9.54464C8.00568 9.54464 7.93003 9.52786 7.85945 9.49528C7.78887 9.4627 7.72471 9.41497 7.67072 9.35477L0.685551 1.57772C0.631481 1.51752 0.588617 1.44604 0.559354 1.36739C0.530092 1.28873 0.515015 1.20443 0.515015 1.11929C0.515015 1.03415 0.530092 0.949849 0.559354 0.871194C0.588617 0.792539 0.631481 0.72106 0.685551 0.660861C0.739621 0.600661 0.803822 0.552937 0.874467 0.520357C0.945113 0.487777 1.02084 0.470991 1.0973 0.470991C1.17377 0.470991 1.24949 0.487777 1.32014 0.520357C1.39078 0.552937 1.45498 0.600661 1.50905 0.660861L8.08285 7.97991L14.6567 0.660861C14.71 0.597244 14.7743 0.54621 14.8458 0.510864C14.9172 0.475518 14.9943 0.456621 15.0725 0.455169C15.1506 0.453716 15.2283 0.469754 15.3007 0.502425C15.3732 0.535097 15.439 0.58365 15.4942 0.645249C15.5494 0.706848 15.5929 0.780234 15.6221 0.860962C15.6513 0.94169 15.6656 1.02816 15.6642 1.11518C15.6627 1.20219 15.6455 1.28803 15.6136 1.36749C15.5818 1.44696 15.5359 1.51845 15.4786 1.57772Z" fill="#484848"/>
</svg>
