<svg width="21" height="16" viewBox="0 0 21 16" fill="none" xmlns="http://www.w3.org/2000/svg">
<path d="M20.157 7.75177C20.157 7.95068 20.078 8.14145 19.9374 8.2821C19.7967 8.42276 19.606 8.50177 19.407 8.50177H3.21802L8.93805 14.2217C9.00971 14.2909 9.06691 14.3737 9.10626 14.4651C9.14561 14.5566 9.16632 14.655 9.16724 14.7546C9.16815 14.8542 9.14924 14.9529 9.11157 15.0451C9.0739 15.1373 9.0182 15.2211 8.94781 15.2916C8.87743 15.362 8.79375 15.4178 8.7016 15.4555C8.60945 15.4933 8.51066 15.5122 8.41107 15.5114C8.31149 15.5106 8.2131 15.49 8.12158 15.4507C8.03006 15.4115 7.94727 15.3544 7.87805 15.2828L0.878052 8.28278C0.808357 8.21313 0.753053 8.13039 0.715332 8.03937C0.677611 7.94834 0.658203 7.85079 0.658203 7.75226C0.658203 7.65373 0.677611 7.55617 0.715332 7.46515C0.753053 7.37412 0.808357 7.29139 0.878052 7.22174L7.87805 0.221741C8.01875 0.0810434 8.20959 0.00201416 8.40857 0.00201416C8.60755 0.00201416 8.79833 0.0810434 8.93903 0.221741C9.07972 0.362438 9.15881 0.553282 9.15881 0.752258C9.15881 0.951234 9.07972 1.14208 8.93903 1.28278L3.21906 7.00275H19.407C19.5055 7.00261 19.603 7.02193 19.694 7.05951C19.785 7.09709 19.8677 7.15224 19.9373 7.2218C20.007 7.29137 20.0622 7.37397 20.0999 7.4649C20.1376 7.55584 20.157 7.65333 20.157 7.75177Z" fill="#484848"/>
</svg>
