<svg width="20" height="20" viewBox="0 0 20 20" fill="none" xmlns="http://www.w3.org/2000/svg">
<path d="M10 0C8.0222 0 6.0888 0.586507 4.44431 1.68532C2.79983 2.78413 1.51811 4.34586 0.761238 6.17312C0.00436293 8.00038 -0.193711 10.0111 0.192141 11.9509C0.577993 13.8907 1.53043 15.6725 2.92895 17.071C4.32748 18.4696 6.10927 19.4219 8.04908 19.8078C9.98889 20.1936 11.9996 19.9956 13.8268 19.2388C15.6541 18.4819 17.2159 17.2002 18.3147 15.5557C19.4135 13.9113 20 11.9778 20 9.99999C19.997 7.34874 18.9425 4.8069 17.0677 2.93219C15.193 1.05747 12.6513 0.0029861 10 0ZM10 18.4615C8.32648 18.4615 6.69055 17.9653 5.29906 17.0355C3.90757 16.1057 2.82301 14.7842 2.18257 13.238C1.54214 11.6919 1.37456 9.9906 1.70105 8.34922C2.02754 6.70785 2.83345 5.20016 4.01682 4.0168C5.20018 2.83343 6.70787 2.02758 8.34925 1.70109C9.99062 1.3746 11.692 1.54218 13.2381 2.18261C14.7843 2.82305 16.1057 3.90748 17.0355 5.29897C17.9653 6.69046 18.4615 8.32646 18.4615 9.99999C18.4591 12.2434 17.5668 14.3942 15.9805 15.9806C14.3942 17.5669 12.2434 18.4591 10 18.4615ZM12.5949 9.45537C12.6664 9.5268 12.7231 9.61166 12.7617 9.70502C12.8004 9.79838 12.8203 9.89843 12.8203 9.99949C12.8203 10.1005 12.8004 10.2006 12.7617 10.294C12.7231 10.3873 12.6664 10.4722 12.5949 10.5436L9.51799 13.6205C9.37285 13.7606 9.17844 13.838 8.97675 13.8361C8.77506 13.8343 8.5822 13.7533 8.43964 13.6106C8.29709 13.4679 8.21625 13.275 8.21459 13.0733C8.21294 12.8716 8.29056 12.6773 8.43075 12.5323L10.9641 9.99899L8.43075 7.46569C8.28645 7.32138 8.20539 7.12564 8.20539 6.92157C8.20539 6.71749 8.28645 6.52175 8.43075 6.37745C8.57506 6.23314 8.77079 6.15209 8.97487 6.15209C9.17895 6.15209 9.37469 6.23314 9.51899 6.37745L12.5949 9.45537Z" fill="white"/>
</svg>
