<svg width="18" height="20" viewBox="0 0 18 20" fill="none" xmlns="http://www.w3.org/2000/svg">
<path d="M17.206 13.7808L16.1 11.9348C15.7058 11.2746 15.4984 10.5196 15.5 9.75073V7.12378C15.5 5.33489 14.7893 3.6193 13.5244 2.35437C12.2595 1.08944 10.5439 0.378784 8.75497 0.378784C6.96609 0.378784 5.25047 1.08944 3.98553 2.35437C2.7206 3.6193 2.00996 5.33489 2.00996 7.12378V9.75073C2.01105 10.5196 1.8037 11.2744 1.40997 11.9348L0.303968 13.7808C0.118469 14.0918 0.0186833 14.4464 0.0147683 14.8086C0.0108532 15.1707 0.102943 15.5274 0.281675 15.8424C0.460406 16.1574 0.719395 16.4194 1.03229 16.6018C1.34518 16.7842 1.70081 16.8804 2.06297 16.8807H6.04297C6.03497 16.9647 6.00996 17.0457 6.00996 17.1307C6.00996 17.8601 6.2997 18.5596 6.81543 19.0753C7.33115 19.591 8.03062 19.8807 8.75996 19.8807C9.48931 19.8807 10.1888 19.591 10.7045 19.0753C11.2202 18.5596 11.51 17.8601 11.51 17.1307C11.51 17.0457 11.485 16.9647 11.477 16.8807H15.457C15.8192 16.8807 16.175 16.7847 16.4879 16.6023C16.8009 16.4199 17.0599 16.1578 17.2385 15.8427C17.4172 15.5275 17.509 15.1706 17.5047 14.8083C17.5004 14.4461 17.4 14.0916 17.214 13.7808H17.206ZM9.99997 17.1348C9.99997 17.4663 9.86827 17.7843 9.63385 18.0187C9.39943 18.2531 9.08149 18.3848 8.74997 18.3848C8.41845 18.3848 8.10051 18.2531 7.86609 18.0187C7.63167 17.7843 7.49997 17.4663 7.49997 17.1348C7.50239 17.0505 7.51346 16.9668 7.53297 16.8848H9.96696C9.98647 16.9668 9.99753 17.0505 9.99997 17.1348ZM15.927 15.1047C15.8796 15.1903 15.81 15.2614 15.7255 15.3105C15.641 15.3597 15.5447 15.385 15.447 15.3838H2.04997C1.95267 15.3839 1.85707 15.3582 1.77293 15.3093C1.68879 15.2605 1.61913 15.1902 1.57104 15.1056C1.52295 15.021 1.49816 14.9252 1.4992 14.8279C1.50025 14.7306 1.52707 14.6353 1.57696 14.5518L2.68297 12.7058C3.21844 11.8132 3.5012 10.7917 3.50097 9.75073V7.12378C3.50097 5.73272 4.05357 4.39867 5.0372 3.41504C6.02083 2.43141 7.35491 1.87878 8.74597 1.87878C10.137 1.87878 11.4711 2.43141 12.4547 3.41504C13.4384 4.39867 13.991 5.73272 13.991 7.12378V9.75073C13.9912 10.7916 14.274 11.813 14.809 12.7058L15.915 14.5518C15.9668 14.6342 15.9954 14.7293 15.9975 14.8267C15.9996 14.9241 15.9752 15.0201 15.927 15.1047Z" fill="#484848"/>
</svg>
