<svg width="20" height="20" viewBox="0 0 20 20" fill="none" xmlns="http://www.w3.org/2000/svg">
<path d="M8.00008 17.6453H12.0001C12.0001 18.1757 11.7894 18.6845 11.4143 19.0596C11.0392 19.4347 10.5305 19.6453 10.0001 19.6453C9.46965 19.6453 8.96094 19.4347 8.58587 19.0596C8.2108 18.6845 8.00008 18.1757 8.00008 17.6453ZM2.52009 13.6253C2.65264 13.6248 2.7797 13.5724 2.87408 13.4793L14.0741 2.27934C14.1242 2.22933 14.1632 2.16927 14.1883 2.10307C14.2135 2.03687 14.2243 1.966 14.2201 1.89531C14.2158 1.82482 14.1967 1.75597 14.164 1.6934C14.1312 1.63084 14.0856 1.57593 14.0301 1.53227C13.0707 0.780332 11.9195 0.312897 10.7075 0.182906C9.49547 0.0529155 8.27129 0.265539 7.17425 0.79692C6.07721 1.3283 5.15134 2.15692 4.50198 3.18852C3.85261 4.22012 3.50584 5.41342 3.50109 6.63237V9.26225C3.50226 10.0773 3.28134 10.8773 2.86208 11.5762L2.09208 12.8663C2.02978 12.9709 2.0078 13.0947 2.03027 13.2144C2.05273 13.3341 2.11809 13.4415 2.21409 13.5164C2.30077 13.5864 2.40868 13.6247 2.52009 13.6253ZM18.7071 0.938277C18.5196 0.750806 18.2652 0.645553 18.0001 0.645553C17.7349 0.645553 17.4806 0.750806 17.2931 0.938277L1.29308 16.9383C1.19757 17.0305 1.12139 17.141 1.06898 17.263C1.01657 17.385 0.988985 17.5162 0.987831 17.649C0.986677 17.7817 1.01198 17.9133 1.06226 18.0362C1.11254 18.1591 1.1868 18.2709 1.28069 18.3648C1.37459 18.4587 1.48623 18.5328 1.60912 18.5831C1.73202 18.6333 1.8637 18.6587 1.99648 18.6575C2.12926 18.6564 2.26048 18.6289 2.38248 18.5765C2.50449 18.5241 2.61484 18.4478 2.70708 18.3523L4.91408 16.1453H16.7001C17.0183 16.1447 17.3307 16.0596 17.6054 15.899C17.8801 15.7383 18.1072 15.5078 18.2638 15.2308C18.4203 14.9537 18.5005 14.64 18.4964 14.3218C18.4922 14.0036 18.4038 13.6921 18.2401 13.4192L17.1401 11.5784C16.7215 10.88 16.5009 10.0807 16.5021 9.2664V6.63628C16.5004 6.02308 16.4111 5.41322 16.2371 4.82524L18.7091 2.35332C18.8019 2.26031 18.8755 2.14983 18.9257 2.02837C18.9758 1.9069 19.0016 1.77672 19.0014 1.64531C19.0012 1.51389 18.9751 1.38382 18.9246 1.2625C18.8741 1.14117 18.8002 1.03102 18.7071 0.938277Z" fill="#5DB05A"/>
</svg>
