<svg width="18" height="20" viewBox="0 0 18 20" fill="none" xmlns="http://www.w3.org/2000/svg">
<path d="M7.00001 17.6453H11C11 18.1757 10.7893 18.6845 10.4142 19.0596C10.0391 19.4346 9.53044 19.6453 9.00001 19.6453C8.46957 19.6453 7.96086 19.4346 7.58579 19.0596C7.21072 18.6845 7.00001 18.1757 7.00001 17.6453ZM17.242 13.4202L16.136 11.5742C15.7174 10.8757 15.4962 10.0766 15.496 9.26221V6.63525C15.496 4.91267 14.8117 3.26077 13.5937 2.04272C12.3756 0.824676 10.7236 0.140381 9.00101 0.140381C7.27843 0.140381 5.6264 0.824676 4.40835 2.04272C3.1903 3.26077 2.506 4.91267 2.506 6.63525V9.26221C2.50581 10.0766 2.28461 10.8757 1.866 11.5742L0.760001 13.4202C0.596329 13.6934 0.50809 14.0053 0.504279 14.3237C0.500468 14.6422 0.581231 14.9561 0.738319 15.2332C0.895406 15.5102 1.12319 15.7406 1.39843 15.9009C1.67367 16.0611 1.9865 16.1454 2.305 16.1453H15.7C16.0183 16.1451 16.3309 16.0606 16.6059 15.9001C16.8808 15.7397 17.1083 15.5092 17.2652 15.2322C17.422 14.9552 17.5026 14.6415 17.4987 14.3232C17.4948 14.0049 17.4066 13.6932 17.243 13.4202H17.242Z" fill="#5DB05A"/>
</svg>
