<svg width="19" height="20" viewBox="0 0 19 20" fill="none" xmlns="http://www.w3.org/2000/svg">
<path d="M17.103 11.9348C16.7084 11.2752 16.501 10.5204 16.503 9.75171V7.12183C16.5036 6.34562 16.3683 5.57531 16.103 4.84583L18.287 2.66174C18.4277 2.52105 18.5068 2.3302 18.5068 2.13123C18.5068 1.93225 18.4277 1.74141 18.287 1.60071C18.1463 1.46001 17.9555 1.38098 17.7565 1.38098C17.5576 1.38098 17.3668 1.46001 17.2261 1.60071L1.22604 17.6007C1.15438 17.6699 1.09721 17.7526 1.05786 17.8441C1.01851 17.9356 0.99777 18.034 0.996858 18.1335C0.995946 18.2331 1.01488 18.332 1.05255 18.4242C1.09022 18.5164 1.14586 18.6001 1.21625 18.6705C1.28663 18.741 1.37034 18.7967 1.46249 18.8345C1.55465 18.8722 1.65341 18.8913 1.75299 18.8905C1.85258 18.8897 1.95101 18.869 2.04253 18.8297C2.13405 18.7904 2.21682 18.7333 2.28604 18.6617L4.06606 16.8817H7.03804C7.03004 16.9657 7.00505 17.0467 7.00505 17.1317C7.00505 17.8611 7.29478 18.5606 7.8105 19.0763C8.32623 19.592 9.02571 19.8817 9.75505 19.8817C10.4844 19.8817 11.1839 19.592 11.6996 19.0763C12.2153 18.5606 12.5051 17.8611 12.5051 17.1317C12.5051 17.0467 12.48 16.9657 12.472 16.8817H16.4501C16.8119 16.8808 17.1671 16.7842 17.4795 16.6016C17.7919 16.4189 18.0503 16.1567 18.2285 15.8418C18.4067 15.5269 18.4983 15.1703 18.494 14.8085C18.4897 14.4466 18.3897 14.0924 18.2041 13.7817L17.103 11.9348ZM11.003 17.1348C11.003 17.4663 10.8713 17.7843 10.6369 18.0187C10.4025 18.2531 10.0846 18.3848 9.75304 18.3848C9.42152 18.3848 9.10358 18.2531 8.86916 18.0187C8.63474 17.7843 8.50304 17.4663 8.50304 17.1348C8.50546 17.0505 8.51654 16.9668 8.53606 16.8848H10.97C10.9886 16.9669 10.9986 17.0506 11 17.1348H11.003ZM16.927 15.1088C16.8803 15.1932 16.8115 15.2632 16.728 15.3116C16.6446 15.3601 16.5495 15.3851 16.453 15.3838H5.56004L14.8891 6.05481C14.9628 6.40637 15 6.76457 15 7.12378V9.75378C14.9988 10.7946 15.2809 11.8161 15.8161 12.7087L16.916 14.5487C16.9679 14.6326 16.9961 14.729 16.9975 14.8276C16.9989 14.9263 16.9735 15.0234 16.9241 15.1088H16.927ZM1.62705 13.2297L2.39705 11.9398C2.79244 11.2794 2.99992 10.5235 2.99706 9.75378V7.12378C3.00162 5.85787 3.36137 4.61866 4.03542 3.54712C4.70947 2.47558 5.67074 1.61471 6.80986 1.0625C7.94898 0.510286 9.22025 0.288883 10.479 0.423462C11.7377 0.558041 12.9334 1.04317 13.93 1.82373C14.0083 1.88424 14.0739 1.95969 14.1229 2.04565C14.1719 2.13162 14.2035 2.22638 14.2157 2.32458C14.2279 2.42279 14.2206 2.52244 14.1941 2.6178C14.1676 2.71315 14.1225 2.8024 14.0614 2.88025C14.0004 2.9581 13.9244 3.02303 13.8381 3.07141C13.7518 3.1198 13.6567 3.15062 13.5585 3.16211C13.4602 3.17359 13.3606 3.16549 13.2654 3.13831C13.1703 3.11112 13.0814 3.06545 13.004 3.00378C12.2289 2.39651 11.2988 2.01887 10.3197 1.91394C9.3406 1.80901 8.35167 1.98093 7.46541 2.41016C6.57915 2.83938 5.8311 3.50877 5.30635 4.34204C4.7816 5.17531 4.50122 6.13906 4.49706 7.12378V9.75378C4.4985 10.7955 4.21565 11.8179 3.67903 12.7108L2.91106 13.9978C2.8626 14.0861 2.79685 14.1636 2.71774 14.226C2.63864 14.2883 2.54779 14.334 2.45062 14.3605C2.35346 14.3869 2.25196 14.3936 2.15218 14.38C2.0524 14.3664 1.95638 14.3328 1.86986 14.2812C1.78333 14.2297 1.70807 14.1613 1.64856 14.0801C1.58905 13.9988 1.5465 13.9064 1.52347 13.8083C1.50044 13.7103 1.49739 13.6086 1.5145 13.5094C1.5316 13.4102 1.56852 13.3154 1.62305 13.2307L1.62705 13.2297Z" fill="#484848"/>
</svg>
