<svg width="14" height="17" viewBox="0 0 14 17" fill="none" xmlns="http://www.w3.org/2000/svg">
<path d="M13.7308 4.08621V15.5618C13.7309 15.8036 13.6643 16.0407 13.5382 16.2475C13.4122 16.4544 13.2316 16.6231 13.0159 16.7352C12.8002 16.8474 12.5576 16.8987 12.3146 16.8837C12.0716 16.8687 11.8374 16.7879 11.6373 16.6501L7.31445 13.678C7.24013 13.6269 7.1519 13.5995 7.06153 13.5995C6.97116 13.5995 6.88295 13.6269 6.80864 13.678L2.48929 16.6501C2.28924 16.7877 2.0551 16.8684 1.81222 16.8833C1.56935 16.8982 1.327 16.8467 1.11145 16.7346C0.895891 16.6225 0.715323 16.4538 0.589339 16.2471C0.463355 16.0404 0.396754 15.8034 0.396729 15.5618V4.08621C0.39814 3.03311 0.820034 2.0236 1.56991 1.27895C2.31979 0.534299 3.33645 0.115293 4.39694 0.113892H9.73056C10.7911 0.115293 11.8077 0.534299 12.5576 1.27895C13.3075 2.0236 13.7294 3.03311 13.7308 4.08621Z" fill="#5DB05A"/>
</svg>
