<svg width="16" height="20" viewBox="0 0 16 20" fill="none" xmlns="http://www.w3.org/2000/svg">
<path d="M10.75 0.384766H4.75C3.49071 0.386353 2.28346 0.887317 1.39301 1.77777C0.502551 2.66822 0.00158768 3.87547 0 5.13477V18.1348C4.10578e-05 18.4542 0.0875146 18.7675 0.25293 19.0408C0.418345 19.314 0.655388 19.5368 0.938385 19.6849C1.22138 19.8331 1.53952 19.901 1.85834 19.8812C2.17715 19.8614 2.48449 19.7547 2.74701 19.5728L7.60599 16.2058C7.64794 16.177 7.69764 16.1616 7.7485 16.1616C7.79937 16.1616 7.84904 16.177 7.89099 16.2058L12.754 19.5728C13.0165 19.7545 13.3237 19.8609 13.6424 19.8805C13.9611 19.9001 14.279 19.8322 14.5618 19.6841C14.8447 19.536 15.0816 19.3134 15.247 19.0403C15.4123 18.7672 15.4998 18.454 15.5 18.1348V5.13477C15.4984 3.87547 14.9974 2.66822 14.107 1.77777C13.2165 0.887317 12.0093 0.386353 10.75 0.384766ZM14 18.1348C14.0011 18.1807 13.9891 18.226 13.9654 18.2654C13.9417 18.3047 13.9072 18.3364 13.866 18.3568C13.8259 18.3795 13.7801 18.39 13.7341 18.3872C13.6882 18.3844 13.644 18.3683 13.607 18.3408L8.74399 14.9738C8.45093 14.7718 8.10342 14.6636 7.7475 14.6636C7.39158 14.6636 7.04407 14.7718 6.75101 14.9738L1.892 18.3397C1.85488 18.3654 1.81152 18.3806 1.76651 18.3835C1.7215 18.3865 1.67651 18.3772 1.63632 18.3567C1.59614 18.3362 1.56224 18.3053 1.53824 18.2671C1.51424 18.2289 1.50103 18.1849 1.5 18.1398V5.13977C1.50106 4.27814 1.8438 3.4521 2.45306 2.84283C3.06233 2.23357 3.88837 1.89083 4.75 1.88977H10.75C11.6116 1.89083 12.4377 2.23357 13.0469 2.84283C13.6562 3.4521 13.9989 4.27814 14 5.13977V18.1398V18.1348Z" fill="#484848"/>
</svg>
