<svg width="20" height="20" viewBox="0 0 20 20" fill="none" xmlns="http://www.w3.org/2000/svg">
<path d="M15.0112 1.38477H14.7612V1.13477C14.7612 0.935853 14.6822 0.745144 14.5416 0.604492C14.4009 0.46384 14.2101 0.384766 14.0112 0.384766C13.8123 0.384766 13.6215 0.46384 13.4809 0.604492C13.3402 0.745144 13.2612 0.935853 13.2612 1.13477V1.38477H6.76123V1.13477C6.76123 0.935853 6.68222 0.745144 6.54156 0.604492C6.40091 0.46384 6.21014 0.384766 6.01123 0.384766C5.81232 0.384766 5.62155 0.46384 5.4809 0.604492C5.34024 0.745144 5.26123 0.935853 5.26123 1.13477V1.38477H5.01123C3.75194 1.38635 2.54469 1.88726 1.65424 2.77771C0.763782 3.66816 0.262818 4.87547 0.26123 6.13477V15.1348C0.262818 16.3941 0.763782 17.6014 1.65424 18.4918C2.54469 19.3823 3.75194 19.8832 5.01123 19.8848H15.0112C16.2705 19.8832 17.4778 19.3823 18.3682 18.4918C19.2587 17.6014 19.7596 16.3941 19.7612 15.1348V6.13477C19.7596 4.87547 19.2587 3.66816 18.3682 2.77771C17.4778 1.88726 16.2705 1.38635 15.0112 1.38477ZM5.01123 2.88477H5.26123V4.13477C5.26123 4.33368 5.34024 4.52439 5.4809 4.66504C5.62155 4.80569 5.81232 4.88477 6.01123 4.88477C6.21014 4.88477 6.40091 4.80569 6.54156 4.66504C6.68222 4.52439 6.76123 4.33368 6.76123 4.13477V2.88477H13.2612V4.13477C13.2612 4.33368 13.3402 4.52439 13.4809 4.66504C13.6215 4.80569 13.8123 4.88477 14.0112 4.88477C14.2101 4.88477 14.4009 4.80569 14.5416 4.66504C14.6822 4.52439 14.7612 4.33368 14.7612 4.13477V2.88477H15.0112C15.8729 2.88582 16.6989 3.22863 17.3082 3.83789C17.9174 4.44715 18.2602 5.27314 18.2612 6.13477V6.38477H1.76123V6.13477C1.76229 5.27314 2.10503 4.44715 2.71429 3.83789C3.32356 3.22863 4.1496 2.88582 5.01123 2.88477ZM15.0112 18.3848H5.01123C4.1496 18.3837 3.32356 18.0409 2.71429 17.4316C2.10503 16.8224 1.76229 15.9964 1.76123 15.1348V7.88477H18.2612V15.1348C18.2602 15.9964 17.9174 16.8224 17.3082 17.4316C16.6989 18.0409 15.8729 18.3837 15.0112 18.3848ZM15.0112 11.1348C15.0112 11.3325 14.9526 11.5259 14.8427 11.6903C14.7328 11.8548 14.5766 11.9829 14.3939 12.0586C14.2112 12.1343 14.0101 12.1542 13.8161 12.1156C13.6222 12.077 13.444 11.9818 13.3041 11.8419C13.1643 11.7021 13.069 11.5238 13.0305 11.3298C12.9919 11.1359 13.0117 10.9348 13.0873 10.7521C13.163 10.5693 13.2912 10.4132 13.4557 10.3033C13.6201 10.1935 13.8134 10.1348 14.0112 10.1348C14.2764 10.1348 14.5308 10.2401 14.7183 10.4276C14.9059 10.6151 15.0112 10.8695 15.0112 11.1348ZM11.0112 11.1348C11.0112 11.3325 10.9526 11.5259 10.8427 11.6903C10.7328 11.8548 10.5766 11.9829 10.3939 12.0586C10.2112 12.1343 10.0101 12.1542 9.81613 12.1156C9.62215 12.077 9.44399 11.9818 9.30414 11.8419C9.16429 11.7021 9.06904 11.5238 9.03046 11.3298C8.99187 11.1359 9.01165 10.9348 9.08734 10.7521C9.16303 10.5693 9.29121 10.4132 9.45566 10.3033C9.62011 10.1935 9.81345 10.1348 10.0112 10.1348C10.2764 10.1348 10.5308 10.2401 10.7183 10.4276C10.9059 10.6151 11.0112 10.8695 11.0112 11.1348ZM7.01123 11.1348C7.01123 11.3325 6.95259 11.5259 6.84271 11.6903C6.73283 11.8548 6.57665 11.9829 6.39392 12.0586C6.21119 12.1343 6.01011 12.1542 5.81613 12.1156C5.62215 12.077 5.44399 11.9818 5.30414 11.8419C5.16429 11.7021 5.06904 11.5238 5.03046 11.3298C4.99187 11.1359 5.01165 10.9348 5.08734 10.7521C5.16303 10.5693 5.29121 10.4132 5.45566 10.3033C5.62011 10.1935 5.81345 10.1348 6.01123 10.1348C6.27645 10.1348 6.53079 10.2401 6.71832 10.4276C6.90586 10.6151 7.01123 10.8695 7.01123 11.1348ZM15.0112 15.1348C15.0112 15.3325 14.9526 15.5259 14.8427 15.6903C14.7328 15.8548 14.5766 15.9829 14.3939 16.0586C14.2112 16.1343 14.0101 16.1542 13.8161 16.1156C13.6222 16.077 13.444 15.9818 13.3041 15.8419C13.1643 15.7021 13.069 15.5238 13.0305 15.3298C12.9919 15.1359 13.0117 14.9348 13.0873 14.7521C13.163 14.5693 13.2912 14.4132 13.4557 14.3033C13.6201 14.1935 13.8134 14.1348 14.0112 14.1348C14.2764 14.1348 14.5308 14.2401 14.7183 14.4276C14.9059 14.6151 15.0112 14.8695 15.0112 15.1348ZM11.0112 15.1348C11.0112 15.3325 10.9526 15.5259 10.8427 15.6903C10.7328 15.8548 10.5766 15.9829 10.3939 16.0586C10.2112 16.1343 10.0101 16.1542 9.81613 16.1156C9.62215 16.077 9.44399 15.9818 9.30414 15.8419C9.16429 15.7021 9.06904 15.5238 9.03046 15.3298C8.99187 15.1359 9.01165 14.9348 9.08734 14.7521C9.16303 14.5693 9.29121 14.4132 9.45566 14.3033C9.62011 14.1935 9.81345 14.1348 10.0112 14.1348C10.2764 14.1348 10.5308 14.2401 10.7183 14.4276C10.9059 14.6151 11.0112 14.8695 11.0112 15.1348ZM7.01123 15.1348C7.01123 15.3325 6.95259 15.5259 6.84271 15.6903C6.73283 15.8548 6.57665 15.9829 6.39392 16.0586C6.21119 16.1343 6.01011 16.1542 5.81613 16.1156C5.62215 16.077 5.44399 15.9818 5.30414 15.8419C5.16429 15.7021 5.06904 15.5238 5.03046 15.3298C4.99187 15.1359 5.01165 14.9348 5.08734 14.7521C5.16303 14.5693 5.29121 14.4132 5.45566 14.3033C5.62011 14.1935 5.81345 14.1348 6.01123 14.1348C6.27645 14.1348 6.53079 14.2401 6.71832 14.4276C6.90586 14.6151 7.01123 14.8695 7.01123 15.1348Z" fill="#484848"/>
</svg>
