<svg width="20" height="21" viewBox="0 0 20 21" fill="none" xmlns="http://www.w3.org/2000/svg">
<path d="M19.7598 6.47827C19.7553 5.26344 19.2869 4.09637 18.4505 3.21533C17.6141 2.33429 16.4727 1.80584 15.2598 1.73828V1.53833C15.2598 1.27311 15.1544 1.01884 14.9669 0.831299C14.7793 0.643762 14.525 0.53833 14.2598 0.53833C13.9945 0.53833 13.7402 0.643762 13.5527 0.831299C13.3651 1.01884 13.2598 1.27311 13.2598 1.53833V1.70825H7.25977V1.53833C7.25977 1.27311 7.15439 1.01884 6.96686 0.831299C6.77932 0.643762 6.52498 0.53833 6.25977 0.53833C5.99455 0.53833 5.74021 0.643762 5.55267 0.831299C5.36514 1.01884 5.25977 1.27311 5.25977 1.53833V1.73828C4.0468 1.80584 2.90546 2.33429 2.06903 3.21533C1.2326 4.09637 0.76426 5.26344 0.759766 6.47827V8.36841C0.761641 8.39928 0.76838 8.4295 0.779755 8.45825C0.767281 8.48312 0.760463 8.51052 0.759766 8.53833V15.5383C0.761617 16.7312 1.23632 17.8747 2.07983 18.7183C2.92335 19.5618 4.06686 20.0365 5.25977 20.0383H15.2598C16.4527 20.0365 17.5962 19.5618 18.4397 18.7183C19.2832 17.8747 19.7579 16.7312 19.7598 15.5383V8.53833C19.7591 8.51052 19.7523 8.48312 19.7398 8.45825C19.7512 8.4295 19.7579 8.39928 19.7598 8.36841V6.47827ZM6.25977 16.5383C6.06198 16.5383 5.86864 16.4798 5.70419 16.3699C5.53974 16.26 5.41156 16.1036 5.33588 15.9209C5.26019 15.7382 5.24041 15.5372 5.27899 15.3433C5.31758 15.1493 5.41282 14.9712 5.55267 14.8313C5.69253 14.6914 5.87069 14.5962 6.06467 14.5576C6.25865 14.519 6.45973 14.5388 6.64246 14.6145C6.82518 14.6902 6.98137 14.8182 7.09125 14.9827C7.20113 15.1471 7.25977 15.3405 7.25977 15.5383C7.25977 15.8035 7.15439 16.0578 6.96686 16.2454C6.77932 16.4329 6.52498 16.5383 6.25977 16.5383ZM6.25977 12.5383C6.06198 12.5383 5.86864 12.4798 5.70419 12.3699C5.53974 12.26 5.41156 12.1036 5.33588 11.9209C5.26019 11.7382 5.24041 11.5372 5.27899 11.3433C5.31758 11.1493 5.41282 10.9712 5.55267 10.8313C5.69253 10.6914 5.87069 10.5962 6.06467 10.5576C6.25865 10.519 6.45973 10.5388 6.64246 10.6145C6.82518 10.6902 6.98137 10.8182 7.09125 10.9827C7.20113 11.1471 7.25977 11.3405 7.25977 11.5383C7.25977 11.8035 7.15439 12.0578 6.96686 12.2454C6.77932 12.4329 6.52498 12.5383 6.25977 12.5383ZM10.2598 16.5383C10.062 16.5383 9.86864 16.4798 9.70419 16.3699C9.53974 16.26 9.41156 16.1036 9.33588 15.9209C9.26019 15.7382 9.24041 15.5372 9.27899 15.3433C9.31758 15.1493 9.41282 14.9712 9.55267 14.8313C9.69253 14.6914 9.87069 14.5962 10.0647 14.5576C10.2586 14.519 10.4597 14.5388 10.6425 14.6145C10.8252 14.6902 10.9814 14.8182 11.0912 14.9827C11.2011 15.1471 11.2598 15.3405 11.2598 15.5383C11.2598 15.8035 11.1544 16.0578 10.9669 16.2454C10.7793 16.4329 10.525 16.5383 10.2598 16.5383ZM10.2598 12.5383C10.062 12.5383 9.86864 12.4798 9.70419 12.3699C9.53974 12.26 9.41156 12.1036 9.33588 11.9209C9.26019 11.7382 9.24041 11.5372 9.27899 11.3433C9.31758 11.1493 9.41282 10.9712 9.55267 10.8313C9.69253 10.6914 9.87069 10.5962 10.0647 10.5576C10.2586 10.519 10.4597 10.5388 10.6425 10.6145C10.8252 10.6902 10.9814 10.8182 11.0912 10.9827C11.2011 11.1471 11.2598 11.3405 11.2598 11.5383C11.2598 11.8035 11.1544 12.0578 10.9669 12.2454C10.7793 12.4329 10.525 12.5383 10.2598 12.5383ZM14.2598 16.5383C14.062 16.5383 13.8686 16.4798 13.7042 16.3699C13.5397 16.26 13.4116 16.1036 13.3359 15.9209C13.2602 15.7382 13.2404 15.5372 13.279 15.3433C13.3176 15.1493 13.4128 14.9712 13.5527 14.8313C13.6925 14.6914 13.8707 14.5962 14.0647 14.5576C14.2586 14.519 14.4597 14.5388 14.6425 14.6145C14.8252 14.6902 14.9814 14.8182 15.0912 14.9827C15.2011 15.1471 15.2598 15.3405 15.2598 15.5383C15.2598 15.8035 15.1544 16.0578 14.9669 16.2454C14.7793 16.4329 14.525 16.5383 14.2598 16.5383ZM14.2598 12.5383C14.062 12.5383 13.8686 12.4798 13.7042 12.3699C13.5397 12.26 13.4116 12.1036 13.3359 11.9209C13.2602 11.7382 13.2404 11.5372 13.279 11.3433C13.3176 11.1493 13.4128 10.9712 13.5527 10.8313C13.6925 10.6914 13.8707 10.5962 14.0647 10.5576C14.2586 10.519 14.4597 10.5388 14.6425 10.6145C14.8252 10.6902 14.9814 10.8182 15.0912 10.9827C15.2011 11.1471 15.2598 11.3405 15.2598 11.5383C15.2598 11.8035 15.1544 12.0578 14.9669 12.2454C14.7793 12.4329 14.525 12.5383 14.2598 12.5383ZM17.7598 8.03833H2.75977V6.47827C2.76146 5.78497 3.02346 5.1177 3.49387 4.6084C3.96427 4.0991 4.60879 3.78492 5.29977 3.72827C5.3405 3.95391 5.45867 4.15829 5.63391 4.30615C5.80915 4.45401 6.03049 4.53616 6.25977 4.53833C6.49284 4.53473 6.71733 4.44989 6.89444 4.29834C7.07155 4.14679 7.19017 3.93797 7.22977 3.70825H13.2898C13.3294 3.93797 13.448 4.14679 13.6251 4.29834C13.8022 4.44989 14.0267 4.53473 14.2598 4.53833C14.489 4.53616 14.7104 4.45401 14.8856 4.30615C15.0609 4.15829 15.179 3.95391 15.2198 3.72827C15.9101 3.78648 16.5537 4.10115 17.0238 4.61011C17.4939 5.11907 17.7565 5.78544 17.7598 6.47827V8.03833Z" fill="#5DB05A"/>
</svg>
