<svg width="20" height="18" viewBox="0 0 20 18" fill="none" xmlns="http://www.w3.org/2000/svg">
<path d="M15.424 3.40173L14.224 1.60877C13.9732 1.2317 13.6331 0.922478 13.2339 0.708741C12.8347 0.495004 12.3888 0.383418 11.9359 0.38379H8.07697C7.62414 0.383418 7.17826 0.495004 6.77905 0.708741C6.37984 0.922478 6.03972 1.2317 5.78897 1.60877L4.58896 3.40173C3.40569 3.50639 2.30442 4.05007 1.5018 4.92578C0.699184 5.8015 0.253329 6.94591 0.251953 8.13379V13.1338C0.253541 14.3931 0.754505 15.6003 1.64496 16.4907C2.53541 17.3812 3.74266 17.8822 5.00195 17.8838H15.002C16.2612 17.8822 17.4685 17.3812 18.3589 16.4907C19.2494 15.6003 19.7504 14.3931 19.752 13.1338V8.13379C19.7501 6.94752 19.3053 5.80468 18.5046 4.92932C17.704 4.05397 16.6053 3.50917 15.424 3.40173ZM18.261 13.1348C18.2599 13.9964 17.9172 14.8224 17.3079 15.4316C16.6986 16.0409 15.8726 16.3837 15.011 16.3848H5.01096C4.14933 16.3837 3.32328 16.0409 2.71402 15.4316C2.10476 14.8224 1.76201 13.9964 1.76096 13.1348V8.13477C1.76201 7.27314 2.10476 6.44716 2.71402 5.83789C3.32328 5.22863 4.14933 4.88583 5.01096 4.88477C5.13444 4.88485 5.25603 4.85442 5.3649 4.79614C5.47377 4.73787 5.56653 4.65358 5.63495 4.55078L7.04095 2.44177C7.1548 2.27024 7.30936 2.12955 7.49084 2.03235C7.67233 1.93515 7.87509 1.88446 8.08096 1.88477H11.9399C12.1458 1.88446 12.3486 1.93515 12.5301 2.03235C12.7115 2.12955 12.8661 2.27024 12.9799 2.44177L14.386 4.55078C14.4545 4.65345 14.5473 4.73764 14.6561 4.7959C14.765 4.85416 14.8865 4.88467 15.0099 4.88477C15.8716 4.88583 16.6976 5.22863 17.3069 5.83789C17.9161 6.44716 18.2589 7.27314 18.2599 8.13477V13.1348H18.261ZM10.011 6.38477C9.26928 6.38477 8.54427 6.60467 7.92758 7.01672C7.3109 7.42878 6.83025 8.01448 6.54642 8.69971C6.26259 9.38493 6.18831 10.1389 6.33301 10.8663C6.4777 11.5938 6.83487 12.2619 7.35931 12.7864C7.88376 13.3108 8.55193 13.6681 9.27936 13.8127C10.0068 13.9574 10.7608 13.8832 11.446 13.5994C12.1312 13.3155 12.7169 12.8348 13.129 12.2181C13.541 11.6015 13.761 10.8764 13.761 10.1348C13.7599 9.14053 13.3645 8.18729 12.6614 7.48425C11.9584 6.78122 11.0052 6.38583 10.011 6.38477ZM10.011 12.3848C9.56595 12.3848 9.13094 12.2528 8.76093 12.0056C8.39091 11.7584 8.10252 11.407 7.93222 10.9959C7.76192 10.5847 7.71738 10.1323 7.8042 9.6958C7.89102 9.25934 8.10528 8.85849 8.41995 8.54382C8.73462 8.22916 9.13553 8.0148 9.57199 7.92798C10.0084 7.84116 10.4608 7.88573 10.872 8.05603C11.2831 8.22633 11.6345 8.51476 11.8818 8.88477C12.129 9.25478 12.261 9.68976 12.261 10.1348C12.2604 10.7313 12.0232 11.3034 11.6013 11.7252C11.1795 12.1471 10.6075 12.3842 10.011 12.3848ZM17.011 7.13477C17.011 7.33255 16.9523 7.52586 16.8424 7.69031C16.7326 7.85476 16.5764 7.98291 16.3936 8.05859C16.2109 8.13428 16.0098 8.15419 15.8159 8.1156C15.6219 8.07702 15.4437 7.98177 15.3039 7.84192C15.164 7.70207 15.0688 7.52382 15.0302 7.32983C14.9916 7.13585 15.0114 6.9348 15.0871 6.75208C15.1628 6.56935 15.2909 6.41323 15.4554 6.30335C15.6198 6.19346 15.8132 6.13477 16.011 6.13477C16.2762 6.13477 16.5305 6.24008 16.718 6.42761C16.9056 6.61515 17.011 6.86955 17.011 7.13477Z" fill="#484848"/>
</svg>
