<svg width="20" height="18" viewBox="0 0 20 18" fill="none" xmlns="http://www.w3.org/2000/svg">
<path d="M12.2598 9.53833C12.2598 9.93389 12.1425 10.3205 11.9227 10.6494C11.7029 10.9783 11.3906 11.2346 11.0251 11.386C10.6597 11.5374 10.2576 11.5772 9.8696 11.5C9.48164 11.4228 9.12526 11.2323 8.84555 10.9526C8.56585 10.6729 8.37536 10.3164 8.29819 9.92847C8.22102 9.5405 8.26064 9.1384 8.41202 8.77295C8.56339 8.4075 8.81972 8.09525 9.14862 7.87549C9.47752 7.65573 9.8642 7.53833 10.2598 7.53833C10.7897 7.53991 11.2975 7.75125 11.6722 8.12598C12.047 8.50071 12.2582 9.00838 12.2598 9.53833ZM19.7598 7.53833V12.5383C19.7579 13.7312 19.2832 14.8747 18.4397 15.7183C17.5962 16.5618 16.4527 17.0365 15.2598 17.0383H5.25977C4.06686 17.0365 2.92335 16.5618 2.07983 15.7183C1.23632 14.8747 0.761617 13.7312 0.759766 12.5383V7.53833C0.760248 6.39192 1.19826 5.28902 1.98438 4.45459C2.77049 3.62016 3.84543 3.11712 4.98978 3.04834L6.24976 1.14844C6.4793 0.807481 6.78896 0.527987 7.15158 0.334473C7.5142 0.140958 7.91875 0.039217 8.32977 0.0383301H12.1898C12.6008 0.0391302 13.0054 0.140706 13.368 0.334229C13.7306 0.527751 14.0403 0.807419 14.2698 1.14844L15.5298 3.04834C16.6741 3.11712 17.749 3.62016 18.5352 4.45459C19.3213 5.28902 19.7593 6.39192 19.7598 7.53833ZM14.2598 9.53833C14.2598 8.7472 14.0252 7.97396 13.5856 7.31616C13.1461 6.65837 12.5214 6.14552 11.7905 5.84277C11.0596 5.54002 10.2553 5.46089 9.4794 5.61523C8.70348 5.76958 7.99075 6.15055 7.43134 6.70996C6.87193 7.26937 6.49098 7.98213 6.33664 8.75806C6.1823 9.53398 6.26149 10.3382 6.56424 11.0691C6.86699 11.8 7.37968 12.4247 8.03748 12.8643C8.69527 13.3038 9.46864 13.5383 10.2598 13.5383C11.3206 13.5383 12.338 13.1168 13.0882 12.3667C13.8383 11.6166 14.2598 10.5992 14.2598 9.53833ZM17.2598 6.53833C17.2598 6.34055 17.2011 6.14712 17.0912 5.98267C16.9814 5.81822 16.8252 5.69019 16.6425 5.6145C16.4597 5.53881 16.2586 5.51903 16.0647 5.55762C15.8707 5.5962 15.6925 5.69145 15.5527 5.8313C15.4128 5.97115 15.3176 6.14928 15.279 6.34326C15.2404 6.53724 15.2602 6.73817 15.3359 6.9209C15.4116 7.10362 15.5397 7.25999 15.7042 7.36987C15.8686 7.47975 16.062 7.53833 16.2598 7.53833C16.525 7.53833 16.7793 7.4329 16.9669 7.24536C17.1544 7.05783 17.2598 6.80355 17.2598 6.53833Z" fill="#5DB05A"/>
</svg>
