<svg width="21" height="21" viewBox="0 0 21 21" fill="none" xmlns="http://www.w3.org/2000/svg">
<path d="M20.2099 8.46921C19.8208 6.52436 18.8649 4.73837 17.4624 3.33591C16.0599 1.93345 14.2737 0.977405 12.3288 0.588348C11.9652 0.51559 11.5899 0.524244 11.23 0.613982C10.8702 0.703721 10.5347 0.872148 10.2478 1.10715C9.96086 1.34215 9.72956 1.63799 9.57067 1.97311C9.41178 2.30824 9.32918 2.67449 9.32885 3.04538V8.46921C9.32885 9.26486 9.64496 10.0279 10.2076 10.5905C10.7702 11.1532 11.5332 11.4692 12.3288 11.4692H17.7529C18.1237 11.4689 18.4899 11.3864 18.8251 11.2275C19.1602 11.0686 19.4559 10.8374 19.6909 10.5505C19.9259 10.2636 20.0943 9.92795 20.1841 9.56808C20.2738 9.20822 20.2826 8.83288 20.2099 8.46921ZM18.1449 9.2822C18.0978 9.34084 18.0381 9.38825 17.9703 9.42062C17.9024 9.453 17.8281 9.46952 17.7529 9.46921H12.3288C12.0636 9.46921 11.8093 9.36402 11.6218 9.17648C11.4342 8.98895 11.3288 8.73442 11.3288 8.46921V3.04538C11.3294 2.91228 11.382 2.78468 11.4755 2.68991C11.5689 2.59514 11.6958 2.54065 11.8288 2.5383C11.8625 2.53845 11.896 2.54212 11.9289 2.54929C13.4871 2.86082 14.9182 3.62658 16.0419 4.75021C17.1655 5.87385 17.9313 7.30503 18.2429 8.86325C18.2587 8.93598 18.2582 9.01146 18.2413 9.08395C18.2243 9.15644 18.1914 9.22406 18.1449 9.2822ZM17.9969 13.4763C18.0902 13.6149 18.1481 13.7743 18.1655 13.9404C18.183 14.1065 18.1593 14.2745 18.0969 14.4294C17.4315 16.0914 16.2818 17.5148 14.797 18.5149C13.3123 19.5149 11.561 20.0454 9.77087 20.0373C9.45022 20.037 9.12985 20.0202 8.8109 19.9873C6.77111 19.7502 4.87112 18.8312 3.41906 17.3791C1.967 15.9271 1.04798 14.0271 0.810905 11.9873C0.595334 10.0445 1.02228 8.08474 2.02642 6.40768C3.03056 4.73062 4.55658 3.42876 6.3709 2.70138C6.52586 2.63907 6.69369 2.6156 6.85979 2.63303C7.0259 2.65046 7.18526 2.70811 7.32391 2.80124C7.45855 2.89272 7.5688 3.01586 7.64513 3.15964C7.72146 3.30341 7.76155 3.46341 7.76189 3.62619V10.5383C7.76189 11.2013 8.02529 11.8373 8.49413 12.3061C8.96297 12.775 9.59885 13.0383 10.2619 13.0383H17.1739C17.3363 13.039 17.4961 13.0792 17.6395 13.1555C17.7829 13.2318 17.9056 13.3419 17.9969 13.4763Z" fill="#5DB05A"/>
</svg>
