<svg width="20" height="20" viewBox="0 0 20 20" fill="none" xmlns="http://www.w3.org/2000/svg">
<path d="M19.7159 8.11372C19.3361 6.21726 18.4037 4.47564 17.0359 3.1081C15.6682 1.74057 13.9264 0.808218 12.0299 0.42866C11.7025 0.363129 11.3647 0.371064 11.0408 0.451853C10.7168 0.532642 10.4148 0.684361 10.1566 0.895945C9.89829 1.10753 9.69019 1.37377 9.54724 1.67549C9.40429 1.9772 9.33006 2.30683 9.3299 2.6407V8.06477C9.33069 8.79387 9.62068 9.49282 10.1362 10.0084C10.6518 10.5239 11.3508 10.814 12.0799 10.8148H17.5039C17.8377 10.8144 18.1673 10.74 18.4689 10.597C18.7706 10.454 19.0367 10.246 19.2483 9.98774C19.4598 9.72952 19.6115 9.42758 19.6924 9.10371C19.7732 8.77984 19.7813 8.44205 19.7159 8.1147V8.11372ZM18.088 9.03767C18.0175 9.12459 17.9284 9.19465 17.8274 9.24275C17.7264 9.29084 17.6158 9.31584 17.5039 9.31574H12.0799C11.7485 9.31522 11.431 9.18335 11.1967 8.94905C10.9623 8.71474 10.8304 8.3971 10.8299 8.06574V2.64167C10.8304 2.44133 10.9103 2.2494 11.0519 2.10774C11.1936 1.96607 11.3856 1.88622 11.5859 1.88569C11.6357 1.88562 11.6853 1.89067 11.7339 1.90071C13.3406 2.222 14.8162 3.01163 15.9749 4.17011C17.1335 5.3286 17.9234 6.80411 18.2449 8.41072C18.2666 8.51986 18.2638 8.63251 18.2366 8.74043C18.2095 8.84834 18.1587 8.94886 18.088 9.03474V9.03767ZM18.3489 13.3537C17.8805 14.8783 17.0258 16.2558 15.8678 17.3525C14.7098 18.4491 13.2878 19.2276 11.7401 19.6124C10.1923 19.9972 8.57129 19.9752 7.03455 19.5485C5.4978 19.1218 4.09753 18.3049 2.96973 17.1772C1.84192 16.0495 1.02491 14.6493 0.598083 13.1126C0.171254 11.5759 0.149084 9.95498 0.533752 8.40718C0.91842 6.85937 1.69684 5.43736 2.7934 4.27925C3.88996 3.12114 5.26742 2.26622 6.79193 1.79768C6.88615 1.76892 6.98513 1.75902 7.08319 1.7685C7.18125 1.77799 7.27644 1.80669 7.3634 1.85298C7.45037 1.89927 7.5274 1.96223 7.59003 2.03828C7.65266 2.11432 7.6997 2.20199 7.72845 2.29621C7.75721 2.39044 7.76712 2.48942 7.75763 2.58747C7.74814 2.68553 7.71945 2.78078 7.67316 2.86775C7.62687 2.95471 7.5639 3.03168 7.48785 3.09431C7.41181 3.15694 7.32414 3.20398 7.22992 3.23274C5.95293 3.62546 4.7992 4.34172 3.88074 5.31196C2.96227 6.2822 2.31027 7.47338 1.9881 8.76997C1.66592 10.0666 1.68454 11.4244 2.04205 12.7117C2.39957 13.999 3.08385 15.172 4.0285 16.1168C4.97316 17.0615 6.14609 17.7459 7.43335 18.1036C8.72061 18.4612 10.0784 18.4799 11.3751 18.1579C12.6717 17.8359 13.863 17.1841 14.8334 16.2657C15.8037 15.3473 16.52 14.1936 16.9129 12.9167C16.9762 12.7328 17.1084 12.5807 17.2816 12.4923C17.4548 12.4038 17.6556 12.3861 17.8417 12.4427C18.0277 12.4993 18.1846 12.6259 18.2792 12.7958C18.3738 12.9658 18.3988 13.1657 18.3489 13.3537Z" fill="#484848"/>
</svg>
