<svg width="20" height="21" viewBox="0 0 20 21" fill="none" xmlns="http://www.w3.org/2000/svg">
<path d="M10 0.645264C8.0222 0.645264 6.08881 1.23175 4.44432 2.33057C2.79983 3.42938 1.51809 4.9911 0.761212 6.81836C0.00433564 8.64562 -0.193701 10.6564 0.192151 12.5962C0.578003 14.536 1.53041 16.3178 2.92894 17.7163C4.32746 19.1148 6.10931 20.0673 8.04912 20.4531C9.98892 20.839 11.9996 20.6409 13.8269 19.884C15.6541 19.1272 17.2159 17.8454 18.3147 16.2009C19.4135 14.5564 20 12.6231 20 10.6453C19.9958 7.9944 18.9409 5.4533 17.0664 3.57886C15.192 1.70441 12.6509 0.649495 10 0.645264ZM14.71 9.35522L9.71 14.3552C9.52044 14.5411 9.26553 14.6453 9.00001 14.6453C8.7345 14.6453 8.47958 14.5411 8.29002 14.3552L5.29002 11.3552C5.10172 11.1669 4.99592 10.9116 4.99592 10.6453C4.99592 10.379 5.10172 10.1236 5.29002 9.9353C5.47832 9.747 5.73371 9.64111 6.00001 9.64111C6.26631 9.64111 6.5217 9.747 6.71 9.9353L9.00001 12.2354L13.29 7.9353C13.3833 7.84206 13.4939 7.76799 13.6158 7.71753C13.7376 7.66707 13.8682 7.64111 14 7.64111C14.1319 7.64111 14.2624 7.66707 14.3843 7.71753C14.5061 7.76799 14.6168 7.84206 14.71 7.9353C14.8032 8.02854 14.8772 8.13916 14.9277 8.26099C14.9781 8.38281 15.0041 8.5134 15.0041 8.64526C15.0041 8.77712 14.9781 8.90772 14.9277 9.02954C14.8772 9.15136 14.8032 9.26199 14.71 9.35522Z" fill="#5DB05A"/>
</svg>
