<svg width="20" height="20" viewBox="0 0 20 20" fill="none" xmlns="http://www.w3.org/2000/svg">
<path d="M14.28 7.60376C14.3497 7.67341 14.405 7.75614 14.4427 7.84717C14.4804 7.93819 14.4998 8.03575 14.4998 8.13428C14.4998 8.23281 14.4804 8.33036 14.4427 8.42139C14.405 8.51241 14.3497 8.59514 14.28 8.66479L9.28 13.6648C9.2105 13.7346 9.12791 13.79 9.03695 13.8278C8.946 13.8655 8.84848 13.8849 8.75 13.8849C8.65151 13.8849 8.55399 13.8655 8.46304 13.8278C8.37209 13.79 8.2895 13.7346 8.22 13.6648L5.22 10.6648C5.15033 10.5951 5.09507 10.5124 5.05737 10.4214C5.01967 10.3304 5.00027 10.2328 5.00027 10.1343C5.00027 10.0358 5.01967 9.93819 5.05737 9.84717C5.09507 9.75614 5.15033 9.67343 5.22 9.60376C5.28967 9.53409 5.37238 9.47887 5.46341 9.44116C5.55443 9.40346 5.65196 9.38403 5.75049 9.38403C5.84901 9.38403 5.94657 9.40346 6.0376 9.44116C6.12862 9.47887 6.21134 9.53409 6.281 9.60376L8.75101 12.0737L13.221 7.60376C13.3616 7.46361 13.552 7.38489 13.7505 7.38489C13.949 7.38489 14.1394 7.46361 14.28 7.60376ZM19.5 10.1348C19.5 12.0631 18.9282 13.9483 17.8568 15.5516C16.7855 17.155 15.2627 18.4046 13.4812 19.1426C11.6996 19.8805 9.73918 20.0736 7.84787 19.6974C5.95655 19.3212 4.21927 18.3926 2.85571 17.0291C1.49215 15.6655 0.563551 13.9282 0.187346 12.0369C-0.18886 10.1456 0.00423121 8.18514 0.742186 6.40356C1.48014 4.62198 2.72981 3.0993 4.33319 2.02795C5.93657 0.95661 7.82163 0.384766 9.75 0.384766C12.335 0.387677 14.8132 1.4158 16.6411 3.24365C18.4689 5.0715 19.4971 7.5498 19.5 10.1348ZM18 10.1348C18 8.50307 17.5161 6.90798 16.6096 5.55127C15.7031 4.19456 14.4146 3.13724 12.9071 2.51282C11.3996 1.88839 9.74084 1.72501 8.1405 2.04333C6.54016 2.36166 5.07016 3.14736 3.91638 4.30115C2.7626 5.45493 1.97683 6.92493 1.65851 8.52527C1.34018 10.1256 1.50357 11.7844 2.12799 13.2919C2.75241 14.7994 3.80983 16.0879 5.16653 16.9944C6.52324 17.9009 8.1183 18.3848 9.75 18.3848C11.9373 18.3824 14.0343 17.5125 15.581 15.9658C17.1277 14.4192 17.9976 12.3221 18 10.1348Z" fill="#484848"/>
</svg>
