<svg width="20" height="20" viewBox="0 0 20 20" fill="none" xmlns="http://www.w3.org/2000/svg">
<path d="M9.98388 0.985352C8.10496 0.985352 6.26825 1.54255 4.70599 2.58643C3.14372 3.6303 1.92606 5.11396 1.20702 6.84985C0.487991 8.58575 0.299875 10.4958 0.666435 12.3386C1.03299 14.1814 1.93775 15.8743 3.26635 17.2029C4.59495 18.5315 6.28773 19.4362 8.13055 19.8027C9.97337 20.1693 11.8835 19.9812 13.6194 19.2622C15.3553 18.5432 16.839 17.3255 17.8829 15.7632C18.9267 14.2009 19.4839 12.3643 19.4839 10.4854C19.4815 7.96653 18.4799 5.55159 16.6988 3.77051C14.9177 1.98943 12.5027 0.987734 9.98388 0.985352V0.985352ZM13.6939 12.1953C13.5043 12.3812 13.2494 12.4854 12.9839 12.4854C12.7184 12.4854 12.4634 12.3812 12.2739 12.1953L9.98388 9.89526L7.6939 12.1953C7.5056 12.3836 7.25018 12.4895 6.98388 12.4895C6.71758 12.4895 6.46216 12.3836 6.27386 12.1953C6.08555 12.007 5.97979 11.7517 5.97979 11.4854C5.97979 11.219 6.08555 10.9637 6.27386 10.7754L9.27386 7.77539C9.46266 7.58804 9.71789 7.48291 9.98388 7.48291C10.2499 7.48291 10.5051 7.58804 10.6939 7.77539L13.6939 10.7754C13.8813 10.9642 13.9864 11.2194 13.9864 11.4854C13.9864 11.7513 13.8813 12.0065 13.6939 12.1953V12.1953Z" fill="#5DB05A"/>
</svg>
