<svg width="21" height="11" viewBox="0 0 21 11" fill="none" xmlns="http://www.w3.org/2000/svg">
<path d="M19.9375 10.2817C19.8679 10.3514 19.7853 10.4066 19.6943 10.4443C19.6034 10.482 19.5059 10.5015 19.4075 10.5015C19.309 10.5015 19.2115 10.482 19.1206 10.4443C19.0297 10.4066 18.947 10.3514 18.8774 10.2817L10.4075 1.81177L1.9375 10.2817C1.7968 10.4224 1.60596 10.5015 1.40698 10.5015C1.20801 10.5015 1.01716 10.4224 0.876465 10.2817C0.735767 10.141 0.656738 9.9502 0.656738 9.75122C0.656738 9.55224 0.735767 9.3614 0.876465 9.2207L9.87646 0.220703C9.94612 0.151008 10.0288 0.0957045 10.1199 0.0579834C10.2109 0.0202623 10.3085 0.000854492 10.407 0.000854492C10.5055 0.000854492 10.6031 0.0202623 10.6941 0.0579834C10.7851 0.0957045 10.8678 0.151008 10.9375 0.220703L19.9375 9.2207C20.0072 9.29035 20.0624 9.37309 20.1002 9.46411C20.1379 9.55514 20.1573 9.65269 20.1573 9.75122C20.1573 9.84975 20.1379 9.9473 20.1002 10.0383C20.0624 10.1294 20.0072 10.2121 19.9375 10.2817Z" fill="#484848"/>
</svg>
