<svg width="21" height="12" viewBox="0 0 21 12" fill="none" xmlns="http://www.w3.org/2000/svg">
<path d="M19.9375 2.28172L10.9375 11.2817C10.8679 11.3514 10.7853 11.4066 10.6943 11.4443C10.6034 11.482 10.5059 11.5014 10.4075 11.5014C10.309 11.5014 10.2115 11.482 10.1206 11.4443C10.0297 11.4066 9.94701 11.3514 9.87744 11.2817L0.877441 2.28172C0.807775 2.21205 0.752547 2.12934 0.714844 2.03831C0.677141 1.94729 0.657715 1.84973 0.657715 1.7512C0.657715 1.65268 0.677141 1.55512 0.714844 1.46409C0.752547 1.37307 0.807775 1.29035 0.877441 1.22069C0.947108 1.15102 1.02983 1.09579 1.12085 1.05809C1.21187 1.02039 1.30944 1.00096 1.40796 1.00096C1.50648 1.00096 1.60405 1.02039 1.69507 1.05809C1.78609 1.09579 1.86881 1.15102 1.93848 1.22069L10.4084 9.69066L18.8785 1.22069C18.9472 1.14707 19.03 1.08801 19.1221 1.0471C19.2141 1.0062 19.3135 0.98433 19.4142 0.982649C19.5149 0.980968 19.6149 0.999527 19.7083 1.03734C19.8016 1.07515 19.8864 1.13133 19.9575 1.20262C20.0287 1.2739 20.0847 1.35883 20.1224 1.45225C20.16 1.54568 20.1784 1.64574 20.1766 1.74644C20.1747 1.84714 20.1525 1.94647 20.1115 2.03843C20.0704 2.1304 20.0112 2.21313 19.9375 2.28172Z" fill="#484848"/>
</svg>
