<svg width="20" height="20" viewBox="0 0 20 20" fill="none" xmlns="http://www.w3.org/2000/svg">
<path d="M9.87697 0.164795C7.94861 0.164795 6.06354 0.73664 4.46017 1.80798C2.85679 2.87933 1.60712 4.40201 0.869161 6.18359C0.131207 7.96517 -0.0619151 9.92558 0.314291 11.8169C0.690497 13.7082 1.61912 15.4455 2.98269 16.8091C4.34625 18.1726 6.0835 19.1012 7.97481 19.4774C9.86613 19.8536 11.8265 19.6606 13.6081 18.9226C15.3897 18.1847 16.9124 16.935 17.9838 15.3317C19.0551 13.7283 19.627 11.8432 19.627 9.91479C19.6241 7.32983 18.5959 4.85153 16.768 3.02368C14.9402 1.19583 12.4619 0.167706 9.87697 0.164795ZM9.87697 18.1648C8.24528 18.1648 6.65024 17.6809 5.29354 16.7744C3.93683 15.8679 2.87939 14.5794 2.25496 13.0719C1.63054 11.5644 1.46715 9.90564 1.78548 8.3053C2.10381 6.70495 2.88957 5.23496 4.04336 4.08118C5.19714 2.92739 6.66713 2.14169 8.26748 1.82336C9.86782 1.50504 11.5266 1.66842 13.0341 2.29285C14.5416 2.91727 15.8301 3.97459 16.7366 5.3313C17.6431 6.688 18.127 8.2831 18.127 9.91479C18.1246 12.1021 17.2546 14.1992 15.708 15.7458C14.1613 17.2925 12.0643 18.1624 9.87697 18.1648ZM13.407 8.38379C13.4767 8.45344 13.5319 8.53617 13.5697 8.6272C13.6074 8.71822 13.6268 8.81577 13.6268 8.91431C13.6268 9.01284 13.6074 9.11039 13.5697 9.20142C13.5319 9.29244 13.4767 9.37517 13.407 9.44482L10.407 12.4448C10.3374 12.5145 10.2548 12.5697 10.1638 12.6074C10.0729 12.6451 9.97542 12.6646 9.87697 12.6646C9.77852 12.6646 9.68105 12.6451 9.59011 12.6074C9.49917 12.5697 9.41651 12.5145 9.34694 12.4448L6.34694 9.44482C6.20625 9.30413 6.12722 9.11328 6.12722 8.91431C6.12722 8.71533 6.20625 8.52449 6.34694 8.38379C6.48764 8.24309 6.67849 8.16406 6.87746 8.16406C7.07644 8.16406 7.26728 8.24309 7.40798 8.38379L9.87795 10.8538L12.348 8.38379C12.4886 8.24364 12.679 8.16492 12.8775 8.16492C13.076 8.16492 13.2664 8.24364 13.407 8.38379Z" fill="#484848"/>
</svg>
