<svg width="20" height="20" viewBox="0 0 20 20" fill="none" xmlns="http://www.w3.org/2000/svg">
<path d="M9.98339 0.985352C8.10447 0.985352 6.26776 1.54255 4.7055 2.58643C3.14323 3.6303 1.92557 5.11396 1.20654 6.84985C0.487503 8.58575 0.299387 10.4958 0.665947 12.3386C1.03251 14.1814 1.93726 15.8743 3.26586 17.2029C4.59446 18.5315 6.28724 19.4362 8.13006 19.8027C9.97288 20.1693 11.883 19.9812 13.6189 19.2622C15.3548 18.5432 16.8385 17.3255 17.8824 15.7632C18.9263 14.2009 19.4834 12.3643 19.4834 10.4854C19.481 7.96653 18.4794 5.55159 16.6983 3.77051C14.9172 1.98943 12.5022 0.987734 9.98339 0.985352ZM13.6934 10.1953L10.6934 13.1953C10.5038 13.3812 10.2489 13.4854 9.98339 13.4854C9.71788 13.4854 9.46293 13.3812 9.27337 13.1953L6.27337 10.1953C6.08506 10.007 5.9793 9.75165 5.9793 9.48535C5.9793 9.21905 6.08506 8.96369 6.27337 8.77539C6.46167 8.58709 6.71709 8.4812 6.98339 8.4812C7.24969 8.4812 7.50511 8.58709 7.69341 8.77539L9.98339 11.0754L12.2734 8.77539C12.4617 8.58709 12.7171 8.4812 12.9834 8.4812C13.2497 8.4812 13.5051 8.58709 13.6934 8.77539C13.8817 8.96369 13.9875 9.21905 13.9875 9.48535C13.9875 9.75165 13.8817 10.007 13.6934 10.1953Z" fill="#5DB05A"/>
</svg>
