<svg width="11" height="20" viewBox="0 0 11 20" fill="none" xmlns="http://www.w3.org/2000/svg">
<path d="M10.3736 18.2598C10.4453 18.3289 10.5024 18.4117 10.5417 18.5032C10.5811 18.5947 10.6018 18.693 10.6027 18.7926C10.6036 18.8922 10.5847 18.9909 10.5471 19.0831C10.5094 19.1753 10.4537 19.2591 10.3834 19.3296C10.313 19.4 10.2292 19.4558 10.1371 19.4935C10.0449 19.5313 9.9462 19.5503 9.84662 19.5494C9.74703 19.5486 9.64859 19.528 9.55707 19.4888C9.46555 19.4495 9.38276 19.3924 9.31354 19.3208L0.313538 10.3208C0.243843 10.2512 0.1886 10.1684 0.150879 10.0774C0.113158 9.98637 0.09375 9.88881 0.09375 9.79028C0.09375 9.69175 0.113158 9.5942 0.150879 9.50317C0.1886 9.41215 0.243843 9.32942 0.313538 9.25977L9.31354 0.259766C9.3832 0.190099 9.46592 0.134871 9.55695 0.097168C9.64797 0.0594649 9.74553 0.0400391 9.84406 0.0400391C9.94258 0.0400391 10.0401 0.0594649 10.1312 0.097168C10.2222 0.134871 10.3049 0.190099 10.3746 0.259766C10.4442 0.329432 10.4995 0.41215 10.5372 0.503174C10.5749 0.594197 10.5943 0.69176 10.5943 0.790283C10.5943 0.888806 10.5749 0.986369 10.5372 1.07739C10.4995 1.16842 10.4442 1.25113 10.3746 1.3208L1.90454 9.79077L10.3736 18.2598Z" fill="#484848"/>
</svg>
