<svg width="20" height="20" viewBox="0 0 20 20" fill="none" xmlns="http://www.w3.org/2000/svg">
<path d="M9.87697 0.164795C7.94861 0.164795 6.06354 0.73664 4.46017 1.80798C2.85679 2.87933 1.60712 4.40201 0.869161 6.18359C0.131207 7.96517 -0.0619151 9.92558 0.314291 11.8169C0.690497 13.7082 1.61912 15.4455 2.98269 16.8091C4.34625 18.1726 6.0835 19.1012 7.97481 19.4774C9.86613 19.8536 11.8265 19.6606 13.6081 18.9226C15.3897 18.1847 16.9124 16.935 17.9838 15.3317C19.0551 13.7283 19.627 11.8432 19.627 9.91479C19.6241 7.32983 18.5959 4.85153 16.768 3.02368C14.9402 1.19583 12.4619 0.167706 9.87697 0.164795ZM9.87697 18.1648C8.24528 18.1648 6.65024 17.6809 5.29354 16.7744C3.93683 15.8679 2.87939 14.5794 2.25496 13.0719C1.63054 11.5644 1.46715 9.90564 1.78548 8.3053C2.10381 6.70495 2.88957 5.23496 4.04336 4.08118C5.19714 2.92739 6.66713 2.14169 8.26748 1.82336C9.86782 1.50504 11.5266 1.66842 13.0341 2.29285C14.5416 2.91727 15.8301 3.97459 16.7366 5.3313C17.6431 6.688 18.127 8.2831 18.127 9.91479C18.1246 12.1021 17.2546 14.1992 15.708 15.7458C14.1613 17.2925 12.0643 18.1624 9.87697 18.1648ZM13.407 10.3838C13.4787 10.4529 13.5358 10.5357 13.5752 10.6272C13.6145 10.7187 13.6352 10.817 13.6361 10.9166C13.637 11.0162 13.6181 11.115 13.5805 11.2072C13.5428 11.2993 13.4872 11.3832 13.4168 11.4536C13.3464 11.5241 13.2626 11.5798 13.1705 11.6176C13.0783 11.6553 12.9796 11.6743 12.88 11.6735C12.7804 11.6726 12.682 11.6521 12.5905 11.6128C12.499 11.5735 12.4162 11.5164 12.3469 11.4448L9.87697 8.97485L7.407 11.4448C7.33734 11.5145 7.25462 11.5697 7.1636 11.6074C7.07257 11.6451 6.97501 11.6646 6.87649 11.6646C6.77796 11.6646 6.6804 11.6451 6.58938 11.6074C6.49835 11.5697 6.41563 11.5145 6.34597 11.4448C6.2763 11.3752 6.22107 11.2924 6.18337 11.2014C6.14567 11.1104 6.12624 11.0128 6.12624 10.9143C6.12624 10.8158 6.14567 10.7182 6.18337 10.6272C6.22107 10.5362 6.2763 10.4535 6.34597 10.3838L9.34597 7.38379C9.41562 7.31409 9.49835 7.25879 9.58938 7.22107C9.6804 7.18335 9.77795 7.16394 9.87649 7.16394C9.97502 7.16394 10.0726 7.18335 10.1636 7.22107C10.2546 7.25879 10.3374 7.31409 10.407 7.38379L13.407 10.3838Z" fill="#484848"/>
</svg>
