<svg width="20" height="20" viewBox="0 0 20 20" fill="none" xmlns="http://www.w3.org/2000/svg">
<path d="M10.1787 0.106323C8.29978 0.106323 6.46308 0.663524 4.90081 1.7074C3.33854 2.75127 2.12088 4.23493 1.40185 5.97083C0.682815 7.70672 0.4947 9.61678 0.861259 11.4596C1.22782 13.3024 2.13257 14.9953 3.46117 16.3239C4.78977 17.6525 6.48255 18.5571 8.32537 18.9237C10.1682 19.2903 12.0783 19.1022 13.8142 18.3832C15.5501 17.6641 17.0338 16.4464 18.0777 14.8842C19.1216 13.3219 19.6787 11.4852 19.6787 9.60632C19.6763 7.0875 18.6747 4.67256 16.8936 2.89148C15.1125 1.1104 12.6975 0.108706 10.1787 0.106323ZM12.8887 10.3163L9.88873 13.3163C9.69916 13.5022 9.44422 13.6063 9.1787 13.6063C8.91319 13.6063 8.65825 13.5022 8.46868 13.3163C8.28133 13.1275 8.1762 12.8723 8.1762 12.6063C8.1762 12.3403 8.28133 12.0852 8.46868 11.8964L10.7687 9.60632L8.46868 7.31628C8.28038 7.12798 8.17461 6.87262 8.17461 6.60632C8.17461 6.34002 8.28038 6.08467 8.46868 5.89636C8.65699 5.70806 8.9124 5.60217 9.1787 5.60217C9.44501 5.60217 9.70042 5.70806 9.88873 5.89636L12.8887 8.89636C13.0761 9.08517 13.1812 9.34034 13.1812 9.60632C13.1812 9.87231 13.0761 10.1275 12.8887 10.3163Z" fill="#5DB05A"/>
</svg>
