<svg width="20" height="20" viewBox="0 0 20 20" fill="none" xmlns="http://www.w3.org/2000/svg">
<path d="M10.1787 0.106323C8.29978 0.106323 6.46308 0.663524 4.90081 1.7074C3.33854 2.75127 2.12088 4.23493 1.40185 5.97083C0.682815 7.70672 0.4947 9.61678 0.861259 11.4596C1.22782 13.3024 2.13257 14.9953 3.46117 16.3239C4.78977 17.6525 6.48255 18.5571 8.32537 18.9237C10.1682 19.2903 12.0783 19.1022 13.8142 18.3832C15.5501 17.6641 17.0338 16.4464 18.0777 14.8842C19.1216 13.3219 19.6787 11.4852 19.6787 9.60632C19.6763 7.0875 18.6747 4.67256 16.8936 2.89148C15.1125 1.1104 12.6975 0.108706 10.1787 0.106323ZM11.8887 11.8964C12.0761 12.0852 12.1812 12.3403 12.1812 12.6063C12.1812 12.8723 12.0761 13.1275 11.8887 13.3163C11.6992 13.5022 11.4442 13.6063 11.1787 13.6063C10.9132 13.6063 10.6582 13.5022 10.4687 13.3163L7.46868 10.3163C7.28133 10.1275 7.1762 9.87231 7.1762 9.60632C7.1762 9.34034 7.28133 9.08517 7.46868 8.89636L10.4687 5.89636C10.657 5.70806 10.9124 5.60217 11.1787 5.60217C11.445 5.60217 11.7004 5.70806 11.8887 5.89636C12.077 6.08467 12.1828 6.34002 12.1828 6.60632C12.1828 6.87262 12.077 7.12798 11.8887 7.31628L9.58868 9.60632L11.8887 11.8964Z" fill="#5DB05A"/>
</svg>
