<svg width="11" height="20" viewBox="0 0 11 20" fill="none" xmlns="http://www.w3.org/2000/svg">
<path d="M10.3735 10.3208L1.37354 19.3208C1.23202 19.4574 1.04247 19.5328 0.845825 19.531C0.649178 19.5292 0.461135 19.4503 0.322144 19.3112C0.183152 19.172 0.104338 18.9839 0.102722 18.7872C0.101107 18.5906 0.17679 18.4012 0.313477 18.2598L8.78351 9.78979L0.313477 1.31982C0.172779 1.17913 0.09375 0.988283 0.09375 0.789307C0.09375 0.590331 0.172779 0.399486 0.313477 0.258789C0.454174 0.118092 0.645018 0.0390625 0.843994 0.0390625C1.04297 0.0390625 1.23381 0.118092 1.37451 0.258789L10.3745 9.25879C10.515 9.39989 10.5937 9.59096 10.5935 9.79004C10.5933 9.98912 10.5142 10.18 10.3735 10.3208Z" fill="#484848"/>
</svg>
