<svg width="20" height="20" viewBox="0 0 20 20" fill="none" xmlns="http://www.w3.org/2000/svg">
<path d="M10.0112 0.384766C8.08286 0.384766 6.1978 0.95661 4.59442 2.02795C2.99104 3.0993 1.74137 4.62198 1.00342 6.40356C0.265462 8.18514 0.0723701 10.1456 0.448576 12.0369C0.824782 13.9282 1.75338 15.6655 3.11694 17.0291C4.4805 18.3926 6.21778 19.3212 8.1091 19.6974C10.0004 20.0736 11.9608 19.8805 13.7424 19.1426C15.524 18.4046 17.0467 17.155 18.1181 15.5516C19.1894 13.9483 19.7612 12.0631 19.7612 10.1348C19.7583 7.5498 18.7302 5.0715 16.9023 3.24365C15.0745 1.4158 12.5962 0.387677 10.0112 0.384766ZM10.0112 18.3848C8.37953 18.3848 6.78447 17.9009 5.42776 16.9944C4.07106 16.0879 3.01364 14.7994 2.38922 13.2919C1.7648 11.7844 1.60141 10.1256 1.91974 8.52527C2.23807 6.92493 3.02383 5.45493 4.17761 4.30115C5.33139 3.14736 6.80139 2.36166 8.40173 2.04333C10.0021 1.72501 11.6609 1.88839 13.1684 2.51282C14.6759 3.13724 15.9643 4.19456 16.8708 5.55127C17.7774 6.90798 18.2612 8.50307 18.2612 10.1348C18.2588 12.3221 17.3889 14.4192 15.8422 15.9658C14.2956 17.5125 12.1985 18.3824 10.0112 18.3848ZM14.7612 10.1348C14.7612 10.3337 14.6822 10.5244 14.5416 10.665C14.4009 10.8057 14.2101 10.8848 14.0112 10.8848H10.0112C9.81232 10.8848 9.62155 10.8057 9.48089 10.665C9.34024 10.5244 9.26123 10.3337 9.26123 10.1348V5.13477C9.26123 4.93585 9.34024 4.74514 9.48089 4.60449C9.62155 4.46384 9.81232 4.38477 10.0112 4.38477C10.2101 4.38477 10.4009 4.46384 10.5416 4.60449C10.6822 4.74514 10.7612 4.93585 10.7612 5.13477V9.38477H14.0112C14.2101 9.38477 14.4009 9.46384 14.5416 9.60449C14.6822 9.74514 14.7612 9.93585 14.7612 10.1348Z" fill="#484848"/>
</svg>
