<svg width="20" height="20" viewBox="0 0 20 20" fill="none" xmlns="http://www.w3.org/2000/svg">
<path d="M10.2598 0.0383301C8.38086 0.0383301 6.54412 0.595531 4.98186 1.6394C3.41959 2.68328 2.20196 4.16693 1.48292 5.90283C0.763892 7.63873 0.575746 9.54878 0.942306 11.3916C1.30887 13.2344 2.21365 14.9273 3.54225 16.2559C4.87085 17.5845 6.5636 18.4892 8.40642 18.8557C10.2492 19.2223 12.1594 19.0342 13.8953 18.3152C15.6312 17.5962 17.1149 16.3784 18.1587 14.8162C19.2026 13.2539 19.7598 11.4173 19.7598 9.53833C19.7574 7.0195 18.7557 4.60457 16.9747 2.82349C15.1936 1.04241 12.7786 0.0407129 10.2598 0.0383301ZM14.2598 10.5383H10.2598C9.99456 10.5383 9.74022 10.4329 9.55269 10.2454C9.36515 10.0578 9.25978 9.80355 9.25978 9.53833V4.53833C9.25978 4.27311 9.36515 4.01884 9.55269 3.8313C9.74022 3.64376 9.99456 3.53833 10.2598 3.53833C10.525 3.53833 10.7793 3.64376 10.9669 3.8313C11.1544 4.01884 11.2598 4.27311 11.2598 4.53833V8.53833H14.2598C14.525 8.53833 14.7793 8.64376 14.9669 8.8313C15.1544 9.01884 15.2598 9.27311 15.2598 9.53833C15.2598 9.80355 15.1544 10.0578 14.9669 10.2454C14.7793 10.4329 14.525 10.5383 14.2598 10.5383Z" fill="#5DB05A"/>
</svg>
