<svg width="20" height="19" viewBox="0 0 20 19" fill="none" xmlns="http://www.w3.org/2000/svg">
<path d="M15.2598 0.0383301H5.25977C4.06686 0.0401814 2.92335 0.514886 2.07983 1.3584C1.23632 2.20191 0.761617 3.34542 0.759766 4.53833V17.5383C0.760258 17.637 0.789957 17.7333 0.845123 17.8152C0.90029 17.897 0.978454 17.9608 1.06976 17.9983C1.12925 18.0258 1.19422 18.0396 1.25977 18.0383C1.32534 18.0391 1.39034 18.0261 1.45062 18.0002C1.5109 17.9744 1.56513 17.9365 1.60977 17.8884L4.02975 15.4783C4.31079 15.1969 4.69206 15.0387 5.08975 15.0383H15.2598C16.4527 15.0365 17.5962 14.5618 18.4397 13.7183C19.2832 12.8747 19.7579 11.7312 19.7598 10.5383V4.53833C19.7579 3.34542 19.2832 2.20191 18.4397 1.3584C17.5962 0.514886 16.4527 0.0401814 15.2598 0.0383301ZM6.25977 8.78833C6.01254 8.78833 5.77087 8.71499 5.56531 8.57764C5.35975 8.44028 5.19953 8.24501 5.10492 8.0166C5.01031 7.78819 4.98555 7.53691 5.03378 7.29443C5.08201 7.05196 5.20107 6.82936 5.37589 6.65454C5.5507 6.47973 5.77342 6.36049 6.0159 6.31226C6.25838 6.26402 6.50972 6.28894 6.73813 6.38354C6.96654 6.47815 7.16175 6.63819 7.2991 6.84375C7.43645 7.04931 7.50977 7.2911 7.50977 7.53833C7.50977 7.86985 7.37807 8.1877 7.14365 8.42212C6.90923 8.65654 6.59129 8.78833 6.25977 8.78833ZM10.2598 8.78833C10.0125 8.78833 9.77087 8.71499 9.56531 8.57764C9.35975 8.44028 9.19953 8.24501 9.10492 8.0166C9.01031 7.78819 8.98555 7.53691 9.03378 7.29443C9.08201 7.05196 9.20107 6.82936 9.37589 6.65454C9.5507 6.47973 9.77342 6.36049 10.0159 6.31226C10.2584 6.26402 10.5097 6.28894 10.7381 6.38354C10.9665 6.47815 11.1618 6.63819 11.2991 6.84375C11.4365 7.04931 11.5098 7.2911 11.5098 7.53833C11.5098 7.86985 11.3781 8.1877 11.1436 8.42212C10.9092 8.65654 10.5913 8.78833 10.2598 8.78833ZM14.2598 8.78833C14.0125 8.78833 13.7709 8.71499 13.5653 8.57764C13.3597 8.44028 13.1995 8.24501 13.1049 8.0166C13.0103 7.78819 12.9856 7.53691 13.0338 7.29443C13.082 7.05196 13.2011 6.82936 13.3759 6.65454C13.5507 6.47973 13.7734 6.36049 14.0159 6.31226C14.2584 6.26402 14.5097 6.28894 14.7381 6.38354C14.9665 6.47815 15.1618 6.63819 15.2991 6.84375C15.4365 7.04931 15.5098 7.2911 15.5098 7.53833C15.5098 7.86985 15.3781 8.1877 15.1436 8.42212C14.9092 8.65654 14.5913 8.78833 14.2598 8.78833Z" fill="#5DB05A"/>
</svg>
