<svg width="20" height="20" viewBox="0 0 20 20" fill="none" xmlns="http://www.w3.org/2000/svg">
<path d="M19.7598 8.53833V18.5383C19.7608 18.6374 19.7317 18.7345 19.6764 18.8167C19.621 18.8988 19.542 18.962 19.4498 18.9983C19.3903 19.0258 19.3253 19.0396 19.2598 19.0383C19.1929 19.0383 19.1266 19.025 19.0648 18.9993C19.003 18.9735 18.947 18.9359 18.8998 18.8884L17.0898 17.0383H8.25979C7.33153 17.0383 6.44128 16.6696 5.78491 16.0132C5.12853 15.3568 4.75979 14.4666 4.75979 13.5383H12.2598C13.5859 13.5383 14.8576 13.0117 15.7953 12.074C16.733 11.1363 17.2598 9.86441 17.2598 8.53833V5.18823C17.9808 5.40438 18.6132 5.84691 19.0634 6.4502C19.5137 7.05348 19.7578 7.78558 19.7598 8.53833ZM15.7598 8.53833V3.53833C15.7598 2.61007 15.3911 1.71985 14.7347 1.06348C14.0783 0.407099 13.188 0.0383301 12.2598 0.0383301H4.25979C3.33153 0.0383301 2.44128 0.407099 1.78491 1.06348C1.12853 1.71985 0.75979 2.61007 0.75979 3.53833V13.5383C0.758792 13.6374 0.787899 13.7345 0.843256 13.8167C0.898613 13.8988 0.977607 13.962 1.06979 13.9983C1.12928 14.0258 1.19425 14.0396 1.25979 14.0383C1.32672 14.0383 1.39299 14.025 1.45477 13.9993C1.51655 13.9735 1.57261 13.9359 1.61978 13.8884L3.4298 12.0383H12.2598C13.188 12.0383 14.0783 11.6696 14.7347 11.0132C15.3911 10.3568 15.7598 9.46659 15.7598 8.53833Z" fill="#5DB05A"/>
</svg>
