<svg width="20" height="20" viewBox="0 0 20 20" fill="none" xmlns="http://www.w3.org/2000/svg">
<path d="M16.0112 5.38477H15.7612V4.13477C15.7602 3.14053 15.3647 2.18728 14.6617 1.48425C13.9587 0.781221 13.0055 0.385824 12.0112 0.384766H4.01123C3.01699 0.385824 2.06378 0.781221 1.36075 1.48425C0.657716 2.18728 0.262289 3.14053 0.26123 4.13477V14.1348C0.26126 14.2836 0.305594 14.4291 0.38858 14.5527C0.471567 14.6763 0.589454 14.7724 0.727234 14.8287C0.817306 14.8659 0.913805 14.8849 1.01123 14.8848C1.11106 14.8849 1.20989 14.8651 1.30194 14.8264C1.39399 14.7878 1.4774 14.7311 1.54724 14.6598L3.28622 12.8848H4.26123V14.1348C4.26229 15.129 4.65772 16.0822 5.36075 16.7853C6.06378 17.4883 7.01699 17.8837 8.01123 17.8848H16.7362L18.4752 19.6598C18.5451 19.7311 18.6285 19.7878 18.7205 19.8264C18.8126 19.8651 18.9114 19.8849 19.0112 19.8848C19.1087 19.885 19.2052 19.8659 19.2952 19.8287C19.433 19.7724 19.5509 19.6763 19.6339 19.5527C19.7169 19.4291 19.7612 19.2836 19.7612 19.1348V9.13477C19.7602 8.14053 19.3647 7.18728 18.6617 6.48425C17.9587 5.78122 17.0055 5.38582 16.0112 5.38477ZM2.97122 11.3848C2.8714 11.3847 2.77258 11.4046 2.68054 11.4432C2.5885 11.4819 2.50512 11.5385 2.43524 11.6097L1.76123 12.2977V4.13477C1.76176 3.53819 1.999 2.96615 2.42084 2.54431C2.84268 2.12247 3.41466 1.8853 4.01123 1.88477H12.0112C12.6078 1.8853 13.1798 2.12247 13.6016 2.54431C14.0235 2.96615 14.2607 3.53819 14.2612 4.13477V9.13477C14.2607 9.73134 14.0235 10.3034 13.6016 10.7252C13.1798 11.1471 12.6078 11.3842 12.0112 11.3848H2.97122ZM18.2612 17.2977L17.5872 16.6097C17.5174 16.5384 17.434 16.4818 17.3419 16.4431C17.2499 16.4045 17.1511 16.3847 17.0512 16.3848H8.01123C7.41466 16.3842 6.84268 16.1471 6.42084 15.7252C5.999 15.3034 5.76176 14.7313 5.76123 14.1348V12.8848H12.0112C13.0055 12.8837 13.9587 12.4883 14.6617 11.7853C15.3647 11.0822 15.7602 10.129 15.7612 9.13477V6.88477H16.0112C16.6078 6.8853 17.1798 7.12247 17.6016 7.54431C18.0235 7.96615 18.2607 8.53819 18.2612 9.13477V17.2977Z" fill="#484848"/>
</svg>
