<svg width="20" height="19" viewBox="0 0 20 19" fill="none" xmlns="http://www.w3.org/2000/svg">
<path d="M19.7598 4.53833V10.5383C19.7582 11.7313 19.2836 12.8749 18.44 13.7185C17.5964 14.5621 16.4528 15.0367 15.2598 15.0383H5.08878C4.8917 15.0379 4.69648 15.0765 4.51437 15.1519C4.33227 15.2272 4.1669 15.3377 4.02777 15.4773L1.61377 17.8914C1.56725 17.9378 1.51204 17.9745 1.45129 17.9995C1.39055 18.0246 1.32547 18.0375 1.25977 18.0374C1.19425 18.0371 1.12938 18.0241 1.06876 17.9993C0.97732 17.9615 0.899152 17.8974 0.844147 17.8152C0.789142 17.7329 0.759782 17.6363 0.759766 17.5374V4.53735C0.761353 3.34437 1.23596 2.20075 2.07953 1.35718C2.9231 0.513608 4.06678 0.038941 5.25977 0.0373535H15.2598C16.4528 0.0392055 17.5965 0.513937 18.4401 1.35767C19.2836 2.20139 19.7582 3.34525 19.7598 4.53833Z" fill="#5DB05A"/>
</svg>
