<svg width="20" height="19" viewBox="0 0 20 19" fill="none" xmlns="http://www.w3.org/2000/svg">
<path d="M15.0112 0.384766H5.01123C3.75194 0.386353 2.54469 0.887256 1.65424 1.77771C0.763782 2.66816 0.262818 3.87547 0.26123 5.13477V18.1348C0.261346 18.2831 0.305389 18.4281 0.387787 18.5514C0.470185 18.6747 0.58726 18.7709 0.724243 18.8278C0.861261 18.8845 1.01202 18.8994 1.15747 18.8704C1.30292 18.8413 1.43649 18.7698 1.54123 18.6648L3.95523 16.2507C4.07106 16.1343 4.20883 16.0421 4.36057 15.9792C4.5123 15.9164 4.675 15.8843 4.83923 15.8848H15.0112C16.2705 15.8832 17.4778 15.3823 18.3682 14.4918C19.2587 13.6014 19.7596 12.3941 19.7612 11.1348V5.13477C19.7596 3.87547 19.2587 2.66816 18.3682 1.77771C17.4778 0.887256 16.2705 0.386353 15.0112 0.384766ZM18.2612 11.1348C18.2602 11.9964 17.9174 12.8224 17.3082 13.4316C16.6989 14.0409 15.8729 14.3837 15.0112 14.3848H4.84024C4.47884 14.3837 4.1208 14.4544 3.78693 14.5928C3.45305 14.7311 3.14998 14.9344 2.89523 15.1908L1.76123 16.3247V5.13477C1.76229 4.27314 2.10503 3.44715 2.71429 2.83789C3.32356 2.22863 4.1496 1.88582 5.01123 1.88477H15.0112C15.8729 1.88582 16.6989 2.22863 17.3082 2.83789C17.9174 3.44715 18.2602 4.27314 18.2612 5.13477V11.1348ZM7.01123 8.13477C7.01123 8.33255 6.95259 8.52586 6.84271 8.69031C6.73283 8.85476 6.57665 8.98291 6.39392 9.05859C6.21119 9.13428 6.01011 9.15419 5.81613 9.1156C5.62215 9.07701 5.44399 8.98177 5.30414 8.84192C5.16429 8.70207 5.06904 8.52382 5.03046 8.32983C4.99187 8.13585 5.01165 7.9348 5.08734 7.75208C5.16303 7.56935 5.29121 7.41323 5.45566 7.30334C5.62011 7.19346 5.81345 7.13477 6.01123 7.13477C6.27645 7.13477 6.53079 7.24008 6.71832 7.42761C6.90586 7.61515 7.01123 7.86955 7.01123 8.13477ZM11.0112 8.13477C11.0112 8.33255 10.9526 8.52586 10.8427 8.69031C10.7328 8.85476 10.5766 8.98291 10.3939 9.05859C10.2112 9.13428 10.0101 9.15419 9.81613 9.1156C9.62215 9.07701 9.44399 8.98177 9.30414 8.84192C9.16429 8.70207 9.06904 8.52382 9.03046 8.32983C8.99187 8.13585 9.01165 7.9348 9.08734 7.75208C9.16303 7.56935 9.29121 7.41323 9.45566 7.30334C9.62011 7.19346 9.81345 7.13477 10.0112 7.13477C10.2764 7.13477 10.5308 7.24008 10.7183 7.42761C10.9059 7.61515 11.0112 7.86955 11.0112 8.13477ZM15.0112 8.13477C15.0112 8.33255 14.9526 8.52586 14.8427 8.69031C14.7328 8.85476 14.5766 8.98291 14.3939 9.05859C14.2112 9.13428 14.0101 9.15419 13.8161 9.1156C13.6222 9.07701 13.444 8.98177 13.3041 8.84192C13.1643 8.70207 13.069 8.52382 13.0305 8.32983C12.9919 8.13585 13.0117 7.9348 13.0873 7.75208C13.163 7.56935 13.2912 7.41323 13.4557 7.30334C13.6201 7.19346 13.8134 7.13477 14.0112 7.13477C14.2764 7.13477 14.5308 7.24008 14.7183 7.42761C14.9059 7.61515 15.0112 7.86955 15.0112 8.13477Z" fill="#484848"/>
</svg>
