<svg width="20" height="19" viewBox="0 0 20 19" fill="none" xmlns="http://www.w3.org/2000/svg">
<path d="M15.0112 0.384766H5.01123C3.75194 0.386353 2.54469 0.887256 1.65424 1.77771C0.763782 2.66816 0.262818 3.87547 0.26123 5.13477V18.1348C0.261346 18.2831 0.305389 18.4281 0.387787 18.5514C0.470185 18.6747 0.58726 18.7709 0.724243 18.8278C0.861261 18.8845 1.01202 18.8994 1.15747 18.8704C1.30292 18.8413 1.43649 18.7698 1.54123 18.6648L3.95523 16.2507C4.07106 16.1343 4.20883 16.0421 4.36057 15.9792C4.5123 15.9164 4.675 15.8843 4.83923 15.8848H15.0112C16.2705 15.8832 17.4778 15.3823 18.3682 14.4918C19.2587 13.6014 19.7596 12.3941 19.7612 11.1348V5.13477C19.7596 3.87547 19.2587 2.66816 18.3682 1.77771C17.4778 0.887256 16.2705 0.386353 15.0112 0.384766ZM18.2612 11.1348C18.2602 11.9964 17.9174 12.8224 17.3082 13.4316C16.6989 14.0409 15.8729 14.3837 15.0112 14.3848H4.84024C4.47884 14.3837 4.1208 14.4544 3.78693 14.5928C3.45305 14.7311 3.14998 14.9344 2.89523 15.1908L1.76123 16.3247V5.13477C1.76229 4.27314 2.10503 3.44715 2.71429 2.83789C3.32356 2.22863 4.1496 1.88582 5.01123 1.88477H15.0112C15.8729 1.88582 16.6989 2.22863 17.3082 2.83789C17.9174 3.44715 18.2602 4.27314 18.2612 5.13477V11.1348Z" fill="#484848"/>
</svg>
