<svg width="20" height="20" viewBox="0 0 20 20" fill="none" xmlns="http://www.w3.org/2000/svg">
<path d="M11.7598 9.53833C11.7598 9.835 11.6718 10.1249 11.507 10.3716C11.3421 10.6183 11.1079 10.8105 10.8338 10.9241C10.5597 11.0376 10.2581 11.0674 9.96715 11.0095C9.67618 10.9516 9.40889 10.8087 9.19911 10.5989C8.98933 10.3891 8.84647 10.122 8.78859 9.83105C8.73071 9.54008 8.76042 9.23844 8.87395 8.96436C8.98748 8.69027 9.17976 8.45584 9.42644 8.29102C9.67311 8.12619 9.96311 8.03833 10.2598 8.03833C10.6576 8.03833 11.0391 8.19648 11.3204 8.47778C11.6018 8.75909 11.7598 9.14051 11.7598 9.53833ZM19.7598 9.53833C19.7598 11.4173 19.2026 13.2539 18.1587 14.8162C17.1149 16.3784 15.6312 17.5962 13.8953 18.3152C12.1594 19.0342 10.2492 19.2223 8.40642 18.8557C6.5636 18.4892 4.87085 17.5845 3.54225 16.2559C2.21365 14.9273 1.30887 13.2344 0.942306 11.3916C0.575746 9.54878 0.763892 7.63873 1.48292 5.90283C2.20196 4.16693 3.41959 2.68328 4.98186 1.6394C6.54412 0.595531 8.38086 0.0383301 10.2598 0.0383301C12.7786 0.0407129 15.1936 1.04241 16.9747 2.82349C18.7557 4.60457 19.7574 7.0195 19.7598 9.53833ZM14.9498 4.84839C14.7652 4.66568 14.5366 4.53366 14.2861 4.46533C14.0355 4.397 13.7716 4.39453 13.5198 4.45825L9.46977 5.46826C8.67733 5.66683 7.95366 6.07687 7.37599 6.65454C6.79833 7.23221 6.38834 7.95585 6.18977 8.74829L5.17979 12.7983C5.11618 13.0501 5.11864 13.3139 5.18697 13.5645C5.25529 13.815 5.38715 14.0437 5.56978 14.2283C5.85287 14.5066 6.23282 14.6642 6.62978 14.6682C6.75466 14.6664 6.87887 14.6498 6.99977 14.6184L11.0498 13.6084C11.8422 13.4098 12.5659 12.9998 13.1436 12.4221C13.7212 11.8445 14.1312 11.1208 14.3298 10.3284L15.3398 6.27832C15.4034 6.02655 15.4009 5.76274 15.3326 5.51221C15.2643 5.26168 15.1324 5.033 14.9498 4.84839Z" fill="#5DB05A"/>
</svg>
