<svg width="20" height="20" viewBox="0 0 20 20" fill="none" xmlns="http://www.w3.org/2000/svg">
<path d="M10.0112 0.384766C8.08286 0.384766 6.1978 0.95661 4.59442 2.02795C2.99104 3.0993 1.74137 4.62198 1.00342 6.40356C0.265462 8.18514 0.0723701 10.1456 0.448576 12.0369C0.824782 13.9282 1.75338 15.6655 3.11694 17.0291C4.4805 18.3926 6.21778 19.3212 8.1091 19.6974C10.0004 20.0736 11.9608 19.8805 13.7424 19.1426C15.524 18.4046 17.0467 17.155 18.1181 15.5516C19.1894 13.9483 19.7612 12.0631 19.7612 10.1348C19.7583 7.5498 18.7302 5.0715 16.9023 3.24365C15.0745 1.4158 12.5962 0.387677 10.0112 0.384766ZM10.0112 18.3848C8.37953 18.3848 6.78447 17.9009 5.42776 16.9944C4.07106 16.0879 3.01364 14.7994 2.38922 13.2919C1.7648 11.7844 1.60141 10.1256 1.91974 8.52527C2.23807 6.92493 3.02383 5.45493 4.17761 4.30115C5.33139 3.14736 6.80139 2.36166 8.40173 2.04333C10.0021 1.72501 11.6609 1.88839 13.1684 2.51282C14.6759 3.13724 15.9643 4.19456 16.8708 5.55127C17.7774 6.90798 18.2612 8.50307 18.2612 10.1348C18.2588 12.3221 17.3889 14.4192 15.8422 15.9658C14.2956 17.5125 12.1985 18.3824 10.0112 18.3848ZM13.2112 4.81177L9.15524 5.82581C8.31964 6.03371 7.55644 6.46523 6.94757 7.0741C6.3387 7.68297 5.90713 8.44614 5.69922 9.28174L4.68524 13.3368C4.621 13.5943 4.61609 13.863 4.67093 14.1227C4.72576 14.3824 4.8389 14.6262 5.00177 14.8358C5.16463 15.0454 5.37298 15.2153 5.61108 15.3325C5.84919 15.4498 6.11081 15.5115 6.37622 15.5128C6.52123 15.5126 6.66568 15.4944 6.80624 15.4587L10.8622 14.4448C11.6978 14.2369 12.461 13.8053 13.0699 13.1964C13.6788 12.5875 14.1103 11.8244 14.3182 10.9888L15.3322 6.93372C15.4057 6.64064 15.402 6.33358 15.3215 6.04236C15.2409 5.75114 15.0863 5.48567 14.8727 5.27197C14.6591 5.05827 14.3938 4.90366 14.1026 4.823C13.8114 4.74234 13.5044 4.73843 13.2112 4.81177ZM12.8632 10.6248C12.7209 11.1965 12.4256 11.7187 12.0089 12.1354C11.5923 12.552 11.07 12.8474 10.4982 12.9897L6.44324 14.0038C6.40189 14.0134 6.35877 14.0123 6.31796 14.0006C6.27716 13.9889 6.24 13.967 6.20999 13.937C6.17998 13.907 6.1581 13.8698 6.14642 13.829C6.13474 13.7882 6.13363 13.7451 6.14322 13.7037L7.15722 9.6488C7.29957 9.07702 7.59491 8.55471 8.01156 8.13806C8.42822 7.72141 8.95043 7.42615 9.52221 7.28381L13.5772 6.26978C13.5981 6.26436 13.6196 6.26161 13.6412 6.26172C13.6788 6.26257 13.7157 6.27191 13.7492 6.28894C13.7827 6.30597 13.812 6.33025 13.8348 6.36011C13.8577 6.38996 13.8735 6.42463 13.8812 6.46143C13.8889 6.49822 13.8882 6.53625 13.8792 6.57275L12.8632 10.6248ZM11.0112 10.1348C11.0112 10.3325 10.9526 10.5259 10.8427 10.6903C10.7328 10.8548 10.5766 10.9829 10.3939 11.0586C10.2112 11.1343 10.0101 11.1542 9.81613 11.1156C9.62215 11.077 9.44399 10.9818 9.30414 10.8419C9.16428 10.7021 9.06904 10.5238 9.03045 10.3298C8.99187 10.1359 9.01165 9.9348 9.08734 9.75208C9.16303 9.56935 9.29121 9.41323 9.45566 9.30334C9.6201 9.19346 9.81345 9.13477 10.0112 9.13477C10.2764 9.13477 10.5308 9.24008 10.7183 9.42761C10.9059 9.61515 11.0112 9.86955 11.0112 10.1348Z" fill="#484848"/>
</svg>
