<svg width="20" height="20" viewBox="0 0 20 20" fill="none" xmlns="http://www.w3.org/2000/svg">
<path d="M19.2482 4.31177L15.8342 0.897711C15.6722 0.734603 15.4795 0.605278 15.2672 0.517218C15.0548 0.429157 14.8271 0.384173 14.5972 0.384772H9.01123C8.01699 0.38583 7.06381 0.781227 6.36078 1.48426C5.65775 2.18729 5.26229 3.14053 5.26123 4.13477V4.38477H4.01123C3.01699 4.38583 2.06381 4.78123 1.36078 5.48426C0.657747 6.18729 0.262289 7.14053 0.26123 8.13477V16.1348C0.262289 17.129 0.657747 18.0823 1.36078 18.7853C2.06381 19.4883 3.01699 19.8837 4.01123 19.8848H11.0112C12.0055 19.8837 12.9587 19.4883 13.6617 18.7853C14.3647 18.0823 14.7602 17.129 14.7612 16.1348V15.8848H16.0112C17.0055 15.8837 17.9587 15.4883 18.6617 14.7853C19.3647 14.0823 19.7602 13.129 19.7612 12.1348V5.54871C19.7619 5.31883 19.7168 5.09114 19.6288 4.87879C19.5407 4.66644 19.4114 4.47372 19.2482 4.31177ZM15.7612 2.94483L17.2003 4.3838H16.8232C16.5417 4.38327 16.2719 4.2712 16.0729 4.07215C15.8738 3.8731 15.7618 3.60328 15.7612 3.32178V2.94483ZM13.2612 16.1348C13.2607 16.7313 13.0235 17.3034 12.6016 17.7252C12.1798 18.1471 11.6078 18.3842 11.0112 18.3848H4.01123C3.41466 18.3842 2.84268 18.1471 2.42084 17.7252C1.999 17.3034 1.76176 16.7313 1.76123 16.1348V8.13477C1.76176 7.5382 1.999 6.96616 2.42084 6.54432C2.84268 6.12248 3.41466 5.8853 4.01123 5.88477H5.26123V12.1348C5.26229 13.129 5.65775 14.0823 6.36078 14.7853C7.06381 15.4883 8.01699 15.8837 9.01123 15.8848H13.2612V16.1348ZM16.0112 14.3848H9.01123C8.41466 14.3842 7.84268 14.1471 7.42084 13.7252C6.999 13.3034 6.76176 12.7313 6.76123 12.1348V4.13477C6.76176 3.5382 6.999 2.96616 7.42084 2.54432C7.84268 2.12248 8.41466 1.8853 9.01123 1.88477H14.2612V3.32276C14.262 4.002 14.5322 4.65325 15.0125 5.13355C15.4928 5.61385 16.144 5.88398 16.8232 5.88477H18.2612V12.1348C18.2604 12.7313 18.0231 13.3031 17.6013 13.7249C17.1795 14.1466 16.6077 14.384 16.0112 14.3848Z" fill="#484848"/>
</svg>
