<svg width="21" height="21" viewBox="0 0 21 21" fill="none" xmlns="http://www.w3.org/2000/svg">
<path d="M9.25977 18.0383H14.9598C14.664 18.7774 14.1533 19.4108 13.4937 19.8564C12.834 20.3021 12.0558 20.5397 11.2598 20.5383H4.25977C3.1989 20.5383 2.18148 20.1168 1.43134 19.3667C0.68119 18.6166 0.259766 17.5992 0.259766 16.5383V8.53833C0.260932 7.56424 0.616875 6.62399 1.26105 5.89331C1.90522 5.16263 2.79351 4.69161 3.75977 4.56836V12.5383C3.76241 13.9962 4.34272 15.3937 5.3736 16.4246C6.40447 17.4554 7.80189 18.0357 9.25977 18.0383ZM17.7598 4.78833H19.8798C19.8183 4.6982 19.7479 4.61445 19.6697 4.53833L16.2598 1.12842C16.1861 1.05047 16.102 0.98296 16.0098 0.928223V3.03833C16.0119 3.50181 16.1969 3.9457 16.5247 4.27344C16.8524 4.60117 17.2963 4.78623 17.7598 4.78833ZM17.7598 6.28833C16.8983 6.28674 16.0726 5.94387 15.4634 5.33472C14.8543 4.72557 14.5114 3.8998 14.5098 3.03833V0.53833H9.25977C8.1989 0.53833 7.18148 0.959815 6.43134 1.70996C5.68119 2.46011 5.25977 3.47746 5.25977 4.53833V12.5383C5.25977 13.5992 5.68119 14.6166 6.43134 15.3667C7.18148 16.1168 8.1989 16.5383 9.25977 16.5383H16.2598C17.3206 16.5383 18.3381 16.1168 19.0882 15.3667C19.8383 14.6166 20.2598 13.5992 20.2598 12.5383V6.28833H17.7598Z" fill="#5DB05A"/>
</svg>
