<svg width="20" height="16" viewBox="0 0 20 16" fill="none" xmlns="http://www.w3.org/2000/svg">
<path d="M18.75 6.88477H19.5V5.13477C19.4984 3.87547 18.9974 2.66816 18.107 1.77771C17.2165 0.887256 16.0093 0.386353 14.75 0.384766H4.75C3.49071 0.386353 2.28346 0.887256 1.39301 1.77771C0.502551 2.66816 0.00158768 3.87547 0 5.13477V6.88477H0.75C1.08152 6.88477 1.39949 7.01643 1.63391 7.25085C1.86833 7.48527 2 7.80325 2 8.13477C2 8.46629 1.86833 8.78426 1.63391 9.01868C1.39949 9.2531 1.08152 9.38477 0.75 9.38477H0V11.1348C0.00158768 12.3941 0.502551 13.6014 1.39301 14.4918C2.28346 15.3823 3.49071 15.8832 4.75 15.8848H14.75C16.0093 15.8832 17.2165 15.3823 18.107 14.4918C18.9974 13.6014 19.4984 12.3941 19.5 11.1348V9.38477H18.75C18.4185 9.38477 18.1005 9.2531 17.8661 9.01868C17.6317 8.78426 17.5 8.46629 17.5 8.13477C17.5 7.80325 17.6317 7.48527 17.8661 7.25085C18.1005 7.01643 18.4185 6.88477 18.75 6.88477ZM18 10.7848V11.1348C17.9989 11.9964 17.6562 12.8224 17.0469 13.4316C16.4377 14.0409 15.6116 14.3837 14.75 14.3848H13.5V12.1348C13.5 11.9359 13.421 11.7451 13.2803 11.6045C13.1397 11.4638 12.9489 11.3848 12.75 11.3848C12.5511 11.3848 12.3603 11.4638 12.2197 11.6045C12.079 11.7451 12 11.9359 12 12.1348V14.3848H4.75C3.88837 14.3837 3.06233 14.0409 2.45306 13.4316C1.8438 12.8224 1.50106 11.9964 1.5 11.1348V10.7808C2.07609 10.6177 2.58321 10.271 2.94434 9.79346C3.30547 9.31589 3.50085 8.7335 3.50085 8.13477C3.50085 7.53603 3.30547 6.95364 2.94434 6.47607C2.58321 5.99851 2.07609 5.65187 1.5 5.48877V5.13477C1.50106 4.27314 1.8438 3.44715 2.45306 2.83789C3.06233 2.22863 3.88837 1.88582 4.75 1.88477H12V4.13477C12 4.33368 12.079 4.52439 12.2197 4.66504C12.3603 4.80569 12.5511 4.88477 12.75 4.88477C12.9489 4.88477 13.1397 4.80569 13.2803 4.66504C13.421 4.52439 13.5 4.33368 13.5 4.13477V1.88477H14.75C15.6116 1.88582 16.4377 2.22863 17.0469 2.83789C17.6562 3.44715 17.9989 4.27314 18 5.13477V5.48877C17.4239 5.65187 16.9168 5.99851 16.5557 6.47607C16.1945 6.95364 15.9991 7.53603 15.9991 8.13477C15.9991 8.7335 16.1945 9.31589 16.5557 9.79346C16.9168 10.271 17.4239 10.6177 18 10.7808V10.7848ZM13.5 7.13879V9.13879C13.5 9.33771 13.421 9.52841 13.2803 9.66907C13.1397 9.80972 12.9489 9.88879 12.75 9.88879C12.5511 9.88879 12.3603 9.80972 12.2197 9.66907C12.079 9.52841 12 9.33771 12 9.13879V7.13879C12 6.93988 12.079 6.74905 12.2197 6.6084C12.3603 6.46775 12.5511 6.38879 12.75 6.38879C12.9489 6.38879 13.1397 6.46775 13.2803 6.6084C13.421 6.74905 13.5 6.93988 13.5 7.13879Z" fill="#484848"/>
</svg>
