<svg width="20" height="16" viewBox="0 0 20 16" fill="none" xmlns="http://www.w3.org/2000/svg">
<path d="M19 6.14526H19.5V4.64526C19.4966 3.45284 19.0213 2.31021 18.1782 1.46704C17.335 0.62387 16.1924 0.148694 15 0.145264H14.5C14.3674 0.145264 14.2402 0.19798 14.1464 0.291748C14.0527 0.385516 14 0.512655 14 0.645264V2.64526C14 2.91048 13.8946 3.16476 13.7071 3.35229C13.5196 3.53983 13.2652 3.64526 13 3.64526C12.7348 3.64526 12.4804 3.53983 12.2929 3.35229C12.1054 3.16476 12 2.91048 12 2.64526V0.645264C12 0.512655 11.9473 0.385516 11.8536 0.291748C11.7598 0.19798 11.6326 0.145264 11.5 0.145264H5C3.80758 0.148694 2.66501 0.62387 1.82184 1.46704C0.978667 2.31021 0.50343 3.45284 0.5 4.64526V6.14526H1C1.39782 6.14526 1.77936 6.30341 2.06067 6.58472C2.34197 6.86602 2.5 7.24744 2.5 7.64526C2.5 8.04309 2.34197 8.42451 2.06067 8.70581C1.77936 8.98711 1.39782 9.14526 1 9.14526H0.5V10.6453C0.50343 11.8377 0.978667 12.9803 1.82184 13.8235C2.66501 14.6667 3.80758 15.1418 5 15.1453H11.5C11.6326 15.1453 11.7598 15.0925 11.8536 14.9988C11.9473 14.905 12 14.7779 12 14.6453V12.6453C12 12.38 12.1054 12.1258 12.2929 11.9382C12.4804 11.7507 12.7348 11.6453 13 11.6453C13.2652 11.6453 13.5196 11.7507 13.7071 11.9382C13.8946 12.1258 14 12.38 14 12.6453V14.6453C14 14.7779 14.0527 14.905 14.1464 14.9988C14.2402 15.0925 14.3674 15.1453 14.5 15.1453H15C16.1924 15.1418 17.335 14.6667 18.1782 13.8235C19.0213 12.9803 19.4966 11.8377 19.5 10.6453V9.14526H19C18.6022 9.14526 18.2206 8.98711 17.9393 8.70581C17.658 8.42451 17.5 8.04309 17.5 7.64526C17.5 7.24744 17.658 6.86602 17.9393 6.58472C18.2206 6.30341 18.6022 6.14526 19 6.14526ZM14 9.14526C14 9.41048 13.8946 9.66476 13.7071 9.85229C13.5196 10.0398 13.2652 10.1453 13 10.1453C12.7348 10.1453 12.4804 10.0398 12.2929 9.85229C12.1054 9.66476 12 9.41048 12 9.14526V6.14526C12 5.88005 12.1054 5.62577 12.2929 5.43823C12.4804 5.2507 12.7348 5.14526 13 5.14526C13.2652 5.14526 13.5196 5.2507 13.7071 5.43823C13.8946 5.62577 14 5.88005 14 6.14526V9.14526Z" fill="#5DB05A"/>
</svg>
