<svg width="20" height="16" viewBox="0 0 20 16" fill="none" xmlns="http://www.w3.org/2000/svg">
<path d="M15 0.145264H5C3.80709 0.147115 2.66358 0.621819 1.82007 1.46533C0.976556 2.30884 0.501851 3.45236 0.5 4.64526H19.5C19.4981 3.45236 19.0234 2.30884 18.1799 1.46533C17.3364 0.621819 16.1929 0.147115 15 0.145264ZM0.5 6.64526V10.6453C0.501851 11.8382 0.976556 12.9817 1.82007 13.8252C2.66358 14.6687 3.80709 15.1434 5 15.1453H15C16.1929 15.1434 17.3364 14.6687 18.1799 13.8252C19.0234 12.9817 19.4981 11.8382 19.5 10.6453V6.64526H0.5ZM8 11.6453H5C4.73478 11.6453 4.48044 11.5398 4.29291 11.3523C4.10537 11.1648 4 10.9105 4 10.6453C4 10.38 4.10537 10.1258 4.29291 9.93823C4.48044 9.7507 4.73478 9.64526 5 9.64526H8C8.26522 9.64526 8.51956 9.7507 8.70709 9.93823C8.89463 10.1258 9 10.38 9 10.6453C9 10.9105 8.89463 11.1648 8.70709 11.3523C8.51956 11.5398 8.26522 11.6453 8 11.6453Z" fill="#5DB05A"/>
</svg>
