<svg width="20" height="16" viewBox="0 0 20 16" fill="none" xmlns="http://www.w3.org/2000/svg">
<path d="M14.75 0.384766H4.75C3.49071 0.386353 2.28346 0.887256 1.39301 1.77771C0.502551 2.66816 0.00158768 3.87547 0 5.13477V11.1348C0.00158768 12.3941 0.502551 13.6014 1.39301 14.4918C2.28346 15.3823 3.49071 15.8832 4.75 15.8848H14.75C16.0093 15.8832 17.2165 15.3823 18.107 14.4918C18.9974 13.6014 19.4984 12.3941 19.5 11.1348V5.13477C19.4984 3.87547 18.9974 2.66816 18.107 1.77771C17.2165 0.887256 16.0093 0.386353 14.75 0.384766ZM4.75 1.88477H14.75C15.6116 1.88582 16.4377 2.22863 17.0469 2.83789C17.6562 3.44715 17.9989 4.27314 18 5.13477V5.38477H1.5V5.13477C1.50106 4.27314 1.8438 3.44715 2.45306 2.83789C3.06233 2.22863 3.88837 1.88582 4.75 1.88477ZM14.75 14.3848H4.75C3.88837 14.3837 3.06233 14.0409 2.45306 13.4316C1.8438 12.8224 1.50106 11.9964 1.5 11.1348V6.88477H18V11.1348C17.9989 11.9964 17.6562 12.8224 17.0469 13.4316C16.4377 14.0409 15.6116 14.3837 14.75 14.3848ZM8.5 11.1348C8.5 11.3337 8.42099 11.5244 8.28033 11.665C8.13968 11.8057 7.94891 11.8848 7.75 11.8848H4.75C4.55109 11.8848 4.36032 11.8057 4.21967 11.665C4.07901 11.5244 4 11.3337 4 11.1348C4 10.9359 4.07901 10.7451 4.21967 10.6045C4.36032 10.4638 4.55109 10.3848 4.75 10.3848H7.75C7.94891 10.3848 8.13968 10.4638 8.28033 10.6045C8.42099 10.7451 8.5 10.9359 8.5 11.1348Z" fill="#484848"/>
</svg>
