<svg width="20" height="20" viewBox="0 0 20 20" fill="none" xmlns="http://www.w3.org/2000/svg">
<path d="M15.2598 0.0383301H5.25977C4.06678 0.0399176 2.9231 0.514584 2.07953 1.35815C1.23596 2.20172 0.761353 3.34534 0.759766 4.53833V10.5383C0.761353 11.7313 1.23596 12.8749 2.07953 13.7185C2.9231 14.5621 4.06678 15.0367 5.25977 15.0383H9.25977V17.5383H6.25977C5.99455 17.5383 5.74021 17.6438 5.55267 17.8313C5.36514 18.0188 5.25977 18.2731 5.25977 18.5383C5.25977 18.8035 5.36514 19.0578 5.55267 19.2454C5.74021 19.4329 5.99455 19.5383 6.25977 19.5383H14.2598C14.525 19.5383 14.7793 19.4329 14.9669 19.2454C15.1544 19.0578 15.2598 18.8035 15.2598 18.5383C15.2598 18.2731 15.1544 18.0188 14.9669 17.8313C14.7793 17.6438 14.525 17.5383 14.2598 17.5383H11.2598V15.0383H15.2598C16.4528 15.0367 17.5964 14.5621 18.44 13.7185C19.2836 12.8749 19.7582 11.7313 19.7598 10.5383V4.53833C19.7582 3.34534 19.2836 2.20172 18.44 1.35815C17.5964 0.514584 16.4528 0.0399176 15.2598 0.0383301Z" fill="#5DB05A"/>
</svg>
