<svg width="20" height="20" viewBox="0 0 20 20" fill="none" xmlns="http://www.w3.org/2000/svg">
<path d="M15.0112 0.384766H5.01123C3.75194 0.386353 2.54469 0.887256 1.65424 1.77771C0.763782 2.66816 0.262818 3.87547 0.26123 5.13477V11.1348C0.262818 12.3941 0.763782 13.6014 1.65424 14.4918C2.54469 15.3823 3.75194 15.8832 5.01123 15.8848H9.26123V18.3848H6.01123C5.81232 18.3848 5.62155 18.4638 5.4809 18.6045C5.34024 18.7451 5.26123 18.9359 5.26123 19.1348C5.26123 19.3337 5.34024 19.5244 5.4809 19.665C5.62155 19.8057 5.81232 19.8848 6.01123 19.8848H14.0112C14.2101 19.8848 14.4009 19.8057 14.5416 19.665C14.6822 19.5244 14.7612 19.3337 14.7612 19.1348C14.7612 18.9359 14.6822 18.7451 14.5416 18.6045C14.4009 18.4638 14.2101 18.3848 14.0112 18.3848H10.7612V15.8848H15.0112C16.2705 15.8832 17.4778 15.3823 18.3682 14.4918C19.2587 13.6014 19.7596 12.3941 19.7612 11.1348V5.13477C19.7596 3.87547 19.2587 2.66816 18.3682 1.77771C17.4778 0.887256 16.2705 0.386353 15.0112 0.384766ZM18.2612 11.1348C18.2602 11.9964 17.9174 12.8224 17.3082 13.4316C16.6989 14.0409 15.8729 14.3837 15.0112 14.3848H5.01123C4.1496 14.3837 3.32356 14.0409 2.71429 13.4316C2.10503 12.8224 1.76229 11.9964 1.76123 11.1348V5.13477C1.76229 4.27314 2.10503 3.44715 2.71429 2.83789C3.32356 2.22863 4.1496 1.88582 5.01123 1.88477H15.0112C15.8729 1.88582 16.6989 2.22863 17.3082 2.83789C17.9174 3.44715 18.2602 4.27314 18.2612 5.13477V11.1348Z" fill="#484848"/>
</svg>
