<svg width="20" height="20" viewBox="0 0 20 20" fill="none" xmlns="http://www.w3.org/2000/svg">
<path d="M18.5449 7.82971L17.9659 7.25073C17.8488 7.13409 17.756 6.99542 17.6928 6.84265C17.6296 6.68988 17.5974 6.52603 17.598 6.36072V5.54675C17.5972 4.68239 17.2534 3.85363 16.6422 3.24243C16.031 2.63124 15.2023 2.28754 14.338 2.28674H13.5229C13.3577 2.28708 13.1939 2.25481 13.0412 2.19165C12.8885 2.1285 12.7497 2.03579 12.6329 1.91882L12.054 1.33972C11.4422 0.72919 10.6132 0.386353 9.74896 0.386353C8.88468 0.386353 8.05565 0.72919 7.44391 1.33972L6.86493 1.91882C6.74828 2.03597 6.60956 2.12873 6.45679 2.19189C6.30402 2.25506 6.14023 2.2873 5.97491 2.28674H5.16095C4.29659 2.28754 3.46782 2.63124 2.85663 3.24243C2.24543 3.85363 1.90173 4.68239 1.90094 5.54675V6.36072C1.90128 6.526 1.86894 6.68979 1.80579 6.84253C1.74263 6.99527 1.64992 7.13396 1.53296 7.25073L0.953918 7.82971C0.343387 8.44146 0.000488281 9.27049 0.000488281 10.1348C0.000488281 10.999 0.343387 11.8281 0.953918 12.4398L1.53296 13.0188C1.6501 13.1354 1.74292 13.2741 1.80609 13.4269C1.86926 13.5796 1.9015 13.7435 1.90094 13.9088V14.7228C1.90173 15.5871 2.24543 16.4159 2.85663 17.0271C3.46782 17.6383 4.29659 17.982 5.16095 17.9828H5.97491C6.14019 17.9824 6.30393 18.0147 6.45667 18.0779C6.6094 18.141 6.74815 18.2337 6.86493 18.3507L7.44391 18.9298C8.05552 19.5406 8.8846 19.8835 9.74896 19.8835C10.6133 19.8835 11.4423 19.5406 12.054 18.9298L12.6329 18.3507C12.7496 18.2336 12.8883 18.1408 13.0411 18.0776C13.1938 18.0145 13.3576 17.9822 13.5229 17.9828H14.338C15.2022 17.9817 16.0308 17.6379 16.642 17.0267C17.2531 16.4156 17.5969 15.5871 17.598 14.7228V13.9088C17.5976 13.7435 17.63 13.5797 17.6931 13.427C17.7563 13.2743 17.849 13.1356 17.9659 13.0188L18.5449 12.4398C19.1555 11.8281 19.4984 10.999 19.4984 10.1348C19.4984 9.27049 19.1555 8.44146 18.5449 7.82971ZM17.4839 11.3788L16.905 11.9578C16.648 12.2132 16.4442 12.5171 16.3055 12.8518C16.1668 13.1865 16.0959 13.5454 16.0969 13.9077V14.7218C16.0964 15.1884 15.9108 15.6357 15.5809 15.9657C15.2509 16.2956 14.8035 16.4813 14.3369 16.4818H13.5219C13.1596 16.4807 12.8007 16.5515 12.4659 16.6902C12.1312 16.8289 11.8273 17.0327 11.572 17.2898L10.9929 17.8688C10.6627 18.1986 10.2151 18.3838 9.74841 18.3838C9.28172 18.3838 8.83416 18.1986 8.50397 17.8688L7.92493 17.2898C7.66949 17.0328 7.36561 16.8291 7.03088 16.6904C6.69616 16.5517 6.33723 16.4808 5.97491 16.4818H5.16095C4.69433 16.4813 4.24694 16.2956 3.91699 15.9657C3.58704 15.6357 3.40147 15.1884 3.40094 14.7218V13.9077C3.40204 13.5454 3.33121 13.1864 3.1925 12.8517C3.0538 12.5169 2.85001 12.2131 2.59296 11.9578L2.01392 11.3788C1.68435 11.0485 1.49927 10.6009 1.49927 10.1343C1.49927 9.66766 1.68435 9.22009 2.01392 8.88977L2.59296 8.31079C2.84992 8.05536 3.05363 7.75147 3.19232 7.41675C3.33102 7.08202 3.40193 6.72304 3.40094 6.36072V5.54675C3.40147 5.08013 3.58704 4.63281 3.91699 4.30286C4.24694 3.97291 4.69433 3.78727 5.16095 3.78674H5.97491C6.33725 3.78784 6.69621 3.71695 7.03094 3.57825C7.36568 3.43954 7.66956 3.23581 7.92493 2.97876L8.50397 2.39978C8.83416 2.06997 9.28172 1.88464 9.74841 1.88464C10.2151 1.88464 10.6627 2.06997 10.9929 2.39978L11.572 2.97876C11.8274 3.23572 12.1313 3.43943 12.466 3.57812C12.8007 3.71682 13.1596 3.78773 13.5219 3.78674H14.3369C14.8035 3.78754 15.2507 3.97321 15.5806 4.3031C15.9105 4.63299 16.0961 5.08022 16.0969 5.54675V6.36072C16.0958 6.72305 16.1667 7.08201 16.3054 7.41675C16.4441 7.75149 16.6479 8.05542 16.905 8.31079L17.4839 8.88977C17.8135 9.22009 17.9986 9.66766 17.9986 10.1343C17.9986 10.6009 17.8135 11.0485 17.4839 11.3788ZM13.2839 6.60376C13.3536 6.67341 13.4089 6.75614 13.4467 6.84717C13.4844 6.93819 13.5038 7.03575 13.5038 7.13428C13.5038 7.23281 13.4844 7.33036 13.4467 7.42139C13.4089 7.51241 13.3536 7.59514 13.2839 7.66479L7.28394 13.6648C7.14242 13.8013 6.95293 13.8768 6.75629 13.875C6.55964 13.8732 6.3716 13.7943 6.2326 13.6552C6.09361 13.516 6.0148 13.3279 6.01318 13.1312C6.01157 12.9346 6.08725 12.7451 6.22394 12.6038L12.2239 6.60376C12.3645 6.46477 12.5543 6.38684 12.752 6.38684C12.9496 6.38684 13.1394 6.46477 13.28 6.60376H13.2839ZM13.254 12.6348C13.254 12.8325 13.1953 13.0259 13.0854 13.1903C12.9755 13.3548 12.8193 13.4829 12.6366 13.5586C12.4539 13.6343 12.2528 13.6542 12.0588 13.6156C11.8649 13.577 11.6867 13.4818 11.5468 13.3419C11.407 13.2021 11.3117 13.0238 11.2731 12.8298C11.2345 12.6359 11.2544 12.4348 11.3301 12.2521C11.4058 12.0693 11.5339 11.9132 11.6984 11.8033C11.8628 11.6935 12.0562 11.6348 12.254 11.6348C12.5185 11.6358 12.7718 11.7417 12.9584 11.9291C13.1451 12.1165 13.2499 12.3702 13.2499 12.6348H13.254ZM6.25397 7.63477C6.25397 7.43698 6.3126 7.24367 6.42249 7.07922C6.53237 6.91477 6.68855 6.78662 6.87128 6.71094C7.054 6.63525 7.25505 6.61535 7.44904 6.65393C7.64302 6.69252 7.82121 6.78776 7.96106 6.92761C8.10091 7.06746 8.19616 7.24572 8.23474 7.4397C8.27333 7.63368 8.25348 7.83473 8.1778 8.01746C8.10211 8.20018 7.97396 8.35631 7.80951 8.46619C7.64506 8.57607 7.45175 8.63477 7.25397 8.63477C7.12231 8.63529 6.99184 8.60983 6.87006 8.55981C6.74827 8.5098 6.63753 8.43617 6.54425 8.34326C6.45097 8.25035 6.37692 8.14002 6.32642 8.01843C6.27591 7.89685 6.24994 7.76642 6.24994 7.63477H6.25397Z" fill="#484848"/>
</svg>
