<svg width="20" height="20" viewBox="0 0 20 20" fill="none" xmlns="http://www.w3.org/2000/svg">
<path d="M18.6201 7.51538L18.04 6.9353C17.7587 6.65427 17.6004 6.27293 17.6 5.87524V5.05518C17.5992 4.25712 17.2819 3.49205 16.7176 2.92773C16.1533 2.36342 15.3881 2.04596 14.5901 2.04517H13.7701C13.5728 2.04735 13.3771 2.00947 13.1949 1.93384C13.0127 1.85821 12.8478 1.74646 12.7101 1.60522L12.1301 1.02515C11.5636 0.463091 10.798 0.147705 10.0001 0.147705C9.2021 0.147705 8.43648 0.463091 7.87006 1.02515L7.29004 1.60522C7.15231 1.74646 6.98738 1.85821 6.80518 1.93384C6.62298 2.00947 6.4273 2.04735 6.23004 2.04517H5.41003C4.61198 2.04596 3.84684 2.36342 3.28253 2.92773C2.71822 3.49205 2.40088 4.25712 2.40009 5.05518V5.87524C2.40227 6.07251 2.36439 6.26824 2.28876 6.45044C2.21313 6.63264 2.10132 6.79757 1.96008 6.9353L1.38007 7.51538C0.81631 8.0809 0.499756 8.84674 0.499756 9.64526C0.499756 10.4438 0.81631 11.2096 1.38007 11.7751L1.96008 12.3552C2.10132 12.493 2.21313 12.6579 2.28876 12.8401C2.36439 13.0223 2.40227 13.218 2.40009 13.4153V14.2354C2.40088 15.0334 2.71822 15.7985 3.28253 16.3628C3.84684 16.9271 4.61198 17.2446 5.41003 17.2454H6.23004C6.4273 17.2432 6.62298 17.2811 6.80518 17.3567C6.98738 17.4323 7.15231 17.5441 7.29004 17.6853L7.87006 18.2654C8.43571 18.8289 9.20162 19.1453 10.0001 19.1453C10.7985 19.1453 11.5644 18.8289 12.1301 18.2654L12.7101 17.6853C12.8478 17.5441 13.0127 17.4323 13.1949 17.3567C13.3771 17.2811 13.5728 17.2432 13.7701 17.2454H14.5901C15.3881 17.2446 16.1533 16.9271 16.7176 16.3628C17.2819 15.7985 17.5992 15.0334 17.6 14.2354V13.4153C17.6004 13.0176 17.7587 12.6363 18.04 12.3552L18.6201 11.7751C19.1838 11.2096 19.5004 10.4438 19.5004 9.64526C19.5004 8.84674 19.1838 8.0809 18.6201 7.51538ZM7.50006 5.89526C7.74729 5.89526 7.98896 5.96861 8.19452 6.10596C8.40008 6.24331 8.5603 6.43858 8.65491 6.66699C8.74952 6.8954 8.77424 7.14668 8.72601 7.38916C8.67778 7.63164 8.55879 7.85424 8.38397 8.02905C8.20916 8.20387 7.98637 8.32311 7.7439 8.37134C7.50142 8.41957 7.25014 8.39466 7.02173 8.30005C6.79332 8.20544 6.59811 8.04541 6.46075 7.83984C6.3234 7.63428 6.25006 7.39249 6.25006 7.14526C6.25006 6.81374 6.38173 6.49589 6.61615 6.26147C6.85057 6.02705 7.16854 5.89526 7.50006 5.89526ZM12.5001 13.3953C12.2528 13.3953 12.0112 13.3219 11.8056 13.1846C11.6 13.0472 11.4398 12.8519 11.3452 12.6235C11.2506 12.3951 11.2259 12.1438 11.2741 11.9014C11.3223 11.6589 11.4413 11.4363 11.6161 11.2615C11.791 11.0867 12.0137 10.9674 12.2562 10.9192C12.4987 10.871 12.75 10.8959 12.9784 10.9905C13.2068 11.0851 13.402 11.2451 13.5394 11.4507C13.6767 11.6562 13.7501 11.898 13.7501 12.1453C13.7501 12.4768 13.6184 12.7946 13.384 13.0291C13.1496 13.2635 12.8316 13.3953 12.5001 13.3953ZM13.7101 7.35522L7.71008 13.3552C7.51986 13.5401 7.26534 13.6441 7.00006 13.6453C6.73515 13.6423 6.48129 13.5386 6.29004 13.3552C6.10269 13.1664 5.99756 12.9113 5.99756 12.6453C5.99756 12.3793 6.10269 12.1241 6.29004 11.9353L12.29 5.9353C12.4783 5.747 12.7338 5.64111 13.0001 5.64111C13.2664 5.64111 13.5218 5.747 13.7101 5.9353C13.8984 6.12361 14.0042 6.37896 14.0042 6.64526C14.0042 6.91157 13.8984 7.16692 13.7101 7.35522Z" fill="#5DB05A"/>
</svg>
