<svg width="40" height="40" viewBox="0 0 40 40" fill="none" xmlns="http://www.w3.org/2000/svg">
<rect width="40" height="40" rx="20" fill="#484848"/>
<path d="M20 10C18.0222 10 16.0888 10.5865 14.4443 11.6853C12.7998 12.7841 11.5181 14.3459 10.7612 16.1731C10.0043 18.0004 9.8063 20.0111 10.1922 21.9509C10.578 23.8907 11.5304 25.6725 12.9289 27.0711C14.3275 28.4696 16.1093 29.422 18.0491 29.8078C19.9889 30.1937 21.9996 29.9957 23.8268 29.2388C25.6541 28.4819 27.2159 27.2003 28.3147 25.5558C29.4135 23.9113 30 21.9778 30 20C29.997 17.3488 28.9425 14.8069 27.0678 12.9322C25.1931 11.0575 22.6512 10.003 20 10ZM20 28.4615C18.3265 28.4615 16.6905 27.9653 15.299 27.0355C13.9075 26.1057 12.823 24.7842 12.1826 23.2381C11.5421 21.6919 11.3746 19.9906 11.7011 18.3492C12.0275 16.7079 12.8334 15.2002 14.0168 14.0168C15.2002 12.8334 16.7079 12.0276 18.3492 11.7011C19.9906 11.3746 21.6919 11.5422 23.2381 12.1826C24.7842 12.8231 26.1057 13.9075 27.0355 15.299C27.9653 16.6905 28.4615 18.3265 28.4615 20C28.4591 22.2434 27.5668 24.3943 25.9805 25.9806C24.3942 27.5669 22.2434 28.4591 20 28.4615ZM23.7857 17.2575C23.9145 18.0141 23.8074 18.7921 23.479 19.4858C23.1505 20.1795 22.6167 20.7555 21.9497 21.1354C20.9846 21.7765 20.7744 22.161 20.7292 22.2974C20.6776 22.4499 20.5795 22.5823 20.4487 22.6762C20.3179 22.77 20.161 22.8205 20 22.8205C19.9164 22.8203 19.8333 22.8068 19.7539 22.7806C19.5606 22.7152 19.4011 22.5756 19.3105 22.3927C19.22 22.2098 19.2057 21.9985 19.2708 21.8051C19.6516 20.9739 20.2933 20.2897 21.0985 19.8564C21.516 19.6429 21.8547 19.3019 22.0653 18.8828C22.2759 18.4638 22.3476 17.9886 22.2698 17.5262C22.1644 16.9601 21.8513 16.4538 21.392 16.1066C20.9326 15.7595 20.3601 15.5965 19.7868 15.6497C19.2135 15.7028 18.6807 15.9684 18.2931 16.3941C17.9054 16.8198 17.6907 17.3749 17.6913 17.9507C17.6913 18.1547 17.6102 18.3505 17.466 18.4947C17.3217 18.639 17.1261 18.72 16.922 18.72C16.718 18.72 16.5224 18.639 16.3781 18.4947C16.2339 18.3505 16.1528 18.1547 16.1528 17.9507C16.1513 16.9894 16.5098 16.0624 17.1576 15.3522C17.8054 14.642 18.6956 14.2 19.653 14.1133C20.6103 14.0266 21.5655 14.3014 22.3304 14.8837C23.0953 15.466 23.6144 16.3136 23.7857 17.2595V17.2575ZM21.0256 25.1282C21.0256 25.3311 20.9655 25.5293 20.8528 25.698C20.7401 25.8667 20.5799 25.9981 20.3925 26.0757C20.2051 26.1533 19.9989 26.1738 19.7999 26.1342C19.6009 26.0946 19.4182 25.9969 19.2748 25.8535C19.1313 25.7101 19.0337 25.5272 18.9941 25.3283C18.9545 25.1293 18.9748 24.9231 19.0524 24.7357C19.1301 24.5483 19.2615 24.3882 19.4302 24.2755C19.5988 24.1628 19.7971 24.1026 20 24.1026C20.272 24.1026 20.5329 24.2106 20.7252 24.4029C20.9176 24.5953 21.0256 24.8562 21.0256 25.1282Z" fill="white"/>
</svg>
