<svg width="20" height="19" viewBox="0 0 20 19" fill="none" xmlns="http://www.w3.org/2000/svg">
<path d="M15.2598 8.01831H14.3398L12.0398 10.3184C11.8095 10.5527 11.5347 10.7387 11.2317 10.8657C10.9287 10.9928 10.6034 11.0583 10.2748 11.0583C9.9462 11.0583 9.62091 10.9928 9.31787 10.8657C9.01484 10.7387 8.74012 10.5527 8.50977 10.3184L6.20978 8.01831H5.25977C4.0663 8.01831 2.92168 8.49251 2.07776 9.33643C1.23385 10.1803 0.75977 11.3248 0.75977 12.5183V13.5183C0.75898 14.1095 0.874846 14.6951 1.10071 15.2415C1.32658 15.7878 1.65803 16.2841 2.07605 16.7021C2.49407 17.1202 2.99043 17.4516 3.53675 17.6775C4.08307 17.9034 4.6686 18.0191 5.25977 18.0183H15.2598C16.4532 18.0183 17.5979 17.5441 18.4418 16.7002C19.2857 15.8563 19.7598 14.7118 19.7598 13.5183V12.5183C19.7579 11.3254 19.2832 10.1819 18.4397 9.33838C17.5962 8.49487 16.4527 8.02016 15.2598 8.01831ZM15.2598 13.7683C15.0121 13.7703 14.7695 13.6986 14.5626 13.5625C14.3558 13.4264 14.194 13.2319 14.0978 13.0037C14.0017 12.7754 13.9755 12.5239 14.0226 12.2808C14.0697 12.0376 14.188 11.8138 14.3624 11.6379C14.5368 11.4621 14.7595 11.3423 15.0022 11.2932C15.2449 11.2442 15.4968 11.2682 15.7258 11.3625C15.9548 11.4569 16.1506 11.617 16.2884 11.8228C16.4262 12.0285 16.4998 12.2707 16.4998 12.5183C16.499 12.8479 16.3685 13.164 16.1364 13.3979C15.9043 13.6319 15.5893 13.7649 15.2598 13.7683ZM6.56977 6.2583C6.38352 6.07094 6.279 5.81741 6.279 5.55322C6.279 5.28904 6.38352 5.03575 6.56977 4.84839C6.75713 4.66214 7.0106 4.55762 7.27478 4.55762C7.53897 4.55762 7.79238 4.66214 7.97974 4.84839L9.26978 6.13843V1.55835C9.26978 1.29313 9.37515 1.03885 9.56269 0.851318C9.75022 0.663782 10.0046 0.55835 10.2698 0.55835C10.535 0.55835 10.7893 0.663782 10.9769 0.851318C11.1644 1.03885 11.2698 1.29313 11.2698 1.55835V6.13843L12.5698 4.84839C12.7571 4.66214 13.0106 4.55762 13.2748 4.55762C13.539 4.55762 13.7924 4.66214 13.9797 4.84839C14.166 5.03575 14.2706 5.28904 14.2706 5.55322C14.2706 5.81741 14.166 6.07094 13.9797 6.2583L12.2198 8.01831L10.9797 9.2583C10.8885 9.35321 10.779 9.42865 10.6579 9.48022C10.5368 9.5318 10.4065 9.55859 10.2748 9.55859C10.1431 9.55859 10.0128 9.5318 9.89167 9.48022C9.77052 9.42865 9.66102 9.35321 9.56977 9.2583L6.56977 6.2583Z" fill="#5DB05A"/>
</svg>
