<svg width="20" height="18" viewBox="0 0 20 18" fill="none" xmlns="http://www.w3.org/2000/svg">
<path d="M6.4812 5.66479C6.41153 5.59513 6.35631 5.51241 6.3186 5.42139C6.2809 5.33036 6.26147 5.2328 6.26147 5.13428C6.26147 5.03575 6.2809 4.93819 6.3186 4.84717C6.35631 4.75614 6.41153 4.67343 6.4812 4.60376C6.55087 4.53409 6.63359 4.47887 6.72461 4.44116C6.81563 4.40346 6.9132 4.38403 7.01172 4.38403C7.11024 4.38403 7.2078 4.40346 7.29883 4.44116C7.38985 4.47887 7.47257 4.53409 7.54224 4.60376L9.26221 6.32373V1.13477C9.26221 0.935853 9.34122 0.745144 9.48187 0.604492C9.62253 0.46384 9.81329 0.384766 10.0122 0.384766C10.2111 0.384766 10.4019 0.46384 10.5425 0.604492C10.6832 0.745144 10.7622 0.935853 10.7622 1.13477V6.32373L12.4822 4.60376C12.5519 4.53409 12.6346 4.47887 12.7256 4.44116C12.8167 4.40346 12.9142 4.38403 13.0128 4.38403C13.1113 4.38403 13.2088 4.40346 13.2998 4.44116C13.3908 4.47887 13.4735 4.53409 13.5432 4.60376C13.6129 4.67343 13.6682 4.75614 13.7059 4.84717C13.7436 4.93819 13.763 5.03575 13.763 5.13428C13.763 5.2328 13.7436 5.33036 13.7059 5.42139C13.6682 5.51241 13.6129 5.59513 13.5432 5.66479L10.5432 8.66479C10.4736 8.73446 10.3911 8.78969 10.3001 8.82739C10.2092 8.8651 10.1117 8.88452 10.0132 8.88452C9.91479 8.88452 9.81732 8.8651 9.72638 8.82739C9.63544 8.78969 9.55278 8.73446 9.48322 8.66479L6.4812 5.66479ZM15.0112 7.38477C14.8123 7.38477 14.6215 7.46384 14.4809 7.60449C14.3402 7.74514 14.2612 7.93585 14.2612 8.13477C14.2612 8.33368 14.3402 8.52439 14.4809 8.66504C14.6215 8.80569 14.8123 8.88477 15.0112 8.88477C15.8729 8.88582 16.6989 9.22863 17.3082 9.83789C17.9174 10.4472 18.2602 11.2731 18.2612 12.1348V13.1348C18.2602 13.9964 17.9174 14.8224 17.3082 15.4316C16.6989 16.0409 15.8729 16.3837 15.0112 16.3848H5.01123C4.1496 16.3837 3.32356 16.0409 2.71429 15.4316C2.10503 14.8224 1.76229 13.9964 1.76123 13.1348V12.1348C1.76229 11.2731 2.10503 10.4472 2.71429 9.83789C3.32356 9.22863 4.1496 8.88582 5.01123 8.88477C5.21014 8.88477 5.40091 8.80569 5.54156 8.66504C5.68222 8.52439 5.76123 8.33368 5.76123 8.13477C5.76123 7.93585 5.68222 7.74514 5.54156 7.60449C5.40091 7.46384 5.21014 7.38477 5.01123 7.38477C3.75194 7.38635 2.54469 7.88726 1.65424 8.77771C0.763782 9.66816 0.262818 10.8755 0.26123 12.1348V13.1348C0.262818 14.3941 0.763782 15.6014 1.65424 16.4918C2.54469 17.3823 3.75194 17.8832 5.01123 17.8848H15.0112C16.2705 17.8832 17.4778 17.3823 18.3682 16.4918C19.2587 15.6014 19.7596 14.3941 19.7612 13.1348V12.1348C19.7596 10.8755 19.2587 9.66816 18.3682 8.77771C17.4778 7.88726 16.2705 7.38635 15.0112 7.38477ZM16.0112 12.1348C16.0112 11.937 15.9526 11.7437 15.8427 11.5792C15.7328 11.4148 15.5766 11.2866 15.3939 11.2109C15.2112 11.1353 15.0101 11.1153 14.8162 11.1539C14.6222 11.1925 14.444 11.2878 14.3041 11.4276C14.1643 11.5675 14.069 11.7457 14.0305 11.9397C13.9919 12.1337 14.0117 12.3347 14.0873 12.5175C14.163 12.7002 14.2912 12.8563 14.4557 12.9662C14.6201 13.0761 14.8134 13.1348 15.0112 13.1348C15.2764 13.1348 15.5308 13.0295 15.7183 12.8419C15.9059 12.6544 16.0112 12.4 16.0112 12.1348Z" fill="#484848"/>
</svg>
