<svg width="20" height="16" viewBox="0 0 20 16" fill="none" xmlns="http://www.w3.org/2000/svg">
<path d="M15.0112 0.384754H5.01123C4.30956 0.385639 3.62405 0.541544 3.00049 0.833482C2.50495 1.06549 2.04853 1.3834 1.65424 1.7777C0.763782 2.66815 0.262818 3.87546 0.26123 5.13475V11.1348C0.262818 12.394 0.763782 13.6014 1.65424 14.4918C2.54469 15.3823 3.75194 15.8832 5.01123 15.8848H15.0112C16.2705 15.8832 17.4778 15.3823 18.3682 14.4918C19.2587 13.6014 19.7596 12.394 19.7612 11.1348V5.13475C19.7596 3.87546 19.2587 2.66815 18.3682 1.7777C17.4778 0.887245 16.2705 0.386342 15.0112 0.384754ZM5.01123 1.88475H15.0112C15.6542 1.88648 16.2823 2.07863 16.8162 2.43688C17.3501 2.79513 17.7659 3.30338 18.0112 3.89769L11.8112 8.03173C11.2782 8.38709 10.6519 8.57677 10.0112 8.57677C9.37059 8.57677 8.74429 8.38709 8.21124 8.03173L2.01123 3.89769C2.25612 3.30306 2.67187 2.79446 3.20587 2.43615C3.73988 2.07783 4.36815 1.88595 5.01123 1.88475ZM15.0112 14.3848H5.01123C4.1496 14.3837 3.32356 14.0409 2.71429 13.4316C2.10503 12.8224 1.76229 11.9964 1.76123 11.1348V5.53478L7.37622 9.2788C8.15599 9.80044 9.07306 10.0788 10.0112 10.0788C10.9494 10.0788 11.8665 9.80044 12.6462 9.2788L18.2612 5.53478V11.1348C18.2602 11.9964 17.9174 12.8224 17.3082 13.4316C16.6989 14.0409 15.8729 14.3837 15.0112 14.3848Z" fill="#484848"/>
</svg>
