<svg width="20" height="16" viewBox="0 0 20 16" fill="none" xmlns="http://www.w3.org/2000/svg">
<path d="M8.61975 7.24829L1.44977 2.15845C1.85314 1.51117 2.41442 0.976793 3.08087 0.605957C3.74733 0.235121 4.49709 0.039875 5.25977 0.0383301H15.2598C16.0215 0.0388143 16.7706 0.232764 17.437 0.601807C18.1034 0.970849 18.6652 1.50301 19.0698 2.14844L11.9197 7.22827C11.4319 7.55383 10.8593 7.72936 10.2728 7.73291C9.68625 7.73646 9.11154 7.56791 8.61975 7.24829ZM19.7397 4.13843L13.0598 8.87842C12.2271 9.43202 11.2496 9.72754 10.2498 9.72827C9.26692 9.72745 8.3064 9.43527 7.48975 8.88843L0.779785 4.13843C0.769785 4.26843 0.759766 4.40833 0.759766 4.53833V10.5383C0.761617 11.7312 1.23632 12.8747 2.07983 13.7183C2.92335 14.5618 4.06686 15.0365 5.25977 15.0383H15.2598C16.4527 15.0365 17.5962 14.5618 18.4397 13.7183C19.2832 12.8747 19.7579 11.7312 19.7598 10.5383V4.53833C19.7598 4.40833 19.7497 4.26843 19.7397 4.13843Z" fill="#5DB05A"/>
</svg>
