<svg width="20" height="20" viewBox="0 0 20 20" fill="none" xmlns="http://www.w3.org/2000/svg">
<path d="M9.75 0.384766C7.82163 0.384766 5.93657 0.95661 4.33319 2.02795C2.72981 3.0993 1.48014 4.62198 0.742186 6.40356C0.00423121 8.18514 -0.18886 10.1456 0.187346 12.0369C0.563551 13.9282 1.49215 15.6655 2.85571 17.0291C4.21927 18.3926 5.95655 19.3212 7.84787 19.6974C9.73918 20.0736 11.6996 19.8805 13.4812 19.1426C15.2627 18.4046 16.7855 17.155 17.8568 15.5516C18.9282 13.9483 19.5 12.0631 19.5 10.1348C19.4971 7.5498 18.4689 5.0715 16.6411 3.24365C14.8132 1.4158 12.335 0.387677 9.75 0.384766ZM9.75 18.3848C8.1183 18.3848 6.52324 17.9009 5.16653 16.9944C3.80983 16.0879 2.75241 14.7994 2.12799 13.2919C1.50357 11.7844 1.34018 10.1256 1.65851 8.52527C1.97683 6.92493 2.7626 5.45493 3.91638 4.30115C5.07016 3.14736 6.54016 2.36166 8.1405 2.04333C9.74084 1.72501 11.3996 1.88839 12.9071 2.51282C14.4146 3.13724 15.7031 4.19456 16.6096 5.55127C17.5161 6.90798 18 8.50307 18 10.1348C17.9976 12.3221 17.1277 14.4192 15.581 15.9658C14.0343 17.5125 11.9373 18.3824 9.75 18.3848ZM10.75 14.1348C10.75 14.3325 10.6914 14.5259 10.5815 14.6903C10.4716 14.8548 10.3154 14.9829 10.1327 15.0586C9.94996 15.1343 9.74888 15.1542 9.5549 15.1156C9.36092 15.077 9.18276 14.9818 9.04291 14.8419C8.90305 14.7021 8.80781 14.5238 8.76922 14.3298C8.73064 14.1359 8.75042 13.9348 8.82611 13.7521C8.9018 13.5693 9.02998 13.4132 9.19443 13.3033C9.35887 13.1935 9.55222 13.1348 9.75 13.1348C10.0152 13.1348 10.2696 13.2401 10.4571 13.4276C10.6446 13.6151 10.75 13.8695 10.75 14.1348ZM9 10.1348V6.13477C9 5.93585 9.07901 5.74514 9.21966 5.60449C9.36032 5.46384 9.55109 5.38477 9.75 5.38477C9.94891 5.38477 10.1397 5.46384 10.2803 5.60449C10.421 5.74514 10.5 5.93585 10.5 6.13477V10.1348C10.5 10.3337 10.421 10.5244 10.2803 10.665C10.1397 10.8057 9.94891 10.8848 9.75 10.8848C9.55109 10.8848 9.36032 10.8057 9.21966 10.665C9.07901 10.5244 9 10.3337 9 10.1348Z" fill="#484848"/>
</svg>
