<svg width="20" height="21" viewBox="0 0 20 21" fill="none" xmlns="http://www.w3.org/2000/svg">
<path d="M10 0.645264C8.0222 0.645264 6.08881 1.23175 4.44432 2.33057C2.79983 3.42938 1.51809 4.9911 0.761212 6.81836C0.00433564 8.64562 -0.193701 10.6564 0.192151 12.5962C0.578003 14.536 1.53041 16.3178 2.92894 17.7163C4.32746 19.1148 6.10931 20.0673 8.04912 20.4531C9.98892 20.839 11.9996 20.6409 13.8269 19.884C15.6541 19.1272 17.2159 17.8454 18.3147 16.2009C19.4135 14.5564 20 12.6231 20 10.6453C19.9958 7.9944 18.9409 5.4533 17.0664 3.57886C15.192 1.70441 12.6509 0.649495 10 0.645264ZM10 15.6453C9.80223 15.6453 9.60889 15.5867 9.44444 15.4768C9.27999 15.3669 9.15181 15.2106 9.07612 15.0278C9.00044 14.8451 8.98065 14.6442 9.01924 14.4502C9.05782 14.2562 9.15307 14.0781 9.29292 13.9382C9.43277 13.7984 9.61093 13.7031 9.80491 13.6646C9.99889 13.626 10.2 13.6457 10.3827 13.7214C10.5654 13.7971 10.7216 13.9252 10.8315 14.0896C10.9414 14.254 11 14.4475 11 14.6453C11 14.9105 10.8946 15.1648 10.7071 15.3523C10.5196 15.5398 10.2652 15.6453 10 15.6453ZM11 10.6453C11 10.9105 10.8946 11.1648 10.7071 11.3523C10.5196 11.5398 10.2652 11.6453 10 11.6453C9.7348 11.6453 9.48046 11.5398 9.29292 11.3523C9.10538 11.1648 9.00001 10.9105 9.00001 10.6453V6.64526C9.00001 6.38005 9.10538 6.12577 9.29292 5.93823C9.48046 5.7507 9.7348 5.64526 10 5.64526C10.2652 5.64526 10.5196 5.7507 10.7071 5.93823C10.8946 6.12577 11 6.38005 11 6.64526V10.6453Z" fill="#5DB05A"/>
</svg>
