<svg width="20" height="19" viewBox="0 0 20 19" fill="none" xmlns="http://www.w3.org/2000/svg">
<path d="M19.0189 7.88627C18.2969 6.69681 17.4056 5.61888 16.3729 4.68632L18.7049 2.35429C18.8871 2.16568 18.9879 1.91311 18.9856 1.65092C18.9833 1.38872 18.8781 1.13784 18.6927 0.95243C18.5073 0.767022 18.2565 0.661984 17.9943 0.659706C17.7321 0.657427 17.4795 0.758065 17.2909 0.940223L1.29091 16.9402C1.1954 17.0325 1.11923 17.1429 1.06682 17.2649C1.01441 17.3869 0.986824 17.5181 0.985671 17.6509C0.984517 17.7837 1.00982 17.9155 1.0601 18.0384C1.11038 18.1613 1.18462 18.2728 1.27852 18.3667C1.37241 18.4606 1.48408 18.535 1.60698 18.5852C1.72987 18.6355 1.86156 18.6606 1.99434 18.6595C2.12712 18.6583 2.25832 18.6308 2.38032 18.5784C2.50233 18.526 2.61266 18.4498 2.70491 18.3543L5.23991 15.8194C6.67474 16.69 8.32161 17.1487 9.99992 17.1453C14.8299 17.1453 17.7199 13.5453 19.0199 11.4053C19.3385 10.8737 19.5068 10.2653 19.5066 9.64555C19.5064 9.02574 19.3379 8.41772 19.0189 7.88627ZM9.99992 14.1453C9.15464 14.1428 8.32747 13.9001 7.61491 13.4454L9.08794 11.9712C9.46671 12.1225 9.87682 12.1785 10.2822 12.1341C10.6877 12.0896 11.076 11.9461 11.4129 11.7163C11.7499 11.4866 12.0253 11.1776 12.2149 10.8164C12.4044 10.4553 12.5023 10.0531 12.4999 9.6453C12.5016 9.60173 12.4982 9.55822 12.4899 9.51542C12.3406 9.60042 12.1718 9.64509 11.9999 9.6453C11.8381 9.64197 11.6796 9.59837 11.5389 9.51835L13.8009 7.25639C14.2563 7.97014 14.4991 8.79867 14.5009 9.6453C14.4996 10.8385 14.0249 11.9826 13.1811 12.8262C12.3372 13.6699 11.1932 14.1442 9.99992 14.1453ZM2.31993 13.2654C1.82766 12.6819 1.38289 12.0598 0.989913 11.4053C0.671818 10.8737 0.502995 10.2663 0.501235 9.64677C0.499475 9.02728 0.664864 8.41868 0.979933 7.88529C2.27993 5.74529 5.17992 2.1453 9.99992 2.1453C10.9319 2.14349 11.859 2.28161 12.7499 2.55521C12.8336 2.58137 12.9094 2.62809 12.9706 2.69096C13.0317 2.75382 13.0761 2.83094 13.0999 2.91532C13.1204 2.99904 13.1182 3.08664 13.0936 3.16923C13.0689 3.25182 13.0228 3.3264 12.9599 3.38529L11.0699 5.27518C10.7195 5.19073 10.3604 5.14723 9.99992 5.1453C8.80702 5.14715 7.6635 5.62186 6.81999 6.46537C5.97648 7.30888 5.50177 8.4524 5.49992 9.6453C5.49754 10.0093 5.54123 10.3723 5.62993 10.7254L3.05992 13.2952C3.01334 13.3435 2.95738 13.3817 2.89546 13.4075C2.83354 13.4333 2.767 13.4463 2.69993 13.4454H2.67991C2.61062 13.4422 2.54275 13.4247 2.4806 13.3938C2.41846 13.363 2.36339 13.3196 2.31892 13.2664L2.31993 13.2654Z" fill="#5DB05A"/>
</svg>
