<svg width="20" height="16" viewBox="0 0 20 16" fill="none" xmlns="http://www.w3.org/2000/svg">
<path d="M19.019 5.88623C17.729 3.74623 14.8489 0.14624 9.99893 0.14624C5.14893 0.14624 2.26895 3.74623 0.988953 5.88623C0.669701 6.41596 0.500977 7.02286 0.500977 7.64136C0.500977 8.25985 0.669701 8.86651 0.988953 9.39624C2.26895 11.5462 5.15893 15.1462 9.99893 15.1462C14.8389 15.1462 17.729 11.5462 19.019 9.39624C19.3368 8.86763 19.5061 8.26304 19.5089 7.64624C19.5048 7.02647 19.3357 6.41898 19.019 5.88623ZM9.99994 12.1453C9.10992 12.1453 8.2399 11.8814 7.49988 11.387C6.75986 10.8925 6.18306 10.1897 5.84247 9.36743C5.50187 8.54516 5.41276 7.64025 5.5864 6.76733C5.76003 5.89442 6.18863 5.09272 6.81796 4.46338C7.4473 3.83404 8.24913 3.40532 9.12204 3.23169C9.99495 3.05806 10.8997 3.1472 11.722 3.48779C12.5443 3.82839 13.2471 4.40524 13.7415 5.14526C14.236 5.88528 14.4999 6.75525 14.4999 7.64526C14.4981 8.83817 14.0234 9.98168 13.1799 10.8252C12.3364 11.6687 11.1928 12.1434 9.99994 12.1453ZM12.4899 7.50537C12.4982 7.55155 12.5016 7.59837 12.4999 7.64526C12.5002 8.21394 12.3065 8.76569 11.9509 9.20947C11.5953 9.65326 11.099 9.96244 10.5439 10.0862C9.98889 10.2099 9.40823 10.1408 8.8978 9.89014C8.38736 9.63943 7.97766 9.22219 7.7363 8.70728C7.49493 8.19236 7.43633 7.61057 7.57016 7.05786C7.70399 6.50515 8.02226 6.0147 8.47244 5.66724C8.92263 5.31978 9.47784 5.13616 10.0464 5.14673C10.615 5.1573 11.163 5.36139 11.5999 5.72534C11.4223 5.80507 11.2713 5.93406 11.1649 6.09717C11.0585 6.26027 11.0013 6.45054 10.9999 6.64526C10.9999 6.91048 11.1053 7.16476 11.2928 7.35229C11.4804 7.53983 11.7347 7.64526 11.9999 7.64526C12.1729 7.64649 12.3425 7.59835 12.489 7.50635L12.4899 7.50537Z" fill="#5DB05A"/>
</svg>
