<svg width="21" height="16" viewBox="0 0 21 16" fill="none" xmlns="http://www.w3.org/2000/svg">
<path d="M19.9791 6.24976C18.6641 4.05976 15.7161 0.383789 10.7501 0.383789C5.78409 0.383789 2.83609 4.05876 1.52109 6.24976C1.17901 6.81865 0.998291 7.46997 0.998291 8.13379C0.998291 8.79761 1.17901 9.44887 1.52109 10.0178C2.83709 12.2078 5.78509 15.8838 10.7501 15.8838C15.7151 15.8838 18.6641 12.2088 19.9791 10.0178C20.3216 9.44902 20.5026 8.7977 20.5026 8.13379C20.5026 7.46988 20.3216 6.8185 19.9791 6.24976ZM18.6931 9.24976C17.5411 11.1688 14.9771 14.3878 10.7501 14.3878C6.52309 14.3878 3.9591 11.1688 2.8071 9.24976C2.60541 8.9139 2.49887 8.52952 2.49887 8.13776C2.49887 7.746 2.60541 7.36161 2.8071 7.02576C3.9591 5.10676 6.52409 1.88776 10.7501 1.88776C14.9761 1.88776 17.5421 5.10676 18.6931 7.02576C18.8947 7.36108 19.0013 7.74501 19.0013 8.13629C19.0013 8.52757 18.8947 8.91144 18.6931 9.24677V9.24976ZM10.7501 3.88477C9.90952 3.88477 9.08782 4.13402 8.38892 4.60101C7.69001 5.06801 7.14528 5.73178 6.82361 6.50836C6.50194 7.28495 6.41777 8.13951 6.58176 8.96393C6.74574 9.78835 7.1505 10.5456 7.74487 11.14C8.33925 11.7344 9.09654 12.1391 9.92096 12.3031C10.7454 12.4671 11.5999 12.383 12.3765 12.0613C13.1531 11.7396 13.8168 11.1949 14.2838 10.496C14.7508 9.79706 15.0001 8.97534 15.0001 8.13477C14.9988 7.008 14.5506 5.92779 13.7538 5.13104C12.9571 4.3343 11.8769 3.88609 10.7501 3.88477ZM10.7501 10.8848C10.2062 10.8848 9.67449 10.7234 9.22226 10.4213C8.77002 10.1191 8.41755 9.68963 8.20941 9.18713C8.00127 8.68464 7.94681 8.13171 8.05292 7.59827C8.15903 7.06482 8.42095 6.57484 8.80554 6.19025C9.19014 5.80565 9.68015 5.54373 10.2136 5.43762C10.747 5.33151 11.3 5.38598 11.8025 5.59412C12.305 5.80226 12.7344 6.1547 13.0366 6.60693C13.3388 7.05917 13.5001 7.59087 13.5001 8.13477C13.4996 8.86395 13.2097 9.56312 12.6941 10.0787C12.1785 10.5943 11.4793 10.8842 10.7501 10.8848Z" fill="#484848"/>
</svg>
