<svg width="20" height="18" viewBox="0 0 20 18" fill="none" xmlns="http://www.w3.org/2000/svg">
<path d="M18.9799 7.24878C18.2062 5.9682 17.2371 4.81632 16.1079 3.83478L18.2779 1.66479C18.4186 1.5241 18.4977 1.33325 18.4977 1.13428C18.4977 0.935301 18.4186 0.744457 18.2779 0.60376C18.1372 0.463062 17.9464 0.384033 17.7474 0.384033C17.5484 0.384033 17.3576 0.463062 17.2169 0.60376L11.6839 6.13477L1.2189 16.5997C1.14724 16.6689 1.09007 16.7517 1.05072 16.8431C1.01137 16.9346 0.990628 17.033 0.989716 17.1326C0.988804 17.2322 1.00774 17.3309 1.04541 17.4231C1.08308 17.5153 1.13872 17.5991 1.20911 17.6696C1.27949 17.74 1.3632 17.7957 1.45535 17.8335C1.54751 17.8713 1.64627 17.8902 1.74585 17.8894C1.84543 17.8886 1.94385 17.868 2.03537 17.8287C2.12689 17.7895 2.20968 17.7324 2.2789 17.6608L4.5889 15.3507C6.12474 16.3506 7.91827 16.8822 9.75092 16.8807C14.6979 16.8807 17.6569 13.2077 18.9819 11.0157C19.3232 10.4467 19.5033 9.79551 19.5029 9.13196C19.5026 8.46841 19.3218 7.81748 18.9799 7.24878ZM12.4979 9.13477C12.4971 9.86387 12.2071 10.5629 11.6916 11.0784C11.176 11.594 10.477 11.884 9.74789 11.8848C9.28073 11.8826 8.82212 11.7592 8.4169 11.5267L12.1389 7.80475C12.372 8.20939 12.4957 8.66778 12.4979 9.13477ZM17.6979 10.2468C16.5379 12.1658 13.9629 15.3848 9.75192 15.3848C8.32156 15.3797 6.91913 14.9881 5.6929 14.2517L7.32791 12.6168C8.03587 13.1174 8.88183 13.3857 9.7489 13.3848C10.8757 13.3834 11.9559 12.9353 12.7527 12.1385C13.5494 11.3418 13.9976 10.2615 13.9989 9.13477C13.9999 8.26769 13.7315 7.4217 13.2309 6.71375L15.0479 4.89679C16.0924 5.78896 16.9866 6.84343 17.6959 8.01978C17.8971 8.35634 18.0034 8.74111 18.0034 9.13324C18.0034 9.52537 17.8971 9.9102 17.6959 10.2468H17.6979ZM1.88092 12.9177C1.37894 12.3211 0.924856 11.6859 0.522919 11.0178C0.18154 10.4479 0.0012207 9.79607 0.0012207 9.13177C0.0012207 8.46748 0.18154 7.81566 0.522919 7.24579C1.84792 5.05379 4.80691 1.38074 9.75391 1.38074C10.7113 1.38092 11.6633 1.52319 12.5789 1.8028C12.765 1.86366 12.9199 1.99488 13.0106 2.16846C13.1012 2.34203 13.1204 2.54418 13.064 2.73169C13.0076 2.9192 12.8801 3.07718 12.7087 3.17194C12.5373 3.26669 12.3357 3.29069 12.1469 3.23877C11.371 3.00183 10.5642 2.88116 9.7529 2.88074C5.5429 2.88074 2.96692 6.09974 1.80692 8.01874C1.6057 8.35531 1.49945 8.74013 1.49945 9.13226C1.49945 9.52439 1.6057 9.90922 1.80692 10.2458C2.16782 10.8437 2.57542 11.4121 3.02591 11.9458C3.09253 12.0206 3.14347 12.1079 3.17575 12.2028C3.20804 12.2976 3.22102 12.398 3.2139 12.4979C3.20677 12.5978 3.17969 12.6953 3.13428 12.7845C3.08886 12.8738 3.02602 12.9531 2.94946 13.0177C2.8729 13.0823 2.78419 13.1309 2.68854 13.1606C2.59289 13.1904 2.49224 13.2007 2.39255 13.1909C2.29285 13.1811 2.19611 13.1515 2.10806 13.1038C2.02002 13.056 1.94245 12.991 1.87991 12.9127L1.88092 12.9177ZM9.94092 5.56976C9.95599 5.66708 9.95171 5.76645 9.92834 5.86212C9.90498 5.95779 9.86296 6.0479 9.80472 6.12732C9.74648 6.20673 9.67315 6.27385 9.58893 6.32489C9.50471 6.37593 9.41125 6.40986 9.3139 6.42474C8.74414 6.51647 8.21779 6.78553 7.80972 7.1936C7.40165 7.60168 7.13262 8.12799 7.04089 8.69775C7.00591 8.88995 6.89732 9.0609 6.73822 9.17426C6.57912 9.28761 6.38207 9.33439 6.189 9.30469C5.99592 9.27498 5.82205 9.17113 5.70438 9.0152C5.5867 8.85926 5.5345 8.66361 5.5589 8.46979C5.69271 7.58216 6.10739 6.76072 6.74213 6.12598C7.37687 5.49124 8.19828 5.07656 9.08591 4.94275C9.28195 4.91425 9.48134 4.96409 9.64096 5.08142C9.80058 5.19875 9.9076 5.37415 9.9389 5.56976H9.94092Z" fill="#484848"/>
</svg>
