<svg width="16" height="20" viewBox="0 0 16 20" fill="none" xmlns="http://www.w3.org/2000/svg">
<path d="M11.0098 3.03833V0.578369L15.2198 4.78833H12.7598C12.2963 4.78623 11.8524 4.60117 11.5247 4.27344C11.1969 3.9457 11.0119 3.50181 11.0098 3.03833ZM12.7598 6.28833C11.8983 6.28674 11.0726 5.94387 10.4634 5.33472C9.85426 4.72557 9.51135 3.8998 9.50977 3.03833V0.0383301H5.25977C4.06686 0.0401814 2.92335 0.514886 2.07983 1.3584C1.23632 2.20191 0.761617 3.34542 0.759766 4.53833V14.5383C0.761617 15.7312 1.23632 16.8747 2.07983 17.7183C2.92335 18.5618 4.06686 19.0365 5.25977 19.0383H11.2598C12.4527 19.0365 13.5962 18.5618 14.4397 17.7183C15.2832 16.8747 15.7579 15.7312 15.7598 14.5383V6.28833H12.7598Z" fill="#5DB05A"/>
</svg>
