<svg width="16" height="20" viewBox="0 0 16 20" fill="none" xmlns="http://www.w3.org/2000/svg">
<path d="M15.2482 5.31177L10.8342 0.897711C10.6722 0.734603 10.4795 0.605278 10.2672 0.517218C10.0548 0.429157 9.8271 0.384173 9.59723 0.384772H5.01123C3.75194 0.386359 2.54469 0.887262 1.65424 1.77772C0.763782 2.66817 0.262818 3.87548 0.26123 5.13477V15.1348C0.262818 16.3941 0.763782 17.6014 1.65424 18.4918C2.54469 19.3823 3.75194 19.8832 5.01123 19.8848H11.0112C12.2705 19.8832 13.4778 19.3823 14.3682 18.4918C15.2587 17.6014 15.7596 16.3941 15.7612 15.1348V6.54871C15.7619 6.31883 15.7169 6.09114 15.6288 5.87879C15.5408 5.66644 15.4114 5.47372 15.2482 5.31177ZM10.7612 2.94483L13.2002 5.38379H12.5112C12.0473 5.38327 11.6025 5.19869 11.2744 4.87061C10.9463 4.54254 10.7618 4.09776 10.7612 3.6338V2.94483ZM11.0112 18.3848H5.01123C4.1496 18.3837 3.32356 18.0409 2.71429 17.4316C2.10503 16.8224 1.76229 15.9964 1.76123 15.1348V5.13477C1.76229 4.27314 2.10503 3.44716 2.71429 2.8379C3.32356 2.22863 4.1496 1.88583 5.01123 1.88477H9.26123V3.63477C9.26229 4.4964 9.60503 5.32238 10.2143 5.93165C10.8236 6.54091 11.6496 6.88371 12.5112 6.88477H14.2612V15.1348C14.2602 15.9964 13.9174 16.8224 13.3082 17.4316C12.6989 18.0409 11.8729 18.3837 11.0112 18.3848Z" fill="#484848"/>
</svg>
