<svg width="20" height="20" viewBox="0 0 20 20" fill="none" xmlns="http://www.w3.org/2000/svg">
<path d="M15.0112 0.384766H5.01123C3.75194 0.386353 2.54467 0.887256 1.65422 1.77771C0.763767 2.66816 0.262818 3.87547 0.26123 5.13477V15.1348C0.262818 16.3941 0.763767 17.6014 1.65422 18.4918C2.54467 19.3823 3.75194 19.8832 5.01123 19.8848H15.0112C16.2705 19.8832 17.4778 19.3823 18.3682 18.4918C19.2587 17.6014 19.7596 16.3941 19.7612 15.1348V5.13477C19.7596 3.87547 19.2587 2.66816 18.3682 1.77771C17.4778 0.887256 16.2705 0.386353 15.0112 0.384766ZM15.7612 10.8848H18.2612V13.3848H15.7612V10.8848ZM15.7612 6.88477H18.2612V9.38477H15.7612V6.88477ZM18.2612 5.13477V5.38477H15.7612V1.98474C16.4711 2.15291 17.1037 2.55506 17.5572 3.12646C18.0107 3.69787 18.2586 4.40528 18.2612 5.13477ZM14.2612 1.88477V9.38477H5.76123V1.88477H14.2612ZM4.26123 13.3848H1.76123V10.8848H4.26123V13.3848ZM1.76123 9.38477V6.88477H4.26123V9.38477H1.76123ZM4.26123 1.98474V5.38477H1.76123V5.13477C1.76291 4.4046 2.0105 3.69624 2.46407 3.12402C2.91763 2.55181 3.55072 2.14904 4.26123 1.98071V1.98474ZM1.76123 15.1348V14.8848H4.26123V18.2848C3.55156 18.1163 2.91916 17.714 2.46573 17.1427C2.01229 16.5714 1.76416 15.8642 1.76123 15.1348ZM5.76123 18.3848V10.8848H14.2612V18.3848H5.76123ZM15.7612 18.2848V14.8848H18.2612V15.1348C18.2592 15.8648 18.0115 16.573 17.558 17.1451C17.1044 17.7173 16.4716 18.1202 15.7612 18.2888V18.2848Z" fill="#484848"/>
</svg>
