<svg width="21" height="21" viewBox="0 0 21 21" fill="none" xmlns="http://www.w3.org/2000/svg">
<path d="M15.2598 0.53833H5.25977C3.93417 0.539918 2.66332 1.0673 1.72598 2.00464C0.788645 2.94198 0.261353 4.21274 0.259766 5.53833V15.5383C0.261353 16.8639 0.788645 18.1347 1.72598 19.072C2.66332 20.0094 3.93417 20.5367 5.25977 20.5383H15.2598C16.5854 20.5367 17.8562 20.0094 18.7935 19.072C19.7309 18.1347 20.2582 16.8639 20.2598 15.5383V5.53833C20.2582 4.21274 19.7309 2.94198 18.7935 2.00464C17.8562 1.0673 16.5854 0.539918 15.2598 0.53833ZM18.2598 9.53833H16.2598V7.53833H18.2598V9.53833ZM4.25977 9.53833H2.25977V7.53833H4.25977V9.53833ZM2.25977 11.5383H4.25977V13.5383H2.25977V11.5383ZM16.2598 11.5383H18.2598V13.5383H16.2598V11.5383ZM18.2598 5.53833H16.2598V2.72241C16.8427 2.9285 17.3477 3.30965 17.7057 3.81372C18.0637 4.31779 18.2572 4.92007 18.2598 5.53833ZM4.25977 2.72241V5.53833H2.25977C2.26233 4.92007 2.45585 4.31779 2.81386 3.81372C3.17186 3.30965 3.67686 2.9285 4.25977 2.72241ZM2.25977 15.5383H4.25977V18.3542C3.67686 18.1482 3.17186 17.767 2.81386 17.2629C2.45585 16.7589 2.26233 16.1566 2.25977 15.5383ZM16.2598 18.3542V15.5383H18.2598C18.2572 16.1566 18.0637 16.7589 17.7057 17.2629C17.3477 17.767 16.8427 18.1482 16.2598 18.3542Z" fill="#5DB05A"/>
</svg>
