<svg width="16" height="18" viewBox="0 0 16 18" fill="none" xmlns="http://www.w3.org/2000/svg">
<path d="M13.6702 0.677246H2.45668C1.94209 0.677702 1.44871 0.881701 1.08484 1.24454C0.720966 1.60737 0.516332 2.0994 0.515875 2.61252V4.40679C0.515311 4.60452 0.554132 4.80036 0.630094 4.98301C0.706056 5.16565 0.817647 5.33141 0.958379 5.47071L5.37565 9.87538C5.47607 9.97501 5.55569 10.0936 5.60988 10.2241C5.66407 10.3546 5.69176 10.4945 5.69135 10.6358V16.8046C5.69135 16.9244 5.7248 17.0418 5.78796 17.1437C5.85112 17.2456 5.9415 17.3279 6.04896 17.3815C6.15642 17.4351 6.27673 17.4578 6.39638 17.447C6.51604 17.4363 6.63034 17.3925 6.72646 17.3206L10.1768 14.7402C10.257 14.68 10.3221 14.6021 10.367 14.5125C10.4119 14.423 10.4353 14.3243 10.4355 14.2242V10.6366C10.4351 10.4953 10.4628 10.3554 10.517 10.2249C10.5712 10.0944 10.6508 9.97585 10.7512 9.87622L15.1685 5.47155C15.3092 5.3322 15.4207 5.16638 15.4967 4.98374C15.5726 4.80111 15.6115 4.60535 15.611 4.40763V2.61252C15.6106 2.0994 15.4059 1.60737 15.0421 1.24454C14.6782 0.881701 14.1848 0.677702 13.6702 0.677246ZM2.45668 1.96743H13.6702C13.8418 1.96743 14.0063 2.03544 14.1277 2.15642C14.249 2.2774 14.3171 2.44143 14.3171 2.61252V4.11774H1.80974V2.61252C1.80974 2.44143 1.8779 2.2774 1.99922 2.15642C2.12055 2.03544 2.2851 1.96743 2.45668 1.96743ZM9.83691 8.96371C9.61578 9.18281 9.44046 9.44352 9.32112 9.7307C9.20178 10.0179 9.14078 10.3257 9.14167 10.6366V13.9051L6.98522 15.5178V10.6401C6.98611 10.3292 6.92511 10.0212 6.80577 9.73406C6.68643 9.44688 6.51111 9.18617 6.28998 8.96706L2.72408 5.41139H13.4019L9.83691 8.96371Z" fill="#878686"/>
</svg>
