<svg width="18" height="20" viewBox="0 0 18 20" fill="none" xmlns="http://www.w3.org/2000/svg">
<path d="M16.71 5.64526L11.94 10.4153C11.6586 10.6963 11.5003 11.0777 11.5 11.4753V15.6453C11.5017 15.7232 11.4844 15.8004 11.4496 15.8701C11.4147 15.9398 11.3633 15.9998 11.3 16.0452L7.29999 19.0452C7.21446 19.112 7.10852 19.1474 7 19.1453C6.92398 19.1441 6.84904 19.127 6.78 19.0952C6.69671 19.0529 6.6266 18.9887 6.57724 18.9094C6.52788 18.8301 6.50118 18.7387 6.5 18.6453V11.4753C6.49965 11.0777 6.34138 10.6963 6.06 10.4153L1.29001 5.64526H16.71ZM15.5 0.145264H2.5C1.97005 0.146846 1.46225 0.35818 1.08752 0.73291C0.712794 1.10764 0.501583 1.61532 0.5 2.14526V3.64526H17.5V2.14526C17.4984 1.61532 17.2872 1.10764 16.9125 0.73291C16.5377 0.35818 16.0299 0.146846 15.5 0.145264Z" fill="#5DB05A"/>
</svg>
