<svg width="18" height="20" viewBox="0 0 18 20" fill="none" xmlns="http://www.w3.org/2000/svg">
<path d="M15.25 0.384766H2.25001C1.65343 0.385295 1.08146 0.622469 0.659614 1.04431C0.237772 1.46615 0.000536599 2.03819 7.01599e-06 2.63477V4.72083C-0.000646488 4.95071 0.0443591 5.1784 0.132423 5.39075C0.220486 5.6031 0.349855 5.79581 0.513008 5.95776L5.63401 11.0787C5.75043 11.1946 5.84273 11.3324 5.90556 11.4841C5.96838 11.6359 6.00048 11.7985 6.00001 11.9628V19.1348C6.00001 19.274 6.03878 19.4106 6.11201 19.5291C6.18523 19.6475 6.29001 19.7433 6.41459 19.8055C6.53917 19.8678 6.67864 19.8942 6.81736 19.8817C6.95608 19.8692 7.08859 19.8183 7.20002 19.7347L11.2 16.7347C11.293 16.6647 11.3685 16.5741 11.4205 16.47C11.4726 16.3659 11.4998 16.2512 11.5 16.1348V11.9637C11.4995 11.7995 11.5316 11.6368 11.5945 11.4851C11.6573 11.3334 11.7496 11.1955 11.866 11.0797L16.987 5.95874C17.1501 5.79672 17.2794 5.60393 17.3674 5.3916C17.4555 5.17927 17.5006 4.95167 17.5 4.7218V2.63477C17.4995 2.03819 17.2622 1.46615 16.8404 1.04431C16.4186 0.622469 15.8466 0.385295 15.25 0.384766ZM2.25001 1.88477H15.25C15.4489 1.88477 15.6397 1.96384 15.7803 2.10449C15.921 2.24514 16 2.43585 16 2.63477V4.38477H1.50001V2.63477C1.50001 2.43585 1.57902 2.24514 1.71967 2.10449C1.86032 1.96384 2.05109 1.88477 2.25001 1.88477ZM10.806 10.0188C10.5496 10.2735 10.3464 10.5766 10.208 10.9105C10.0697 11.2444 9.99898 11.6023 10 11.9637V15.7638L7.50001 17.6388V11.9678C7.50104 11.6064 7.43032 11.2483 7.29197 10.9144C7.15361 10.5806 6.95037 10.2774 6.69401 10.0227L2.56 5.88879H14.939L10.806 10.0188Z" fill="#484848"/>
</svg>
