<svg width="16" height="20" viewBox="0 0 16 20" fill="none" xmlns="http://www.w3.org/2000/svg">
<path d="M15.447 12.4211C15.485 12.4973 15.5029 12.5822 15.499 12.6672C15.4951 12.7523 15.4695 12.8348 15.4248 12.9072C15.38 12.9796 15.3175 13.0393 15.2432 13.0808C15.1688 13.1223 15.0851 13.1442 15 13.1443H2.5V18.6514C2.5 18.9166 2.39463 19.1709 2.20709 19.3584C2.01956 19.5459 1.76522 19.6514 1.5 19.6514C1.23478 19.6514 0.980444 19.5459 0.792908 19.3584C0.605371 19.1709 0.5 18.9166 0.5 18.6514V11.6514V4.65137C0.501587 3.45838 0.976193 2.31452 1.81976 1.47095C2.66333 0.627377 3.80701 0.152955 5 0.151367H15C15.0851 0.151455 15.1688 0.173113 15.2432 0.2146C15.3175 0.256086 15.38 0.316021 15.4248 0.388428C15.4695 0.460834 15.4951 0.54338 15.499 0.628418C15.5029 0.713456 15.485 0.798076 15.447 0.874268L12.894 5.97437C12.7904 6.18287 12.7365 6.41244 12.7365 6.64526C12.7365 6.87809 12.7904 7.10765 12.894 7.31616L15.447 12.4211Z" fill="#5DB05A"/>
</svg>
