<svg width="16" height="20" viewBox="0 0 16 20" fill="none" xmlns="http://www.w3.org/2000/svg">
<path d="M12.868 7.69379C12.7817 7.52009 12.7368 7.32873 12.7368 7.13477C12.7368 6.9408 12.7817 6.74944 12.868 6.57574L15.421 1.47577C15.4781 1.36142 15.505 1.23436 15.4992 1.10669C15.4934 0.97902 15.4551 0.854972 15.3878 0.746277C15.3206 0.637582 15.2267 0.547877 15.1151 0.485657C15.0035 0.423436 14.8778 0.390751 14.75 0.390747H4.75C3.49071 0.392335 2.28346 0.893299 1.39301 1.78375C0.502551 2.67421 0.00158768 3.88146 0 5.14075V19.0988C0 19.2977 0.0790132 19.4885 0.219666 19.6292C0.360318 19.7698 0.551088 19.8488 0.75 19.8488C0.948912 19.8488 1.13968 19.7698 1.28033 19.6292C1.42099 19.4885 1.5 19.2977 1.5 19.0988V13.8907H14.75C14.8778 13.8907 15.0035 13.8581 15.1151 13.7959C15.2267 13.7337 15.3206 13.644 15.3878 13.5353C15.4551 13.4266 15.4934 13.3025 15.4992 13.1748C15.505 13.0471 15.4781 12.9201 15.421 12.8058L12.868 7.69379ZM1.5 12.3848V5.13477C1.50106 4.27314 1.8438 3.44709 2.45306 2.83783C3.06233 2.22857 3.88837 1.88582 4.75 1.88477H13.537L11.527 5.90479C11.3371 6.28699 11.2383 6.70797 11.2383 7.13477C11.2383 7.56156 11.3371 7.98254 11.527 8.36475L13.537 12.3848H1.5Z" fill="#484848"/>
</svg>
