<svg width="20" height="17" viewBox="0 0 20 17" fill="none" xmlns="http://www.w3.org/2000/svg">
<path d="M15.0112 3.38477H10.8112C10.6878 3.38476 10.5662 3.35429 10.4574 3.29602C10.3485 3.23776 10.2557 3.15352 10.1872 3.05078L9.07822 1.38672C8.8728 1.07864 8.5944 0.826205 8.26779 0.651736C7.94118 0.477266 7.57652 0.386176 7.20624 0.386721H5.01123C3.75194 0.388309 2.54469 0.889334 1.65424 1.77979C0.763782 2.67024 0.262818 3.87743 0.26123 5.13672V12.1367C0.262818 13.396 0.763782 14.6033 1.65424 15.4938C2.54469 16.3842 3.75194 16.8851 5.01123 16.8867H15.0112C16.2705 16.8851 17.4778 16.3842 18.3682 15.4938C19.2587 14.6033 19.7596 13.396 19.7612 12.1367V8.13672C19.7602 6.87708 19.2594 5.66933 18.3689 4.77844C17.4784 3.88756 16.2709 3.38636 15.0112 3.38477ZM18.2612 12.1348C18.2602 12.9964 17.9174 13.8224 17.3082 14.4316C16.6989 15.0409 15.8729 15.3837 15.0112 15.3848H5.01123C4.1496 15.3837 3.32356 15.0409 2.71429 14.4316C2.10503 13.8224 1.76229 12.9964 1.76123 12.1348V5.13477C1.76229 4.27314 2.10503 3.44716 2.71429 2.83789C3.32356 2.22863 4.1496 1.88583 5.01123 1.88477H7.21124C7.33471 1.88478 7.45624 1.91525 7.56509 1.97351C7.67395 2.03178 7.76675 2.11602 7.83524 2.21875L8.94424 3.88281C9.14966 4.1909 9.42806 4.44333 9.75467 4.6178C10.0813 4.79227 10.4459 4.88336 10.8162 4.88281H15.0112C15.8729 4.88387 16.6989 5.22655 17.3082 5.83582C17.9174 6.44508 18.2602 7.27119 18.2612 8.13281V12.1348Z" fill="#484848"/>
</svg>
