<svg width="20" height="17" viewBox="0 0 20 17" fill="none" xmlns="http://www.w3.org/2000/svg">
<path d="M19.7598 7.53833V11.5383C19.7582 12.7313 19.2836 13.8749 18.44 14.7185C17.5964 15.5621 16.4528 16.0367 15.2598 16.0383H5.25977C4.06678 16.0367 2.9231 15.5621 2.07953 14.7185C1.23596 13.8749 0.761353 12.7313 0.759766 11.5383V4.53833C0.761353 3.34534 1.23596 2.20172 2.07953 1.35815C2.9231 0.514584 4.06678 0.0399176 5.25977 0.0383301H7.45978C7.78905 0.0383906 8.11319 0.119714 8.40347 0.275146C8.69375 0.430579 8.9412 0.655426 9.12378 0.929443L10.2328 2.59326C10.3241 2.73018 10.4479 2.84254 10.593 2.92017C10.7381 2.99779 10.9002 3.03835 11.0648 3.03833H15.2598C16.4528 3.03965 17.5966 3.51428 18.4403 4.35791C19.2839 5.20154 19.7584 6.34526 19.7598 7.53833Z" fill="#5DB05A"/>
</svg>
