<svg width="20" height="20" viewBox="0 0 20 20" fill="none" xmlns="http://www.w3.org/2000/svg">
<path d="M18.9381 6.88668C18.3529 5.20638 17.3162 3.71979 15.9417 2.58993C14.5671 1.46007 12.9079 0.730708 11.1461 0.481777C10.2199 0.352754 9.28034 0.352754 8.35414 0.481777C6.5933 0.730368 4.93496 1.45902 3.56099 2.58798C2.18701 3.71693 1.15048 5.20248 0.565139 6.88168C-0.18545 8.98334 -0.18545 11.28 0.565139 13.3817C1.15035 15.062 2.18707 16.5487 3.5616 17.6786C4.93612 18.8084 6.59533 19.5378 8.35713 19.7867C8.8209 19.8526 9.28873 19.886 9.75716 19.8867C10.2256 19.8865 10.6934 19.8531 11.1571 19.7867C12.918 19.5381 14.5764 18.8093 15.9503 17.6804C17.3243 16.5514 18.3608 15.0659 18.9461 13.3867C19.697 11.2851 19.697 8.9883 18.9461 6.88668H18.9381ZM17.0941 6.38668H14.0501C13.7441 5.00358 13.2591 3.66639 12.6071 2.40878C14.553 3.11753 16.1569 4.53904 17.0941 6.38571V6.38668ZM18.0001 10.1357C17.9996 10.8974 17.8916 11.6552 17.6792 12.3867H14.3261C14.5574 10.8956 14.5574 9.37777 14.3261 7.88668H17.6792C17.8913 8.61721 17.9993 9.37404 18.0001 10.1347V10.1357ZM6.68812 12.3867C6.43747 10.8972 6.43747 9.37621 6.68812 7.88668H12.8131C13.0631 9.37627 13.0631 10.8971 12.8131 12.3867H6.68812ZM1.82112 12.3867C1.39312 10.9172 1.39312 9.35615 1.82112 7.88668H5.17415C4.94212 9.37771 4.94212 10.8957 5.17415 12.3867H1.82112ZM10.5991 1.94479C11.4758 3.31092 12.1217 4.81195 12.5111 6.38778H6.98811C7.37802 4.81228 8.02433 3.31158 8.90114 1.94577C9.18297 1.91186 9.46632 1.89208 9.75014 1.88668C10.0339 1.89093 10.3173 1.90997 10.5991 1.94369V1.94479ZM6.89113 2.40976C6.23879 3.66719 5.75369 5.00455 5.44813 6.38778H2.40614C3.34189 4.54025 4.94527 3.11775 6.89113 2.40878V2.40976ZM2.40712 13.8867H5.45015C5.75618 15.2687 6.24094 16.605 6.89216 17.8618C4.94714 17.153 3.34395 15.7317 2.40712 13.8857V13.8867ZM8.90114 18.3267C8.02535 16.9616 7.37945 15.462 6.98915 13.8878H12.5111C12.1211 15.462 11.4755 16.9615 10.6001 18.3267C10.0351 18.3823 9.46606 18.382 8.90114 18.3258V18.3267ZM12.6091 17.8618C13.2609 16.6052 13.7457 15.2688 14.0512 13.8867H17.0932C16.1564 15.732 14.5536 17.1524 12.6091 17.8607V17.8618Z" fill="#484848"/>
</svg>
