<svg width="20" height="20" viewBox="0 0 20 20" fill="none" xmlns="http://www.w3.org/2000/svg">
<path d="M14.5112 11.3848C13.9147 11.3853 13.3427 11.6225 12.9208 12.0443C12.499 12.4662 12.2618 13.0382 12.2612 13.6348V17.6348C12.2612 18.2315 12.4983 18.8038 12.9202 19.2257C13.3422 19.6477 13.9145 19.8848 14.5112 19.8848C15.108 19.8848 15.6803 19.6477 16.1022 19.2257C16.5242 18.8038 16.7612 18.2315 16.7612 17.6348V13.6348C16.7607 13.0382 16.5235 12.4662 16.1016 12.0443C15.6798 11.6225 15.1078 11.3853 14.5112 11.3848ZM15.2612 17.6348C15.2612 17.8337 15.1822 18.0244 15.0416 18.165C14.9009 18.3057 14.7101 18.3848 14.5112 18.3848C14.3123 18.3848 14.1215 18.3057 13.9809 18.165C13.8402 18.0244 13.7612 17.8337 13.7612 17.6348V13.6348C13.7612 13.4359 13.8402 13.2451 13.9809 13.1045C14.1215 12.9638 14.3123 12.8848 14.5112 12.8848C14.7101 12.8848 14.9009 12.9638 15.0416 13.1045C15.1822 13.2451 15.2612 13.4359 15.2612 13.6348V17.6348ZM5.51123 11.3848C4.91466 11.3853 4.34268 11.6225 3.92084 12.0443C3.499 12.4662 3.26176 13.0382 3.26123 13.6348V17.6348C3.26123 18.2315 3.49827 18.8038 3.92023 19.2257C4.34218 19.6477 4.91449 19.8848 5.51123 19.8848C6.10797 19.8848 6.68028 19.6477 7.10223 19.2257C7.52419 18.8038 7.76123 18.2315 7.76123 17.6348V13.6348C7.7607 13.0382 7.52347 12.4662 7.10162 12.0443C6.67978 11.6225 6.10781 11.3853 5.51123 11.3848ZM6.26123 17.6348C6.26123 17.8337 6.18222 18.0244 6.04156 18.165C5.90091 18.3057 5.71014 18.3848 5.51123 18.3848C5.31232 18.3848 5.12155 18.3057 4.9809 18.165C4.84024 18.0244 4.76123 17.8337 4.76123 17.6348V13.6348C4.76123 13.4359 4.84024 13.2451 4.9809 13.1045C5.12155 12.9638 5.31232 12.8848 5.51123 12.8848C5.71014 12.8848 5.90091 12.9638 6.04156 13.1045C6.18222 13.2451 6.26123 13.4359 6.26123 13.6348V17.6348ZM19.7612 10.1348V15.1348C19.7612 15.3337 19.6822 15.5244 19.5416 15.665C19.4009 15.8057 19.2101 15.8848 19.0112 15.8848C18.8123 15.8848 18.6215 15.8057 18.4809 15.665C18.3402 15.5244 18.2612 15.3337 18.2612 15.1348V10.1348C18.2612 7.94673 17.392 5.84832 15.8448 4.30115C14.2977 2.75397 12.1993 1.88477 10.0112 1.88477C7.82319 1.88477 5.72479 2.75397 4.17761 4.30115C2.63044 5.84832 1.76123 7.94673 1.76123 10.1348V15.1348C1.76123 15.3337 1.68222 15.5244 1.54156 15.665C1.40091 15.8057 1.21014 15.8848 1.01123 15.8848C0.812318 15.8848 0.621548 15.8057 0.480896 15.665C0.340244 15.5244 0.26123 15.3337 0.26123 15.1348V10.1348C0.26123 7.5489 1.28846 5.06896 3.11694 3.24048C4.94542 1.412 7.42537 0.384766 10.0112 0.384766C12.5971 0.384766 15.077 1.412 16.9055 3.24048C18.734 5.06896 19.7612 7.5489 19.7612 10.1348Z" fill="#484848"/>
</svg>
