<svg width="21" height="21" viewBox="0 0 21 21" fill="none" xmlns="http://www.w3.org/2000/svg">
<path d="M16.7598 14.0383V18.0383C16.7598 18.5688 16.5491 19.0776 16.174 19.4526C15.7989 19.8277 15.2902 20.0383 14.7598 20.0383C14.2293 20.0383 13.7206 19.8277 13.3456 19.4526C12.9705 19.0776 12.7598 18.5688 12.7598 18.0383V14.0383C12.7598 13.5079 12.9705 12.9991 13.3456 12.624C13.7206 12.249 14.2293 12.0383 14.7598 12.0383C15.2902 12.0383 15.7989 12.249 16.174 12.624C16.5491 12.9991 16.7598 13.5079 16.7598 14.0383ZM5.75977 12.0383C5.22933 12.0383 4.72062 12.249 4.34555 12.624C3.97048 12.9991 3.75977 13.5079 3.75977 14.0383V18.0383C3.75977 18.5688 3.97048 19.0776 4.34555 19.4526C4.72062 19.8277 5.22933 20.0383 5.75977 20.0383C6.2902 20.0383 6.79891 19.8277 7.17398 19.4526C7.54905 19.0776 7.75977 18.5688 7.75977 18.0383V14.0383C7.75977 13.5079 7.54905 12.9991 7.17398 12.624C6.79891 12.249 6.2902 12.0383 5.75977 12.0383ZM10.2598 0.53833C7.60849 0.541242 5.06666 1.59573 3.19193 3.47046C1.31719 5.34519 0.262677 7.88706 0.259766 10.5383V15.5383C0.259766 15.8035 0.365137 16.0578 0.552673 16.2454C0.74021 16.4329 0.994549 16.5383 1.25977 16.5383C1.52498 16.5383 1.77932 16.4329 1.96686 16.2454C2.15439 16.0578 2.25977 15.8035 2.25977 15.5383V10.5383C2.25977 8.4166 3.10261 6.38188 4.60291 4.88159C6.1032 3.3813 8.13803 2.53833 10.2598 2.53833C12.3815 2.53833 14.4163 3.3813 15.9166 4.88159C17.4169 6.38188 18.2598 8.4166 18.2598 10.5383V15.5383C18.2598 15.8035 18.3651 16.0578 18.5527 16.2454C18.7402 16.4329 18.9945 16.5383 19.2598 16.5383C19.525 16.5383 19.7793 16.4329 19.9669 16.2454C20.1544 16.0578 20.2598 15.8035 20.2598 15.5383V10.5383C20.2569 7.88706 19.2023 5.34519 17.3276 3.47046C15.4529 1.59573 12.911 0.541242 10.2598 0.53833Z" fill="#5DB05A"/>
</svg>
