<svg width="20" height="19" viewBox="0 0 20 19" fill="none" xmlns="http://www.w3.org/2000/svg">
<path d="M17.8601 2.73472C17.2747 2.00226 16.5318 1.41106 15.6867 1.00493C14.8415 0.598798 13.9158 0.388222 12.9781 0.388778C11.8516 0.38498 10.742 0.662709 9.7501 1.19676C8.75832 0.66243 7.64865 0.384684 6.5221 0.388778C5.58441 0.388078 4.65859 0.598604 3.81342 1.00474C2.96825 1.41088 2.22544 2.00215 1.64011 2.73472C0.965719 3.56648 0.481524 4.53581 0.221531 5.57457C-0.0384615 6.61333 -0.0679555 7.69635 0.135105 8.74773C1.11011 13.7477 6.1981 17.2337 8.3411 18.5017C8.76786 18.7543 9.25466 18.8877 9.75058 18.8877C10.2465 18.8877 10.7333 18.7543 11.1601 18.5017C13.3021 17.2327 18.3911 13.7437 19.3661 8.74773C19.5687 7.69627 19.5389 6.61323 19.2788 5.57451C19.0186 4.53579 18.5344 3.56653 17.8601 2.73472ZM17.8931 8.46074C17.0351 12.8607 12.3641 16.0458 10.3931 17.2108C10.1978 17.3264 9.97503 17.3874 9.74808 17.3874C9.52114 17.3874 9.29837 17.3264 9.10309 17.2108C7.13409 16.0458 2.46309 12.8597 1.60309 8.46074C1.44137 7.62667 1.46411 6.76733 1.66968 5.94298C1.87525 5.11862 2.25868 4.34924 2.79309 3.68877C3.23903 3.12833 3.80543 2.67548 4.45029 2.36388C5.09515 2.05227 5.8019 1.88991 6.5181 1.88878C7.51748 1.88347 8.49748 2.16455 9.34211 2.69878C9.46282 2.77567 9.60297 2.81651 9.7461 2.81651C9.88923 2.81651 10.0294 2.77567 10.1501 2.69878C10.9947 2.1645 11.9747 1.88341 12.9741 1.88878C13.6903 1.89006 14.397 2.05246 15.0418 2.36406C15.6866 2.67566 16.2531 3.12844 16.6991 3.68877C17.2335 4.34854 17.6172 5.11712 17.8234 5.94072C18.0297 6.76431 18.0535 7.62303 17.8931 8.45677V8.46074Z" fill="#484848"/>
</svg>
