<svg width="20" height="19" viewBox="0 0 20 19" fill="none" xmlns="http://www.w3.org/2000/svg">
<path d="M19.3701 8.20732C18.4151 13.1073 13.3961 16.5422 11.2831 17.7942C10.8949 18.0241 10.4522 18.1453 10.0011 18.1453C9.55001 18.1453 9.10721 18.0241 8.71908 17.7942C6.60508 16.5422 1.58609 13.1043 0.631095 8.20732C0.434958 7.192 0.463369 6.14604 0.714377 5.14287C0.965385 4.1397 1.43291 3.2035 2.0841 2.40019C2.6463 1.69647 3.35971 1.12846 4.17144 0.738085C4.98317 0.347714 5.87238 0.145123 6.77309 0.145311C7.9042 0.140988 9.01685 0.431899 10.0011 0.989305C10.9853 0.431899 12.098 0.140988 13.2291 0.145311C14.1298 0.145123 15.019 0.347714 15.8307 0.738085C16.6425 1.12846 17.3559 1.69647 17.9181 2.40019C18.5689 3.20369 19.0361 4.13998 19.2869 5.14311C19.5378 6.14625 19.5661 7.19207 19.3701 8.20732Z" fill="#5DB05A"/>
</svg>
