<svg width="16" height="16" viewBox="0 0 16 16" fill="none" xmlns="http://www.w3.org/2000/svg">
<path d="M14.2942 4.30069L10.3494 1.12862C9.68159 0.597174 8.85336 0.307861 7.99992 0.307861C7.14649 0.307861 6.31826 0.597174 5.65043 1.12862L1.70566 4.30069C1.268 4.65076 0.914979 5.09509 0.672916 5.6006C0.430854 6.10611 0.305991 6.65976 0.307633 7.22025V11.9484C0.309304 12.9415 0.704798 13.8935 1.40735 14.5954C2.1099 15.2973 3.06213 15.6919 4.05516 15.6925H6.22478V11.9484C6.22478 11.4775 6.41181 11.0258 6.74471 10.6929C7.07761 10.3599 7.52913 10.1729 7.99992 10.1729C8.47072 10.1729 8.92224 10.3599 9.25514 10.6929C9.58804 11.0258 9.77507 11.4775 9.77507 11.9484V15.6925H11.9447C12.9377 15.6919 13.89 15.2973 14.5925 14.5954C15.2951 13.8935 15.6905 12.9415 15.6922 11.9484V7.22025C15.6939 6.65976 15.569 6.10611 15.3269 5.6006C15.0849 5.09509 14.7319 4.65076 14.2942 4.30069ZM14.5088 11.9452C14.5075 12.6246 14.2369 13.2757 13.7562 13.7557C13.2755 14.2358 12.624 14.5055 11.9447 14.5057H10.9585V11.9452C10.9585 11.1604 10.6468 10.4078 10.092 9.85287C9.53712 9.29795 8.78459 8.98617 7.99992 8.98617C7.21526 8.98617 6.46273 9.29795 5.90789 9.85287C5.35305 10.4078 5.04135 11.1604 5.04135 11.9452V14.5057H4.05516C3.37587 14.5055 2.7244 14.2358 2.2437 13.7557C1.76299 13.2757 1.49232 12.6246 1.49106 11.9452V7.21707C1.49021 6.83426 1.57566 6.45618 1.74108 6.11096C1.90649 5.76574 2.14761 5.46227 2.44648 5.22311L6.39125 2.05105C6.84845 1.68739 7.41537 1.48939 7.99953 1.48939C8.58369 1.48939 9.15061 1.68739 9.60781 2.05105L13.5526 5.22311C13.8514 5.46227 14.0926 5.76574 14.258 6.11096C14.4234 6.45618 14.5088 6.83426 14.508 7.21707V11.9452H14.5088Z" fill="#484848"/>
</svg>
