<svg width="20" height="20" viewBox="0 0 20 20" fill="none" xmlns="http://www.w3.org/2000/svg">
<path d="M19.5 8.65918V14.6514C19.4984 15.8438 19.0236 16.9867 18.1799 17.8293C17.3361 18.672 16.1924 19.1453 15 19.1453H12.5V14.6453C12.5 13.9822 12.2366 13.3463 11.7678 12.8774C11.2989 12.4086 10.663 12.1453 10 12.1453C9.33696 12.1453 8.70108 12.4086 8.23224 12.8774C7.7634 13.3463 7.5 13.9822 7.5 14.6453V19.1453H5C3.80757 19.1453 2.66389 18.672 1.82015 17.8293C0.976407 16.9867 0.501594 15.8438 0.500004 14.6514V8.65918C0.499127 7.98726 0.649497 7.3239 0.939976 6.71802C1.23045 6.11213 1.65359 5.57926 2.178 5.15918L7.178 1.14038C7.98002 0.502326 8.97463 0.154785 9.9995 0.154785C11.0244 0.154785 12.019 0.502326 12.821 1.14038L17.821 5.15918C18.3458 5.57897 18.7693 6.11159 19.06 6.71753C19.3506 7.32346 19.501 7.98713 19.5 8.65918Z" fill="#5DB05A"/>
</svg>
