<svg width="20" height="18" viewBox="0 0 20 18" fill="none" xmlns="http://www.w3.org/2000/svg">
<path d="M15.0112 0.384766H5.01123C3.75194 0.386353 2.54467 0.887256 1.65422 1.77771C0.763767 2.66816 0.262818 3.87547 0.26123 5.13477V13.1348C0.26416 13.4985 0.30946 13.8605 0.396225 14.2137C0.406126 14.2607 0.420525 14.3065 0.439224 14.3507C0.705729 15.361 1.29835 16.2551 2.12506 16.8942C2.95178 17.5332 3.96634 17.8814 5.01123 17.8848H15.0112C16.2705 17.8832 17.4778 17.3823 18.3682 16.4918C19.2587 15.6014 19.7596 14.3941 19.7612 13.1348V5.13477C19.7596 3.87547 19.2587 2.66816 18.3682 1.77771C17.4778 0.887256 16.2705 0.386353 15.0112 0.384766ZM5.01123 1.88477H15.0112C15.8729 1.88582 16.6989 2.22863 17.3082 2.83789C17.9174 3.44715 18.2602 4.27314 18.2612 5.13477V10.3237L14.2512 6.31372C13.9222 5.98519 13.4762 5.80066 13.0112 5.80066C12.5463 5.80066 12.1003 5.98519 11.7712 6.31372L7.01123 11.0737L6.25124 10.3137C5.92219 9.98519 5.47621 9.80066 5.01123 9.80066C4.54625 9.80066 4.10027 9.98519 3.77122 10.3137L1.76123 12.3237V5.13477C1.76229 4.27314 2.10505 3.44715 2.71431 2.83789C3.32357 2.22863 4.1496 1.88582 5.01123 1.88477ZM15.0112 16.3848H5.01123C4.3449 16.3829 3.69531 16.1759 3.15071 15.792C2.60611 15.4081 2.19289 14.8657 1.96722 14.2388L4.83124 11.3748C4.85113 11.3455 4.87788 11.3215 4.90916 11.3049C4.94045 11.2884 4.97532 11.2797 5.01073 11.2797C5.04613 11.2797 5.081 11.2884 5.11229 11.3049C5.14358 11.3215 5.17034 11.3455 5.19023 11.3748L6.13023 12.3148C6.36412 12.5477 6.6807 12.6783 7.01073 12.6783C7.34075 12.6783 7.65735 12.5477 7.89124 12.3148L12.8312 7.37476C12.8791 7.32767 12.9436 7.30127 13.0107 7.30127C13.0779 7.30127 13.1424 7.32767 13.1902 7.37476L18.2602 12.4448V13.1348C18.2597 13.9964 17.9173 14.8225 17.3081 15.4319C16.6989 16.0412 15.8728 16.384 15.0112 16.3848ZM5.01123 6.13477C5.01123 5.93698 5.06988 5.74367 5.17976 5.57922C5.28965 5.41477 5.44581 5.28662 5.62854 5.21094C5.81127 5.13525 6.01233 5.11535 6.20631 5.15393C6.4003 5.19252 6.57849 5.28776 6.71834 5.42761C6.85819 5.56746 6.95343 5.74572 6.99202 5.9397C7.0306 6.13368 7.01079 6.33473 6.9351 6.51746C6.85942 6.70018 6.73125 6.85631 6.5668 6.96619C6.40235 7.07607 6.20901 7.13477 6.01123 7.13477C5.74601 7.13477 5.49166 7.02946 5.30412 6.84192C5.11659 6.65438 5.01123 6.39998 5.01123 6.13477Z" fill="#484848"/>
</svg>
