<svg width="21" height="19" viewBox="0 0 21 19" fill="none" xmlns="http://www.w3.org/2000/svg">
<path d="M15.26 0.53833H5.26001C3.93441 0.539918 2.66356 1.0673 1.72623 2.00464C0.788889 2.94198 0.261598 4.21274 0.26001 5.53833V13.5383C0.261598 14.8639 0.788889 16.1347 1.72623 17.072C2.66356 18.0094 3.93441 18.5367 5.26001 18.5383H15.26C16.5856 18.5367 17.8565 18.0094 18.7938 17.072C19.7311 16.1347 20.2584 14.8639 20.26 13.5383V5.53833C20.2584 4.21274 19.7311 2.94198 18.7938 2.00464C17.8565 1.0673 16.5856 0.539918 15.26 0.53833ZM5.26001 2.53833H15.26C16.0557 2.53833 16.8187 2.85438 17.3813 3.41699C17.9439 3.9796 18.26 4.74268 18.26 5.53833V10.1243L14.677 6.53833C14.3008 6.16327 13.7912 5.95264 13.26 5.95264C12.7288 5.95264 12.2192 6.16327 11.843 6.53833L7.26001 11.1243L6.67702 10.5413C6.30081 10.1662 5.79124 9.95557 5.26001 9.95557C4.72878 9.95557 4.21921 10.1662 3.843 10.5413L2.26001 12.1243V5.53833C2.26001 4.74268 2.57608 3.9796 3.13869 3.41699C3.7013 2.85438 4.46436 2.53833 5.26001 2.53833ZM4.76001 6.53833C4.76001 6.24166 4.84798 5.95175 5.0128 5.70508C5.17762 5.4584 5.4119 5.26612 5.68599 5.15259C5.96008 5.03906 6.26167 5.00926 6.55264 5.06714C6.84361 5.12502 7.11088 5.268 7.32066 5.47778C7.53044 5.68756 7.67331 5.95463 7.73119 6.24561C7.78906 6.53658 7.75936 6.83822 7.64583 7.1123C7.5323 7.38639 7.34004 7.62082 7.09337 7.78564C6.84669 7.95047 6.55668 8.03833 6.26001 8.03833C5.86219 8.03833 5.48066 7.88018 5.19936 7.59888C4.91805 7.31757 4.76001 6.93615 4.76001 6.53833Z" fill="#5DB05A"/>
</svg>
