<svg width="20" height="18" viewBox="0 0 20 18" fill="none" xmlns="http://www.w3.org/2000/svg">
<path d="M5.26123 7.13477C5.26123 6.93586 5.34024 6.74515 5.4809 6.60449C5.62155 6.46384 5.81232 6.38477 6.01123 6.38477H14.0112C14.2101 6.38477 14.4009 6.46384 14.5416 6.60449C14.6822 6.74515 14.7612 6.93586 14.7612 7.13477C14.7612 7.33368 14.6822 7.52439 14.5416 7.66504C14.4009 7.80569 14.2101 7.88477 14.0112 7.88477H6.01123C5.81232 7.88477 5.62155 7.80569 5.4809 7.66504C5.34024 7.52439 5.26123 7.33368 5.26123 7.13477ZM7.01123 4.88477H13.0112C13.2101 4.88477 13.4009 4.80569 13.5416 4.66504C13.6822 4.52439 13.7612 4.33368 13.7612 4.13477C13.7612 3.93585 13.6822 3.74515 13.5416 3.60449C13.4009 3.46384 13.2101 3.38477 13.0112 3.38477H7.01123C6.81232 3.38477 6.62155 3.46384 6.4809 3.60449C6.34024 3.74515 6.26123 3.93585 6.26123 4.13477C6.26123 4.33368 6.34024 4.52439 6.4809 4.66504C6.62155 4.80569 6.81232 4.88477 7.01123 4.88477ZM19.7612 10.6218V13.1348C19.7596 14.3941 19.2587 15.6014 18.3682 16.4918C17.4778 17.3823 16.2705 17.8832 15.0112 17.8848H5.01123C3.75194 17.8832 2.54469 17.3823 1.65424 16.4918C0.763782 15.6014 0.262818 14.3941 0.26123 13.1348V10.6218C0.261282 10.2188 0.326125 9.81829 0.453247 9.43579L2.38824 3.63574C2.70268 2.68949 3.30726 1.86639 4.11615 1.28333C4.92504 0.700265 5.8971 0.386967 6.89423 0.387819H13.1282C14.1254 0.386967 15.0974 0.700265 15.9063 1.28333C16.7152 1.86639 17.3198 2.68949 17.6342 3.63574L19.5692 9.43579C19.6965 9.81825 19.7614 10.2187 19.7612 10.6218ZM2.05121 9.38477H7.01123C7.21014 9.38477 7.40091 9.46384 7.54156 9.60449C7.68222 9.74515 7.76123 9.93585 7.76123 10.1348C7.76123 10.7315 7.99827 11.3038 8.42023 11.7257C8.84218 12.1477 9.41449 12.3848 10.0112 12.3848C10.608 12.3848 11.1803 12.1477 11.6022 11.7257C12.0242 11.3038 12.2612 10.7315 12.2612 10.1348C12.2612 9.93585 12.3402 9.74515 12.4809 9.60449C12.6215 9.46384 12.8123 9.38477 13.0112 9.38477H17.9713L16.2122 4.10681C15.997 3.45945 15.5833 2.89631 15.0299 2.49744C14.4765 2.09856 13.8114 1.88419 13.1292 1.88477H6.8952C6.21301 1.88419 5.548 2.09856 4.99457 2.49744C4.44113 2.89631 4.02746 3.45945 3.81226 4.10681L2.05121 9.38477ZM18.2612 13.1348V10.8848H13.6862C13.5131 11.7317 13.0528 12.4927 12.3832 13.0393C11.7135 13.5859 10.8756 13.8845 10.0112 13.8845C9.14683 13.8845 8.30893 13.5859 7.63928 13.0393C6.96964 12.4927 6.50937 11.7317 6.33624 10.8848H1.76123V13.1348C1.76229 13.9964 2.10503 14.8224 2.71429 15.4316C3.32356 16.0409 4.1496 16.3837 5.01123 16.3848H15.0112C15.8729 16.3837 16.6989 16.0409 17.3082 15.4316C17.9174 14.8224 18.2602 13.9964 18.2612 13.1348Z" fill="#484848"/>
</svg>
