<svg width="21" height="19" viewBox="0 0 21 19" fill="none" xmlns="http://www.w3.org/2000/svg">
<path d="M5.50977 7.53833C5.50977 7.33942 5.58878 7.14871 5.72943 7.00806C5.87008 6.86741 6.06085 6.78833 6.25977 6.78833H14.2598C14.4587 6.78833 14.6494 6.86741 14.7901 7.00806C14.9308 7.14871 15.0098 7.33942 15.0098 7.53833C15.0098 7.73724 14.9308 7.92795 14.7901 8.06861C14.6494 8.20926 14.4587 8.28833 14.2598 8.28833H6.25977C6.06085 8.28833 5.87008 8.20926 5.72943 8.06861C5.58878 7.92795 5.50977 7.73724 5.50977 7.53833ZM7.25977 5.28833H13.2598C13.4587 5.28833 13.6494 5.20926 13.7901 5.06861C13.9308 4.92795 14.0098 4.73724 14.0098 4.53833C14.0098 4.33942 13.9308 4.14871 13.7901 4.00806C13.6494 3.86741 13.4587 3.78833 13.2598 3.78833H7.25977C7.06085 3.78833 6.87008 3.86741 6.72943 4.00806C6.58878 4.14871 6.50977 4.33942 6.50977 4.53833C6.50977 4.73724 6.58878 4.92795 6.72943 5.06861C6.87008 5.20926 7.06085 5.28833 7.25977 5.28833ZM20.2598 11.0254V13.5383C20.2582 14.7313 19.7836 15.8749 18.94 16.7185C18.0964 17.5621 16.9528 18.0367 15.7598 18.0383H4.75977C3.56678 18.0367 2.4231 17.5621 1.57953 16.7185C0.735959 15.8749 0.261354 14.7313 0.259766 13.5383V11.0254C0.259563 10.5951 0.328803 10.1675 0.464783 9.75928L2.39978 3.95923C2.73079 2.96322 3.3672 2.09691 4.21863 1.48316C5.07005 0.869406 6.09319 0.539473 7.14276 0.540285H13.3768C14.4264 0.539322 15.4496 0.869141 16.301 1.48291C17.1525 2.09668 17.7889 2.96314 18.1198 3.95923L20.0547 9.75928C20.1907 10.1675 20.26 10.5951 20.2598 11.0254ZM2.48077 10.0383H7.25977C7.39237 10.0383 7.51957 10.091 7.61334 10.1848C7.70711 10.2786 7.75977 10.4057 7.75977 10.5383C7.75977 11.2014 8.02316 11.8373 8.492 12.3062C8.96084 12.775 9.59672 13.0383 10.2598 13.0383C10.9228 13.0383 11.5587 12.775 12.0275 12.3062C12.4964 11.8373 12.7598 11.2014 12.7598 10.5383C12.7598 10.4057 12.8124 10.2786 12.9062 10.1848C13 10.091 13.1272 10.0383 13.2598 10.0383H18.0388L16.2228 4.59033C16.0238 3.99288 15.6418 3.47327 15.131 3.10498C14.6202 2.73669 14.0065 2.53839 13.3768 2.53833H7.14276C6.51304 2.53839 5.89929 2.73669 5.38849 3.10498C4.87769 3.47327 4.49575 3.99288 4.29675 4.59033L2.48077 10.0383Z" fill="#5DB05A"/>
</svg>
