<svg width="20" height="21" viewBox="0 0 20 21" fill="none" xmlns="http://www.w3.org/2000/svg">
<path d="M10 0.645264C8.0222 0.645264 6.08881 1.23175 4.44432 2.33057C2.79983 3.42938 1.51809 4.9911 0.761212 6.81836C0.00433564 8.64562 -0.193701 10.6564 0.192151 12.5962C0.578003 14.536 1.53041 16.3178 2.92894 17.7163C4.32746 19.1148 6.10931 20.0673 8.04912 20.4531C9.98892 20.839 11.9996 20.6409 13.8269 19.884C15.6541 19.1272 17.2159 17.8454 18.3147 16.2009C19.4135 14.5564 20 12.6231 20 10.6453C19.9958 7.9944 18.9409 5.4533 17.0664 3.57886C15.192 1.70441 12.6509 0.649495 10 0.645264ZM11 14.6453C11 14.9105 10.8946 15.1648 10.7071 15.3523C10.5196 15.5398 10.2652 15.6453 10 15.6453C9.7348 15.6453 9.48046 15.5398 9.29292 15.3523C9.10538 15.1648 9.00001 14.9105 9.00001 14.6453V10.6453C9.00001 10.38 9.10538 10.1258 9.29292 9.93823C9.48046 9.7507 9.7348 9.64526 10 9.64526C10.2652 9.64526 10.5196 9.7507 10.7071 9.93823C10.8946 10.1258 11 10.38 11 10.6453V14.6453ZM10 7.64526C9.80223 7.64526 9.60889 7.58669 9.44444 7.47681C9.27999 7.36693 9.15181 7.21056 9.07612 7.02783C9.00044 6.84511 8.98065 6.64418 9.01924 6.4502C9.05782 6.25621 9.15307 6.07808 9.29292 5.93823C9.43277 5.79838 9.61093 5.70314 9.80491 5.66455C9.99889 5.62597 10.2 5.64575 10.3827 5.72144C10.5654 5.79712 10.7216 5.92515 10.8315 6.0896C10.9414 6.25405 11 6.44748 11 6.64526C11 6.91048 10.8946 7.16476 10.7071 7.35229C10.5196 7.53983 10.2652 7.64526 10 7.64526Z" fill="#5DB05A"/>
</svg>
