<svg width="20" height="21" viewBox="0 0 20 21" fill="none" xmlns="http://www.w3.org/2000/svg">
<path d="M10 0.793106C8.02219 0.793106 6.0888 1.37961 4.4443 2.47843C2.79981 3.57725 1.51809 5.13898 0.761217 6.96624C0.00433971 8.7935 -0.193703 10.8042 0.19215 12.744C0.578002 14.6838 1.53041 16.4657 2.92894 17.8642C4.32746 19.2627 6.10929 20.2151 8.0491 20.6009C9.98892 20.9868 11.9996 20.7888 13.8269 20.0319C15.6541 19.275 17.2159 17.9934 18.3147 16.3489C19.4135 14.7044 20 12.7709 20 10.7931C19.997 8.14187 18.9425 5.60002 17.0678 3.7253C15.1931 1.85058 12.6513 0.796092 10 0.793106ZM10 19.2547C8.32647 19.2547 6.69051 18.7584 5.29901 17.8286C3.90752 16.8989 2.82299 15.5773 2.18256 14.0312C1.54212 12.485 1.37454 10.7837 1.70103 9.14235C2.02752 7.50097 2.83344 5.99328 4.0168 4.80991C5.20017 3.62654 6.70786 2.8207 8.34924 2.4942C9.99062 2.16771 11.692 2.33529 13.2381 2.97573C14.7842 3.61616 16.1058 4.7006 17.0355 6.09209C17.9653 7.48359 18.4616 9.11958 18.4616 10.7931C18.4591 13.0365 17.5668 15.1874 15.9805 16.7737C14.3942 18.36 12.2434 19.2522 10 19.2547ZM11.0257 6.69055C11.0257 6.8934 10.9655 7.09167 10.8528 7.26034C10.7401 7.429 10.5799 7.56044 10.3925 7.63807C10.2051 7.71569 9.99886 7.73611 9.79991 7.69654C9.60095 7.65696 9.41823 7.55927 9.27479 7.41584C9.13135 7.2724 9.03366 7.08957 8.99409 6.89062C8.95451 6.69166 8.9748 6.48546 9.05243 6.29805C9.13006 6.11063 9.26153 5.95051 9.43019 5.83781C9.59886 5.72511 9.79716 5.66491 10 5.66491C10.272 5.66491 10.5329 5.77292 10.7252 5.96526C10.9176 6.15761 11.0257 6.41853 11.0257 6.69055ZM10.7692 10.7931V14.8957C10.7692 15.0997 10.6882 15.2953 10.5439 15.4396C10.3997 15.5838 10.204 15.6649 10 15.6649C9.796 15.6649 9.60034 15.5838 9.45608 15.4396C9.31182 15.2953 9.23078 15.0997 9.23078 14.8957V10.7931C9.23078 10.5891 9.31182 10.3935 9.45608 10.2492C9.60034 10.105 9.796 10.0239 10 10.0239C10.204 10.0239 10.3997 10.105 10.5439 10.2492C10.6882 10.3935 10.7692 10.5891 10.7692 10.7931Z" fill="#C7C7C7"/>
</svg>
