<svg width="20" height="20" viewBox="0 0 20 20" fill="none" xmlns="http://www.w3.org/2000/svg">
<path d="M18.379 8.42481L16.54 10.2648C16.4704 10.3344 16.3877 10.3897 16.2966 10.4274C16.2056 10.4651 16.108 10.4845 16.0095 10.4845C15.911 10.4845 15.8135 10.4651 15.7225 10.4274C15.6314 10.3897 15.5487 10.3344 15.4791 10.2648C15.4094 10.1951 15.3541 10.1124 15.3164 10.0214C15.2787 9.93034 15.2593 9.83278 15.2593 9.73426C15.2593 9.63573 15.2787 9.53817 15.3164 9.44715C15.3541 9.35612 15.4094 9.27341 15.4791 9.20374L17.3181 7.36377C17.9189 6.76129 18.2563 5.94511 18.2563 5.09424C18.2563 4.24338 17.9189 3.4272 17.3181 2.82471C16.707 2.24071 15.8943 1.9148 15.0491 1.9148C14.2038 1.9148 13.3911 2.24071 12.78 2.82471L9.42102 6.18482C9.30881 6.293 9.20828 6.41259 9.12103 6.54175C8.65691 7.15745 8.4316 7.92052 8.48676 8.68958C8.54191 9.45864 8.87378 10.1816 9.42102 10.7247C9.49269 10.7939 9.54988 10.8767 9.58923 10.9681C9.62858 11.0596 9.6493 11.158 9.65021 11.2576C9.65112 11.3572 9.63221 11.4559 9.59454 11.5481C9.55688 11.6403 9.50123 11.7241 9.43085 11.7946C9.36046 11.865 9.27672 11.9207 9.18457 11.9585C9.09242 11.9963 8.99369 12.0152 8.8941 12.0144C8.79452 12.0136 8.69607 11.993 8.60455 11.9537C8.51303 11.9145 8.43024 11.8574 8.36102 11.7858C7.5618 10.9969 7.07388 9.94625 6.98682 8.82666C6.89975 7.70708 7.21937 6.59373 7.88702 5.6908C8.02497 5.48621 8.18382 5.29648 8.36102 5.12476L11.72 1.76478C12.1568 1.32532 12.6761 0.976439 13.248 0.738042C13.82 0.499645 14.4333 0.376402 15.0529 0.375493C15.6725 0.374585 16.2862 0.495953 16.8588 0.732671C17.4314 0.96939 17.9517 1.31684 18.3898 1.75501C18.8279 2.19318 19.1752 2.71349 19.4119 3.28614C19.6485 3.85879 19.7698 4.47255 19.7688 5.09217C19.7678 5.71178 19.6446 6.32509 19.4061 6.89698C19.1676 7.46886 18.8185 7.98806 18.379 8.42481ZM10.6 8.48377C10.5303 8.55342 10.475 8.63615 10.4373 8.72718C10.3996 8.8182 10.3802 8.91576 10.3802 9.01429C10.3802 9.11282 10.3996 9.21037 10.4373 9.3014C10.475 9.39242 10.5303 9.47515 10.6 9.5448C11.0333 9.97301 11.3342 10.5167 11.467 11.1112C11.5998 11.7057 11.5589 12.3258 11.3491 12.8977C11.1945 13.3459 10.9381 13.7522 10.6 14.0847L7.24103 17.4448C6.62998 18.0288 5.81729 18.3547 4.97205 18.3547C4.1268 18.3547 3.31412 18.0288 2.70306 17.4448C2.10224 16.8423 1.76483 16.0262 1.76483 15.1753C1.76483 14.3244 2.10224 13.5083 2.70306 12.9058L4.54205 11.0658C4.61172 10.9961 4.66695 10.9134 4.70465 10.8224C4.74235 10.7314 4.76178 10.6338 4.76178 10.5353C4.76178 10.4368 4.74235 10.3392 4.70465 10.2482C4.66695 10.1572 4.61172 10.0744 4.54205 10.0048C4.47239 9.9351 4.38967 9.87987 4.29865 9.84217C4.20762 9.80446 4.11006 9.78504 4.01154 9.78504C3.91301 9.78504 3.81545 9.80446 3.72443 9.84217C3.6334 9.87987 3.55068 9.9351 3.48102 10.0048L1.64203 11.8447C1.20473 12.282 0.857882 12.8012 0.621216 13.3726C0.38455 13.9439 0.262695 14.5564 0.262695 15.1748C0.262695 15.7932 0.38455 16.4056 0.621216 16.9769C0.857882 17.5483 1.20473 18.0675 1.64203 18.5048C2.07933 18.9421 2.5985 19.289 3.16986 19.5256C3.74122 19.7623 4.35361 19.8842 4.97205 19.8842C5.59048 19.8842 6.20287 19.7623 6.77423 19.5256C7.34559 19.289 7.86476 18.9421 8.30206 18.5048L11.6611 15.1448C12.1578 14.6518 12.5342 14.0509 12.761 13.3888C13.0584 12.5514 13.1128 11.647 12.9182 10.78C12.7236 9.91302 12.2878 9.11871 11.6611 8.48877C11.5918 8.41863 11.5094 8.36282 11.4185 8.32459C11.3277 8.28636 11.2302 8.26646 11.1316 8.266C11.033 8.26553 10.9353 8.28454 10.8441 8.3219C10.7529 8.35927 10.6699 8.41428 10.6 8.48377Z" fill="#484848"/>
</svg>
