<svg width="16" height="21" viewBox="0 0 16 21" fill="none" xmlns="http://www.w3.org/2000/svg">
<path d="M13 8.63525V5.64526C13 4.31918 12.4732 3.0473 11.5355 2.10962C10.5978 1.17194 9.32608 0.645264 8 0.645264C6.67392 0.645264 5.40216 1.17194 4.46448 2.10962C3.5268 3.0473 3 4.31918 3 5.64526V8.63525C2.25115 9.00447 1.6203 9.57543 1.17859 10.2839C0.736875 10.9924 0.501855 11.8103 0.5 12.6453V15.6453C0.501851 16.8382 0.976556 17.9817 1.82007 18.8252C2.66358 19.6687 3.80709 20.1434 5 20.1453H11C12.1929 20.1434 13.3364 19.6687 14.1799 18.8252C15.0234 17.9817 15.4981 16.8382 15.5 15.6453V12.6453C15.4981 11.8103 15.2631 10.9924 14.8214 10.2839C14.3797 9.57543 13.7489 9.00447 13 8.63525ZM9 14.6453C9 14.9105 8.89463 15.1648 8.70709 15.3523C8.51956 15.5398 8.26522 15.6453 8 15.6453C7.73478 15.6453 7.48044 15.5398 7.29291 15.3523C7.10537 15.1648 7 14.9105 7 14.6453V13.6453C7 13.38 7.10537 13.1258 7.29291 12.9382C7.48044 12.7507 7.73478 12.6453 8 12.6453C8.26522 12.6453 8.51956 12.7507 8.70709 12.9382C8.89463 13.1258 9 13.38 9 13.6453V14.6453ZM11 8.14526H5V5.64526C5 4.84961 5.31605 4.08653 5.87866 3.52393C6.44127 2.96132 7.20435 2.64526 8 2.64526C8.79565 2.64526 9.55873 2.96132 10.1213 3.52393C10.6839 4.08653 11 4.84961 11 5.64526V8.14526Z" fill="#5DB05A"/>
</svg>
