<svg width="16" height="20" viewBox="0 0 16 20" fill="none" xmlns="http://www.w3.org/2000/svg">
<path d="M12.5 7.72778V5.13477C12.5 3.87499 11.9996 2.6668 11.1088 1.776C10.218 0.885203 9.00978 0.384766 7.75 0.384766C6.49022 0.384766 5.28203 0.885203 4.39124 1.776C3.50044 2.6668 3 3.87499 3 5.13477V7.72876C2.11653 8.07873 1.35837 8.68572 0.823547 9.47119C0.288727 10.2567 0.00184181 11.1845 0 12.1348V15.1348C0.00158768 16.3941 0.502551 17.6014 1.39301 18.4918C2.28346 19.3823 3.49071 19.8832 4.75 19.8848H10.75C12.0093 19.8832 13.2165 19.3823 14.107 18.4918C14.9974 17.6014 15.4984 16.3941 15.5 15.1348V12.1348C15.4982 11.1844 15.2114 10.2563 14.6766 9.4707C14.1418 8.68506 13.3836 8.07793 12.5 7.72778ZM4.5 5.13477C4.5 4.27281 4.84241 3.44616 5.4519 2.83667C6.0614 2.22718 6.88805 1.88477 7.75 1.88477C8.61195 1.88477 9.4386 2.22718 10.0481 2.83667C10.6576 3.44616 11 4.27281 11 5.13477V7.40979C10.915 7.40479 10.836 7.38477 10.75 7.38477H4.75C4.664 7.38477 4.585 7.40579 4.5 7.40979V5.13477ZM14 15.1348C13.9989 15.9964 13.6562 16.8224 13.0469 17.4316C12.4377 18.0409 11.6116 18.3837 10.75 18.3848H4.75C3.88837 18.3837 3.06233 18.0409 2.45306 17.4316C1.8438 16.8224 1.50106 15.9964 1.5 15.1348V12.1348C1.50106 11.2731 1.8438 10.4471 2.45306 9.83783C3.06233 9.22857 3.88837 8.88582 4.75 8.88477H10.75C11.6116 8.88582 12.4377 9.22857 13.0469 9.83783C13.6562 10.4471 13.9989 11.2731 14 12.1348V15.1348ZM8.5 13.1348V14.1348C8.5 14.3337 8.42099 14.5244 8.28033 14.665C8.13968 14.8057 7.94891 14.8848 7.75 14.8848C7.55109 14.8848 7.36032 14.8057 7.21967 14.665C7.07901 14.5244 7 14.3337 7 14.1348V13.1348C7 12.9359 7.07901 12.7451 7.21967 12.6045C7.36032 12.4638 7.55109 12.3848 7.75 12.3848C7.94891 12.3848 8.13968 12.4638 8.28033 12.6045C8.42099 12.7451 8.5 12.9359 8.5 13.1348Z" fill="#484848"/>
</svg>
