<svg width="18" height="20" viewBox="0 0 18 20" fill="none" xmlns="http://www.w3.org/2000/svg">
<path d="M17.5 5.13477V15.1348C17.4984 16.3941 16.9974 17.6014 16.107 18.4918C15.2165 19.3823 14.0093 19.8832 12.75 19.8848H8.75C8.55109 19.8848 8.36032 19.8057 8.21967 19.665C8.07901 19.5244 8 19.3337 8 19.1348C8 18.9359 8.07901 18.7451 8.21967 18.6045C8.36032 18.4638 8.55109 18.3848 8.75 18.3848H12.75C13.6116 18.3837 14.4377 18.0409 15.0469 17.4316C15.6562 16.8224 15.9989 15.9964 16 15.1348V5.13477C15.9989 4.27314 15.6562 3.44715 15.0469 2.83789C14.4377 2.22863 13.6116 1.88582 12.75 1.88477H8.75C8.55109 1.88477 8.36032 1.80569 8.21967 1.66504C8.07901 1.52439 8 1.33368 8 1.13477C8 0.935853 8.07901 0.745144 8.21967 0.604492C8.36032 0.46384 8.55109 0.384766 8.75 0.384766H12.75C14.0093 0.386353 15.2165 0.887256 16.107 1.77771C16.9974 2.66816 17.4984 3.87547 17.5 5.13477ZM11.28 9.60474L7.28 5.60474C7.1393 5.46404 6.94849 5.38501 6.74951 5.38501C6.55054 5.38501 6.35969 5.46404 6.21899 5.60474C6.0783 5.74543 5.99927 5.93628 5.99927 6.13525C5.99927 6.33423 6.0783 6.52507 6.21899 6.66577L8.939 9.38574H0.75C0.551088 9.38574 0.360318 9.46482 0.219666 9.60547C0.0790132 9.74612 0 9.93683 0 10.1357C0 10.3347 0.0790132 10.5255 0.219666 10.6661C0.360318 10.8068 0.551088 10.8857 0.75 10.8857H8.939L6.21899 13.6057C6.14733 13.6749 6.09016 13.7576 6.05081 13.8491C6.01146 13.9406 5.99072 14.039 5.98981 14.1385C5.98889 14.2381 6.00783 14.337 6.0455 14.4292C6.08317 14.5214 6.13881 14.6051 6.2092 14.6755C6.27958 14.746 6.36329 14.8017 6.45544 14.8395C6.5476 14.8772 6.64636 14.8963 6.74594 14.8955C6.84553 14.8947 6.94394 14.874 7.03546 14.8347C7.12698 14.7955 7.20977 14.7383 7.27899 14.6667L11.279 10.6667C11.4199 10.526 11.4992 10.3351 11.4994 10.136C11.4996 9.93683 11.4207 9.74571 11.28 9.60474Z" fill="#484848"/>
</svg>
