<svg width="18" height="20" viewBox="0 0 18 20" fill="none" xmlns="http://www.w3.org/2000/svg">
<path d="M9.5 19.1348C9.5 19.3337 9.42099 19.5244 9.28033 19.665C9.13968 19.8057 8.94891 19.8848 8.75 19.8848H4.75C3.49071 19.8832 2.28346 19.3823 1.39301 18.4918C0.502551 17.6014 0.00158768 16.3941 0 15.1348V5.13477C0.00158768 3.87547 0.502551 2.66816 1.39301 1.77771C2.28346 0.887256 3.49071 0.386353 4.75 0.384766H8.75C8.94891 0.384766 9.13968 0.46384 9.28033 0.604492C9.42099 0.745144 9.5 0.935853 9.5 1.13477C9.5 1.33368 9.42099 1.52439 9.28033 1.66504C9.13968 1.80569 8.94891 1.88477 8.75 1.88477H4.75C3.88837 1.88582 3.06233 2.22863 2.45306 2.83789C1.8438 3.44715 1.50106 4.27314 1.5 5.13477V15.1348C1.50106 15.9964 1.8438 16.8224 2.45306 17.4316C3.06233 18.0409 3.88837 18.3837 4.75 18.3848H8.75C8.94891 18.3848 9.13968 18.4638 9.28033 18.6045C9.42099 18.7451 9.5 18.9359 9.5 19.1348ZM17.28 9.60474L13.28 5.60474C13.1393 5.46404 12.9485 5.38501 12.7495 5.38501C12.5505 5.38501 12.3597 5.46404 12.219 5.60474C12.0783 5.74543 11.9993 5.93628 11.9993 6.13525C11.9993 6.33423 12.0783 6.52507 12.219 6.66577L14.939 9.38574H6.75C6.55109 9.38574 6.36032 9.46482 6.21967 9.60547C6.07901 9.74612 6 9.93683 6 10.1357C6 10.3347 6.07901 10.5255 6.21967 10.6661C6.36032 10.8068 6.55109 10.8857 6.75 10.8857H14.939L12.219 13.6057C12.1473 13.6749 12.0902 13.7576 12.0508 13.8491C12.0115 13.9406 11.9907 14.039 11.9898 14.1385C11.9889 14.2381 12.0078 14.337 12.0455 14.4292C12.0832 14.5214 12.1388 14.6051 12.2092 14.6755C12.2796 14.746 12.3633 14.8017 12.4554 14.8395C12.5476 14.8772 12.6464 14.8963 12.7459 14.8955C12.8455 14.8947 12.9439 14.874 13.0355 14.8347C13.127 14.7955 13.2098 14.7383 13.279 14.6667L17.279 10.6667C17.4199 10.526 17.4992 10.3351 17.4994 10.136C17.4996 9.93683 17.4207 9.74571 17.28 9.60474Z" fill="#484848"/>
</svg>
