<svg width="20" height="19" viewBox="0 0 20 19" fill="none" xmlns="http://www.w3.org/2000/svg">
<path d="M6.13987 0.30835C6.25875 0.247993 6.38252 0.197911 6.50987 0.158447V16.6484L4.37986 17.7383C4.00659 17.9334 3.58884 18.0277 3.16792 18.012C2.747 17.9962 2.33748 17.871 1.97987 17.6484C1.60432 17.4203 1.29446 17.0982 1.08061 16.7144C0.866753 16.3305 0.756232 15.8977 0.759869 15.4583V5.27832C0.754864 4.61876 0.932528 3.97081 1.27317 3.40601C1.61382 2.8412 2.10415 2.38165 2.68986 2.07837L6.13987 0.30835ZM8.00987 0.158447V16.6484L12.1399 18.7683C12.2588 18.8287 12.3825 18.8787 12.5099 18.9182V2.42822L8.37986 0.30835C8.26099 0.247993 8.13722 0.197911 8.00987 0.158447ZM18.5399 1.42822C18.1814 1.20799 17.7721 1.08413 17.3517 1.06836C16.9312 1.05259 16.5139 1.14562 16.1399 1.33838L14.0099 2.42822V18.9182C14.1371 18.8785 14.2609 18.8285 14.3799 18.7683L17.8299 16.9983C18.4155 16.6949 18.9058 16.2354 19.2464 15.6707C19.587 15.1059 19.7648 14.4579 19.7599 13.7983V3.61841C19.7635 3.17899 19.653 2.74619 19.4391 2.3623C19.2253 1.97842 18.9154 1.65641 18.5399 1.42822Z" fill="#5DB05A"/>
</svg>
