<svg width="16" height="20" viewBox="0 0 16 20" fill="none" xmlns="http://www.w3.org/2000/svg">
<path d="M10.26 7.53833C10.26 7.93389 10.1427 8.32052 9.92294 8.64941C9.70318 8.97831 9.39083 9.23461 9.02538 9.38599C8.65992 9.53736 8.25779 9.57717 7.86983 9.5C7.48187 9.42283 7.1255 9.23234 6.84579 8.95264C6.56609 8.67293 6.37562 8.31643 6.29845 7.92847C6.22128 7.5405 6.26087 7.1384 6.41225 6.77295C6.56362 6.4075 6.81997 6.09525 7.14886 5.87549C7.47776 5.65573 7.86445 5.53833 8.26001 5.53833C8.78996 5.53991 9.29774 5.75125 9.67247 6.12598C10.0472 6.50071 10.2584 7.00838 10.26 7.53833ZM15.76 7.53833C15.76 13.6183 11.09 17.4283 9.09001 18.7783C8.84775 18.9505 8.55719 19.0415 8.26001 19.0383C7.95993 19.0401 7.66661 18.9493 7.42001 18.7783C5.42001 17.4283 0.76001 13.6283 0.76001 7.53833C0.76001 5.54921 1.55019 3.64163 2.95671 2.23511C4.36323 0.828585 6.27089 0.0383301 8.26001 0.0383301C10.2491 0.0383301 12.1568 0.828585 13.5633 2.23511C14.9698 3.64163 15.76 5.54921 15.76 7.53833ZM12.26 7.53833C12.26 6.7472 12.0254 5.97396 11.5859 5.31616C11.1464 4.65837 10.5216 4.14552 9.79074 3.84277C9.05984 3.54002 8.25557 3.46089 7.47964 3.61523C6.70372 3.76958 5.99099 4.15055 5.43158 4.70996C4.87217 5.26937 4.49121 5.98213 4.33687 6.75806C4.18253 7.53398 4.26175 8.33819 4.5645 9.06909C4.86725 9.8 5.37994 10.4247 6.03773 10.8643C6.69553 11.3038 7.46888 11.5383 8.26001 11.5383C9.32088 11.5383 10.3383 11.1168 11.0884 10.3667C11.8386 9.61655 12.26 8.5992 12.26 7.53833Z" fill="#5DB05A"/>
</svg>
