<svg width="20" height="20" viewBox="0 0 20 20" fill="none" xmlns="http://www.w3.org/2000/svg">
<path d="M18.4243 1.80981C18.0288 1.56574 17.5768 1.42817 17.1124 1.41064C16.648 1.39312 16.187 1.49614 15.7743 1.70972L13.5633 2.84473C13.3931 2.93195 13.2046 2.97754 13.0133 2.97754C12.822 2.97754 12.6335 2.93195 12.4633 2.84473L8.25228 0.682739C7.87305 0.487282 7.45292 0.384547 7.02629 0.382812H7.01427H7.00228C6.57572 0.385113 6.15572 0.487817 5.77629 0.682739L2.32927 2.45276C1.70265 2.77685 1.17802 3.26818 0.813525 3.87219C0.449034 4.47621 0.258923 5.16931 0.26427 5.87476V16.0518C0.260463 16.534 0.381618 17.0089 0.615924 17.4304C0.85023 17.8519 1.1897 18.2055 1.60128 18.4568C1.99665 18.7011 2.44865 18.8388 2.9131 18.8563C3.37756 18.8738 3.83861 18.7706 4.25127 18.5568L6.46227 17.4218C6.63248 17.3345 6.82102 17.2891 7.01229 17.2891C7.20355 17.2891 7.39206 17.3345 7.56227 17.4218L11.7733 19.5837C12.1505 19.7787 12.5686 19.8816 12.9933 19.8838C12.9993 19.8838 13.0043 19.8838 13.0103 19.8838C13.0159 19.8842 13.0216 19.8842 13.0273 19.8838C13.4518 19.8806 13.8697 19.7778 14.2473 19.5837L17.6943 17.8137C18.3209 17.4896 18.8456 16.9984 19.21 16.3944C19.5745 15.7904 19.7646 15.0972 19.7593 14.3917V4.21472C19.7638 3.73262 19.6432 3.2576 19.4092 2.83606C19.1752 2.41452 18.8358 2.06098 18.4243 1.80981ZM3.56328 17.2238C3.37955 17.3208 3.17354 17.3678 2.9659 17.3601C2.75826 17.3524 2.55629 17.2902 2.38027 17.1798C2.18853 17.0619 2.0307 16.8962 1.9222 16.699C1.81369 16.5018 1.75824 16.2799 1.76128 16.0548V5.87781C1.7565 5.44816 1.87086 5.02556 2.09169 4.65698C2.31252 4.2884 2.63119 3.98825 3.01229 3.78979L6.26128 2.12183V15.9098C6.09334 15.9538 5.9302 16.0145 5.77428 16.0908L3.56328 17.2238ZM8.24929 16.0887C8.09283 16.0128 7.9294 15.9522 7.76128 15.9077V2.11975L11.7733 4.17981C11.9297 4.25572 12.0932 4.31624 12.2613 4.36072V18.1488L8.24929 16.0887ZM18.2613 14.3888C18.2661 14.8184 18.1517 15.2409 17.9309 15.6095C17.71 15.9781 17.3914 16.2784 17.0103 16.4768L13.7613 18.1448V4.35681C13.9292 4.31279 14.0924 4.25213 14.2483 4.17578L16.4583 3.04077C16.642 2.94375 16.848 2.8967 17.0557 2.90442C17.2633 2.91214 17.4653 2.97431 17.6413 3.08472C17.833 3.2026 17.9909 3.36835 18.0994 3.56555C18.2079 3.76275 18.2633 3.98466 18.2603 4.20972V14.3888H18.2613Z" fill="#484848"/>
</svg>
