<svg width="16" height="20" viewBox="0 0 16 20" fill="none" xmlns="http://www.w3.org/2000/svg">
<path d="M8.01118 4.38471C7.2695 4.38471 6.54448 4.60461 5.92779 5.01667C5.31111 5.42872 4.83046 6.01443 4.54663 6.69965C4.2628 7.38487 4.18854 8.13885 4.33323 8.86628C4.47793 9.5937 4.83508 10.2619 5.35952 10.7863C5.88397 11.3108 6.55217 11.668 7.2796 11.8127C8.00703 11.9574 8.76102 11.8831 9.44624 11.5993C10.1315 11.3155 10.7171 10.8348 11.1292 10.2181C11.5412 9.6014 11.7612 8.87639 11.7612 8.13471C11.7601 7.14047 11.3647 6.18723 10.6617 5.4842C9.95863 4.78116 9.00542 4.38577 8.01118 4.38471ZM8.01118 10.3847C7.56617 10.3847 7.13116 10.2528 6.76115 10.0056C6.39114 9.75832 6.10274 9.40693 5.93245 8.99579C5.76215 8.58466 5.71759 8.1322 5.80441 7.69574C5.89123 7.25929 6.10553 6.85843 6.42019 6.54377C6.73486 6.2291 7.13578 6.01474 7.57223 5.92792C8.00869 5.8411 8.46109 5.88568 8.87222 6.05597C9.28335 6.22627 9.63475 6.5147 9.88199 6.88471C10.1292 7.25472 10.2612 7.6897 10.2612 8.13471C10.2607 8.73128 10.0234 9.30332 9.60159 9.72516C9.17975 10.147 8.60776 10.3842 8.01118 10.3847ZM8.01118 0.384708C6.98734 0.361735 5.96946 0.546528 5.01902 0.927921C4.06859 1.30931 3.20531 1.87936 2.48135 2.6037C1.75739 3.32804 1.18775 4.19164 0.806851 5.14228C0.425949 6.09291 0.241677 7.11087 0.265179 8.13471C0.265179 14.3427 5.00118 18.2107 7.03618 19.5847C7.32353 19.7798 7.66285 19.8841 8.01017 19.8841C8.3575 19.8841 8.69683 19.7798 8.98419 19.5847C11.0232 18.2077 15.7652 14.3348 15.7652 8.13275C15.788 7.10851 15.603 6.09022 15.2214 5.13947C14.8397 4.18872 14.2693 3.32517 13.5446 2.60102C12.8199 1.87687 11.9559 1.30714 11.0048 0.926212C10.0538 0.545282 9.03541 0.361074 8.01118 0.384708ZM8.14518 18.3427C8.10568 18.3701 8.05875 18.3848 8.01068 18.3848C7.96261 18.3848 7.91569 18.3701 7.87619 18.3427C6.44219 17.3747 1.76518 13.7777 1.76518 8.13471C1.76518 6.47711 2.42366 4.88738 3.59576 3.71527C4.76786 2.54317 6.35758 1.88471 8.01518 1.88471C9.67278 1.88471 11.2625 2.54317 12.4346 3.71527C13.6067 4.88738 14.2652 6.47711 14.2652 8.13471C14.2612 13.6177 9.98119 17.1007 8.14119 18.3427H8.14518Z" fill="#484848"/>
</svg>
