<svg width="17" height="21" viewBox="0 0 17 21" fill="none" xmlns="http://www.w3.org/2000/svg">
<path d="M2.75977 6.03834C2.75818 4.99298 3.05455 3.96892 3.61414 3.08595C4.17373 2.20297 4.97337 1.49757 5.91937 1.05274C6.86537 0.607914 7.91854 0.44199 8.95551 0.574229C9.99247 0.706467 10.9703 1.13156 11.7744 1.79957C12.5784 2.46758 13.1755 3.3508 13.4956 4.34596C13.8157 5.34111 13.8455 6.40696 13.5816 7.41847C13.3177 8.42998 12.7711 9.34517 12.0056 10.0571C11.2402 10.7691 10.2877 11.2482 9.25977 11.4382V15.5383C9.25977 15.8036 9.15439 16.0578 8.96686 16.2454C8.77932 16.4329 8.52498 16.5383 8.25977 16.5383C7.99455 16.5383 7.74021 16.4329 7.55267 16.2454C7.36514 16.0578 7.25977 15.8036 7.25977 15.5383V11.4382C5.99789 11.2037 4.85758 10.5358 4.03592 9.54981C3.21426 8.56382 2.76287 7.32181 2.75977 6.03834ZM11.4598 12.8484C11.1997 12.7954 10.9292 12.8478 10.7079 12.9942C10.4865 13.1405 10.3323 13.3689 10.2793 13.6289C10.2262 13.889 10.2786 14.1592 10.425 14.3806C10.5714 14.602 10.7997 14.7563 11.0598 14.8093C13.2418 15.2503 14.2598 16.1023 14.2598 16.5383C14.2598 17.2433 11.9818 18.5383 8.25977 18.5383C4.53777 18.5383 2.25977 17.2433 2.25977 16.5383C2.25977 16.1013 3.27678 15.2503 5.45978 14.8093C5.58854 14.7831 5.71085 14.7318 5.81976 14.6582C5.92867 14.5847 6.02204 14.4902 6.09451 14.3806C6.16699 14.271 6.21715 14.1483 6.24216 14.0193C6.26717 13.8903 6.26653 13.7577 6.24026 13.6289C6.214 13.5002 6.16262 13.3777 6.08908 13.2688C6.01554 13.1599 5.9213 13.0666 5.81168 12.9942C5.70206 12.9217 5.57924 12.8715 5.45023 12.8464C5.32122 12.8214 5.18851 12.8221 5.05975 12.8484C2.05275 13.4564 0.259766 14.8363 0.259766 16.5383C0.259766 19.1643 4.28377 20.5383 8.25977 20.5383C12.2358 20.5383 16.2598 19.1643 16.2598 16.5383C16.2598 14.8383 14.4598 13.4564 11.4598 12.8484Z" fill="#5DB05A"/>
</svg>
