<svg width="16" height="20" viewBox="0 0 16 20" fill="none" xmlns="http://www.w3.org/2000/svg">
<path d="M7.26123 10.8087V15.1348C7.26123 15.3337 7.34024 15.5244 7.4809 15.665C7.62155 15.8057 7.81232 15.8848 8.01123 15.8848C8.21014 15.8848 8.40091 15.8057 8.54156 15.665C8.68222 15.5244 8.76123 15.3337 8.76123 15.1348V10.8087C10.0749 10.6191 11.268 9.93899 12.1005 8.90515C12.9329 7.87131 13.3428 6.56059 13.2477 5.23669C13.1527 3.9128 12.5597 2.67397 11.5881 1.76965C10.6166 0.865337 9.33854 0.362671 8.01123 0.362671C6.68393 0.362671 5.4059 0.865337 4.43433 1.76965C3.46276 2.67397 2.86977 3.9128 2.77472 5.23669C2.67967 6.56059 3.08958 7.87131 3.922 8.90515C4.75442 9.93899 5.94754 10.6191 7.26123 10.8087ZM8.01123 1.88477C8.75291 1.88477 9.47792 2.10467 10.0946 2.51672C10.7113 2.92878 11.1919 3.51448 11.4758 4.19971C11.7596 4.88493 11.8339 5.6389 11.6892 6.36633C11.5445 7.09376 11.1873 7.76193 10.6629 8.28638C10.1384 8.81082 9.47026 9.16805 8.74283 9.31274C8.0154 9.45744 7.26139 9.38319 6.57617 9.09937C5.89095 8.81554 5.30527 8.33482 4.89322 7.71814C4.48116 7.10146 4.26123 6.37645 4.26123 5.63477C4.26229 4.64053 4.65772 3.68728 5.36075 2.98425C6.06378 2.28122 7.01699 1.88582 8.01123 1.88477ZM15.7612 16.1348C15.7612 18.2728 12.4292 19.8848 8.01123 19.8848C3.59323 19.8848 0.26123 18.2728 0.26123 16.1348C0.26123 14.5608 1.98124 13.2728 4.86124 12.6898C5.05617 12.65 5.25893 12.6892 5.4249 12.799C5.59087 12.9087 5.70643 13.0798 5.74622 13.2748C5.786 13.4697 5.74673 13.6724 5.63702 13.8384C5.52732 14.0043 5.35616 14.12 5.16122 14.1598C2.93022 14.6118 1.76123 15.4958 1.76123 16.1348C1.76123 17.0518 4.19623 18.3848 8.01123 18.3848C11.8262 18.3848 14.2612 17.0518 14.2612 16.1348C14.2612 15.4958 13.0942 14.6118 10.8612 14.1598C10.6663 14.12 10.4951 14.0043 10.3854 13.8384C10.2757 13.6724 10.2365 13.4697 10.2762 13.2748C10.316 13.0798 10.4316 12.9087 10.5976 12.799C10.7635 12.6892 10.9663 12.65 11.1612 12.6898C14.0412 13.2728 15.7612 14.5608 15.7612 16.1348Z" fill="#484848"/>
</svg>
