<svg width="20" height="16" viewBox="0 0 20 16" fill="none" xmlns="http://www.w3.org/2000/svg">
<path d="M0 1.13477C0 0.935853 0.0790132 0.745144 0.219666 0.604492C0.360318 0.46384 0.551088 0.384766 0.75 0.384766H13.75C13.9489 0.384766 14.1397 0.46384 14.2803 0.604492C14.421 0.745144 14.5 0.935853 14.5 1.13477C14.5 1.33368 14.421 1.52439 14.2803 1.66504C14.1397 1.80569 13.9489 1.88477 13.75 1.88477H0.75C0.551088 1.88477 0.360318 1.80569 0.219666 1.66504C0.0790132 1.52439 0 1.33368 0 1.13477ZM18.75 7.38477H0.75C0.551088 7.38477 0.360318 7.46384 0.219666 7.60449C0.0790132 7.74514 0 7.93585 0 8.13477C0 8.33368 0.0790132 8.52439 0.219666 8.66504C0.360318 8.80569 0.551088 8.88477 0.75 8.88477H18.75C18.9489 8.88477 19.1397 8.80569 19.2803 8.66504C19.421 8.52439 19.5 8.33368 19.5 8.13477C19.5 7.93585 19.421 7.74514 19.2803 7.60449C19.1397 7.46384 18.9489 7.38477 18.75 7.38477ZM9.75 14.3848H0.75C0.551088 14.3848 0.360318 14.4638 0.219666 14.6045C0.0790132 14.7451 0 14.9359 0 15.1348C0 15.3337 0.0790132 15.5244 0.219666 15.665C0.360318 15.8057 0.551088 15.8848 0.75 15.8848H9.75C9.94891 15.8848 10.1397 15.8057 10.2803 15.665C10.421 15.5244 10.5 15.3337 10.5 15.1348C10.5 14.9359 10.421 14.7451 10.2803 14.6045C10.1397 14.4638 9.94891 14.3848 9.75 14.3848Z" fill="#484848"/>
</svg>
