<svg width="18" height="20" viewBox="0 0 18 20" fill="none" xmlns="http://www.w3.org/2000/svg">
<path d="M9.0112 13.8848C10.2705 13.8832 11.4777 13.3823 12.3682 12.4919C13.2586 11.6014 13.7596 10.3941 13.7612 9.13482V6.44586L17.5412 2.66583C17.6109 2.59616 17.6661 2.51344 17.7038 2.42242C17.7415 2.3314 17.761 2.23383 17.761 2.13531C17.761 2.03679 17.7415 1.93922 17.7038 1.8482C17.6661 1.75718 17.6109 1.67446 17.5412 1.60479C17.4716 1.53513 17.3888 1.4799 17.2978 1.44219C17.2068 1.40449 17.1092 1.38507 17.0107 1.38507C16.9122 1.38507 16.8146 1.40449 16.7236 1.44219C16.6326 1.4799 16.5499 1.53513 16.4802 1.60479L0.480195 17.6048C0.408531 17.6739 0.351331 17.7567 0.311982 17.8482C0.272633 17.9397 0.25192 18.038 0.251008 18.1376C0.250096 18.2372 0.269005 18.336 0.306672 18.4282C0.344339 18.5203 0.400043 18.6042 0.470429 18.6746C0.540815 18.7451 0.624491 18.8008 0.716645 18.8386C0.808799 18.8763 0.907588 18.8953 1.00717 18.8945C1.10676 18.8936 1.20514 18.8731 1.29666 18.8338C1.38818 18.7945 1.47097 18.7374 1.54019 18.6658L4.66123 15.5449C5.73292 16.2738 6.97102 16.7208 8.2612 16.8448V18.3848H5.0112C4.81229 18.3848 4.62152 18.4639 4.48087 18.6045C4.34021 18.7452 4.2612 18.9359 4.2612 19.1348C4.2612 19.3337 4.34021 19.5244 4.48087 19.6651C4.62152 19.8057 4.81229 19.8848 5.0112 19.8848H13.0112C13.2101 19.8848 13.4009 19.8057 13.5415 19.6651C13.6822 19.5244 13.7612 19.3337 13.7612 19.1348C13.7612 18.9359 13.6822 18.7452 13.5415 18.6045C13.4009 18.4639 13.2101 18.3848 13.0112 18.3848H9.7612V16.8469C11.6766 16.6584 13.4536 15.7648 14.7472 14.3397C16.0407 12.9145 16.7585 11.0595 16.7612 9.13482C16.7612 8.93591 16.6822 8.7452 16.5415 8.60455C16.4009 8.4639 16.2101 8.38482 16.0112 8.38482C15.8123 8.38482 15.6215 8.4639 15.4809 8.60455C15.3402 8.7452 15.2612 8.93591 15.2612 9.13482C15.2656 10.2456 14.9726 11.3373 14.4126 12.2967C13.8526 13.256 13.046 14.048 12.0766 14.5904C11.1072 15.1328 10.0103 15.4058 8.89975 15.381C7.7892 15.3563 6.70552 15.0347 5.7612 14.4498L6.86118 13.3498C7.52519 13.6963 8.26222 13.8798 9.0112 13.8848ZM12.2612 9.13482C12.2601 9.99645 11.9174 10.8224 11.3081 11.4317C10.6989 12.041 9.87283 12.3838 9.0112 12.3848C8.66485 12.3833 8.32104 12.3255 7.9932 12.2138L12.2612 7.94586V9.13482ZM4.37723 10.1868C4.30242 9.84109 4.26352 9.48855 4.2612 9.13482V5.13482C4.25999 4.1231 4.58219 3.13748 5.18076 2.32183C5.77933 1.50618 6.62291 0.903178 7.58841 0.600886C8.55391 0.298595 9.59079 0.312874 10.5476 0.641536C11.5045 0.970197 12.3312 1.59603 12.9072 2.42779C13.0132 2.59142 13.0513 2.78991 13.0134 2.98114C12.9755 3.17237 12.8647 3.3413 12.7044 3.4522C12.5441 3.56311 12.3468 3.60725 12.1545 3.57525C11.9622 3.54325 11.79 3.43767 11.6742 3.28082C11.2802 2.71171 10.7146 2.28353 10.0599 2.05877C9.40523 1.83401 8.69578 1.82446 8.03531 2.03155C7.37483 2.23864 6.79791 2.65146 6.38876 3.20977C5.97962 3.76809 5.75973 4.44264 5.7612 5.13482V9.13482C5.76398 9.38634 5.79211 9.63699 5.84519 9.88287C5.88535 10.0777 5.84655 10.2804 5.73721 10.4466C5.62788 10.6127 5.45697 10.7287 5.26218 10.7689C5.21189 10.7796 5.16065 10.785 5.10922 10.7848C4.93697 10.7848 4.76996 10.7252 4.63657 10.6163C4.50317 10.5073 4.41159 10.3556 4.37723 10.1868ZM2.12619 12.7009C1.55641 11.5986 1.25976 10.3756 1.2612 9.13482C1.2612 8.93591 1.34021 8.7452 1.48087 8.60455C1.62152 8.4639 1.81229 8.38482 2.0112 8.38482C2.21011 8.38482 2.40088 8.4639 2.54154 8.60455C2.68219 8.7452 2.7612 8.93591 2.7612 9.13482C2.76093 10.1351 3.00102 11.1208 3.46121 12.0088C3.50673 12.0962 3.53458 12.1915 3.54318 12.2896C3.55179 12.3877 3.54095 12.4866 3.51132 12.5805C3.48169 12.6744 3.43385 12.7615 3.37051 12.8368C3.30717 12.9122 3.22957 12.9745 3.14218 13.0198C3.03549 13.0759 2.91671 13.1051 2.79617 13.1048C2.65809 13.1059 2.5224 13.0687 2.40415 12.9974C2.28589 12.9261 2.18969 12.8235 2.12619 12.7009Z" fill="#484848"/>
</svg>
