<svg width="17" height="20" viewBox="0 0 17 20" fill="none" xmlns="http://www.w3.org/2000/svg">
<path d="M3.75977 8.53833V4.53833C3.75977 3.34486 4.23385 2.20036 5.07776 1.35645C5.92167 0.512532 7.06629 0.0383301 8.25977 0.0383301C9.45324 0.0383301 10.5979 0.512532 11.4418 1.35645C12.2857 2.20036 12.7598 3.34486 12.7598 4.53833V8.53833C12.7598 9.7318 12.2857 10.8763 11.4418 11.7202C10.5979 12.5641 9.45324 13.0383 8.25977 13.0383C7.06629 13.0383 5.92167 12.5641 5.07776 11.7202C4.23385 10.8763 3.75977 9.7318 3.75977 8.53833ZM16.2598 8.53833C16.2598 8.27311 16.1544 8.01884 15.9669 7.8313C15.7793 7.64376 15.525 7.53833 15.2598 7.53833C14.9945 7.53833 14.7402 7.64376 14.5527 7.8313C14.3651 8.01884 14.2598 8.27311 14.2598 8.53833C14.2598 10.1296 13.6276 11.6558 12.5024 12.781C11.3772 13.9062 9.85106 14.5383 8.25977 14.5383C6.66847 14.5383 5.14237 13.9062 4.01715 12.781C2.89193 11.6558 2.25977 10.1296 2.25977 8.53833C2.25977 8.27311 2.15439 8.01884 1.96686 7.8313C1.77932 7.64376 1.52498 7.53833 1.25977 7.53833C0.994549 7.53833 0.74021 7.64376 0.552673 7.8313C0.365137 8.01884 0.259766 8.27311 0.259766 8.53833C0.262787 10.4854 0.975129 12.3647 2.26355 13.8245C3.55197 15.2842 5.32818 16.2244 7.25977 16.4692V17.5383H4.25977C3.99455 17.5383 3.74021 17.6438 3.55267 17.8313C3.36514 18.0188 3.25977 18.2731 3.25977 18.5383C3.25977 18.8035 3.36514 19.0578 3.55267 19.2454C3.74021 19.4329 3.99455 19.5383 4.25977 19.5383H12.2598C12.525 19.5383 12.7793 19.4329 12.9669 19.2454C13.1544 19.0578 13.2598 18.8035 13.2598 18.5383C13.2598 18.2731 13.1544 18.0188 12.9669 17.8313C12.7793 17.6438 12.525 17.5383 12.2598 17.5383H9.25977V16.4692C11.1914 16.2244 12.9676 15.2842 14.256 13.8245C15.5444 12.3647 16.2567 10.4854 16.2598 8.53833Z" fill="#5DB05A"/>
</svg>
