<svg width="16" height="20" viewBox="0 0 16 20" fill="none" xmlns="http://www.w3.org/2000/svg">
<path d="M8.01123 13.8848C9.27052 13.8832 10.4778 13.3823 11.3682 12.4918C12.2587 11.6014 12.7596 10.3941 12.7612 9.13477V5.13477C12.7612 3.87499 12.2608 2.6668 11.37 1.776C10.4792 0.885203 9.27101 0.384766 8.01123 0.384766C6.75145 0.384766 5.54326 0.885203 4.65247 1.776C3.76167 2.6668 3.26123 3.87499 3.26123 5.13477V9.13477C3.26282 10.3941 3.76378 11.6014 4.65424 12.4918C5.54469 13.3823 6.75194 13.8832 8.01123 13.8848ZM4.76123 5.13477C4.76123 4.27281 5.10364 3.44616 5.71313 2.83667C6.32263 2.22718 7.14928 1.88477 8.01123 1.88477C8.87318 1.88477 9.69983 2.22718 10.3093 2.83667C10.9188 3.44616 11.2612 4.27281 11.2612 5.13477V9.13477C11.2612 9.99672 10.9188 10.8234 10.3093 11.4329C9.69983 12.0424 8.87318 12.3848 8.01123 12.3848C7.14928 12.3848 6.32263 12.0424 5.71313 11.4329C5.10364 10.8234 4.76123 9.99672 4.76123 9.13477V5.13477ZM8.76123 16.8468V18.3848H12.0112C12.2101 18.3848 12.4009 18.4638 12.5416 18.6045C12.6822 18.7451 12.7612 18.9359 12.7612 19.1348C12.7612 19.3337 12.6822 19.5244 12.5416 19.665C12.4009 19.8057 12.2101 19.8848 12.0112 19.8848H4.01123C3.81232 19.8848 3.62155 19.8057 3.4809 19.665C3.34024 19.5244 3.26123 19.3337 3.26123 19.1348C3.26123 18.9359 3.34024 18.7451 3.4809 18.6045C3.62155 18.4638 3.81232 18.3848 4.01123 18.3848H7.26123V16.8468C5.34582 16.6583 3.56883 15.7647 2.27527 14.3396C0.981705 12.9145 0.263883 11.0594 0.26123 9.13477C0.26123 8.93585 0.340244 8.74514 0.480896 8.60449C0.621548 8.46384 0.812318 8.38477 1.01123 8.38477C1.21014 8.38477 1.40091 8.46384 1.54156 8.60449C1.68222 8.74514 1.76123 8.93585 1.76123 9.13477C1.76123 10.7924 2.41969 12.3821 3.5918 13.5542C4.7639 14.7263 6.35363 15.3848 8.01123 15.3848C9.66883 15.3848 11.2586 14.7263 12.4307 13.5542C13.6028 12.3821 14.2612 10.7924 14.2612 9.13477C14.2612 8.93585 14.3402 8.74514 14.4809 8.60449C14.6215 8.46384 14.8123 8.38477 15.0112 8.38477C15.2101 8.38477 15.4009 8.46384 15.5416 8.60449C15.6822 8.74514 15.7612 8.93585 15.7612 9.13477C15.7586 11.0594 15.0408 12.9145 13.7472 14.3396C12.4536 15.7647 10.6766 16.6583 8.76123 16.8468Z" fill="#484848"/>
</svg>
