<svg width="19" height="20" viewBox="0 0 19 20" fill="none" xmlns="http://www.w3.org/2000/svg">
<path d="M7.53519 12.6772L6.40714 13.8054C7.3197 14.3033 8.34622 14.555 9.3856 14.5356C10.425 14.5163 11.4414 14.2266 12.3348 13.695C13.2282 13.1635 13.9677 12.4083 14.4807 11.5041C14.9936 10.5999 15.2623 9.57786 15.2602 8.53831C15.2602 8.27309 15.3655 8.01881 15.5531 7.83128C15.7406 7.64374 15.995 7.53831 16.2602 7.53831C16.5254 7.53831 16.7797 7.64374 16.9673 7.83128C17.1548 8.01881 17.2602 8.27309 17.2602 8.53831C17.2571 10.4854 16.5448 12.3647 15.2564 13.8244C13.968 15.2842 12.1918 16.2243 10.2602 16.4692V17.5383H13.2602C13.5254 17.5383 13.7797 17.6437 13.9673 17.8313C14.1548 18.0188 14.2602 18.2731 14.2602 18.5383C14.2602 18.8035 14.1548 19.0578 13.9673 19.2453C13.7797 19.4329 13.5254 19.5383 13.2602 19.5383H5.26017C4.99495 19.5383 4.74061 19.4329 4.55308 19.2453C4.36554 19.0578 4.26017 18.8035 4.26017 18.5383C4.26017 18.2731 4.36554 18.0188 4.55308 17.8313C4.74061 17.6437 4.99495 17.5383 5.26017 17.5383H8.26017V16.4682C7.08005 16.3208 5.94799 15.9108 4.94718 15.2683L1.96714 18.2483C1.77854 18.4304 1.52597 18.5313 1.26377 18.529C1.00157 18.5268 0.750754 18.4215 0.565345 18.2361C0.379937 18.0507 0.274777 17.8 0.272499 17.5378C0.27022 17.2756 0.371041 17.0228 0.553199 16.8342L16.5532 0.834208C16.6454 0.738698 16.7558 0.662496 16.8778 0.610087C16.9998 0.557678 17.131 0.530186 17.2638 0.529032C17.3966 0.527879 17.5282 0.553214 17.6511 0.603495C17.774 0.653776 17.8857 0.728108 17.9796 0.822001C18.0735 0.915894 18.1477 1.02747 18.198 1.15037C18.2483 1.27327 18.2736 1.40504 18.2724 1.53782C18.2713 1.6706 18.2437 1.8018 18.1913 1.92381C18.1389 2.04581 18.0627 2.15602 17.9671 2.24827L13.7602 6.4553V8.53831C13.7586 9.7313 13.284 10.8749 12.4404 11.7185C11.5968 12.5621 10.4532 13.0367 9.26017 13.0383C8.66684 13.0343 8.08034 12.9115 7.53519 12.6772ZM5.21714 9.91819C5.30398 9.94472 5.39645 9.9473 5.48453 9.92527C5.57262 9.90325 5.653 9.85746 5.71714 9.79319L12.8972 2.61228C12.98 2.52955 13.0312 2.42052 13.0418 2.30393C13.0524 2.18735 13.0217 2.07066 12.9552 1.97434C12.4084 1.18776 11.6249 0.596101 10.7187 0.285624C9.81242 -0.0248531 8.83073 -0.0380183 7.91648 0.248026C7.00223 0.534071 6.20309 1.10433 5.63541 1.87596C5.06773 2.64759 4.76112 3.58036 4.76017 4.53831V8.53831C4.76266 8.87452 4.79951 9.2096 4.87015 9.53831C4.88812 9.62715 4.92988 9.70941 4.991 9.77635C5.05213 9.84328 5.13029 9.89225 5.21714 9.91819ZM3.04118 12.7583C3.21296 12.7581 3.38183 12.7137 3.53147 12.6294C3.68111 12.545 3.80645 12.4235 3.89548 12.2766C3.98452 12.1297 4.03423 11.9622 4.03977 11.7905C4.04532 11.6188 4.00653 11.4487 3.92716 11.2964C3.48752 10.4436 3.25879 9.49775 3.26017 8.53831C3.26017 8.27309 3.1548 8.01881 2.96726 7.83128C2.77973 7.64374 2.52539 7.53831 2.26017 7.53831C1.99495 7.53831 1.74061 7.64374 1.55308 7.83128C1.36554 8.01881 1.26017 8.27309 1.26017 8.53831C1.25872 9.81944 1.56498 11.0821 2.15317 12.2202C2.23776 12.3826 2.3653 12.5186 2.52189 12.6135C2.67847 12.7084 2.85809 12.7585 3.04118 12.7583Z" fill="#5DB05A"/>
</svg>
