<svg width="20" height="20" viewBox="0 0 20 20" fill="none" xmlns="http://www.w3.org/2000/svg">
<path d="M13 0.145264H7C5.27715 0.148699 3.62584 0.834736 2.40759 2.05298C1.18935 3.27122 0.503435 4.92241 0.5 6.64526V12.6453C0.503435 14.3681 1.18935 16.0193 2.40759 17.2375C3.62584 18.4558 5.27715 19.1418 7 19.1453H13C14.7229 19.1418 16.3742 18.4558 17.5924 17.2375C18.8106 16.0193 19.4966 14.3681 19.5 12.6453V6.64526C19.4966 4.92241 18.8106 3.27122 17.5924 2.05298C16.3742 0.834736 14.7229 0.148699 13 0.145264ZM14 10.6453H6C5.73478 10.6453 5.48044 10.5398 5.29291 10.3523C5.10537 10.1648 5 9.91048 5 9.64526C5 9.38005 5.10537 9.12577 5.29291 8.93823C5.48044 8.7507 5.73478 8.64526 6 8.64526H14C14.2652 8.64526 14.5196 8.7507 14.7071 8.93823C14.8946 9.12577 15 9.38005 15 9.64526C15 9.91048 14.8946 10.1648 14.7071 10.3523C14.5196 10.5398 14.2652 10.6453 14 10.6453Z" fill="#5DB05A"/>
</svg>
