<svg width="20" height="20" viewBox="0 0 20 20" fill="none" xmlns="http://www.w3.org/2000/svg">
<path d="M13.0769 0H6.92308C5.08763 0.00217149 3.32798 0.732265 2.03012 2.03012C0.732265 3.32798 0.00217149 5.08763 0 6.92308V13.0769C0.00217149 14.9124 0.732265 16.672 2.03012 17.9699C3.32798 19.2677 5.08763 19.9978 6.92308 20H13.0769C14.9124 19.9978 16.672 19.2677 17.9699 17.9699C19.2677 16.672 19.9978 14.9124 20 13.0769V6.92308C19.9978 5.08763 19.2677 3.32798 17.9699 2.03012C16.672 0.732265 14.9124 0.00217149 13.0769 0ZM18.4615 13.0769C18.4599 14.5045 17.8921 15.8732 16.8826 16.8826C15.8732 17.8921 14.5045 18.4599 13.0769 18.4615H6.92308C5.49549 18.4599 4.12682 17.8921 3.11736 16.8826C2.1079 15.8732 1.54009 14.5045 1.53846 13.0769V6.92308C1.54009 5.49549 2.1079 4.12682 3.11736 3.11736C4.12682 2.1079 5.49549 1.54009 6.92308 1.53846H13.0769C14.5045 1.54009 15.8732 2.1079 16.8826 3.11736C17.8921 4.12682 18.4599 5.49549 18.4615 6.92308V13.0769ZM14.8718 10C14.8718 10.204 14.7908 10.3997 14.6465 10.5439C14.5022 10.6882 14.3066 10.7692 14.1026 10.7692H5.89744C5.69342 10.7692 5.49776 10.6882 5.3535 10.5439C5.20924 10.3997 5.12821 10.204 5.12821 10C5.12821 9.79599 5.20924 9.60033 5.3535 9.45607C5.49776 9.31181 5.69342 9.23077 5.89744 9.23077H14.1026C14.3066 9.23077 14.5022 9.31181 14.6465 9.45607C14.7908 9.60033 14.8718 9.79599 14.8718 10Z" fill="#484848"/>
</svg>
