<svg width="14" height="20" viewBox="0 0 14 20" fill="none" xmlns="http://www.w3.org/2000/svg">
<path d="M9.25977 0.0383301H5.25977C4.06686 0.0401814 2.92335 0.514886 2.07983 1.3584C1.23632 2.20191 0.761617 3.34542 0.759766 4.53833V14.5383C0.761617 15.7312 1.23632 16.8747 2.07983 17.7183C2.92335 18.5618 4.06686 19.0365 5.25977 19.0383H9.25977C10.4527 19.0365 11.5962 18.5618 12.4397 17.7183C13.2832 16.8747 13.7579 15.7312 13.7598 14.5383V4.53833C13.7579 3.34542 13.2832 2.20191 12.4397 1.3584C11.5962 0.514886 10.4527 0.0401814 9.25977 0.0383301ZM7.75977 16.5383H6.75977C6.49455 16.5383 6.24021 16.4329 6.05267 16.2454C5.86514 16.0578 5.75977 15.8035 5.75977 15.5383C5.75977 15.2731 5.86514 15.0188 6.05267 14.8313C6.24021 14.6438 6.49455 14.5383 6.75977 14.5383H7.75977C8.02498 14.5383 8.27932 14.6438 8.46686 14.8313C8.65439 15.0188 8.75977 15.2731 8.75977 15.5383C8.75977 15.8035 8.65439 16.0578 8.46686 16.2454C8.27932 16.4329 8.02498 16.5383 7.75977 16.5383Z" fill="#5DB05A"/>
</svg>
