<svg width="14" height="20" viewBox="0 0 14 20" fill="none" xmlns="http://www.w3.org/2000/svg">
<path d="M9.01123 0.384766H5.01123C3.75194 0.386353 2.54469 0.887256 1.65424 1.77771C0.763782 2.66816 0.262818 3.87547 0.26123 5.13477V15.1348C0.262818 16.3941 0.763782 17.6014 1.65424 18.4918C2.54469 19.3823 3.75194 19.8832 5.01123 19.8848H9.01123C10.2705 19.8832 11.4778 19.3823 12.3682 18.4918C13.2587 17.6014 13.7596 16.3941 13.7612 15.1348V5.13477C13.7596 3.87547 13.2587 2.66816 12.3682 1.77771C11.4778 0.887256 10.2705 0.386353 9.01123 0.384766ZM12.2612 15.1348C12.2602 15.9964 11.9174 16.8224 11.3082 17.4316C10.6989 18.0409 9.87286 18.3837 9.01123 18.3848H5.01123C4.1496 18.3837 3.32356 18.0409 2.71429 17.4316C2.10503 16.8224 1.76229 15.9964 1.76123 15.1348V5.13477C1.76229 4.27314 2.10503 3.44715 2.71429 2.83789C3.32356 2.22863 4.1496 1.88582 5.01123 1.88477H9.01123C9.87286 1.88582 10.6989 2.22863 11.3082 2.83789C11.9174 3.44715 12.2602 4.27314 12.2612 5.13477V15.1348ZM8.76123 16.1348C8.76123 16.3337 8.68222 16.5244 8.54156 16.665C8.40091 16.8057 8.21014 16.8848 8.01123 16.8848H6.01123C5.81232 16.8848 5.62155 16.8057 5.4809 16.665C5.34024 16.5244 5.26123 16.3337 5.26123 16.1348C5.26123 15.9359 5.34024 15.7451 5.4809 15.6045C5.62155 15.4638 5.81232 15.3848 6.01123 15.3848H8.01123C8.21014 15.3848 8.40091 15.4638 8.54156 15.6045C8.68222 15.7451 8.76123 15.9359 8.76123 16.1348Z" fill="#484848"/>
</svg>
