<svg width="20" height="20" viewBox="0 0 20 20" fill="none" xmlns="http://www.w3.org/2000/svg">
<path d="M10.26 0.0383301C8.38109 0.0383301 6.54436 0.595531 4.98209 1.6394C3.41982 2.68328 2.20219 4.16693 1.48316 5.90283C0.764125 7.63873 0.575995 9.54878 0.942554 11.3916C1.30911 13.2344 2.2139 14.9273 3.5425 16.2559C4.8711 17.5845 6.56383 18.4892 8.40665 18.8557C10.2495 19.2223 12.1596 19.0342 13.8955 18.3152C15.6314 17.5962 17.1151 16.3784 18.159 14.8162C19.2028 13.2539 19.76 11.4173 19.76 9.53833C19.7576 7.0195 18.756 4.60457 16.9749 2.82349C15.1938 1.04241 12.7788 0.0407129 10.26 0.0383301ZM5.76001 10.7883C5.51279 10.7883 5.27112 10.715 5.06556 10.5776C4.85999 10.4403 4.69978 10.245 4.60517 10.0166C4.51056 9.78819 4.4858 9.53691 4.53403 9.29443C4.58226 9.05196 4.70132 8.82936 4.87613 8.65454C5.05095 8.47973 5.27367 8.36049 5.51615 8.31226C5.75862 8.26402 6.00995 8.28894 6.23836 8.38354C6.46677 8.47815 6.662 8.63819 6.79935 8.84375C6.9367 9.04931 7.01001 9.2911 7.01001 9.53833C7.01001 9.86985 6.87831 10.1877 6.64389 10.4221C6.40947 10.6565 6.09153 10.7883 5.76001 10.7883ZM10.26 10.7883C10.0128 10.7883 9.77112 10.715 9.56556 10.5776C9.35999 10.4403 9.19978 10.245 9.10517 10.0166C9.01056 9.78819 8.9858 9.53691 9.03403 9.29443C9.08226 9.05196 9.20132 8.82936 9.37613 8.65454C9.55095 8.47973 9.77367 8.36049 10.0161 8.31226C10.2586 8.26402 10.51 8.28894 10.7384 8.38354C10.9668 8.47815 11.162 8.63819 11.2994 8.84375C11.4367 9.04931 11.51 9.2911 11.51 9.53833C11.51 9.86985 11.3783 10.1877 11.1439 10.4221C10.9095 10.6565 10.5915 10.7883 10.26 10.7883ZM14.76 10.7883C14.5128 10.7883 14.2711 10.715 14.0656 10.5776C13.86 10.4403 13.6998 10.245 13.6052 10.0166C13.5106 9.78819 13.4858 9.53691 13.534 9.29443C13.5823 9.05196 13.7013 8.82936 13.8761 8.65454C14.0509 8.47973 14.2737 8.36049 14.5161 8.31226C14.7586 8.26402 15.01 8.28894 15.2384 8.38354C15.4668 8.47815 15.662 8.63819 15.7994 8.84375C15.9367 9.04931 16.01 9.2911 16.01 9.53833C16.01 9.86985 15.8783 10.1877 15.6439 10.4221C15.4095 10.6565 15.0915 10.7883 14.76 10.7883Z" fill="#5DB05A"/>
</svg>
