<svg width="16" height="16" viewBox="0 0 16 16" fill="none" xmlns="http://www.w3.org/2000/svg">
<path d="M8.86643 11.5856C8.86643 11.7392 8.82087 11.8894 8.73551 12.0172C8.65014 12.1449 8.52881 12.2445 8.38685 12.3033C8.24489 12.3621 8.08867 12.3775 7.93797 12.3476C7.78727 12.3176 7.64886 12.2436 7.54021 12.1349C7.43156 12.0263 7.35757 11.8878 7.32759 11.7371C7.29762 11.5864 7.31298 11.4302 7.37178 11.2883C7.43058 11.1463 7.53017 11.025 7.65792 10.9396C7.78568 10.8543 7.93589 10.8087 8.08954 10.8087C8.29559 10.8087 8.49318 10.8905 8.63887 11.0362C8.78457 11.1819 8.86643 11.3795 8.86643 11.5856ZM8.08954 7.31268C7.93589 7.31268 7.78568 7.35828 7.65792 7.44365C7.53017 7.52902 7.43058 7.65031 7.37178 7.79226C7.31298 7.93422 7.29762 8.09042 7.32759 8.24112C7.35757 8.39182 7.43156 8.5303 7.54021 8.63895C7.64886 8.7476 7.78727 8.82159 7.93797 8.85157C8.08867 8.88154 8.24489 8.86608 8.38685 8.80728C8.52881 8.74848 8.65014 8.64892 8.73551 8.52116C8.82087 8.3934 8.86643 8.24322 8.86643 8.08957C8.86643 7.88353 8.78457 7.68589 8.63887 7.54019C8.49318 7.3945 8.29559 7.31268 8.08954 7.31268ZM8.08954 3.81669C7.93589 3.81669 7.78568 3.86229 7.65792 3.94766C7.53017 4.03302 7.43058 4.15431 7.37178 4.29627C7.31298 4.43823 7.29762 4.59442 7.32759 4.74513C7.35757 4.89583 7.43156 5.03431 7.54021 5.14296C7.64886 5.25161 7.78727 5.3256 7.93797 5.35558C8.08867 5.38555 8.24489 5.37009 8.38685 5.31129C8.52881 5.25249 8.65014 5.15293 8.73551 5.02517C8.82087 4.89741 8.86643 4.74723 8.86643 4.59358C8.86643 4.38754 8.78457 4.1899 8.63887 4.0442C8.49318 3.89851 8.29559 3.81669 8.08954 3.81669ZM15.6642 8.08957C15.6642 9.58769 15.22 11.0522 14.3876 12.2979C13.5553 13.5435 12.3723 14.5143 10.9882 15.0876C9.60415 15.6609 8.08114 15.8109 6.6118 15.5186C5.14246 15.2264 3.79279 14.505 2.73346 13.4457C1.67413 12.3863 0.952711 11.0366 0.660442 9.56729C0.368173 8.09795 0.518171 6.57493 1.09148 5.19085C1.66479 3.80676 2.63565 2.62381 3.88129 1.79149C5.12694 0.959182 6.59142 0.514923 8.08954 0.514923C10.0978 0.517185 12.0231 1.31592 13.4431 2.73595C14.8632 4.15599 15.6619 6.08134 15.6642 8.08957ZM14.4989 8.08957C14.4989 6.82193 14.123 5.58272 13.4187 4.52871C12.7144 3.47471 11.7134 2.65328 10.5423 2.16818C9.37113 1.68307 8.08243 1.55614 6.83914 1.80344C5.59586 2.05075 4.45384 2.66115 3.55748 3.55751C2.66112 4.45387 2.05068 5.59589 1.80338 6.83917C1.55607 8.08246 1.683 9.37113 2.1681 10.5423C2.65321 11.7134 3.4747 12.7145 4.52871 13.4187C5.58271 14.123 6.8219 14.4989 8.08954 14.4989C9.78883 14.497 11.418 13.8212 12.6196 12.6196C13.8211 11.4181 14.497 9.78886 14.4989 8.08957Z" fill="#484848"/>
</svg>
