<svg width="20" height="20" viewBox="0 0 20 20" fill="none" xmlns="http://www.w3.org/2000/svg">
<path d="M10.2598 0.0383301C8.38085 0.0383301 6.54411 0.595531 4.98185 1.6394C3.41958 2.68328 2.20195 4.16693 1.48291 5.90283C0.763881 7.63873 0.57575 9.54878 0.94231 11.3916C1.30887 13.2344 2.21364 14.9273 3.54224 16.2559C4.87084 17.5845 6.56359 18.4892 8.40641 18.8557C10.2492 19.2223 12.1594 19.0342 13.8953 18.3152C15.6312 17.5962 17.1149 16.3784 18.1587 14.8162C19.2026 13.2539 19.7598 11.4173 19.7598 9.53833C19.7574 7.0195 18.7557 4.60457 16.9746 2.82349C15.1936 1.04241 12.7786 0.0407129 10.2598 0.0383301ZM10.2598 15.2883C10.0125 15.2883 9.77087 15.215 9.56531 15.0776C9.35975 14.9403 9.19953 14.745 9.10492 14.5166C9.01031 14.2882 8.98556 14.0369 9.03379 13.7944C9.08202 13.552 9.20107 13.3294 9.37589 13.1545C9.5507 12.9797 9.77343 12.8605 10.0159 12.8123C10.2584 12.764 10.5097 12.7889 10.7381 12.8835C10.9665 12.9782 11.1618 13.1382 11.2991 13.3438C11.4365 13.5493 11.5098 13.7911 11.5098 14.0383C11.5098 14.3699 11.3781 14.6877 11.1437 14.9221C10.9092 15.1565 10.5913 15.2883 10.2598 15.2883ZM10.2598 10.7883C10.0125 10.7883 9.77087 10.715 9.56531 10.5776C9.35975 10.4403 9.19953 10.245 9.10492 10.0166C9.01031 9.78819 8.98556 9.53691 9.03379 9.29443C9.08202 9.05196 9.20107 8.82936 9.37589 8.65454C9.5507 8.47973 9.77343 8.36049 10.0159 8.31226C10.2584 8.26402 10.5097 8.28894 10.7381 8.38354C10.9665 8.47815 11.1618 8.63819 11.2991 8.84375C11.4365 9.04931 11.5098 9.2911 11.5098 9.53833C11.5098 9.86985 11.3781 10.1877 11.1437 10.4221C10.9092 10.6565 10.5913 10.7883 10.2598 10.7883ZM10.2598 6.28833C10.0125 6.28833 9.77087 6.21499 9.56531 6.07764C9.35975 5.94028 9.19953 5.74501 9.10492 5.5166C9.01031 5.28819 8.98556 5.03691 9.03379 4.79443C9.08202 4.55196 9.20107 4.32936 9.37589 4.15454C9.5507 3.97973 9.77343 3.86049 10.0159 3.81226C10.2584 3.76402 10.5097 3.78894 10.7381 3.88354C10.9665 3.97815 11.1618 4.13819 11.2991 4.34375C11.4365 4.54931 11.5098 4.7911 11.5098 5.03833C11.5098 5.36985 11.3781 5.6877 11.1437 5.92212C10.9092 6.15654 10.5913 6.28833 10.2598 6.28833Z" fill="#5DB05A"/>
</svg>
