<svg width="20" height="20" viewBox="0 0 20 20" fill="none" xmlns="http://www.w3.org/2000/svg">
<path d="M15.5112 10.1348C15.5112 10.3325 15.4526 10.5259 15.3427 10.6903C15.2328 10.8548 15.0766 10.9829 14.8939 11.0586C14.7112 11.1343 14.5101 11.1542 14.3161 11.1156C14.1222 11.077 13.944 10.9818 13.8041 10.8419C13.6643 10.7021 13.569 10.5238 13.5304 10.3298C13.4919 10.1359 13.5117 9.9348 13.5874 9.75208C13.663 9.56935 13.7912 9.41323 13.9557 9.30334C14.1201 9.19346 14.3135 9.13477 14.5112 9.13477C14.7764 9.13477 15.0308 9.24008 15.2183 9.42761C15.4059 9.61515 15.5112 9.86955 15.5112 10.1348ZM10.0112 9.13477C9.81345 9.13477 9.62011 9.19346 9.45566 9.30334C9.29121 9.41323 9.16305 9.56935 9.08736 9.75208C9.01167 9.9348 8.99186 10.1359 9.03044 10.3298C9.06903 10.5238 9.16427 10.7021 9.30412 10.8419C9.44398 10.9818 9.62217 11.077 9.81615 11.1156C10.0101 11.1542 10.2112 11.1343 10.3939 11.0586C10.5766 10.9829 10.7328 10.8548 10.8427 10.6903C10.9526 10.5259 11.0112 10.3325 11.0112 10.1348C11.0112 9.86955 10.9059 9.61515 10.7183 9.42761C10.5308 9.24008 10.2764 9.13477 10.0112 9.13477ZM5.51123 9.13477C5.31345 9.13477 5.12011 9.19346 4.95566 9.30334C4.79121 9.41323 4.66305 9.56935 4.58736 9.75208C4.51167 9.9348 4.49186 10.1359 4.53044 10.3298C4.56903 10.5238 4.66427 10.7021 4.80412 10.8419C4.94398 10.9818 5.12217 11.077 5.31615 11.1156C5.51013 11.1542 5.7112 11.1343 5.89392 11.0586C6.07665 10.9829 6.23282 10.8548 6.3427 10.6903C6.45258 10.5259 6.51123 10.3325 6.51123 10.1348C6.51123 9.86955 6.40588 9.61515 6.21834 9.42761C6.0308 9.24008 5.77645 9.13477 5.51123 9.13477ZM19.7612 10.1348C19.7612 12.0631 19.1894 13.9483 18.1181 15.5516C17.0467 17.155 15.524 18.4046 13.7424 19.1426C11.9608 19.8805 10.0004 20.0736 8.1091 19.6974C6.21779 19.3212 4.48051 18.3926 3.11695 17.0291C1.75338 15.6655 0.824786 13.9282 0.44858 12.0369C0.0723741 10.1456 0.26545 8.18514 1.0034 6.40356C1.74136 4.62198 2.99104 3.0993 4.59442 2.02795C6.1978 0.95661 8.08286 0.384766 10.0112 0.384766C12.5962 0.387677 15.0745 1.4158 16.9023 3.24365C18.7302 5.0715 19.7583 7.5498 19.7612 10.1348ZM18.2612 10.1348C18.2612 8.50307 17.7774 6.90798 16.8709 5.55127C15.9643 4.19456 14.6759 3.13724 13.1684 2.51282C11.6609 1.88839 10.0021 1.72501 8.40174 2.04333C6.80139 2.36166 5.33138 3.14736 4.1776 4.30115C3.02382 5.45493 2.23808 6.92493 1.91976 8.52527C1.60143 10.1256 1.7648 11.7844 2.38922 13.2919C3.01365 14.7994 4.07108 16.0879 5.42778 16.9944C6.78449 17.9009 8.37954 18.3848 10.0112 18.3848C12.1985 18.3824 14.2956 17.5125 15.8422 15.9658C17.3889 14.4192 18.2589 12.3221 18.2612 10.1348Z" fill="#484848"/>
</svg>
