<svg width="21" height="20" viewBox="0 0 21 20" fill="none" xmlns="http://www.w3.org/2000/svg">
<path d="M17.5661 2.84583L13.1661 0.891724C12.4035 0.558807 11.5803 0.386963 10.7481 0.386963C9.91595 0.386963 9.0928 0.558807 8.33014 0.891724L3.93011 2.84583C3.07739 3.19136 2.34486 3.7795 1.8233 4.53748C1.30175 5.29545 1.0141 6.18984 0.996094 7.10974V13.1598C1.0141 14.0797 1.30175 14.9741 1.8233 15.7321C2.34486 16.49 3.07739 17.0782 3.93011 17.4237L8.33014 19.3778C9.08508 19.7079 9.90017 19.8781 10.7241 19.8778C10.7321 19.8778 10.7391 19.8828 10.7471 19.8828C10.7549 19.8816 10.7626 19.8799 10.7701 19.8778C11.5941 19.8781 12.4092 19.7079 13.1641 19.3778L17.5641 17.4237C18.4169 17.0782 19.1494 16.49 19.671 15.7321C20.1925 14.9741 20.4801 14.0797 20.4981 13.1598V7.10974C20.4803 6.19007 20.193 5.29591 19.6718 4.53796C19.1506 3.78001 18.4185 3.19167 17.5661 2.84583ZM8.9411 2.26379C9.51179 2.01515 10.1276 1.88684 10.7501 1.88684C11.3726 1.88684 11.9885 2.01515 12.5591 2.26379L16.9591 4.21777C17.2444 4.3448 17.5131 4.5063 17.7591 4.69873L15.2491 5.81482L8.09814 2.63782L8.9411 2.26379ZM4.54114 4.2168L6.24811 3.45874L13.3991 6.63574L11.9501 7.27979C11.5691 7.43847 11.1604 7.52014 10.7476 7.52014C10.3349 7.52014 9.92615 7.43847 9.5451 7.27979L3.73914 4.69873C3.98651 4.50645 4.25609 4.34468 4.54211 4.2168H4.54114ZM4.54114 16.0518C3.95518 15.8219 3.44939 15.4254 3.0863 14.9113C2.72322 14.3971 2.51873 13.7879 2.49811 13.1588V7.10876C2.50039 6.69385 2.59285 6.28444 2.7691 5.90881L8.9361 8.64978C9.27596 8.79435 9.63283 8.89508 9.99811 8.94971V18.3077C9.63418 18.2528 9.2787 18.1521 8.94012 18.0078L4.54114 16.0518ZM18.9981 13.1598C18.9775 13.7889 18.773 14.3981 18.4099 14.9122C18.0468 15.4264 17.5411 15.8229 16.9551 16.0527L12.5551 18.0067C12.2166 18.1512 11.8611 18.252 11.4971 18.3068V8.94873C11.8624 8.89406 12.2193 8.79333 12.5591 8.6488L18.7261 5.90771C18.9019 6.2835 18.9944 6.69293 18.9971 7.10779L18.9981 13.1598Z" fill="#484848"/>
</svg>
