<svg width="20" height="20" viewBox="0 0 20 20" fill="none" xmlns="http://www.w3.org/2000/svg">
<path d="M4.27011 2.14526L13.7301 6.52515L11.2001 7.64526C10.8205 7.80528 10.413 7.88866 10.0011 7.89038C9.58915 7.8921 9.18098 7.81212 8.80008 7.65527L1.25009 4.24536C1.76275 3.51333 2.46912 2.93837 3.29007 2.58521L4.27011 2.14526ZM16.7101 2.58521L12.3201 0.635254C11.5889 0.313814 10.7988 0.147949 10.0001 0.147949C9.20135 0.147949 8.4113 0.313814 7.68009 0.635254L6.09012 1.33521L15.5401 5.70532L18.7501 4.24536C18.2374 3.51333 17.5311 2.93837 16.7101 2.58521ZM0.630099 5.60522C0.541412 5.93789 0.497685 6.28096 0.500094 6.62524V12.6653C0.517842 13.5381 0.791756 14.3864 1.28781 15.1047C1.78387 15.823 2.48016 16.3796 3.29007 16.7053L7.6901 18.6553C8.1842 18.8818 8.71046 19.0301 9.25009 19.0952V9.33521C8.88566 9.27451 8.5298 9.17038 8.1901 9.02515L0.630099 5.60522ZM19.3701 5.60522L11.8101 9.02515C11.4703 9.17027 11.1145 9.2744 10.7501 9.33521V19.0952C11.2927 19.0287 11.822 18.8804 12.3201 18.6553L16.7101 16.7053C17.52 16.3796 18.2163 15.823 18.7124 15.1047C19.2084 14.3864 19.4823 13.5381 19.5001 12.6653V6.62524C19.5025 6.28096 19.4588 5.93789 19.3701 5.60522Z" fill="#5DB05A"/>
</svg>
