<svg width="18" height="20" viewBox="0 0 18 20" fill="none" xmlns="http://www.w3.org/2000/svg">
<path d="M17.5423 12.6948L12.5113 17.7347C11.1291 19.1085 9.26008 19.8807 7.31129 19.8828C6.382 19.8895 5.46066 19.7113 4.60078 19.3589C3.74089 19.0065 2.95963 18.4866 2.30232 17.8297C0.963963 16.4576 0.222749 14.6118 0.240548 12.6952C0.258346 10.7785 1.03368 8.94674 2.39729 7.59973L8.12531 1.85571C8.59074 1.38815 9.14391 1.0172 9.75312 0.764038C10.3623 0.510876 11.0156 0.380493 11.6753 0.380493C12.335 0.380493 12.9883 0.510876 13.5975 0.764038C14.2067 1.0172 14.7599 1.38815 15.2253 1.85571C16.1644 2.80056 16.6915 4.07863 16.6915 5.41077C16.6915 6.7429 16.1644 8.02098 15.2253 8.96582L9.47028 14.7368C8.92137 15.2624 8.19076 15.5558 7.43079 15.5558C6.67083 15.5558 5.94022 15.2624 5.3913 14.7368C4.85239 14.1936 4.55 13.4594 4.55 12.6942C4.55 11.9291 4.85239 11.1949 5.3913 10.6517L10.4463 5.58276C10.5869 5.44193 10.7776 5.36274 10.9766 5.36255C11.1755 5.36236 11.3664 5.44122 11.5073 5.58179C11.6481 5.72235 11.7274 5.91308 11.7275 6.11206C11.7277 6.31104 11.6489 6.50199 11.5083 6.64282L6.45332 11.7118C6.19354 11.973 6.04768 12.3264 6.04768 12.6948C6.04768 13.0632 6.19354 13.4165 6.45332 13.6777C6.71607 13.9299 7.06613 14.0707 7.43031 14.0707C7.79448 14.0707 8.14454 13.9299 8.4073 13.6777L14.1623 7.90674C14.8218 7.24362 15.1919 6.34646 15.1919 5.41125C15.1919 4.47605 14.8218 3.57889 14.1623 2.91577C13.4937 2.27459 12.6032 1.91663 11.6768 1.91663C10.7505 1.91663 9.8599 2.27459 9.19129 2.91577L3.46333 8.65979C2.39637 9.73424 1.78971 11.1819 1.77198 12.696C1.75425 14.2102 2.3268 15.6716 3.36829 16.7708C3.88641 17.2875 4.5021 17.6962 5.17951 17.9729C5.85693 18.2496 6.58254 18.389 7.31428 18.3828C8.86421 18.381 10.3508 17.7672 11.4503 16.6748L16.4783 11.6328C16.6204 11.4994 16.8088 11.4264 17.0037 11.4293C17.1986 11.4322 17.3846 11.5108 17.5227 11.6484C17.6607 11.7861 17.7398 11.972 17.7432 12.1669C17.7467 12.3617 17.6743 12.5503 17.5413 12.6927L17.5423 12.6948Z" fill="#484848"/>
</svg>
