<svg width="21" height="20" viewBox="0 0 21 20" fill="none" xmlns="http://www.w3.org/2000/svg">
<path d="M19.2312 1.65271C18.419 0.840783 17.3176 0.384766 16.1692 0.384766C15.0208 0.384766 13.9193 0.840783 13.1072 1.65271L2.57414 12.1858C2.16746 12.5904 1.89844 13.1127 1.80516 13.6787L1.01518 18.4167C0.985104 18.5973 0.994698 18.7824 1.04338 18.9589C1.09206 19.1353 1.17864 19.2991 1.29704 19.4387C1.41545 19.5784 1.56289 19.6905 1.72905 19.7673C1.89521 19.8442 2.07606 19.884 2.25914 19.8838C2.32817 19.8841 2.39714 19.8784 2.46519 19.8668L7.20415 19.0768C7.76977 18.9838 8.29178 18.715 8.69615 18.3087L19.2292 7.77576C20.041 6.96375 20.4971 5.86249 20.4971 4.71423C20.4971 3.56598 20.041 2.46472 19.2292 1.65271H19.2312ZM7.63817 17.2528C7.45444 17.4375 7.21724 17.5596 6.96019 17.6018L2.55217 18.3358L3.28618 13.9287C3.32841 13.6717 3.45052 13.4345 3.63518 13.2507L11.7182 5.16772L15.7182 9.16772L7.63817 17.2528ZM18.1712 6.71973L16.7812 8.10974L12.7812 4.10974L14.1712 2.71973C14.4305 2.44252 14.7429 2.22039 15.0898 2.06641C15.4368 1.91242 15.8112 1.82981 16.1907 1.82349C16.5702 1.81716 16.9472 1.88721 17.2991 2.02954C17.6509 2.17187 17.9706 2.38357 18.239 2.65198C18.5074 2.92038 18.719 3.24003 18.8614 3.59192C19.0037 3.94381 19.0738 4.32067 19.0675 4.7002C19.0612 5.07972 18.9785 5.4542 18.8246 5.80115C18.6706 6.14809 18.4484 6.46042 18.1712 6.71973Z" fill="#484848"/>
</svg>
