<svg width="20" height="20" viewBox="0 0 20 20" fill="none" xmlns="http://www.w3.org/2000/svg">
<path d="M9.90992 3.97534L15.6699 9.73535L7.76996 17.6453C7.40282 18.0121 6.93129 18.2565 6.41993 18.3452L1.67994 19.1353C1.62367 19.1436 1.5668 19.1469 1.50995 19.1453C1.24309 19.1423 0.988068 19.0345 0.799932 18.8452C0.686086 18.7315 0.600545 18.5925 0.550176 18.4397C0.499806 18.2869 0.486037 18.1245 0.509954 17.9653L1.29993 13.2253C1.38881 12.714 1.63327 12.2425 1.99994 11.8752L9.90992 3.97534ZM18.2999 1.34521C17.9229 0.96498 17.4742 0.663236 16.9799 0.457275C16.4856 0.251315 15.9554 0.145264 15.4199 0.145264C14.8844 0.145264 14.3542 0.251315 13.8599 0.457275C13.3656 0.663236 12.917 0.96498 12.5399 1.34521L11.33 2.55518L17.09 8.31519L18.2999 7.10522C18.6802 6.72816 18.982 6.27946 19.1879 5.78516C19.3939 5.29085 19.4999 4.76084 19.4999 4.22534C19.4999 3.68984 19.3939 3.15959 19.1879 2.66528C18.982 2.17098 18.6802 1.72228 18.2999 1.34521Z" fill="#5DB05A"/>
</svg>
