<svg width="20" height="20" viewBox="0 0 20 20" fill="none" xmlns="http://www.w3.org/2000/svg">
<path d="M18.7489 17.5502C18.3477 18.017 17.8504 18.3916 17.2911 18.6484C16.7317 18.9052 16.1234 19.0382 15.5079 19.0383H15.3909C11.5437 18.9335 7.88291 17.3584 5.1616 14.6369C2.44029 11.9154 0.865381 8.2544 0.760902 4.40717C0.743302 3.76849 0.868899 3.13406 1.12846 2.55024C1.38801 1.96641 1.77494 1.4482 2.2609 1.03339C2.71423 0.638061 3.25036 0.349032 3.82987 0.18793C4.40939 0.0268291 5.01758 -0.00240813 5.6099 0.102237C5.77047 0.130852 5.92885 0.170756 6.0839 0.221378C6.34396 0.308485 6.57494 0.465513 6.75138 0.675479C6.92782 0.885446 7.04288 1.14015 7.0839 1.41132L7.75394 5.6662C7.79494 5.92816 7.76653 6.19646 7.67161 6.44403C7.57668 6.69161 7.41855 6.90993 7.21293 7.07733C7.12893 7.14533 7.0419 7.21021 6.9509 7.27021C6.8415 7.33732 6.75967 7.44133 6.72007 7.56342C6.68047 7.68551 6.68571 7.81767 6.7349 7.93622C7.7302 10.2344 9.563 12.0674 11.8609 13.0632C11.9808 13.1126 12.1145 13.1173 12.2376 13.0766C12.3607 13.0359 12.4651 12.9524 12.5319 12.8413C12.5789 12.7733 12.632 12.7063 12.678 12.6413C12.8462 12.431 13.0675 12.2694 13.3191 12.1733C13.5706 12.0771 13.8433 12.0497 14.1089 12.0942L18.441 12.8154C18.716 12.8579 18.9734 12.9775 19.1833 13.1603C19.3932 13.3432 19.547 13.5817 19.6269 13.8483C19.6539 13.9483 19.6799 14.0554 19.7019 14.1804C19.8036 14.7776 19.7708 15.3899 19.6059 15.9728C19.4411 16.5558 19.1483 17.0947 18.7489 17.5502Z" fill="#5DB05A"/>
</svg>
