<svg width="20" height="20" viewBox="0 0 20 20" fill="none" xmlns="http://www.w3.org/2000/svg">
<path d="M19.6971 14.7347C19.6765 14.6141 19.6499 14.4946 19.6172 14.3767C19.5246 14.0643 19.3452 13.7847 19.0998 13.5703C18.8544 13.3559 18.5531 13.2156 18.2311 13.1658L13.8992 12.4448C13.5889 12.3914 13.27 12.4229 12.9762 12.5359C12.6824 12.6489 12.4246 12.8393 12.2301 13.0868C12.1761 13.1558 12.1242 13.2257 12.0762 13.2967C12.0411 13.3588 11.9852 13.4064 11.9183 13.4309C11.8514 13.4555 11.778 13.4554 11.7112 13.4308C9.46904 12.461 7.68096 10.6729 6.71117 8.43078C6.68599 8.36527 6.68517 8.29287 6.70885 8.2268C6.73252 8.16073 6.77908 8.1054 6.84013 8.07079C6.93513 8.00679 7.02714 7.93772 7.11614 7.87072C7.35603 7.67569 7.54057 7.42122 7.65129 7.13256C7.76202 6.8439 7.7951 6.53113 7.74718 6.2257L7.07616 1.97082C7.02845 1.65412 6.8941 1.35669 6.68797 1.11157C6.48185 0.866439 6.21194 0.683121 5.90813 0.58178C5.74203 0.527425 5.57227 0.484909 5.40013 0.454705C4.77139 0.343899 4.12583 0.374938 3.51061 0.545525C2.89538 0.716113 2.32607 1.02202 1.84416 1.44079C1.33047 1.87988 0.921622 2.42848 0.647691 3.04626C0.373759 3.66403 0.24169 4.33523 0.261155 5.01074C0.366438 8.92217 1.96716 12.6445 4.73387 15.4114C7.50058 18.1783 11.2227 19.7792 15.1341 19.8848H15.2571C15.9088 19.8849 16.5529 19.7441 17.1451 19.472C17.7373 19.2 18.2636 18.8032 18.6882 18.3087C19.1116 17.8255 19.4219 17.254 19.5964 16.6357C19.771 16.0175 19.8053 15.368 19.6971 14.7347ZM17.5542 17.3278C17.2586 17.6663 16.8926 17.9361 16.4819 18.1185C16.0711 18.3009 15.6255 18.3915 15.1761 18.3838C11.6485 18.2879 8.29173 16.8436 5.79656 14.348C3.30138 11.8525 1.85753 8.49545 1.76213 4.96777C1.74955 4.5151 1.83844 4.06537 2.0222 3.65148C2.20596 3.2376 2.47994 2.87006 2.82414 2.5758C3.32656 2.13294 3.97241 1.88708 4.64214 1.88378C4.80976 1.88392 4.97706 1.89859 5.14214 1.92773C5.24381 1.94546 5.34413 1.9706 5.44219 2.0028C5.48458 2.01819 5.52184 2.04501 5.54991 2.08032C5.57798 2.11562 5.59575 2.15798 5.60118 2.20275L6.27214 6.45776C6.27955 6.50292 6.27498 6.54921 6.25884 6.59203C6.24269 6.63486 6.21554 6.67274 6.18016 6.70178C6.12216 6.74878 6.06318 6.79273 6.00218 6.83373C5.64991 7.0633 5.39026 7.41018 5.26927 7.81286C5.14828 8.21554 5.17376 8.6481 5.34117 9.03381C6.46206 11.6226 8.52657 13.6874 11.1152 14.8087C11.5014 14.9742 11.9336 14.9984 12.3359 14.8769C12.7382 14.7555 13.085 14.4963 13.3152 14.1448C13.3452 14.1018 13.3761 14.0588 13.4101 14.0148C13.4394 13.9801 13.4772 13.9537 13.5199 13.9382C13.5625 13.9228 13.6085 13.9189 13.6532 13.9268L17.9852 14.6477C18.0258 14.652 18.0646 14.667 18.0976 14.691C18.1306 14.7151 18.1566 14.7474 18.1731 14.7848C18.1925 14.8539 18.2082 14.924 18.2201 14.9947C18.2893 15.4088 18.2654 15.8331 18.1502 16.2368C18.035 16.6405 17.8314 17.0135 17.5542 17.3287V17.3278Z" fill="#484848"/>
</svg>
