<svg width="20" height="21" viewBox="0 0 20 21" fill="none" xmlns="http://www.w3.org/2000/svg">
<path d="M10 0.645264C8.02219 0.645264 6.0888 1.23175 4.44431 2.33057C2.79981 3.42938 1.51808 4.9911 0.761201 6.81836C0.00432432 8.64562 -0.193698 10.6564 0.192155 12.5962C0.578007 14.536 1.5304 16.3178 2.92893 17.7163C4.32745 19.1148 6.10929 20.0673 8.0491 20.4531C9.98891 20.839 11.9996 20.6409 13.8268 19.884C15.6541 19.1272 17.2159 17.8454 18.3147 16.2009C19.4135 14.5564 20 12.6231 20 10.6453C19.9958 7.9944 18.9409 5.4533 17.0664 3.57886C15.192 1.70441 12.6509 0.649495 10 0.645264ZM10 16.6453C9.80222 16.6453 9.60888 16.5867 9.44443 16.4768C9.27998 16.3669 9.1518 16.2106 9.07611 16.0278C9.00042 15.8451 8.98064 15.6442 9.01923 15.4502C9.05781 15.2562 9.15306 15.0781 9.29291 14.9382C9.43276 14.7984 9.61092 14.7031 9.8049 14.6646C9.99888 14.626 10.2 14.6457 10.3827 14.7214C10.5654 14.7971 10.7216 14.9252 10.8315 15.0896C10.9414 15.254 11 15.4475 11 15.6453C11 15.9105 10.8946 16.1648 10.7071 16.3523C10.5196 16.5398 10.2652 16.6453 10 16.6453ZM12.04 11.9653C11.12 12.5753 10.97 12.9053 10.95 12.9653C10.8829 13.164 10.7551 13.3365 10.5846 13.4585C10.4142 13.5805 10.2096 13.6458 10 13.6453C9.89155 13.6433 9.78387 13.6265 9.67999 13.5952C9.43004 13.5076 9.22425 13.3257 9.10654 13.0884C8.98883 12.8511 8.96853 12.5772 9.04999 12.3252C9.45272 11.4711 10.1093 10.7621 10.93 10.2952C11.3011 10.1194 11.604 9.8265 11.7919 9.46143C11.9799 9.09635 12.0425 8.67932 11.97 8.27515C11.8923 7.87971 11.6987 7.5164 11.4138 7.23145C11.1288 6.94649 10.7654 6.75295 10.37 6.67529C10.0807 6.62083 9.78297 6.63095 9.49802 6.70483C9.21307 6.77872 8.94791 6.91461 8.72153 7.10278C8.49515 7.29096 8.31311 7.52681 8.18839 7.79346C8.06366 8.0601 7.99934 8.35089 8 8.64526C8 8.91048 7.89463 9.16476 7.70709 9.35229C7.51956 9.53983 7.26522 9.64526 7 9.64526C6.73478 9.64526 6.48044 9.53983 6.29291 9.35229C6.10537 9.16476 6 8.91048 6 8.64526C5.99952 8.06158 6.12737 7.48485 6.37448 6.95605C6.6216 6.42726 6.98194 5.95928 7.42999 5.58521C7.96589 5.13426 8.61079 4.83198 9.3002 4.7085C9.98961 4.58501 10.6994 4.64468 11.3585 4.88159C12.0176 5.1185 12.6029 5.52446 13.0559 6.05859C13.509 6.59273 13.8138 7.23637 13.94 7.92529C14.0739 8.71215 13.9636 9.52113 13.6239 10.2434C13.2842 10.9657 12.7315 11.5666 12.04 11.9653Z" fill="#5DB05A"/>
</svg>
