<svg width="20" height="20" viewBox="0 0 20 20" fill="none" xmlns="http://www.w3.org/2000/svg">
<path d="M9.75 0.384766C7.82163 0.384766 5.93657 0.95661 4.33319 2.02795C2.72981 3.0993 1.48013 4.62198 0.742174 6.40356C0.00421989 8.18514 -0.188856 10.1456 0.18735 12.0369C0.563555 13.9282 1.49215 15.6655 2.85572 17.0291C4.21928 18.3926 5.95656 19.3212 7.84787 19.6974C9.73919 20.0736 11.6996 19.8805 13.4812 19.1426C15.2628 18.4046 16.7855 17.155 17.8568 15.5516C18.9282 13.9483 19.5 12.0631 19.5 10.1348C19.4971 7.5498 18.4689 5.0715 16.6411 3.24365C14.8132 1.4158 12.335 0.387677 9.75 0.384766ZM9.75 18.3848C8.11831 18.3848 6.52324 17.9009 5.16654 16.9944C3.80983 16.0879 2.75242 14.7994 2.12799 13.2919C1.50357 11.7844 1.3402 10.1256 1.65853 8.52527C1.97685 6.92493 2.7626 5.45493 3.91638 4.30115C5.07017 3.14736 6.54016 2.36166 8.1405 2.04333C9.74085 1.72501 11.3996 1.88839 12.9071 2.51282C14.4146 3.13724 15.7031 4.19456 16.6096 5.55127C17.5161 6.90798 18 8.50307 18 10.1348C17.9976 12.3221 17.1277 14.4192 15.581 15.9658C14.0343 17.5125 11.9373 18.3824 9.75 18.3848ZM13.441 7.46082C13.5666 8.19856 13.4622 8.95703 13.142 9.63342C12.8218 10.3098 12.3012 10.8714 11.651 11.2418C10.71 11.8668 10.505 12.2418 10.461 12.3748C10.4106 12.5234 10.315 12.6525 10.1874 12.744C10.0599 12.8355 9.90694 12.8847 9.75 12.8848C9.66844 12.8845 9.58745 12.8714 9.51001 12.8458C9.32154 12.782 9.16607 12.646 9.07776 12.4677C8.98945 12.2893 8.97551 12.0833 9.039 11.8948C9.4103 11.0843 10.036 10.4172 10.821 9.99475C11.2281 9.7866 11.5583 9.45408 11.7637 9.04553C11.969 8.63699 12.0389 8.1737 11.963 7.72278C11.8603 7.17087 11.5551 6.67722 11.1072 6.33875C10.6593 6.00027 10.1011 5.84135 9.54212 5.89319C8.98313 5.94503 8.46372 6.20396 8.08573 6.61902C7.70774 7.03408 7.49846 7.57533 7.49899 8.13672C7.49899 8.33563 7.41998 8.52646 7.27933 8.66711C7.13868 8.80777 6.94791 8.88672 6.74899 8.88672C6.55008 8.88672 6.35931 8.80777 6.21866 8.66711C6.07801 8.52646 5.99899 8.33563 5.99899 8.13672C5.99754 7.19946 6.34703 6.29562 6.97864 5.60315C7.61025 4.91068 8.47822 4.4798 9.41165 4.39526C10.3451 4.31072 11.2764 4.57863 12.0221 5.14636C12.7679 5.71409 13.274 6.5405 13.441 7.46277V7.46082ZM10.75 15.1348C10.75 15.3325 10.6914 15.5259 10.5815 15.6903C10.4716 15.8548 10.3154 15.9829 10.1327 16.0586C9.94997 16.1343 9.74888 16.1542 9.5549 16.1156C9.36092 16.077 9.18276 15.9818 9.04291 15.8419C8.90306 15.7021 8.80781 15.5238 8.76923 15.3298C8.73064 15.1359 8.75043 14.9348 8.82611 14.7521C8.9018 14.5693 9.02998 14.4132 9.19443 14.3033C9.35888 14.1935 9.55222 14.1348 9.75 14.1348C10.0152 14.1348 10.2696 14.2401 10.4571 14.4276C10.6446 14.6151 10.75 14.8695 10.75 15.1348Z" fill="#484848"/>
</svg>
