<svg width="21" height="20" viewBox="0 0 21 20" fill="none" xmlns="http://www.w3.org/2000/svg">
<path d="M20.2801 18.6038L15.5861 13.9098C16.947 12.2758 17.6256 10.1801 17.4807 8.05853C17.3358 5.937 16.3786 3.95305 14.8082 2.51929C13.2377 1.08553 11.175 0.312388 9.04909 0.360718C6.92316 0.409049 4.8977 1.2751 3.39406 2.77875C1.89041 4.28239 1.02434 6.30785 0.976014 8.43378C0.927683 10.5597 1.70083 12.6224 3.13458 14.1929C4.56834 15.7633 6.55234 16.7205 8.67387 16.8654C10.7954 17.0102 12.8911 16.3317 14.5251 14.9708L19.2191 19.6648C19.3598 19.8055 19.5506 19.8845 19.7496 19.8845C19.9486 19.8845 20.1394 19.8055 20.2801 19.6648C20.4208 19.5241 20.4998 19.3333 20.4998 19.1343C20.4998 18.9353 20.4208 18.7445 20.2801 18.6038ZM2.50008 8.63477C2.50008 7.29974 2.89595 5.99468 3.63765 4.88464C4.37935 3.77461 5.43358 2.90945 6.66698 2.39856C7.90038 1.88767 9.25757 1.75402 10.5669 2.01447C11.8763 2.27492 13.0791 2.91781 14.0231 3.86182C14.9671 4.80582 15.6099 6.00856 15.8704 7.31793C16.1308 8.6273 15.9971 9.9845 15.4863 11.2179C14.9754 12.4513 14.1102 13.5055 13.0002 14.2472C11.8901 14.9889 10.5851 15.3848 9.25008 15.3848C7.46052 15.3826 5.74486 14.6708 4.47945 13.4054C3.21404 12.14 2.50219 10.4243 2.50008 8.63477Z" fill="#484848"/>
</svg>
