<svg width="37" height="41" viewBox="0 0 37 41" fill="none" xmlns="http://www.w3.org/2000/svg">
<path d="M2 22.3333C2 25.5966 2.96771 28.7867 4.78075 31.5002C6.5938 34.2136 9.17074 36.3284 12.1857 37.5773C15.2007 38.8261 18.5183 39.1529 21.719 38.5162C24.9197 37.8796 27.8597 36.3081 30.1673 34.0005C32.4748 31.6929 34.0463 28.7529 34.683 25.5522C35.3196 22.3516 34.9929 19.034 33.744 16.019C32.4952 13.004 30.3803 10.427 27.6669 8.614C24.9535 6.80096 21.7634 5.83325 18.5 5.83325M13 14.9999V27.8333" stroke="white" stroke-width="2.75" stroke-linecap="round" stroke-linejoin="round"/>
<path d="M24 15.0003H20.3333C19.8471 15.0003 19.3808 15.1935 19.037 15.5373C18.6932 15.8811 18.5 16.3474 18.5 16.8337V19.5837C18.5 20.0699 18.6932 20.5362 19.037 20.88C19.3808 21.2238 19.8471 21.417 20.3333 21.417H22.1667C22.6529 21.417 23.1192 21.6101 23.463 21.954C23.8068 22.2978 24 22.7641 24 23.2503V26.0003C24 26.4866 23.8068 26.9529 23.463 27.2967C23.1192 27.6405 22.6529 27.8337 22.1667 27.8337H18.5M18.5 5.83366H4.75M4.75 5.83366L8.41667 2.16699M4.75 5.83366L8.41667 9.50033" stroke="white" stroke-width="2.75" stroke-linecap="round" stroke-linejoin="round"/>
</svg>
