<svg width="37" height="41" viewBox="0 0 37 41" fill="none" xmlns="http://www.w3.org/2000/svg">
<path d="M35.001 22.3329C35.001 25.5963 34.0333 28.7864 32.2202 31.4998C30.4072 34.2132 27.8302 36.3281 24.8153 37.5769C21.8003 38.8258 18.4827 39.1525 15.282 38.5159C12.0813 37.8792 9.14129 36.3078 6.83372 34.0002C4.52616 31.6926 2.95468 28.7526 2.31803 25.5519C1.68137 22.3512 2.00813 19.0336 3.25697 16.0186C4.50582 13.0037 6.62066 10.4267 9.33408 8.61368C12.0475 6.80063 15.2376 5.83293 18.501 5.83293H32.251M32.251 5.83293L28.5843 2.16626M32.251 5.83293L28.5843 9.49959M13.001 14.9996V27.8329" stroke="white" stroke-width="2.75" stroke-linecap="round" stroke-linejoin="round"/>
<path d="M24.001 14.9993H20.3343C19.8481 14.9993 19.3818 15.1924 19.0379 15.5362C18.6941 15.8801 18.501 16.3464 18.501 16.8326V19.5826C18.501 20.0688 18.6941 20.5351 19.0379 20.879C19.3818 21.2228 19.8481 21.4159 20.3343 21.4159H22.1676C22.6539 21.4159 23.1202 21.6091 23.464 21.9529C23.8078 22.2967 24.001 22.763 24.001 23.2493V25.9993C24.001 26.4855 23.8078 26.9518 23.464 27.2956C23.1202 27.6394 22.6539 27.8326 22.1676 27.8326H18.501" stroke="white" stroke-width="2.75" stroke-linecap="round" stroke-linejoin="round"/>
</svg>
