<svg width="20" height="20" viewBox="0 0 20 20" fill="none" xmlns="http://www.w3.org/2000/svg">
<path d="M19.68 3.20818L16.4001 16.3283C16.2144 17.1064 15.77 17.7983 15.1395 18.2907C14.509 18.7831 13.7299 19.0467 12.93 19.0383H12.9101C12.1048 19.0426 11.3224 18.7711 10.6929 18.269C10.0634 17.7668 9.62479 17.0643 9.45004 16.2782L8.59006 12.6283L13.9701 7.24821C14.0633 7.15498 14.1373 7.04435 14.1877 6.92253C14.2382 6.80071 14.2641 6.67011 14.2641 6.53825C14.2641 6.40639 14.2382 6.2758 14.1877 6.15398C14.1373 6.03215 14.0633 5.92153 13.9701 5.82829C13.8768 5.73505 13.7661 5.66098 13.6443 5.61052C13.5225 5.56006 13.3919 5.5341 13.26 5.5341C13.1282 5.5341 12.9976 5.56006 12.8758 5.61052C12.7539 5.66098 12.6433 5.73505 12.55 5.82829L7.17001 11.2082L3.52005 10.3483C2.73895 10.1656 2.04201 9.72552 1.54129 9.0988C1.04057 8.47208 0.765141 7.69515 0.75937 6.89299C0.753599 6.09083 1.01778 5.31005 1.50943 4.67619C2.00108 4.04234 2.69167 3.59229 3.47006 3.39836L16.5901 0.118332C17.0169 0.0115877 17.4642 0.0172426 17.8882 0.134689C18.3123 0.252135 18.6987 0.477353 19.0099 0.788498C19.321 1.09964 19.5463 1.48602 19.6637 1.91008C19.7812 2.33414 19.7868 2.78129 19.68 3.20818Z" fill="#5DB05A"/>
</svg>
