<svg width="20" height="20" viewBox="0 0 20 20" fill="none" xmlns="http://www.w3.org/2000/svg">
<path d="M18.9378 1.20771C18.5968 0.863298 18.1716 0.614098 17.7044 0.484813C17.2373 0.355527 16.7444 0.350714 16.2748 0.470774L3.16184 3.74873C2.32892 3.95737 1.59026 4.43972 1.06436 5.11848C0.538467 5.79724 0.255815 6.63302 0.261812 7.49165C0.267809 8.35028 0.562118 9.182 1.09744 9.85334C1.63277 10.5247 2.37809 10.9967 3.21384 11.1937L7.85983 12.2867L8.95285 16.9327C9.14017 17.7732 9.60924 18.5243 10.2823 19.0615C10.9553 19.5986 11.7918 19.8894 12.6529 19.8857H12.6819C13.5381 19.8955 14.3723 19.6138 15.0472 19.0867C15.7222 18.5597 16.1978 17.8188 16.3958 16.9857L19.6739 3.87275C19.794 3.40292 19.7893 2.90979 19.6602 2.44233C19.5311 1.97488 19.2821 1.54929 18.9378 1.20771ZM18.2198 3.50776L14.9419 16.6207C14.8203 17.1304 14.5282 17.5833 14.1142 17.9045C13.7001 18.2256 13.1888 18.3957 12.6648 18.3867C12.1393 18.3931 11.6277 18.2174 11.2171 17.8892C10.8066 17.5611 10.5223 17.1008 10.4128 16.5867L9.31284 11.8967L13.5448 7.66474C13.6145 7.59508 13.6698 7.51236 13.7075 7.42134C13.7452 7.33031 13.7646 7.23275 13.7646 7.13423C13.7646 7.0357 13.7452 6.93814 13.7075 6.84712C13.6698 6.75609 13.6145 6.67338 13.5448 6.60371C13.4752 6.53404 13.3924 6.47881 13.3014 6.44111C13.2104 6.40341 13.1128 6.38398 13.0143 6.38398C12.9158 6.38398 12.8182 6.40341 12.7272 6.44111C12.6362 6.47881 12.5535 6.53404 12.4839 6.60371L8.25186 10.8358L3.56186 9.73567C3.05313 9.61616 2.59934 9.32909 2.27341 8.9206C1.94748 8.51212 1.76832 8.00604 1.76474 7.48347C1.76117 6.9609 1.93339 6.45229 2.25369 6.03938C2.574 5.62647 3.02381 5.3332 3.53086 5.20674L16.6429 1.92866C16.7478 1.90216 16.8556 1.8888 16.9638 1.88874C17.1618 1.88874 17.3572 1.93397 17.535 2.02095C17.7128 2.10792 17.8685 2.23431 17.99 2.39057C18.1116 2.54684 18.1958 2.72878 18.2363 2.92256C18.2768 3.11633 18.2726 3.31686 18.2238 3.50874L18.2198 3.50776Z" fill="#484848"/>
</svg>
