<svg width="20" height="20" viewBox="0 0 20 20" fill="none" xmlns="http://www.w3.org/2000/svg">
<path d="M9.75012 13.8848C9.00844 13.8848 8.28343 13.6649 7.66675 13.2528C7.05006 12.8408 6.56941 12.255 6.28558 11.5698C6.00175 10.8846 5.92751 10.1306 6.0722 9.4032C6.2169 8.67577 6.574 8.0076 7.09845 7.48315C7.6229 6.95871 8.29113 6.60148 9.01855 6.45679C9.74598 6.31209 10.5 6.38634 11.1852 6.67017C11.8704 6.95399 12.456 7.43471 12.8681 8.05139C13.2802 8.66808 13.5001 9.39309 13.5001 10.1348C13.4991 11.129 13.1036 12.0822 12.4006 12.7853C11.6975 13.4883 10.7444 13.8837 9.75012 13.8848ZM9.75012 7.88477C9.30511 7.88477 8.87007 8.01668 8.50006 8.26392C8.13005 8.51115 7.84168 8.86255 7.67139 9.27368C7.50109 9.68482 7.45652 10.1373 7.54333 10.5737C7.63015 11.0102 7.84445 11.411 8.15912 11.7257C8.47379 12.0404 8.8747 12.2547 9.31116 12.3416C9.74761 12.4284 10.2 12.3838 10.6111 12.2135C11.0223 12.0432 11.3737 11.7548 11.6209 11.3848C11.8681 11.0148 12.0001 10.5798 12.0001 10.1348C11.9996 9.53819 11.7624 8.96615 11.3405 8.54431C10.9187 8.12247 10.3467 7.8853 9.75012 7.88477ZM10.2501 19.8848H9.25012C8.65355 19.8842 8.08157 19.6471 7.65973 19.2252C7.23789 18.8034 7.00065 18.2313 7.00012 17.6348C7.00138 17.5626 6.98114 17.4918 6.94196 17.4313C6.90277 17.3707 6.84645 17.3232 6.78015 17.2948H6.77209C6.71175 17.2699 6.64545 17.2634 6.58142 17.276C6.51739 17.2886 6.45849 17.3198 6.41211 17.3657C5.98719 17.7866 5.41445 18.0244 4.81641 18.0283C4.21836 18.0322 3.64251 17.8019 3.2121 17.3867L2.50714 16.6868C2.29778 16.4774 2.13177 16.2288 2.01868 15.9552C1.90559 15.6816 1.84762 15.3884 1.84808 15.0923C1.84855 14.7962 1.90748 14.5031 2.02142 14.2299C2.13537 13.9566 2.30213 13.7085 2.51215 13.4998C2.56156 13.4487 2.5951 13.3844 2.60876 13.3147C2.62243 13.245 2.61559 13.1728 2.58911 13.1068C2.5648 13.0444 2.5224 12.9906 2.46735 12.9525C2.41229 12.9144 2.34712 12.8936 2.28015 12.8928C1.98279 12.8952 1.68787 12.8387 1.41235 12.7268C1.13684 12.6149 0.886162 12.4497 0.674683 12.2406C0.463203 12.0315 0.295063 11.7828 0.179993 11.5085C0.0649226 11.2343 0.00519451 10.9402 0.00415039 10.6428V9.64282C0.00467997 9.04625 0.241854 8.47421 0.663696 8.05237C1.08554 7.63053 1.65758 7.39335 2.25415 7.39282C2.32618 7.39428 2.39696 7.37406 2.4574 7.33484C2.51783 7.29562 2.56514 7.23911 2.59314 7.17273V7.16479C2.61774 7.10441 2.62413 7.03809 2.61151 6.97412C2.59889 6.91015 2.56778 6.85134 2.52209 6.80481C2.30907 6.59695 2.13943 6.34884 2.02295 6.07495C1.90647 5.80106 1.84546 5.50673 1.84351 5.20911C1.84155 4.91148 1.89872 4.61646 2.0116 4.34106C2.12447 4.06567 2.29082 3.81538 2.5011 3.60474L3.20911 2.89673C3.63725 2.48661 4.20723 2.25769 4.80011 2.25769C5.39299 2.25769 5.96297 2.48661 6.39111 2.89673C6.44168 2.94921 6.50684 2.98534 6.57812 3.00049C6.64941 3.01564 6.7236 3.0092 6.79114 2.98181C6.85317 2.95748 6.9065 2.91512 6.94427 2.86023C6.98205 2.80534 7.00253 2.74033 7.00311 2.67371C7.00048 2.37617 7.05666 2.08116 7.16846 1.80542C7.28025 1.52968 7.44545 1.27871 7.65454 1.06702C7.86363 0.855325 8.1125 0.687094 8.38684 0.571899C8.66118 0.456704 8.95557 0.396794 9.25311 0.395752H10.2531C10.8497 0.396282 11.4217 0.633578 11.8435 1.05542C12.2653 1.47726 12.5026 2.04918 12.5031 2.64575C12.4995 2.71613 12.5178 2.78585 12.5554 2.84546C12.593 2.90507 12.6481 2.95165 12.7131 2.97876C12.7765 3.00557 12.8461 3.01378 12.9139 3.00244C12.9818 2.99111 13.045 2.96074 13.0961 2.91479C13.3046 2.70158 13.5535 2.53195 13.8282 2.41589C14.1029 2.29983 14.3979 2.23964 14.6961 2.23877C14.9917 2.23794 15.2845 2.29582 15.5576 2.40894C15.8307 2.52205 16.0787 2.68811 16.2871 2.89771L16.9921 3.59778C17.2011 3.80671 17.3668 4.05477 17.4799 4.32776C17.5929 4.60074 17.6511 4.89324 17.6511 5.18872C17.6511 5.4842 17.5929 5.77682 17.4799 6.0498C17.3668 6.32279 17.2011 6.57085 16.9921 6.77979C16.9394 6.82696 16.9024 6.88917 16.8862 6.95801C16.8699 7.02684 16.8751 7.09901 16.9011 7.16479L16.9071 7.17871C16.9315 7.24036 16.9737 7.29338 17.0284 7.33081C17.0832 7.36824 17.1478 7.38844 17.2141 7.38879C17.5116 7.38616 17.8068 7.44228 18.0825 7.55408C18.3583 7.66587 18.6092 7.83107 18.8209 8.04016C19.0326 8.24925 19.2008 8.49812 19.316 8.77246C19.4312 9.0468 19.4911 9.34125 19.4921 9.63879V10.6388C19.4916 11.2354 19.2544 11.8073 18.8325 12.2291C18.4107 12.651 17.8387 12.8883 17.2421 12.8888C17.1717 12.8852 17.102 12.9035 17.0424 12.941C16.9828 12.9786 16.9362 13.0337 16.9091 13.0988C16.8824 13.1621 16.8743 13.2318 16.8856 13.2996C16.8969 13.3674 16.9273 13.4306 16.9731 13.4818C17.1859 13.6899 17.3552 13.9381 17.4714 14.2122C17.5875 14.4862 17.6481 14.7806 17.6497 15.0782C17.6513 15.3759 17.5938 15.6708 17.4806 15.946C17.3674 16.2213 17.2006 16.4714 16.9901 16.6818L16.2851 17.3817C15.8569 17.7918 15.287 18.0209 14.6941 18.0209C14.1012 18.0209 13.5313 17.7918 13.1031 17.3817C13.0559 17.3291 12.9937 17.2923 12.9249 17.276C12.8561 17.2597 12.7839 17.2649 12.7181 17.2908C12.6546 17.3158 12.5996 17.3586 12.5599 17.4142C12.5201 17.4697 12.4973 17.5355 12.4941 17.6038C12.4973 17.9011 12.4417 18.196 12.3305 18.4718C12.2193 18.7476 12.0547 18.9987 11.8462 19.2107C11.6377 19.4227 11.3893 19.5912 11.1154 19.7069C10.8415 19.8226 10.5475 19.8831 10.2501 19.8848ZM7.4411 15.9528C7.754 16.1027 8.01891 16.3368 8.20599 16.629C8.39307 16.9212 8.49492 17.2599 8.50012 17.6068C8.49733 17.7074 8.51461 17.8074 8.55096 17.9012C8.58732 17.9951 8.64202 18.0808 8.71185 18.1532C8.78168 18.2256 8.86522 18.2834 8.95764 18.3231C9.05007 18.3629 9.14951 18.3839 9.25012 18.3848H10.2501C10.449 18.3848 10.6398 18.3057 10.7805 18.165C10.9211 18.0244 11.0001 17.8337 11.0001 17.6348C11 17.2646 11.1097 16.9029 11.3153 16.5951C11.5209 16.2873 11.8132 16.0474 12.1552 15.9058C12.4897 15.7672 12.8579 15.7313 13.213 15.8025C13.568 15.8737 13.8939 16.0489 14.1491 16.3058C14.218 16.3796 14.301 16.4387 14.3931 16.4799C14.4853 16.521 14.5848 16.5432 14.6857 16.5452C14.7866 16.5471 14.8868 16.5287 14.9805 16.4912C15.0742 16.4537 15.1595 16.3978 15.2311 16.3268L15.9361 15.6267C16.006 15.557 16.0614 15.4741 16.0992 15.3829C16.1371 15.2917 16.1566 15.1939 16.1566 15.0952C16.1566 14.9965 16.1371 14.8988 16.0992 14.8076C16.0614 14.7164 16.006 14.6335 15.9361 14.5637C15.6793 14.3051 15.5035 13.9773 15.4299 13.6204C15.3564 13.2634 15.3884 12.8927 15.5221 12.5537L15.5281 12.5398C15.5281 12.5348 15.5281 12.5287 15.5351 12.5227C15.6725 12.1874 15.9068 11.9008 16.2081 11.6995C16.5093 11.4982 16.8638 11.3915 17.2261 11.3928C17.3265 11.3953 17.4264 11.3778 17.52 11.3413C17.6136 11.3048 17.699 11.2501 17.7712 11.1803C17.8435 11.1105 17.9011 11.027 17.9407 10.9347C17.9804 10.8424 18.0012 10.7433 18.0021 10.6428V9.64282C18.0021 9.44391 17.9231 9.25308 17.7825 9.11243C17.6418 8.97177 17.451 8.89282 17.2521 8.89282C16.8856 8.89736 16.526 8.79218 16.2197 8.59082C15.9134 8.38946 15.6743 8.10112 15.5331 7.76282C15.3902 7.42652 15.3509 7.0552 15.4202 6.69641C15.4895 6.33762 15.6642 6.00766 15.9221 5.74878C15.9975 5.67802 16.0577 5.59263 16.0991 5.49792C16.1405 5.40321 16.1623 5.30112 16.1631 5.19775C16.1635 5.09909 16.1441 5.00131 16.1064 4.91016C16.0686 4.819 16.0131 4.73628 15.9431 4.66675L15.2381 3.9668C15.1685 3.89688 15.0858 3.84147 14.9946 3.80371C14.9035 3.76595 14.8057 3.74662 14.7071 3.74683C14.6083 3.74658 14.5105 3.76589 14.4194 3.80383C14.3282 3.84178 14.2456 3.89754 14.1761 3.96777C13.9174 4.22434 13.5896 4.40012 13.2327 4.47363C12.8758 4.54714 12.5052 4.51515 12.1661 4.38171L12.1521 4.37573L12.1351 4.36877C11.7999 4.23141 11.5132 3.99706 11.3119 3.6958C11.1106 3.39455 11.0038 3.04006 11.0051 2.67773C11.0077 2.57732 10.9901 2.4775 10.9537 2.38391C10.9172 2.29032 10.8625 2.20491 10.7927 2.13269C10.7229 2.06047 10.6394 2.00277 10.5471 1.96313C10.4548 1.9235 10.3556 1.90263 10.2551 1.90173H9.25513C9.05621 1.90173 8.86545 1.98081 8.72479 2.12146C8.58414 2.26211 8.50513 2.45282 8.50513 2.65173C8.50971 3.0205 8.40325 3.38212 8.19958 3.68958C7.99592 3.99703 7.70444 4.23611 7.3631 4.37573C7.0268 4.51335 6.65759 4.54963 6.30096 4.47998C5.94434 4.41033 5.61594 4.23781 5.35614 3.98376C5.28706 3.91036 5.20396 3.85143 5.11182 3.81055C5.01967 3.76967 4.9203 3.74768 4.81952 3.74573C4.71873 3.74377 4.61862 3.76192 4.52496 3.79919C4.4313 3.83647 4.34599 3.8921 4.27411 3.96277L3.5661 4.67078C3.49641 4.74043 3.44116 4.82316 3.40344 4.91418C3.36572 5.00521 3.34625 5.10276 3.34625 5.20129C3.34625 5.29983 3.36572 5.39738 3.40344 5.4884C3.44116 5.57943 3.49641 5.66216 3.5661 5.73181C3.82882 5.98788 4.00901 6.31655 4.0835 6.67578C4.15798 7.03501 4.12338 7.40839 3.98413 7.7478C3.97026 7.78033 3.95457 7.81202 3.93713 7.84277C3.78732 8.15574 3.55314 8.42069 3.26093 8.60779C2.96871 8.79488 2.63008 8.89665 2.28314 8.90173C2.18256 8.89894 2.08241 8.91629 1.98859 8.95264C1.89477 8.98899 1.80913 9.04369 1.73669 9.11353C1.66426 9.18336 1.60648 9.26683 1.56671 9.35925C1.52695 9.45168 1.50602 9.55112 1.50513 9.65173V10.6517C1.50513 10.8506 1.58414 11.0415 1.72479 11.1821C1.86544 11.3228 2.05621 11.4017 2.25513 11.4017C2.62211 11.397 2.98203 11.5027 3.28833 11.7048C3.59463 11.907 3.83322 12.1965 3.97314 12.5358C3.97541 12.5398 3.9771 12.5442 3.97815 12.5487L3.98413 12.5627C4.11797 12.8991 4.15144 13.2671 4.08044 13.6221C4.00945 13.977 3.83702 14.3037 3.58411 14.5627C3.51137 14.6317 3.45321 14.7146 3.41302 14.8064C3.37284 14.8982 3.35146 14.9971 3.35016 15.0973C3.34885 15.1975 3.36761 15.2969 3.4054 15.3898C3.44318 15.4826 3.49921 15.567 3.57013 15.6378L4.27515 16.3378C4.41803 16.4743 4.608 16.5504 4.8056 16.5504C5.00321 16.5504 5.19323 16.4743 5.33612 16.3378C5.59227 16.0752 5.92101 15.895 6.28021 15.8206C6.63941 15.7461 7.01267 15.7807 7.35211 15.9198C7.37911 15.9198 7.4111 15.9348 7.4411 15.9528Z" fill="#484848"/>
</svg>
