<svg width="18" height="20" viewBox="0 0 18 20" fill="none" xmlns="http://www.w3.org/2000/svg">
<path d="M17.5 4.64525C17.5 13.0062 16.293 17.0822 9.138 19.1252C9.04862 19.1519 8.9534 19.1519 8.86401 19.1252C1.70801 17.0802 0.5 13.0462 0.5 4.77415C0.500032 4.66528 0.535621 4.55945 0.601318 4.47264C0.667016 4.38582 0.759247 4.32281 0.864014 4.2932C3.7253 3.54645 6.38788 2.18101 8.664 0.293196C8.70844 0.243925 8.76346 0.205344 8.82495 0.180403C8.88644 0.155462 8.95277 0.144766 9.01898 0.149153C9.15142 0.15024 9.278 0.203997 9.37097 0.298323C10.302 1.24232 14.232 3.1983 17.158 4.1743C17.2571 4.20728 17.3433 4.2705 17.4046 4.35496C17.4659 4.43943 17.4993 4.54086 17.5 4.64525Z" fill="#5DB05A"/>
</svg>
