<svg width="18" height="20" viewBox="0 0 18 20" fill="none" xmlns="http://www.w3.org/2000/svg">
<path d="M16.987 4.42273C13.887 3.39073 10.11 1.42979 9.29901 0.607788C9.15921 0.466149 8.96903 0.385616 8.77002 0.383789C8.57247 0.389411 8.38353 0.466047 8.23798 0.599731C5.98626 2.45081 3.36252 3.79559 0.544983 4.54272C0.38775 4.58717 0.249373 4.68181 0.150818 4.81213C0.052263 4.94246 -0.00103687 5.10138 -0.000976511 5.26477C-0.000976511 13.4958 1.27801 17.7797 8.54401 19.8557C8.67861 19.8944 8.82139 19.8944 8.95599 19.8557C16.266 17.7667 17.499 13.6268 17.499 5.13477C17.4993 4.97734 17.45 4.82386 17.3581 4.69604C17.2662 4.56823 17.1363 4.47254 16.987 4.42273ZM8.75 18.3538C2.745 16.5768 1.54998 13.4538 1.50098 5.82581C4.12955 5.03971 6.59497 3.78627 8.77899 2.12573C11.0353 3.59086 13.4589 4.78072 15.998 5.6698C15.95 13.4158 14.762 16.5738 8.75 18.3538Z" fill="#484848"/>
</svg>
