<svg width="20" height="20" viewBox="0 0 20 20" fill="none" xmlns="http://www.w3.org/2000/svg">
<path d="M8.49997 13.1348V16.1348C8.49997 16.3337 8.42096 16.5244 8.2803 16.665C8.13965 16.8057 7.94888 16.8848 7.74997 16.8848C7.55106 16.8848 7.36029 16.8057 7.21964 16.665C7.07898 16.5244 6.99997 16.3337 6.99997 16.1348V13.1348C6.99997 12.9358 7.07898 12.7451 7.21964 12.6045C7.36029 12.4638 7.55106 12.3848 7.74997 12.3848C7.94888 12.3848 8.13965 12.4638 8.2803 12.6045C8.42096 12.7451 8.49997 12.9358 8.49997 13.1348ZM11.75 12.3848C11.5511 12.3848 11.3603 12.4638 11.2196 12.6045C11.079 12.7451 11 12.9358 11 13.1348V16.1348C11 16.3337 11.079 16.5244 11.2196 16.665C11.3603 16.8057 11.5511 16.8848 11.75 16.8848C11.9489 16.8848 12.1397 16.8057 12.2803 16.665C12.421 16.5244 12.5 16.3337 12.5 16.1348V13.1348C12.5 12.9358 12.421 12.7451 12.2803 12.6045C12.1397 12.4638 11.9489 12.3848 11.75 12.3848ZM17.95 10.5987L17.183 16.6088C17.066 17.5131 16.6241 18.3441 15.9396 18.9466C15.2552 19.5492 14.3749 19.8823 13.463 19.8838H6.06296C5.15338 19.8816 4.27544 19.5498 3.5918 18.9498C2.90816 18.3498 2.4652 17.5223 2.34497 16.6207L1.55496 10.5987C0.993958 10.329 0.541422 9.87644 0.271669 9.31542C0.00191462 8.7544 -0.0690048 8.11824 0.0705882 7.51159C0.210181 6.90494 0.551969 6.36386 1.0398 5.97717C1.52762 5.59047 2.13248 5.38123 2.75498 5.38378H4.33096L7.11197 0.747795C7.21536 0.579368 7.38106 0.458553 7.57303 0.411614C7.765 0.364674 7.96774 0.395346 8.13718 0.497063C8.30662 0.59878 8.42907 0.763328 8.47791 0.954827C8.52674 1.14633 8.49802 1.34933 8.39798 1.51977L6.07898 5.38378H13.43L11.111 1.51977C11.0109 1.34933 10.9822 1.14633 11.031 0.954827C11.0799 0.763328 11.2023 0.59878 11.3718 0.497063C11.5412 0.395346 11.7439 0.364674 11.9359 0.411614C12.1279 0.458553 12.2936 0.579368 12.397 0.747795L15.178 5.38378H16.75C17.3725 5.38123 17.9773 5.59047 18.4652 5.97717C18.953 6.36386 19.2948 6.90494 19.4344 7.51159C19.574 8.11824 19.5031 8.7544 19.2333 9.31542C18.9636 9.87644 18.511 10.329 17.95 10.5987ZM16.401 10.8848H3.10498L3.83197 16.4268C3.90404 16.9676 4.16969 17.4641 4.57971 17.8241C4.98973 18.1841 5.51635 18.3833 6.06198 18.3848H13.462C14.009 18.3839 14.5371 18.1841 14.9476 17.8225C15.3581 17.4609 15.623 16.9624 15.693 16.4198L16.401 10.8848ZM18.001 8.13476C18.0005 7.8034 17.8686 7.48576 17.6343 7.25146C17.4 7.01715 17.0823 6.88529 16.751 6.88476H2.74997C2.41845 6.88476 2.10051 7.01643 1.86609 7.25085C1.63167 7.48527 1.49997 7.80324 1.49997 8.13476C1.49997 8.46628 1.63167 8.78425 1.86609 9.01867C2.10051 9.25309 2.41845 9.38476 2.74997 9.38476H16.75C17.0813 9.38423 17.399 9.25237 17.6333 9.01806C17.8676 8.78375 17.9994 8.46612 18 8.13476H18.001Z" fill="#484848"/>
</svg>
