<svg width="20" height="21" viewBox="0 0 20 21" fill="none" xmlns="http://www.w3.org/2000/svg">
<path fill-rule="evenodd" clip-rule="evenodd" d="M17.75 11.8151C17.7019 11.762 17.6433 11.7194 17.5779 11.6901C17.5125 11.6609 17.4417 11.6456 17.37 11.6452H2.63C2.55834 11.6457 2.48754 11.6611 2.42212 11.6904C2.3567 11.7197 2.2981 11.762 2.25 11.8151C2.16011 11.9281 2.11714 12.0715 2.13 12.2153L2.84 17.5952C2.95194 18.4371 3.36514 19.2102 4.00311 19.771C4.64109 20.3317 5.46062 20.6422 6.31 20.6452H13.71C14.5629 20.6454 15.3867 20.3349 16.0272 19.7717C16.6677 19.2085 17.0811 18.4311 17.19 17.5852L17.87 12.2053C17.8814 12.0647 17.8384 11.925 17.75 11.8151ZM9 16.6452C9 16.9104 8.89463 17.1647 8.70709 17.3523C8.51956 17.5398 8.26522 17.6452 8 17.6452C7.73478 17.6452 7.48044 17.5398 7.29291 17.3523C7.10537 17.1647 7 16.9104 7 16.6452V14.6452C7 14.38 7.10537 14.1257 7.29291 13.9382C7.48044 13.7507 7.73478 13.6452 8 13.6452C8.26522 13.6452 8.51956 13.7507 8.70709 13.9382C8.89463 14.1257 9 14.38 9 14.6452V16.6452ZM13 16.6452C13 16.9104 12.8946 17.1647 12.7071 17.3523C12.5196 17.5398 12.2652 17.6452 12 17.6452C11.7348 17.6452 11.4804 17.5398 11.2929 17.3523C11.1054 17.1647 11 16.9104 11 16.6452V14.6452C11 14.38 11.1054 14.1257 11.2929 13.9382C11.4804 13.7507 11.7348 13.6452 12 13.6452C12.2652 13.6452 12.5196 13.7507 12.7071 13.9382C12.8946 14.1257 13 14.38 13 14.6452V16.6452ZM20 7.89522C20 8.49196 19.763 9.06433 19.341 9.48629C18.919 9.90824 18.3467 10.1452 17.75 10.1452H2.25C1.65326 10.1452 1.08095 9.90824 0.658997 9.48629C0.23704 9.06433 0 8.49196 0 7.89522C0 7.29848 0.23704 6.72611 0.658997 6.30416C1.08095 5.8822 1.65326 5.64522 2.25 5.64522H4.43399L7.14301 1.13033C7.21057 1.01772 7.29964 0.919448 7.40515 0.841267C7.51067 0.763086 7.63056 0.706369 7.75797 0.674519C7.88537 0.642668 8.01778 0.636391 8.14767 0.65572C8.27757 0.675049 8.40241 0.719747 8.51501 0.787312C8.62762 0.854877 8.72581 0.943759 8.80399 1.04927C8.88217 1.15479 8.93879 1.2749 8.97064 1.4023C9.00249 1.5297 9.00895 1.66206 8.98962 1.79195C8.97029 1.92184 8.92557 2.04653 8.858 2.15914L6.767 5.64522H13.235L11.144 2.16011C11.0764 2.04751 11.0317 1.92282 11.0124 1.79293C10.9931 1.66303 10.9995 1.53068 11.0313 1.40328C11.0632 1.27588 11.1198 1.15601 11.198 1.0505C11.2762 0.94498 11.3744 0.855853 11.487 0.788288C11.5996 0.720723 11.7244 0.676025 11.8543 0.656696C11.9842 0.637368 12.1166 0.643645 12.244 0.675495C12.3715 0.707346 12.4913 0.764063 12.5968 0.842243C12.7023 0.920424 12.7914 1.0187 12.859 1.13131L15.568 5.6462H17.752C18.3483 5.64646 18.9201 5.88364 19.3416 6.30538C19.7632 6.72712 20 7.29892 20 7.89522Z" fill="#5DB05A"/>
</svg>
