<svg width="20" height="18" viewBox="0 0 20 18" fill="none" xmlns="http://www.w3.org/2000/svg">
<path d="M6.25 0.884767C5.51988 0.886627 4.81162 1.13423 4.23944 1.58777C3.66726 2.04131 3.2645 2.67435 3.09601 3.38477H0.75C0.551088 3.38477 0.360318 3.46384 0.219666 3.60449C0.0790132 3.74515 0 3.93585 0 4.13477C0 4.33368 0.0790132 4.52439 0.219666 4.66504C0.360318 4.80569 0.551088 4.88477 0.75 4.88477H3.09601C3.23765 5.47785 3.54347 6.0191 3.97845 6.44641C4.41344 6.87373 4.96003 7.16984 5.55554 7.3009C6.15106 7.43197 6.77144 7.39259 7.34564 7.18738C7.91984 6.98217 8.42457 6.61945 8.80212 6.14063C9.17967 5.66181 9.41473 5.08633 9.48035 4.4801C9.54596 3.87388 9.43951 3.26141 9.17316 2.71289C8.90681 2.16438 8.49135 1.70198 7.97437 1.37866C7.45738 1.05534 6.85977 0.884164 6.25 0.884767ZM6.25 5.88477C5.90388 5.88477 5.56556 5.78214 5.27777 5.58985C4.98998 5.39755 4.76569 5.12422 4.63324 4.80445C4.50079 4.48467 4.46611 4.1328 4.53363 3.79334C4.60115 3.45387 4.76783 3.14208 5.01257 2.89734C5.25732 2.6526 5.5691 2.48586 5.90857 2.41834C6.24804 2.35081 6.59991 2.38549 6.91968 2.51795C7.23945 2.6504 7.51279 2.87469 7.70508 3.16248C7.89737 3.45026 8 3.78865 8 4.13477C7.99947 4.59873 7.81495 5.04351 7.48688 5.37158C7.1588 5.69966 6.71397 5.88424 6.25 5.88477ZM12 4.13477C12 3.93585 12.079 3.74515 12.2197 3.60449C12.3603 3.46384 12.5511 3.38477 12.75 3.38477H18.75C18.9489 3.38477 19.1397 3.46384 19.2803 3.60449C19.421 3.74515 19.5 3.93585 19.5 4.13477C19.5 4.33368 19.421 4.52439 19.2803 4.66504C19.1397 4.80569 18.9489 4.88477 18.75 4.88477H12.75C12.5511 4.88477 12.3603 4.80569 12.2197 4.66504C12.079 4.52439 12 4.33368 12 4.13477ZM18.75 13.3848H16.404C16.2202 12.6097 15.7581 11.9291 15.1055 11.4723C14.453 11.0155 13.6553 10.8142 12.8641 10.9067C12.073 10.9993 11.3433 11.3792 10.8138 11.9742C10.2842 12.5693 9.9917 13.3382 9.9917 14.1348C9.9917 14.9313 10.2842 15.7002 10.8138 16.2953C11.3433 16.8904 12.073 17.2703 12.8641 17.3628C13.6553 17.4553 14.453 17.2541 15.1055 16.7972C15.7581 16.3404 16.2202 15.6598 16.404 14.8848H18.75C18.9489 14.8848 19.1397 14.8057 19.2803 14.665C19.421 14.5244 19.5 14.3337 19.5 14.1348C19.5 13.9359 19.421 13.7451 19.2803 13.6045C19.1397 13.4638 18.9489 13.3848 18.75 13.3848ZM13.25 15.8848C12.9039 15.8848 12.5656 15.7821 12.2778 15.5898C11.99 15.3976 11.7657 15.1242 11.6332 14.8044C11.5008 14.4847 11.4661 14.1328 11.5336 13.7933C11.6012 13.4539 11.7678 13.1421 12.0126 12.8973C12.2573 12.6526 12.5691 12.4859 12.9086 12.4183C13.248 12.3508 13.5999 12.3855 13.9197 12.5179C14.2394 12.6504 14.5128 12.8747 14.7051 13.1625C14.8974 13.4503 15 13.7887 15 14.1348C14.9995 14.5987 14.815 15.0435 14.4869 15.3716C14.1588 15.6997 13.714 15.8842 13.25 15.8848ZM7.5 14.1348C7.5 14.3337 7.42099 14.5244 7.28033 14.665C7.13968 14.8057 6.94891 14.8848 6.75 14.8848H0.75C0.551088 14.8848 0.360318 14.8057 0.219666 14.665C0.0790132 14.5244 0 14.3337 0 14.1348C0 13.9359 0.0790132 13.7451 0.219666 13.6045C0.360318 13.4638 0.551088 13.3848 0.75 13.3848H6.75C6.94891 13.3848 7.13968 13.4638 7.28033 13.6045C7.42099 13.7451 7.5 13.9359 7.5 14.1348Z" fill="#484848"/>
</svg>
