<svg width="20" height="20" viewBox="0 0 20 20" fill="none" xmlns="http://www.w3.org/2000/svg">
<path d="M9.99999 0.145264C8.12107 0.145264 6.28437 0.702464 4.7221 1.74634C3.15983 2.79021 1.94217 4.27387 1.22314 6.00977C0.504104 7.74566 0.315989 9.65572 0.682548 11.4985C1.04911 13.3414 1.95386 15.0342 3.28246 16.3628C4.61106 17.6914 6.30384 18.5961 8.14666 18.9626C9.98948 19.3292 11.8996 19.1412 13.6355 18.4221C15.3714 17.7031 16.8551 16.4854 17.899 14.9231C18.9429 13.3608 19.5 11.5242 19.5 9.64526C19.4976 7.12644 18.496 4.7115 16.7149 2.93042C14.9338 1.14934 12.5188 0.147647 9.99999 0.145264ZM8.99999 4.64526H11C11.2652 4.64526 11.5195 4.7507 11.7071 4.93823C11.8946 5.12577 12 5.38005 12 5.64526C12 5.91048 11.8946 6.16476 11.7071 6.35229C11.5195 6.53983 11.2652 6.64526 11 6.64526H8.99999C8.73478 6.64526 8.48044 6.53983 8.2929 6.35229C8.10536 6.16476 7.99999 5.91048 7.99999 5.64526C7.99999 5.38005 8.10536 5.12577 8.2929 4.93823C8.48044 4.7507 8.73478 4.64526 8.99999 4.64526ZM7.49999 8.64526H12.5C12.7652 8.64526 13.0195 8.7507 13.2071 8.93823C13.3946 9.12577 13.5 9.38005 13.5 9.64526C13.5 9.91048 13.3946 10.1648 13.2071 10.3523C13.0195 10.5398 12.7652 10.6453 12.5 10.6453H7.49999C7.23478 10.6453 6.98044 10.5398 6.7929 10.3523C6.60536 10.1648 6.49999 9.91048 6.49999 9.64526C6.49999 9.38005 6.60536 9.12577 6.7929 8.93823C6.98044 8.7507 7.23478 8.64526 7.49999 8.64526ZM14 14.6453H5.99999C5.73478 14.6453 5.48044 14.5398 5.2929 14.3523C5.10536 14.1648 4.99999 13.9105 4.99999 13.6453C4.99999 13.38 5.10536 13.1258 5.2929 12.9382C5.48044 12.7507 5.73478 12.6453 5.99999 12.6453H14C14.2652 12.6453 14.5195 12.7507 14.7071 12.9382C14.8946 13.1258 15 13.38 15 13.6453C15 13.9105 14.8946 14.1648 14.7071 14.3523C14.5195 14.5398 14.2652 14.6453 14 14.6453Z" fill="#5DB05A"/>
</svg>
