<svg width="20" height="20" viewBox="0 0 20 20" fill="none" xmlns="http://www.w3.org/2000/svg">
<path d="M9.75002 0.384766C7.82165 0.384766 5.93659 0.95661 4.33321 2.02795C2.72983 3.0993 1.48016 4.62198 0.742208 6.40356C0.00425386 8.18514 -0.188868 10.1456 0.187338 12.0369C0.563544 13.9282 1.49217 15.6655 2.85573 17.0291C4.2193 18.3926 5.95655 19.3212 7.84786 19.6974C9.73917 20.0736 11.6996 19.8805 13.4812 19.1426C15.2627 18.4046 16.7855 17.155 17.8568 15.5516C18.9282 13.9483 19.5 12.0631 19.5 10.1348C19.4971 7.5498 18.4689 5.0715 16.6411 3.24365C14.8132 1.4158 12.335 0.387677 9.75002 0.384766ZM9.75002 18.3848C8.11833 18.3848 6.52329 17.9009 5.16659 16.9944C3.80988 16.0879 2.75243 14.7994 2.12801 13.2919C1.50359 11.7844 1.3402 10.1256 1.65853 8.52527C1.97686 6.92493 2.76262 5.45493 3.9164 4.30115C5.07019 3.14736 6.54018 2.36166 8.14052 2.04333C9.74087 1.72501 11.3997 1.88839 12.9072 2.51282C14.4147 3.13724 15.7031 4.19456 16.6096 5.55127C17.5162 6.90798 18 8.50307 18 10.1348C17.9976 12.3221 17.1277 14.4192 15.581 15.9658C14.0344 17.5125 11.9373 18.3824 9.75002 18.3848ZM14.5 14.1348C14.5 14.3337 14.421 14.5244 14.2804 14.665C14.1397 14.8057 13.9489 14.8848 13.75 14.8848H5.75002C5.55111 14.8848 5.36034 14.8057 5.21969 14.665C5.07903 14.5244 5.00002 14.3337 5.00002 14.1348C5.00002 13.9359 5.07903 13.7451 5.21969 13.6045C5.36034 13.4638 5.55111 13.3848 5.75002 13.3848H13.75C13.9489 13.3848 14.1397 13.4638 14.2804 13.6045C14.421 13.7451 14.5 13.9359 14.5 14.1348ZM6.50002 10.1348C6.50002 9.93585 6.57903 9.74514 6.71969 9.60449C6.86034 9.46384 7.05111 9.38477 7.25002 9.38477H12.25C12.4489 9.38477 12.6397 9.46384 12.7804 9.60449C12.921 9.74514 13 9.93585 13 10.1348C13 10.3337 12.921 10.5244 12.7804 10.665C12.6397 10.8057 12.4489 10.8848 12.25 10.8848H7.25002C7.05111 10.8848 6.86034 10.8057 6.71969 10.665C6.57903 10.5244 6.50002 10.3337 6.50002 10.1348ZM8.00002 6.13477C8.00002 5.93585 8.07903 5.74514 8.21969 5.60449C8.36034 5.46384 8.55111 5.38477 8.75002 5.38477H10.75C10.9489 5.38477 11.1397 5.46384 11.2804 5.60449C11.421 5.74514 11.5 5.93585 11.5 6.13477C11.5 6.33368 11.421 6.52439 11.2804 6.66504C11.1397 6.80569 10.9489 6.88477 10.75 6.88477H8.75002C8.55111 6.88477 8.36034 6.80569 8.21969 6.66504C8.07903 6.52439 8.00002 6.33368 8.00002 6.13477Z" fill="#484848"/>
</svg>
