<svg width="20" height="19" viewBox="0 0 20 19" fill="none" xmlns="http://www.w3.org/2000/svg">
<path d="M19.3989 7.30872C19.2785 6.93234 19.054 6.59775 18.7514 6.34363C18.4488 6.08951 18.0804 5.92632 17.6889 5.8728L13.5089 5.27271L11.6419 1.5448C11.4648 1.19515 11.1942 0.901352 10.8602 0.696167C10.5262 0.490982 10.1419 0.382446 9.74993 0.382446C9.35795 0.382446 8.97365 0.490982 8.63967 0.696167C8.30569 0.901352 8.03509 1.19515 7.85793 1.5448L5.99092 5.27271L1.81093 5.8728C1.41949 5.92613 1.05114 6.08919 0.748523 6.34314C0.445905 6.59709 0.221394 6.93149 0.10094 7.30774C-0.0198413 7.67876 -0.0330395 8.07638 0.062885 8.45459C0.15881 8.8328 0.359923 9.17621 0.642933 9.44482L3.66094 12.3447L2.94893 16.4348C2.88124 16.8175 2.9226 17.2114 3.06832 17.5717C3.21404 17.9319 3.45824 18.2438 3.77294 18.4718C4.09184 18.7072 4.47052 18.8481 4.86574 18.8785C5.26096 18.909 5.65675 18.8277 6.00792 18.6438L9.74993 16.7047L13.4909 18.6428C13.8423 18.8264 14.2382 18.9076 14.6336 18.8772C15.0289 18.8468 15.4077 18.706 15.7269 18.4708C16.0416 18.2429 16.2858 17.9309 16.4315 17.5707C16.5773 17.2104 16.6186 16.8164 16.5509 16.4337L15.8389 12.3438L18.8569 9.44373C19.1397 9.17536 19.3406 8.83243 19.4365 8.45459C19.5325 8.07675 19.5194 7.67945 19.3989 7.30872ZM17.8179 8.36377L14.5119 11.5388C14.4234 11.6238 14.3571 11.7293 14.3189 11.8459C14.2807 11.9626 14.2718 12.0868 14.2929 12.2078L15.0729 16.6918C15.0927 16.799 15.0812 16.9096 15.0399 17.0105C14.9986 17.1114 14.9292 17.1982 14.8399 17.2607C14.7458 17.3299 14.6341 17.3713 14.5176 17.3801C14.4011 17.389 14.2844 17.365 14.1809 17.3108L10.0949 15.1937C9.98832 15.1385 9.87 15.1097 9.74993 15.1097C9.62986 15.1097 9.51154 15.1385 9.40493 15.1937L5.31893 17.3108C5.21558 17.3656 5.09883 17.39 4.9822 17.3811C4.86556 17.3723 4.75383 17.3305 4.65993 17.2607C4.57059 17.198 4.50113 17.1109 4.45983 17.0099C4.41852 16.9088 4.40711 16.7981 4.42693 16.6908L5.20693 12.2078C5.22795 12.0868 5.21899 11.9626 5.1808 11.8459C5.14262 11.7293 5.07639 11.6239 4.98793 11.5388L1.68193 8.36377C1.60058 8.28966 1.54271 8.19331 1.51552 8.08667C1.48833 7.98003 1.49299 7.86781 1.52892 7.76379C1.56296 7.65491 1.62783 7.55824 1.71569 7.48547C1.80354 7.41271 1.9106 7.36693 2.02391 7.35376L6.59194 6.69971C6.7118 6.68237 6.82567 6.63642 6.92388 6.56555C7.02208 6.49468 7.10171 6.40101 7.15593 6.29272L9.19893 2.21375C9.25154 2.1134 9.33059 2.02934 9.42754 1.9707C9.52449 1.91207 9.63562 1.8811 9.74892 1.8811C9.86222 1.8811 9.97335 1.91207 10.0703 1.9707C10.1672 2.02934 10.2463 2.1134 10.2989 2.21375L12.3419 6.29272C12.3962 6.40101 12.4758 6.49468 12.574 6.56555C12.6722 6.63642 12.7861 6.68237 12.9059 6.69971L17.4739 7.35278C17.5872 7.36595 17.6943 7.41173 17.7822 7.4845C17.87 7.55726 17.9349 7.65394 17.9689 7.76282C18.0049 7.86683 18.0098 7.97907 17.983 8.08582C17.9562 8.19256 17.8988 8.28912 17.8179 8.36377Z" fill="#484848"/>
</svg>
