<svg width="20" height="19" viewBox="0 0 20 19" fill="none" xmlns="http://www.w3.org/2000/svg">
<path d="M18.934 8.77515L15.82 11.7673L16.555 15.9883C16.6143 16.325 16.5777 16.6716 16.4493 16.9885C16.3209 17.3054 16.106 17.5798 15.829 17.7803C15.5472 17.9874 15.2129 18.1113 14.8642 18.1382C14.5155 18.165 14.1662 18.0939 13.856 17.9324L10 15.9324L6.14401 17.9324C5.83384 18.0941 5.48451 18.1655 5.13574 18.1387C4.78697 18.1118 4.45272 17.9876 4.17099 17.7803C3.8942 17.5796 3.67939 17.3051 3.55102 16.9883C3.42266 16.6714 3.38593 16.325 3.445 15.9883L4.17999 11.7673L1.06601 8.77515C0.816951 8.53868 0.639958 8.2367 0.555539 7.90381C0.471121 7.57091 0.482711 7.22086 0.588987 6.89429C0.6953 6.56277 0.893408 6.26821 1.16031 6.04468C1.4272 5.82114 1.75196 5.67784 2.09698 5.63135L6.406 5.01416L8.332 1.16919C8.48847 0.861264 8.72714 0.602752 9.02154 0.422119C9.31595 0.241487 9.6546 0.145752 10 0.145752C10.3454 0.145752 10.684 0.241487 10.9785 0.422119C11.2729 0.602752 11.5115 0.861264 11.668 1.16919L13.594 5.01416L17.903 5.63135C18.2479 5.67802 18.5724 5.8214 18.8391 6.04492C19.1058 6.26845 19.3038 6.56291 19.41 6.89429C19.5164 7.22077 19.5281 7.57068 19.4439 7.90356C19.3597 8.23645 19.1829 8.53857 18.934 8.77515Z" fill="#5DB05A"/>
</svg>
