<svg width="17" height="21" viewBox="0 0 17 21" fill="none" xmlns="http://www.w3.org/2000/svg">
<path d="M14.4698 6.74829L15.9698 5.24829C16.1581 5.05999 16.2639 4.80463 16.2639 4.53833C16.2639 4.27203 16.1581 4.01667 15.9698 3.82837C15.7815 3.64007 15.5261 3.53418 15.2598 3.53418C14.9935 3.53418 14.7381 3.64007 14.5498 3.82837L13.0498 5.32837C12.9963 5.39358 12.9494 5.46388 12.9098 5.53833C11.8304 4.76659 10.5761 4.27527 9.25978 4.1084V2.53833H10.2598C10.525 2.53833 10.7793 2.4329 10.9669 2.24536C11.1544 2.05782 11.2598 1.80355 11.2598 1.53833C11.2598 1.27311 11.1544 1.01884 10.9669 0.831299C10.7793 0.643762 10.525 0.53833 10.2598 0.53833H6.25978C5.99457 0.53833 5.74023 0.643762 5.55269 0.831299C5.36515 1.01884 5.25978 1.27311 5.25978 1.53833C5.25978 1.80355 5.36515 2.05782 5.55269 2.24536C5.74023 2.4329 5.99457 2.53833 6.25978 2.53833H7.25978V4.1084C5.49195 4.33046 3.84885 5.13632 2.59099 6.39819C1.33313 7.66007 0.532515 9.30569 0.316088 11.0742C0.0996604 12.8427 0.479809 14.6329 1.39626 16.1609C2.31271 17.6888 3.713 18.867 5.37511 19.5088C7.03722 20.1506 8.86601 20.2194 10.5715 19.7039C12.277 19.1883 13.7617 18.1181 14.79 16.6631C15.8183 15.2081 16.3314 13.4514 16.2481 11.6716C16.1647 9.89186 15.4896 8.19092 14.3298 6.83838C14.3787 6.81196 14.4254 6.78178 14.4698 6.74829ZM10.8798 15.3184C10.7054 15.4623 10.4859 15.5401 10.2598 15.5383C10.1096 15.5376 9.96147 15.503 9.82643 15.4373C9.6914 15.3715 9.57291 15.2763 9.47978 15.1584L7.47978 12.6584C7.33698 12.4834 7.25924 12.2642 7.25978 12.0383V8.53833C7.25978 8.27311 7.36515 8.01884 7.55269 7.8313C7.74023 7.64376 7.99457 7.53833 8.25978 7.53833C8.525 7.53833 8.77934 7.64376 8.96688 7.8313C9.15441 8.01884 9.25978 8.27311 9.25978 8.53833V11.6882L11.0398 13.9182C11.1231 14.0199 11.1851 14.1374 11.2222 14.2634C11.2593 14.3895 11.2707 14.5216 11.2558 14.6521C11.2409 14.7826 11.1999 14.909 11.1353 15.0234C11.0707 15.1379 10.9838 15.2381 10.8798 15.3184Z" fill="#5DB05A"/>
</svg>
