<svg width="18" height="20" viewBox="0 0 18 20" fill="none" xmlns="http://www.w3.org/2000/svg">
<path d="M15.111 6.09778L16.544 4.66479C16.6847 4.5241 16.7638 4.33325 16.7638 4.13428C16.7638 3.9353 16.6847 3.74446 16.544 3.60376C16.4033 3.46306 16.2125 3.38403 16.0135 3.38403C15.8145 3.38403 15.6237 3.46306 15.483 3.60376L14.005 5.08179C12.7763 4.13876 11.3055 3.56344 9.76303 3.42273V1.88477H11.011C11.2099 1.88477 11.4007 1.80569 11.5414 1.66504C11.682 1.52439 11.761 1.33368 11.761 1.13477C11.761 0.935853 11.682 0.745144 11.5414 0.604492C11.4007 0.46384 11.2099 0.384766 11.011 0.384766H7.01102C6.81211 0.384766 6.62134 0.46384 6.48068 0.604492C6.34003 0.745144 6.26102 0.935853 6.26102 1.13477C6.26102 1.33368 6.34003 1.52439 6.48068 1.66504C6.62134 1.80569 6.81211 1.88477 7.01102 1.88477H8.26102V3.42273C6.40231 3.58678 4.65364 4.37438 3.29898 5.65759C1.94433 6.9408 1.06324 8.64435 0.798829 10.4915C0.534416 12.3386 0.902195 14.2208 1.84244 15.8325C2.78268 17.4442 4.24017 18.6907 5.97821 19.3696C7.71625 20.0486 9.63278 20.1201 11.4165 19.5724C13.2003 19.0247 14.7465 17.89 15.8041 16.3528C16.8617 14.8155 17.3686 12.9659 17.2424 11.1042C17.1162 9.24258 16.3644 7.47827 15.109 6.09778H15.111ZM9.01102 18.3848C7.67599 18.3848 6.37096 17.9889 5.26093 17.2472C4.15089 16.5055 3.28573 15.4513 2.77484 14.2179C2.26395 12.9845 2.13027 11.6272 2.39072 10.3179C2.65117 9.0085 3.29403 7.80582 4.23804 6.86182C5.18204 5.91781 6.38478 5.27485 7.69415 5.0144C9.00353 4.75395 10.3607 4.88767 11.5941 5.39856C12.8275 5.90945 13.8817 6.77461 14.6234 7.88464C15.3651 8.99468 15.761 10.2997 15.761 11.6348C15.7589 13.4243 15.0471 15.14 13.7816 16.4054C12.5162 17.6708 10.8006 18.3826 9.01102 18.3848ZM11.596 13.6658C11.6576 13.7427 11.7035 13.8309 11.7309 13.9255C11.7584 14.0201 11.767 14.1192 11.7562 14.2172C11.7453 14.3151 11.7153 14.4099 11.6679 14.4962C11.6204 14.5825 11.5564 14.6586 11.4795 14.7202C11.4026 14.7818 11.3144 14.8277 11.2198 14.8552C11.1252 14.8827 11.0261 14.8912 10.9281 14.8804C10.8302 14.8696 10.7354 14.8396 10.6491 14.7921C10.5628 14.7446 10.4866 14.6806 10.425 14.6038L8.42502 12.1038C8.31851 11.9706 8.26033 11.8053 8.26001 11.6348V8.13477C8.26001 7.93585 8.33902 7.74514 8.47968 7.60449C8.62033 7.46384 8.8111 7.38477 9.01001 7.38477C9.20892 7.38477 9.39969 7.46384 9.54035 7.60449C9.681 7.74514 9.76001 7.93585 9.76001 8.13477V11.3718L11.596 13.6658Z" fill="#484848"/>
</svg>
