<svg width="20" height="20" viewBox="0 0 20 20" fill="none" xmlns="http://www.w3.org/2000/svg">
<path d="M18.5 15.6453C18.5 16.5735 18.1312 17.4637 17.4749 18.1201C16.8185 18.7765 15.9283 19.1453 15 19.1453H12.53V16.6453C12.53 15.9822 12.2666 15.3463 11.7978 14.8774C11.3289 14.4086 10.6931 14.1453 10.03 14.1453C9.36699 14.1453 8.73105 14.4086 8.26221 14.8774C7.79337 15.3463 7.53003 15.9822 7.53003 16.6453V19.1453H5C4.07174 19.1453 3.18152 18.7765 2.52515 18.1201C1.86877 17.4637 1.5 16.5735 1.5 15.6453V10.9954C2.26875 11.4012 3.12096 11.6236 3.98999 11.6453C4.79468 10.863 5.87272 10.4253 6.995 10.4253C8.11727 10.4253 9.19531 10.863 10 11.6453C10.8047 10.863 11.8827 10.4253 13.005 10.4253C14.1273 10.4253 15.2053 10.863 16.01 11.6453C16.879 11.6236 17.7312 11.4012 18.5 10.9954V15.6453ZM19.474 6.48731L18.386 3.22217C18.0883 2.3256 17.5155 1.54581 16.7491 0.993411C15.9827 0.441016 15.0617 0.144223 14.117 0.145266H5.883C4.93832 0.144375 4.0174 0.441282 3.25104 0.993655C2.48468 1.54603 1.91188 2.32568 1.61401 3.22217L0.526001 6.48731C0.508796 6.53855 0.500015 6.59219 0.5 6.64624C0.499996 7.57277 0.86739 8.46159 1.52161 9.11768C2.17582 9.77377 3.06347 10.1436 3.98999 10.1462C4.3466 9.68967 4.80256 9.32041 5.32324 9.06641C5.84393 8.81241 6.41566 8.68042 6.995 8.68042C7.57433 8.68042 8.14606 8.81241 8.66675 9.06641C9.18743 9.32041 9.64339 9.68967 10 10.1462C10.3566 9.68967 10.8126 9.32041 11.3333 9.06641C11.8539 8.81241 12.4257 8.68042 13.005 8.68042C13.5843 8.68042 14.1561 8.81241 14.6768 9.06641C15.1974 9.32041 15.6534 9.68967 16.01 10.1462C16.9365 10.1436 17.8242 9.77377 18.4784 9.11768C19.1326 8.46159 19.5 7.57277 19.5 6.64624C19.5 6.59219 19.4912 6.53855 19.474 6.48731Z" fill="#5DB05A"/>
</svg>
