<svg width="20" height="20" viewBox="0 0 20 20" fill="none" xmlns="http://www.w3.org/2000/svg">
<path d="M19.5 7.13477C19.5001 7.05384 19.4869 6.97341 19.461 6.89673L18.373 3.63172C18.0585 2.68546 17.454 1.86236 16.6451 1.2793C15.8362 0.696237 14.8641 0.382939 13.867 0.383791H5.633C4.63587 0.382939 3.66381 0.696237 2.85492 1.2793C2.04603 1.86236 1.44145 2.68546 1.12701 3.63172L0.0390017 6.89673C0.0131095 6.97341 -6.59766e-05 7.05384 2.48415e-07 7.13477C0.00333295 8.07384 0.360385 8.97721 1 9.6648V16.1348C1.00106 17.129 1.39652 18.0822 2.09955 18.7853C2.80258 19.4883 3.75576 19.8837 4.75 19.8848H8.52698V16.1348C8.52698 15.8032 8.65871 15.4853 8.89313 15.2509C9.12755 15.0164 9.44546 14.8848 9.77698 14.8848C10.1085 14.8848 10.4265 15.0164 10.6609 15.2509C10.8953 15.4853 11.027 15.8032 11.027 16.1348V19.8848H14.75C15.7442 19.8837 16.6974 19.4883 17.4005 18.7853C18.1035 18.0822 18.4989 17.129 18.5 16.1348V9.66577C19.1398 8.97789 19.4968 8.07417 19.5 7.13477ZM2.54999 4.10571C2.7652 3.45836 3.17893 2.89534 3.73236 2.49646C4.28579 2.09759 4.9508 1.88321 5.633 1.88379H13.867C14.5492 1.88321 15.2142 2.09759 15.7676 2.49646C16.3211 2.89534 16.7348 3.45836 16.95 4.10571L17.997 7.24683C17.9749 7.82389 17.7291 8.36966 17.3115 8.76856C16.894 9.16746 16.3375 9.38811 15.76 9.38379C15.2716 9.38782 14.7928 9.24766 14.3837 8.98084C13.9745 8.71401 13.6533 8.33239 13.46 7.88379C13.4084 7.73734 13.3125 7.61058 13.1857 7.521C13.0588 7.43142 12.9073 7.38346 12.752 7.38379C12.5961 7.38417 12.4441 7.43316 12.3173 7.52405C12.1906 7.61494 12.0954 7.74315 12.045 7.89075C11.8503 8.33641 11.5299 8.71563 11.123 8.98194C10.7161 9.24825 10.2403 9.39014 9.75403 9.39014C9.26771 9.39014 8.79193 9.24825 8.38501 8.98194C7.97809 8.71563 7.65767 8.33641 7.46301 7.89075C7.41262 7.74315 7.31742 7.61494 7.19067 7.52405C7.06393 7.43316 6.91194 7.38417 6.75598 7.38379C6.60073 7.38361 6.44926 7.43156 6.32245 7.52112C6.19564 7.61068 6.09972 7.73742 6.04797 7.88379C5.85474 8.33239 5.53346 8.71401 5.12433 8.98084C4.7152 9.24766 4.23642 9.38782 3.74799 9.38379C3.17052 9.38811 2.6141 9.16746 2.19653 8.76856C1.77897 8.36966 1.53306 7.82389 1.51099 7.24683L2.54999 4.10571ZM14.75 18.3848H12.527V16.1348C12.527 15.4054 12.2373 14.7059 11.7216 14.1902C11.2058 13.6745 10.5063 13.3848 9.77698 13.3848C9.04763 13.3848 8.34818 13.6745 7.83246 14.1902C7.31673 14.7059 7.02698 15.4054 7.02698 16.1348V18.3848H4.75C4.15343 18.3842 3.58145 18.1471 3.15961 17.7252C2.73777 17.3034 2.50053 16.7313 2.5 16.1348V10.6558C2.89705 10.803 3.31655 10.8804 3.73999 10.8848C4.12103 10.4667 4.58511 10.1328 5.10254 9.9043C5.61997 9.67581 6.17936 9.55786 6.745 9.55786C7.31063 9.55786 7.87002 9.67581 8.38745 9.9043C8.90488 10.1328 9.36897 10.4667 9.75 10.8848C10.131 10.4667 10.5951 10.1328 11.1125 9.9043C11.63 9.67581 12.1894 9.55786 12.755 9.55786C13.3206 9.55786 13.88 9.67581 14.3975 9.9043C14.9149 10.1328 15.379 10.4667 15.76 10.8848C16.1834 10.8804 16.6029 10.803 17 10.6558V16.1348C16.9992 16.7313 16.7619 17.3031 16.3401 17.7249C15.9183 18.1466 15.3465 18.384 14.75 18.3848Z" fill="#484848"/>
</svg>
