<svg width="20" height="21" viewBox="0 0 20 21" fill="none" xmlns="http://www.w3.org/2000/svg">
<path d="M6.22 8.14464C6.28652 8.21099 6.33929 8.28982 6.3753 8.37659C6.41131 8.46337 6.42985 8.5564 6.42985 8.65036C6.42985 8.74431 6.41131 8.83734 6.3753 8.92412C6.33929 9.0109 6.28652 9.08972 6.22 9.15607L5.29571 10.0789H14.7043L13.78 9.15607C13.6459 9.02195 13.5705 8.84004 13.5705 8.65036C13.5705 8.46068 13.6459 8.27877 13.78 8.14464C13.9141 8.01052 14.096 7.93517 14.2857 7.93517C14.4754 7.93517 14.6573 8.01052 14.7914 8.14464L16.9343 10.2875C17.0008 10.3538 17.0536 10.4327 17.0896 10.5195C17.1256 10.6062 17.1441 10.6993 17.1441 10.7932C17.1441 10.8872 17.1256 10.9802 17.0896 11.067C17.0536 11.1538 17.0008 11.2326 16.9343 11.2989L14.7914 13.4418C14.6573 13.5759 14.4754 13.6513 14.2857 13.6513C14.096 13.6513 13.9141 13.5759 13.78 13.4418C13.6459 13.3077 13.5705 13.1257 13.5705 12.9361C13.5705 12.7464 13.6459 12.5645 13.78 12.4304L14.7043 11.5075H5.29571L6.22 12.4304C6.35412 12.5645 6.42947 12.7464 6.42947 12.9361C6.42947 13.1257 6.35412 13.3077 6.22 13.4418C6.08588 13.5759 5.90397 13.6513 5.71429 13.6513C5.52461 13.6513 5.3427 13.5759 5.20857 13.4418L3.06571 11.2989C2.9992 11.2326 2.94642 11.1538 2.91041 11.067C2.8744 10.9802 2.85587 10.8872 2.85587 10.7932C2.85587 10.6993 2.8744 10.6062 2.91041 10.5195C2.94642 10.4327 2.9992 10.3538 3.06571 10.2875L5.20857 8.14464C5.27492 8.07812 5.35374 8.02535 5.44052 7.98934C5.5273 7.95333 5.62033 7.93479 5.71429 7.93479C5.80824 7.93479 5.90127 7.95333 5.98805 7.98934C6.07483 8.02535 6.15365 8.07812 6.22 8.14464ZM20 5.07893C20 3.94229 19.5485 2.8522 18.7447 2.04847C17.941 1.24474 16.8509 0.793213 15.7143 0.793213H4.28571C3.14907 0.793213 2.05898 1.24474 1.25526 2.04847C0.451529 2.8522 0 3.94229 0 5.07893V16.5075C0 17.6441 0.451529 18.7342 1.25526 19.538C2.05898 20.3417 3.14907 20.7932 4.28571 20.7932H15.7143C16.8509 20.7932 17.941 20.3417 18.7447 19.538C19.5485 18.7342 20 17.6441 20 16.5075V5.07893ZM14.2857 2.22178V6.5075C14.7971 6.5075 15.3086 6.68893 15.7143 7.05321V2.22178C16.472 2.22178 17.1988 2.5228 17.7346 3.05862C18.2704 3.59444 18.5714 4.32117 18.5714 5.07893V16.5075C18.5714 17.2653 18.2704 17.992 17.7346 18.5278C17.1988 19.0636 16.472 19.3646 15.7143 19.3646V14.5332C15.3218 14.8852 14.8129 15.0796 14.2857 15.0789V19.3646H5.71429V15.0789C5.20286 15.0789 4.69143 14.8975 4.28571 14.5332V19.3646C3.52795 19.3646 2.80123 19.0636 2.26541 18.5278C1.72959 17.992 1.42857 17.2653 1.42857 16.5075V5.07893C1.42857 4.32117 1.72959 3.59444 2.26541 3.05862C2.80123 2.5228 3.52795 2.22178 4.28571 2.22178V7.05321C4.67822 6.70121 5.18706 6.50684 5.71429 6.5075V2.22178H14.2857Z" fill="#C7C7C7"/>
</svg>
