<svg width="16" height="20" viewBox="0 0 16 20" fill="none" xmlns="http://www.w3.org/2000/svg">
<path d="M9.76123 16.1348C9.76123 16.3337 9.68222 16.5244 9.54156 16.665C9.40091 16.8057 9.21014 16.8848 9.01123 16.8848H7.01123C6.81232 16.8848 6.62155 16.8057 6.4809 16.665C6.34024 16.5244 6.26123 16.3337 6.26123 16.1348C6.26123 15.9359 6.34024 15.7451 6.4809 15.6045C6.62155 15.4638 6.81232 15.3848 7.01123 15.3848H9.01123C9.21014 15.3848 9.40091 15.4638 9.54156 15.6045C9.68222 15.7451 9.76123 15.9359 9.76123 16.1348ZM15.7612 5.13477V15.1348C15.7596 16.3941 15.2587 17.6014 14.3682 18.4918C13.4778 19.3823 12.2705 19.8832 11.0112 19.8848H5.01123C3.75194 19.8832 2.54469 19.3823 1.65424 18.4918C0.763782 17.6014 0.262818 16.3941 0.26123 15.1348V5.13477C0.262818 3.87547 0.763782 2.66816 1.65424 1.77771C2.54469 0.887256 3.75194 0.386353 5.01123 0.384766H11.0112C12.2705 0.386353 13.4778 0.887256 14.3682 1.77771C15.2587 2.66816 15.7596 3.87547 15.7612 5.13477ZM14.2612 5.13477C14.2602 4.27314 13.9174 3.44715 13.3082 2.83789C12.6989 2.22863 11.8729 1.88582 11.0112 1.88477H5.01123C4.1496 1.88582 3.32356 2.22863 2.71429 2.83789C2.10503 3.44715 1.76229 4.27314 1.76123 5.13477V15.1348C1.76229 15.9964 2.10503 16.8224 2.71429 17.4316C3.32356 18.0409 4.1496 18.3837 5.01123 18.3848H11.0112C11.8729 18.3837 12.6989 18.0409 13.3082 17.4316C13.9174 16.8224 14.2602 15.9964 14.2612 15.1348V5.13477Z" fill="#484848"/>
</svg>
