<svg width="16" height="20" viewBox="0 0 16 20" fill="none" xmlns="http://www.w3.org/2000/svg">
<path d="M11.2598 0.0383301H5.25977C4.06686 0.0401814 2.92335 0.514886 2.07983 1.3584C1.23632 2.20191 0.761617 3.34542 0.759766 4.53833V14.5383C0.761617 15.7312 1.23632 16.8747 2.07983 17.7183C2.92335 18.5618 4.06686 19.0365 5.25977 19.0383H11.2598C12.4527 19.0365 13.5962 18.5618 14.4397 17.7183C15.2832 16.8747 15.7579 15.7312 15.7598 14.5383V4.53833C15.7579 3.34542 15.2832 2.20191 14.4397 1.3584C13.5962 0.514886 12.4527 0.0401814 11.2598 0.0383301ZM8.75977 16.5383H7.75977C7.49455 16.5383 7.24021 16.4329 7.05267 16.2454C6.86514 16.0578 6.75977 15.8035 6.75977 15.5383C6.75977 15.2731 6.86514 15.0188 7.05267 14.8313C7.24021 14.6438 7.49455 14.5383 7.75977 14.5383H8.75977C9.02498 14.5383 9.27932 14.6438 9.46686 14.8313C9.65439 15.0188 9.75977 15.2731 9.75977 15.5383C9.75977 15.8035 9.65439 16.0578 9.46686 16.2454C9.27932 16.4329 9.02498 16.5383 8.75977 16.5383Z" fill="#5DB05A"/>
</svg>
