<svg width="20" height="20" viewBox="0 0 20 20" fill="none" xmlns="http://www.w3.org/2000/svg">
<path d="M18.109 8.30983L11.575 1.77577C11.135 1.33345 10.6117 0.982797 10.0353 0.744035C9.45893 0.505273 8.84091 0.383151 8.21703 0.384782H3.75002C2.75578 0.385841 1.80257 0.781237 1.09954 1.48427C0.396504 2.1873 0.00107719 3.14054 1.83681e-05 4.13478V8.60072C-0.00172265 9.22463 0.12032 9.84268 0.359088 10.4191C0.597856 10.9955 0.948597 11.5188 1.39101 11.9588L7.92501 18.4928C8.81643 19.3822 10.0243 19.8817 11.2835 19.8817C12.5428 19.8817 13.7506 19.3822 14.642 18.4928L18.108 15.0267C18.9978 14.1356 19.4977 12.9278 19.4979 11.6685C19.498 10.4091 18.9986 9.20126 18.109 8.30983ZM17.048 13.9668L13.582 17.4328C12.9717 18.0422 12.1445 18.3845 11.282 18.3845C10.4196 18.3845 9.59231 18.0422 8.98201 17.4328L2.44802 10.8988C1.83997 10.2876 1.49784 9.46094 1.49602 8.59877V4.13478C1.49655 3.53821 1.73379 2.96617 2.15563 2.54433C2.57747 2.12249 3.14945 1.88531 3.74602 1.88478H8.21202C9.07415 1.88681 9.90065 2.22894 10.512 2.83681L17.046 9.37074C17.655 9.98022 17.9974 10.8064 17.9982 11.668C17.9989 12.5296 17.6579 13.3563 17.05 13.9668H17.048ZM6.248 5.63478C6.248 5.83256 6.18937 6.02587 6.07949 6.19032C5.9696 6.35477 5.81342 6.48292 5.63069 6.55861C5.44797 6.6343 5.24692 6.6542 5.05294 6.61562C4.85895 6.57703 4.68076 6.48179 4.54091 6.34194C4.40106 6.20208 4.30582 6.02383 4.26723 5.82985C4.22865 5.63587 4.24846 5.43482 4.32415 5.25209C4.39983 5.06937 4.52801 4.91324 4.69246 4.80336C4.85691 4.69348 5.05022 4.63478 5.248 4.63478C5.37949 4.63452 5.50975 4.66021 5.63131 4.71034C5.75286 4.76048 5.86334 4.83413 5.95641 4.92702C6.04948 5.0199 6.12331 5.13015 6.17369 5.2516C6.22407 5.37306 6.25002 5.50329 6.25002 5.63478H6.248Z" fill="#484848"/>
</svg>
