<svg width="20" height="20" viewBox="0 0 20 20" fill="none" xmlns="http://www.w3.org/2000/svg">
<path d="M18.18 7.99536L11.65 1.46533C10.805 0.623948 9.66243 0.149581 8.47001 0.145264H4.00001C3.07175 0.145264 2.1815 0.514033 1.52512 1.17041C0.868746 1.82679 0.500007 2.71701 0.500007 3.64526V8.11523C0.498939 8.70622 0.615049 9.29157 0.841621 9.8374C1.06819 10.3832 1.40074 10.8787 1.82001 11.2952L8.35001 17.8252C8.76799 18.244 9.26443 18.5763 9.81095 18.803C10.3575 19.0297 10.9433 19.1462 11.535 19.1462C12.1267 19.1462 12.7125 19.0297 13.2591 18.803C13.8056 18.5763 14.302 18.244 14.72 17.8252L18.18 14.3652C18.5988 13.9473 18.931 13.4508 19.1577 12.9043C19.3844 12.3578 19.501 11.7718 19.501 11.1802C19.501 10.5885 19.3844 10.0028 19.1577 9.4563C18.931 8.90978 18.5988 8.41334 18.18 7.99536ZM5.50001 6.64526C5.20334 6.64526 4.91334 6.5574 4.66666 6.39258C4.41999 6.22776 4.22771 5.99333 4.11417 5.71924C4.00064 5.44515 3.97094 5.14351 4.02882 4.85254C4.08669 4.56157 4.22956 4.2945 4.43934 4.08472C4.64912 3.87494 4.9164 3.73195 5.20737 3.67407C5.49835 3.61619 5.79995 3.64599 6.07404 3.75952C6.34813 3.87305 6.58238 4.06534 6.7472 4.31201C6.91202 4.55869 7.00001 4.84859 7.00001 5.14526C7.00001 5.54309 6.84198 5.92451 6.56068 6.20581C6.27937 6.48711 5.89783 6.64526 5.50001 6.64526Z" fill="#5DB05A"/>
</svg>
