<svg width="16" height="20" viewBox="0 0 16 20" fill="none" xmlns="http://www.w3.org/2000/svg">
<path d="M13.16 7.48376L12.5 6.82379V4.41376C13.1582 3.44708 13.5069 2.30322 13.5 1.13379C13.5 0.934877 13.421 0.744107 13.2804 0.603455C13.1397 0.462802 12.9489 0.383789 12.75 0.383789H2.75003C2.55112 0.383789 2.36035 0.462802 2.2197 0.603455C2.07905 0.744107 2.00003 0.934877 2.00003 1.13379C1.99276 2.30358 2.34153 3.44792 3.00003 4.41479V6.82275L2.34006 7.48279C1.59574 8.22321 1.00564 9.10386 0.603975 10.0739C0.202313 11.0438 -0.00295198 12.0839 3.20738e-05 13.1338C0.000296653 13.3326 0.0794078 13.5232 0.220003 13.6638C0.360598 13.8044 0.551201 13.8835 0.750032 13.8838H7.00003V19.1348C7.00003 19.3337 7.07905 19.5244 7.2197 19.665C7.36035 19.8057 7.55112 19.8848 7.75003 19.8848C7.94894 19.8848 8.13971 19.8057 8.28037 19.665C8.42102 19.5244 8.50003 19.3337 8.50003 19.1348V13.8848H14.75C14.9489 13.8848 15.1397 13.8057 15.2804 13.665C15.421 13.5244 15.5 13.3337 15.5 13.1348C15.5031 12.0849 15.2978 11.0448 14.8962 10.0748C14.4945 9.10483 13.9044 8.22415 13.16 7.48376ZM1.54306 12.3838C1.70811 10.9304 2.36303 9.57637 3.40006 8.54474L4.28006 7.66577C4.42075 7.52525 4.49986 7.33459 4.50003 7.13574V4.13574C4.50011 4.03726 4.48072 3.93977 4.44296 3.84882C4.40521 3.75786 4.34986 3.67525 4.28006 3.60577C3.89083 3.10846 3.64433 2.51453 3.56705 1.88776H11.9341C11.856 2.51513 11.6092 3.10961 11.22 3.60779C11.0793 3.74831 11.0002 3.93891 11 4.13776V7.13776C11 7.23624 11.0193 7.33379 11.0571 7.42474C11.0949 7.5157 11.1502 7.59831 11.22 7.66779L12.1 8.54675C13.1374 9.5785 13.7924 10.9329 13.957 12.3867L1.54306 12.3838Z" fill="#484848"/>
</svg>
