<svg width="16" height="20" viewBox="0 0 16 20" fill="none" xmlns="http://www.w3.org/2000/svg">
<path d="M15.5 12.6453C15.5 12.7779 15.4474 12.905 15.3536 12.9988C15.2598 13.0925 15.1326 13.1453 15 13.1453H9.00003V18.6453C9.00003 18.9105 8.89466 19.1648 8.70712 19.3523C8.51959 19.5398 8.26525 19.6453 8.00003 19.6453C7.73481 19.6453 7.48047 19.5398 7.29294 19.3523C7.1054 19.1648 7.00003 18.9105 7.00003 18.6453V13.1453H1.00003C0.934325 13.1454 0.869243 13.1325 0.808501 13.1074C0.747759 13.0824 0.692545 13.0457 0.646026 12.9993C0.599624 12.9527 0.562862 12.8977 0.53781 12.8369C0.512759 12.7762 0.499912 12.711 0.500029 12.6453C0.497214 11.6283 0.696105 10.6208 1.08523 9.68115C1.47436 8.74154 2.04603 7.88837 2.76706 7.17114L3.50003 6.43823V3.83838C2.8426 2.90439 2.49302 1.78839 2.50003 0.64624C2.50003 0.513632 2.55268 0.386493 2.64645 0.292725C2.74022 0.198956 2.86742 0.14624 3.00003 0.14624H13C13.1326 0.14624 13.2598 0.198956 13.3536 0.292725C13.4474 0.386493 13.5 0.513632 13.5 0.64624C13.5066 1.78802 13.1571 2.90336 12.5 3.83716V6.43726L13.233 7.17017C13.954 7.88761 14.5256 8.7409 14.9148 9.68066C15.3039 10.6204 15.5028 11.6281 15.5 12.6453Z" fill="#5DB05A"/>
</svg>
