<svg width="20" height="20" viewBox="0 0 20 20" fill="none" xmlns="http://www.w3.org/2000/svg">
<path d="M13.28 7.66479L10.81 10.1348L13.28 12.6047C13.3517 12.6739 13.4088 12.7567 13.4482 12.8481C13.4875 12.9396 13.5082 13.038 13.5092 13.1376C13.5101 13.2372 13.4912 13.3359 13.4535 13.4281C13.4158 13.5203 13.3602 13.6041 13.2898 13.6746C13.2194 13.745 13.1357 13.8007 13.0435 13.8385C12.9514 13.8763 12.8526 13.8952 12.7531 13.8944C12.6535 13.8936 12.555 13.873 12.4635 13.8337C12.372 13.7945 12.2892 13.7374 12.22 13.6658L9.75 11.1957L7.28003 13.6658C7.13851 13.8023 6.94897 13.8778 6.75232 13.876C6.55567 13.8742 6.36763 13.7952 6.22864 13.6561C6.08965 13.517 6.01083 13.3289 6.00922 13.1322C6.0076 12.9356 6.08328 12.7461 6.21997 12.6047L8.69 10.1348L6.21997 7.66479C6.07927 7.5241 6.00024 7.33325 6.00024 7.13428C6.00024 6.9353 6.07927 6.74446 6.21997 6.60376C6.36067 6.46306 6.55151 6.38403 6.75049 6.38403C6.94946 6.38403 7.14031 6.46306 7.28101 6.60376L9.75098 9.07379L12.221 6.60376C12.2897 6.53014 12.3726 6.47114 12.4646 6.43024C12.5566 6.38933 12.656 6.36734 12.7567 6.36566C12.8574 6.36398 12.9574 6.3826 13.0508 6.42041C13.1441 6.45822 13.2289 6.51447 13.3 6.58575C13.3712 6.65704 13.4273 6.7419 13.4649 6.83533C13.5025 6.92875 13.521 7.02882 13.5191 7.12952C13.5172 7.23022 13.4951 7.32949 13.454 7.42145C13.4129 7.51341 13.3538 7.5962 13.28 7.66479ZM19.5 7.13477V13.1348C19.4979 14.9243 18.786 16.64 17.5206 17.9054C16.2552 19.1708 14.5396 19.8826 12.75 19.8848H6.75C4.96044 19.8826 3.24478 19.1708 1.97937 17.9054C0.713958 16.64 0.0021172 14.9243 0 13.1348V7.13477C0.0021172 5.3452 0.713958 3.62955 1.97937 2.36414C3.24478 1.09872 4.96044 0.386883 6.75 0.384766H12.75C14.5396 0.386883 16.2552 1.09872 17.5206 2.36414C18.786 3.62955 19.4979 5.3452 19.5 7.13477ZM18 7.13477C17.9984 5.74287 17.4448 4.40842 16.4606 3.42419C15.4763 2.43997 14.1419 1.88635 12.75 1.88477H6.75C5.3581 1.88635 4.02365 2.43997 3.03943 3.42419C2.05521 4.40842 1.50159 5.74287 1.5 7.13477V13.1348C1.50159 14.5267 2.05521 15.8611 3.03943 16.8453C4.02365 17.8296 5.3581 18.3832 6.75 18.3848H12.75C14.1419 18.3832 15.4763 17.8296 16.4606 16.8453C17.4448 15.8611 17.9984 14.5267 18 13.1348V7.13477Z" fill="#484848"/>
</svg>
