<svg width="20" height="20" viewBox="0 0 20 20" fill="none" xmlns="http://www.w3.org/2000/svg">
<path d="M13 0.145264H7C5.27715 0.148699 3.62584 0.834736 2.40759 2.05298C1.18935 3.27122 0.503435 4.92241 0.5 6.64526V12.6453C0.503435 14.3681 1.18935 16.0193 2.40759 17.2375C3.62584 18.4558 5.27715 19.1418 7 19.1453H13C14.7229 19.1418 16.3742 18.4558 17.5924 17.2375C18.8106 16.0193 19.4966 14.3681 19.5 12.6453V6.64526C19.4966 4.92241 18.8106 3.27122 17.5924 2.05298C16.3742 0.834736 14.7229 0.148699 13 0.145264ZM13.71 11.9353C13.8974 12.1241 14.0025 12.3793 14.0025 12.6453C14.0025 12.9113 13.8974 13.1664 13.71 13.3552C13.5205 13.5411 13.2655 13.6453 13 13.6453C12.7345 13.6453 12.4795 13.5411 12.29 13.3552L10 11.0652L7.71002 13.3552C7.52046 13.5411 7.26551 13.6453 7 13.6453C6.73449 13.6453 6.47954 13.5411 6.28998 13.3552C6.10263 13.1664 5.9975 12.9113 5.9975 12.6453C5.9975 12.3793 6.10263 12.1241 6.28998 11.9353L8.58002 9.64526L6.28998 7.35522C6.10167 7.16692 5.99591 6.91157 5.99591 6.64526C5.99591 6.37896 6.10167 6.12361 6.28998 5.9353C6.47828 5.747 6.7337 5.64111 7 5.64111C7.2663 5.64111 7.52172 5.747 7.71002 5.9353L10 8.22534L12.29 5.9353C12.3832 5.84206 12.4939 5.76799 12.6157 5.71753C12.7375 5.66707 12.8681 5.64111 13 5.64111C13.1319 5.64111 13.2625 5.66707 13.3843 5.71753C13.5061 5.76799 13.6168 5.84206 13.71 5.9353C13.8033 6.02854 13.8772 6.13916 13.9277 6.26099C13.9781 6.38281 14.0041 6.5134 14.0041 6.64526C14.0041 6.77712 13.9781 6.90772 13.9277 7.02954C13.8772 7.15136 13.8033 7.26199 13.71 7.35522L11.42 9.64526L13.71 11.9353Z" fill="#5DB05A"/>
</svg>
