<svg width="20" height="20" viewBox="0 0 20 20" fill="none" xmlns="http://www.w3.org/2000/svg">
<path d="M20 4.10257C20 4.37458 19.8946 4.63538 19.7071 4.82773C19.5196 5.02007 19.2652 5.12821 19 5.12821H1C0.734784 5.12821 0.480444 5.02007 0.292908 4.82773C0.105371 4.63538 0 4.37458 0 4.10257C0 3.83055 0.105371 3.56975 0.292908 3.37741C0.480444 3.18506 0.734784 3.07692 1 3.07692H4.55902C4.76899 3.07698 4.97359 3.00928 5.14392 2.88337C5.31425 2.75745 5.44165 2.57962 5.508 2.3753L5.82397 1.403C5.95678 0.994037 6.21185 0.638484 6.55292 0.386621C6.89398 0.134758 7.30373 -0.000532704 7.724 2.03296e-06H12.283C12.7032 -0.000604342 13.1128 0.134452 13.4539 0.38612C13.7949 0.637788 14.05 0.993227 14.183 1.402L14.499 2.3763C14.5655 2.58043 14.693 2.75814 14.8633 2.88387C15.0336 3.00959 15.2382 3.07705 15.448 3.07692H19C19.2652 3.07692 19.5196 3.18506 19.7071 3.37741C19.8946 3.56975 20 3.83055 20 4.10257ZM17.3 7.21029L16.69 16.6461C16.6265 17.5548 16.2305 18.4053 15.5815 19.0272C14.9324 19.6491 14.0782 19.9966 13.19 20H6.81C5.92331 19.9971 5.07035 19.651 4.42151 19.0312C3.77267 18.4114 3.37572 17.5633 3.31 16.6564L2.70001 7.21029C2.6963 7.14138 2.70584 7.07233 2.72815 7.00721C2.75046 6.9421 2.7851 6.88207 2.83002 6.83068C2.87804 6.77958 2.93545 6.73891 2.99896 6.71074C3.06247 6.68257 3.13082 6.66756 3.20001 6.66667H16.8C16.8692 6.66761 16.9375 6.68257 17.001 6.71074C17.0645 6.7389 17.1219 6.77963 17.17 6.83068C17.2149 6.88204 17.2496 6.94209 17.2719 7.00721C17.2942 7.07234 17.3038 7.14137 17.3 7.21029ZM9 10.2564C9 9.9844 8.89463 9.7236 8.70709 9.53125C8.51956 9.33891 8.26522 9.23077 8 9.23077C7.73478 9.23077 7.48044 9.33891 7.29291 9.53125C7.10537 9.7236 7 9.9844 7 10.2564V15.3846C7 15.6566 7.10537 15.9174 7.29291 16.1098C7.48044 16.3021 7.73478 16.4103 8 16.4103C8.26522 16.4103 8.51956 16.3021 8.70709 16.1098C8.89463 15.9174 9 15.6566 9 15.3846V10.2564ZM13 10.2564C13 9.9844 12.8946 9.7236 12.7071 9.53125C12.5196 9.33891 12.2652 9.23077 12 9.23077C11.7348 9.23077 11.4804 9.33891 11.2929 9.53125C11.1054 9.7236 11 9.9844 11 10.2564V15.3846C11 15.6566 11.1054 15.9174 11.2929 16.1098C11.4804 16.3021 11.7348 16.4103 12 16.4103C12.2652 16.4103 12.5196 16.3021 12.7071 16.1098C12.8946 15.9174 13 15.6566 13 15.3846V10.2564Z" fill="white"/>
</svg>
