<svg width="20" height="20" viewBox="0 0 20 20" fill="none" xmlns="http://www.w3.org/2000/svg">
<path d="M18.75 3.38477H15.191C14.9287 3.385 14.673 3.30258 14.4601 3.14929C14.2472 2.996 14.088 2.77962 14.005 2.53076L13.689 1.58179C13.5737 1.23257 13.3512 0.928582 13.0532 0.713135C12.7551 0.497688 12.3967 0.381689 12.029 0.381714H7.46997C7.10218 0.381536 6.74374 0.497544 6.44568 0.713013C6.14761 0.928481 5.92516 1.23249 5.81 1.58179L5.49402 2.52979C5.41123 2.77883 5.25208 2.99545 5.03918 3.14893C4.82629 3.3024 4.57043 3.38493 4.30798 3.38477H0.75C0.551088 3.38477 0.360318 3.46384 0.219666 3.60449C0.0790132 3.74514 0 3.93585 0 4.13477C0 4.33368 0.0790132 4.52439 0.219666 4.66504C0.360318 4.80569 0.551088 4.88477 0.75 4.88477H2.04999L2.81702 16.3848C2.88252 17.3332 3.30499 18.2217 3.99933 18.8711C4.69367 19.5205 5.6083 19.8827 6.55902 19.8848H12.946C13.8966 19.8825 14.8111 19.5202 15.5054 18.8708C16.1997 18.2215 16.6223 17.3331 16.688 16.3848L17.455 4.88477H18.75C18.9489 4.88477 19.1397 4.80569 19.2803 4.66504C19.421 4.52439 19.5 4.33368 19.5 4.13477C19.5 3.93585 19.421 3.74514 19.2803 3.60449C19.1397 3.46384 18.9489 3.38477 18.75 3.38477ZM7.23297 2.05579C7.24955 2.00603 7.28138 1.9627 7.32391 1.93201C7.36645 1.90132 7.41752 1.88481 7.46997 1.88477H12.029C12.0813 1.88474 12.1323 1.90114 12.1749 1.93164C12.2174 1.96214 12.2492 2.00524 12.266 2.05481L12.582 3.00378C12.626 3.13434 12.6798 3.26137 12.743 3.38379H6.755C6.8182 3.26103 6.87204 3.13369 6.91602 3.00281L7.23297 2.05579ZM15.188 16.2848C15.1488 16.8539 14.8953 17.3869 14.4788 17.7766C14.0622 18.1663 13.5134 18.3836 12.943 18.3848H6.55603C5.9856 18.3836 5.43678 18.1663 5.0202 17.7766C4.60362 17.3869 4.35018 16.8539 4.31097 16.2848L3.55103 4.88477H4.30798C4.41404 4.88252 4.5199 4.87415 4.625 4.85974C4.66554 4.87159 4.70705 4.87998 4.74902 4.88477H14.749C14.791 4.88004 14.8325 4.87165 14.873 4.85974C14.9781 4.87413 15.0839 4.8825 15.19 4.88477H15.947L15.188 16.2848ZM12.5 9.13477V14.1348C12.5 14.3337 12.421 14.5244 12.2803 14.665C12.1397 14.8057 11.9489 14.8848 11.75 14.8848C11.5511 14.8848 11.3603 14.8057 11.2197 14.665C11.079 14.5244 11 14.3337 11 14.1348V9.13477C11 8.93585 11.079 8.74514 11.2197 8.60449C11.3603 8.46384 11.5511 8.38477 11.75 8.38477C11.9489 8.38477 12.1397 8.46384 12.2803 8.60449C12.421 8.74514 12.5 8.93585 12.5 9.13477ZM8.5 9.13477V14.1348C8.5 14.3337 8.42099 14.5244 8.28033 14.665C8.13968 14.8057 7.94891 14.8848 7.75 14.8848C7.55109 14.8848 7.36032 14.8057 7.21967 14.665C7.07901 14.5244 7 14.3337 7 14.1348V9.13477C7 8.93585 7.07901 8.74514 7.21967 8.60449C7.36032 8.46384 7.55109 8.38477 7.75 8.38477C7.94891 8.38477 8.13968 8.46384 8.28033 8.60449C8.42099 8.74514 8.5 8.93585 8.5 9.13477Z" fill="#484848"/>
</svg>
