<svg width="20" height="21" viewBox="0 0 20 21" fill="none" xmlns="http://www.w3.org/2000/svg">
<path d="M20 4.64527C20 4.91048 19.8946 5.16476 19.7071 5.3523C19.5196 5.53983 19.2652 5.64527 19 5.64527H1C0.734784 5.64527 0.480444 5.53983 0.292908 5.3523C0.105371 5.16476 0 4.91048 0 4.64527C0 4.38005 0.105371 4.12577 0.292908 3.93823C0.480444 3.7507 0.734784 3.64527 1 3.64527H4.55902C4.76899 3.64532 4.97359 3.57931 5.14392 3.45654C5.31425 3.33378 5.44165 3.16039 5.508 2.96118L5.82397 2.01319C5.95678 1.61445 6.21185 1.26779 6.55292 1.02222C6.89398 0.776652 7.30373 0.644744 7.724 0.645266H12.283C12.7032 0.644674 13.1128 0.776354 13.4539 1.02173C13.7949 1.26711 14.05 1.61366 14.183 2.01221L14.499 2.96216C14.5655 3.16118 14.693 3.33445 14.8633 3.45703C15.0336 3.57961 15.2382 3.64539 15.448 3.64527H19C19.2652 3.64527 19.5196 3.7507 19.7071 3.93823C19.8946 4.12577 20 4.38005 20 4.64527ZM17.3 7.67529L16.69 16.8752C16.6265 17.7612 16.2305 18.5904 15.5815 19.1968C14.9324 19.8032 14.0782 20.142 13.19 20.1453H6.81C5.92331 20.1424 5.07035 19.805 4.42151 19.2007C3.77267 18.5963 3.37572 17.7695 3.31 16.8853L2.70001 7.67529C2.6963 7.6081 2.70584 7.54078 2.72815 7.4773C2.75046 7.41381 2.7851 7.35528 2.83002 7.30518C2.87804 7.25536 2.93545 7.2157 2.99896 7.18823C3.06247 7.16077 3.13082 7.14613 3.20001 7.14527H16.8C16.8692 7.14619 16.9375 7.16077 17.001 7.18823C17.0645 7.2157 17.1219 7.2554 17.17 7.30518C17.2149 7.35525 17.2496 7.4138 17.2719 7.4773C17.2942 7.54079 17.3038 7.6081 17.3 7.67529ZM9 10.6453C9 10.38 8.89463 10.1258 8.70709 9.93823C8.51956 9.7507 8.26522 9.64527 8 9.64527C7.73478 9.64527 7.48044 9.7507 7.29291 9.93823C7.10537 10.1258 7 10.38 7 10.6453V15.6453C7 15.9105 7.10537 16.1648 7.29291 16.3523C7.48044 16.5398 7.73478 16.6453 8 16.6453C8.26522 16.6453 8.51956 16.5398 8.70709 16.3523C8.89463 16.1648 9 15.9105 9 15.6453V10.6453ZM13 10.6453C13 10.38 12.8946 10.1258 12.7071 9.93823C12.5196 9.7507 12.2652 9.64527 12 9.64527C11.7348 9.64527 11.4804 9.7507 11.2929 9.93823C11.1054 10.1258 11 10.38 11 10.6453V15.6453C11 15.9105 11.1054 16.1648 11.2929 16.3523C11.4804 16.5398 11.7348 16.6453 12 16.6453C12.2652 16.6453 12.5196 16.5398 12.7071 16.3523C12.8946 16.1648 13 15.9105 13 15.6453V10.6453Z" fill="#5DB05A"/>
</svg>
