<svg width="16" height="20" viewBox="0 0 16 20" fill="none" xmlns="http://www.w3.org/2000/svg">
<path d="M10.75 7.38474H4.75C4.664 7.38474 4.585 7.40576 4.5 7.40976V5.13474C4.50106 4.27311 4.8438 3.44707 5.45306 2.8378C6.06233 2.22854 6.88837 1.8858 7.75 1.88474C8.48512 1.88484 9.2006 2.12199 9.79022 2.56101C10.3798 3.00003 10.8122 3.61752 11.023 4.32175C11.0451 4.4198 11.0867 4.51241 11.1453 4.59409C11.2038 4.67577 11.2782 4.74486 11.364 4.79728C11.4497 4.84969 11.5451 4.88434 11.6445 4.8992C11.7439 4.91406 11.8453 4.9088 11.9427 4.88376C12.04 4.85872 12.1313 4.81443 12.2112 4.75345C12.2911 4.69247 12.3579 4.61607 12.4078 4.52878C12.4576 4.44149 12.4895 4.34508 12.5013 4.24527C12.5132 4.14547 12.5049 4.04428 12.477 3.94773C12.1864 2.91902 11.567 2.01375 10.7134 1.37033C9.85976 0.726915 8.81894 0.380759 7.75 0.384739C6.49071 0.386326 5.28346 0.88729 4.39301 1.77774C3.50255 2.6682 3.00159 3.87545 3 5.13474V7.72873C2.11653 8.0787 1.35837 8.68569 0.823547 9.47116C0.288727 10.2566 0.00184181 11.1845 0 12.1347V15.1347C0.00158768 16.394 0.502551 17.6013 1.39301 18.4918C2.28346 19.3822 3.49071 19.8832 4.75 19.8847H10.75C12.0093 19.8832 13.2165 19.3822 14.107 18.4918C14.9974 17.6013 15.4984 16.394 15.5 15.1347V12.1347C15.4984 10.8754 14.9974 9.6682 14.107 8.77774C13.2165 7.88729 12.0093 7.38633 10.75 7.38474ZM14 15.1347C13.9989 15.9964 13.6562 16.8223 13.0469 17.4316C12.4377 18.0409 11.6116 18.3837 10.75 18.3847H4.75C3.88837 18.3837 3.06233 18.0409 2.45306 17.4316C1.8438 16.8223 1.50106 15.9964 1.5 15.1347V12.1347C1.50106 11.2731 1.8438 10.4471 2.45306 9.8378C3.06233 9.22854 3.88837 8.8858 4.75 8.88474H10.75C11.6116 8.8858 12.4377 9.22854 13.0469 9.8378C13.6562 10.4471 13.9989 11.2731 14 12.1347V15.1347ZM8.5 13.1347V14.1347C8.5 14.3337 8.42099 14.5244 8.28033 14.665C8.13968 14.8057 7.94891 14.8847 7.75 14.8847C7.55109 14.8847 7.36032 14.8057 7.21967 14.665C7.07901 14.5244 7 14.3337 7 14.1347V13.1347C7 12.9358 7.07901 12.7451 7.21967 12.6045C7.36032 12.4638 7.55109 12.3847 7.75 12.3847C7.94891 12.3847 8.13968 12.4638 8.28033 12.6045C8.42099 12.7451 8.5 12.9358 8.5 13.1347Z" fill="#484848"/>
</svg>
