<svg width="16" height="21" viewBox="0 0 16 21" fill="none" xmlns="http://www.w3.org/2000/svg">
<path d="M11 8.14528H5V5.64528C5.00237 4.85036 5.31919 4.08872 5.88129 3.52663C6.44338 2.96453 7.20508 2.64765 8 2.64528C8.67982 2.64477 9.34172 2.86328 9.88751 3.26857C10.4333 3.67386 10.834 4.24435 11.03 4.89528C11.0629 5.02266 11.1204 5.14221 11.1995 5.24733C11.2786 5.35245 11.3776 5.44097 11.4909 5.50783C11.6042 5.57469 11.7295 5.61881 11.8597 5.63722C11.99 5.65564 12.1226 5.64808 12.25 5.61525C12.3774 5.58242 12.4971 5.5249 12.6022 5.44582C12.7073 5.36674 12.7958 5.2676 12.8627 5.15431C12.9295 5.04103 12.9734 4.91567 12.9918 4.78542C13.0102 4.65517 13.0028 4.52266 12.97 4.39528C12.6642 3.31353 12.013 2.36142 11.1157 1.68434C10.2183 1.00727 9.12413 0.642404 8 0.645281C6.67392 0.645281 5.40216 1.17195 4.46448 2.10964C3.5268 3.04732 3 4.3192 3 5.64528V8.63527C2.25115 9.00448 1.6203 9.57544 1.17859 10.284C0.736875 10.9925 0.501855 11.8104 0.5 12.6453V15.6453C0.501851 16.8382 0.976556 17.9817 1.82007 18.8252C2.66358 19.6687 3.80709 20.1434 5 20.1453H11C12.1929 20.1434 13.3364 19.6687 14.1799 18.8252C15.0234 17.9817 15.4981 16.8382 15.5 15.6453V12.6453C15.4981 11.4524 15.0234 10.3089 14.1799 9.46535C13.3364 8.62184 12.1929 8.14713 11 8.14528ZM9 14.6453C9 14.9105 8.89463 15.1648 8.70709 15.3523C8.51956 15.5398 8.26522 15.6453 8 15.6453C7.73478 15.6453 7.48044 15.5398 7.29291 15.3523C7.10537 15.1648 7 14.9105 7 14.6453V13.6453C7 13.3801 7.10537 13.1258 7.29291 12.9382C7.48044 12.7507 7.73478 12.6453 8 12.6453C8.26522 12.6453 8.51956 12.7507 8.70709 12.9382C8.89463 13.1258 9 13.3801 9 13.6453V14.6453Z" fill="#5DB05A"/>
</svg>
