<svg width="20" height="18" viewBox="0 0 20 18" fill="none" xmlns="http://www.w3.org/2000/svg">
<path d="M6.4812 4.66479C6.41151 4.59514 6.35626 4.51241 6.31854 4.42139C6.28082 4.33036 6.26141 4.23281 6.26141 4.13428C6.26141 4.03575 6.28082 3.93819 6.31854 3.84717C6.35626 3.75614 6.41151 3.67341 6.4812 3.60376L9.4812 0.60376C9.55085 0.534065 9.63358 0.478761 9.72461 0.44104C9.81563 0.403319 9.91319 0.383911 10.0117 0.383911C10.1103 0.383911 10.2078 0.403319 10.2988 0.44104C10.3899 0.478761 10.4726 0.534065 10.5422 0.60376L13.5422 3.60376C13.6139 3.67291 13.6711 3.75568 13.7104 3.84717C13.7498 3.93865 13.7705 4.03701 13.7714 4.1366C13.7723 4.23618 13.7534 4.33493 13.7158 4.42712C13.6781 4.51931 13.6224 4.60313 13.552 4.67358C13.4816 4.74404 13.3979 4.79977 13.3058 4.83752C13.2136 4.87528 13.1148 4.89425 13.0153 4.89343C12.9157 4.89261 12.8173 4.87203 12.7258 4.83276C12.6342 4.7935 12.5515 4.73639 12.4822 4.66479L10.7622 2.94482V8.13477C10.7622 8.33368 10.6832 8.52439 10.5425 8.66504C10.4019 8.80569 10.2111 8.88477 10.0122 8.88477C9.81329 8.88477 9.62253 8.80569 9.48187 8.66504C9.34122 8.52439 9.26221 8.33368 9.26221 8.13477V2.9458L7.54224 4.66577C7.40131 4.80615 7.21045 4.88483 7.01154 4.88464C6.81262 4.88446 6.62186 4.80544 6.4812 4.66479ZM15.0112 7.38477C14.8123 7.38477 14.6215 7.46384 14.4809 7.60449C14.3402 7.74514 14.2612 7.93585 14.2612 8.13477C14.2612 8.33368 14.3402 8.52439 14.4809 8.66504C14.6215 8.80569 14.8123 8.88477 15.0112 8.88477C15.8729 8.88582 16.6989 9.22863 17.3082 9.83789C17.9174 10.4472 18.2602 11.2731 18.2612 12.1348V13.1348C18.2602 13.9964 17.9174 14.8224 17.3082 15.4316C16.6989 16.0409 15.8729 16.3837 15.0112 16.3848H5.01123C4.1496 16.3837 3.32356 16.0409 2.71429 15.4316C2.10503 14.8224 1.76229 13.9964 1.76123 13.1348V12.1348C1.76229 11.2731 2.10503 10.4472 2.71429 9.83789C3.32356 9.22863 4.1496 8.88582 5.01123 8.88477C5.21014 8.88477 5.40091 8.80569 5.54156 8.66504C5.68222 8.52439 5.76123 8.33368 5.76123 8.13477C5.76123 7.93585 5.68222 7.74514 5.54156 7.60449C5.40091 7.46384 5.21014 7.38477 5.01123 7.38477C3.75194 7.38635 2.54469 7.88726 1.65424 8.77771C0.763782 9.66816 0.262818 10.8755 0.26123 12.1348V13.1348C0.262818 14.3941 0.763782 15.6014 1.65424 16.4918C2.54469 17.3823 3.75194 17.8832 5.01123 17.8848H15.0112C16.2705 17.8832 17.4778 17.3823 18.3682 16.4918C19.2587 15.6014 19.7596 14.3941 19.7612 13.1348V12.1348C19.7596 10.8755 19.2587 9.66816 18.3682 8.77771C17.4778 7.88726 16.2705 7.38635 15.0112 7.38477ZM16.0112 12.1348C16.0112 11.937 15.9526 11.7437 15.8427 11.5792C15.7328 11.4148 15.5766 11.2866 15.3939 11.2109C15.2112 11.1353 15.0101 11.1153 14.8162 11.1539C14.6222 11.1925 14.444 11.2878 14.3041 11.4276C14.1643 11.5675 14.069 11.7457 14.0305 11.9397C13.9919 12.1337 14.0117 12.3347 14.0873 12.5175C14.163 12.7002 14.2912 12.8563 14.4557 12.9662C14.6201 13.0761 14.8134 13.1348 15.0112 13.1348C15.2764 13.1348 15.5308 13.0295 15.7183 12.8419C15.9059 12.6544 16.0112 12.4 16.0112 12.1348Z" fill="#484848"/>
</svg>
