<svg width="20" height="19" viewBox="0 0 20 19" fill="none" xmlns="http://www.w3.org/2000/svg">
<path d="M15.2598 8.01831H12.7798V8.54834C12.7798 9.21138 12.5164 9.84732 12.0475 10.3162C11.5787 10.785 10.9428 11.0483 10.2798 11.0483C9.61674 11.0483 8.98086 10.785 8.51202 10.3162C8.04318 9.84732 7.77979 9.21138 7.77979 8.54834V8.01831H5.25977C4.06686 8.02016 2.92335 8.49487 2.07983 9.33838C1.23632 10.1819 0.761617 11.3254 0.759766 12.5183V13.5183C0.761617 14.7112 1.23632 15.8547 2.07983 16.6982C2.92335 17.5418 4.06686 18.0165 5.25977 18.0183H15.2598C16.4532 18.0183 17.5979 17.5441 18.4418 16.7002C19.2857 15.8563 19.7598 14.7118 19.7598 13.5183V12.5183C19.7598 11.3248 19.2857 10.1803 18.4418 9.33643C17.5979 8.49251 16.4532 8.01831 15.2598 8.01831ZM15.2598 13.7683C15.013 13.7663 14.7723 13.6913 14.5681 13.5527C14.3638 13.4142 14.2051 13.2183 14.1121 12.9897C14.019 12.7612 13.9957 12.5101 14.045 12.2683C14.0944 12.0265 14.2142 11.8047 14.3894 11.6309C14.5646 11.457 14.7873 11.3392 15.0295 11.2917C15.2717 11.2443 15.5226 11.2696 15.7504 11.3645C15.9783 11.4594 16.1728 11.6196 16.3098 11.825C16.4467 12.0303 16.5198 12.2715 16.5198 12.5183C16.5209 12.6836 16.4889 12.8474 16.4258 13.0002C16.3628 13.153 16.2699 13.2918 16.1525 13.4082C16.0352 13.5246 15.8957 13.6164 15.7424 13.6782C15.5891 13.7401 15.4251 13.7707 15.2598 13.7683ZM13.9897 5.2583C13.8024 5.44455 13.549 5.54907 13.2848 5.54907C13.0206 5.54907 12.7671 5.44455 12.5798 5.2583L11.2798 3.95825V8.54834C11.2798 8.81356 11.1744 9.06783 10.9869 9.25537C10.7993 9.44291 10.545 9.54834 10.2798 9.54834C10.0146 9.54834 9.76017 9.44291 9.57263 9.25537C9.3851 9.06783 9.27979 8.81356 9.27979 8.54834V3.95825L7.98975 5.2583C7.80144 5.44528 7.54661 5.54977 7.28125 5.54883C7.01589 5.54789 6.76175 5.44172 6.57477 5.25342C6.38779 5.06511 6.28324 4.81004 6.28418 4.54468C6.28512 4.27931 6.39147 4.02536 6.57977 3.83838L9.57977 0.838379C9.76714 0.652128 10.0206 0.547607 10.2848 0.547607C10.549 0.547607 10.8024 0.652128 10.9897 0.838379L13.9897 3.83838C14.1771 4.02719 14.2822 4.28235 14.2822 4.54834C14.2822 4.81433 14.1771 5.06949 13.9897 5.2583Z" fill="#5DB05A"/>
</svg>
