<svg width="20" height="18" viewBox="0 0 20 18" fill="none" xmlns="http://www.w3.org/2000/svg">
<path d="M19.2598 14.6781V15.1881C19.2614 15.9229 19.0107 16.6359 18.5498 17.2081C18.4597 17.3158 18.3462 17.4017 18.218 17.4589C18.0897 17.5161 17.9501 17.5431 17.8098 17.5382H15.1298C15.5424 16.8238 15.7597 16.0132 15.7598 15.1881V14.6781C15.7643 13.2851 15.2552 11.9396 14.3298 10.8983C14.3959 10.8744 14.4595 10.8442 14.5198 10.8082C14.9983 10.5438 15.5587 10.4688 16.0898 10.5983C16.9973 10.8278 17.8021 11.354 18.3764 12.0931C18.9507 12.8323 19.2617 13.742 19.2598 14.6781ZM12.2598 0.538214C11.947 0.535732 11.635 0.569384 11.3298 0.638312C11.9383 1.19838 12.424 1.87852 12.7563 2.63587C13.0885 3.39322 13.2601 4.2112 13.2601 5.03821C13.2601 5.86523 13.0885 6.68321 12.7563 7.44056C12.424 8.1979 11.9383 8.87805 11.3298 9.43812C11.635 9.50704 11.947 9.5407 12.2598 9.53821C13.4533 9.53821 14.5979 9.06401 15.4418 8.2201C16.2857 7.37618 16.7598 6.23169 16.7598 5.03821C16.7598 3.84474 16.2857 2.70024 15.4418 1.85633C14.5979 1.01242 13.4533 0.538214 12.2598 0.538214ZM7.25982 0.538214C6.36981 0.538214 5.49978 0.802048 4.75976 1.29651C4.01974 1.79098 3.44295 2.49378 3.10235 3.31605C2.76176 4.13831 2.67268 5.04323 2.84631 5.91614C3.01994 6.78906 3.44848 7.59076 4.07782 8.2201C4.70715 8.84943 5.50898 9.27815 6.38189 9.45179C7.25481 9.62542 8.1596 9.53628 8.98187 9.19568C9.80414 8.85509 10.507 8.27823 11.0015 7.53821C11.4959 6.79819 11.7598 5.92823 11.7598 5.03821C11.758 3.84531 11.2833 2.70179 10.4398 1.85828C9.59624 1.01477 8.45273 0.540065 7.25982 0.538214ZM11.0898 10.5983C10.916 10.5586 10.7382 10.5384 10.5598 10.5382C10.1954 10.5351 9.83667 10.6282 9.51983 10.8082C8.82871 11.1807 8.05617 11.3766 7.27105 11.3783C6.48594 11.38 5.71261 11.1877 5.01983 10.8182C4.69205 10.6373 4.32424 10.541 3.94982 10.5382C3.79521 10.5395 3.64108 10.5563 3.4898 10.5883C2.56753 10.8029 1.74562 11.3246 1.15875 12.0678C0.571875 12.8109 0.254891 13.7312 0.259822 14.6781V15.1881C0.258251 15.9229 0.508898 16.6359 0.969844 17.2081C1.05997 17.3158 1.17346 17.4017 1.30169 17.4589C1.42993 17.5161 1.56951 17.5431 1.70983 17.5382H12.8098C12.9501 17.5431 13.0897 17.5161 13.218 17.4589C13.3462 17.4017 13.4597 17.3158 13.5498 17.2081C14.0107 16.6359 14.2614 15.9229 14.2598 15.1881V14.6781C14.2617 13.742 13.9507 12.8323 13.3764 12.0931C12.8021 11.354 11.9973 10.8278 11.0898 10.5983Z" fill="#5DB05A"/>
</svg>
