<svg width="16" height="20" viewBox="0 0 16 20" fill="none" xmlns="http://www.w3.org/2000/svg">
<path d="M3.25989 5.03824C3.25989 4.04934 3.55314 3.08266 4.10254 2.26041C4.65195 1.43816 5.43287 0.797295 6.3465 0.418857C7.26013 0.0404187 8.26545 -0.058493 9.23536 0.134433C10.2053 0.327359 11.0962 0.803335 11.7954 1.5026C12.4947 2.20186 12.9709 3.093 13.1638 4.0629C13.3567 5.0328 13.2577 6.03794 12.8793 6.95157C12.5008 7.8652 11.86 8.64606 11.0377 9.19547C10.2155 9.74487 9.2488 10.0382 8.25989 10.0382C6.9343 10.0367 5.66348 9.50927 4.72614 8.57193C3.7888 7.63459 3.26148 6.36384 3.25989 5.03824ZM12.3769 11.1093C11.8127 10.9682 11.216 11.0461 10.7069 11.3273C9.95816 11.7425 9.11605 11.9604 8.25989 11.9604C7.40373 11.9604 6.56163 11.7425 5.81287 11.3273C5.30332 11.0475 4.70718 10.9697 4.14289 11.1093C3.16908 11.3604 2.3072 11.9297 1.69422 12.727C1.08124 13.5242 0.752349 14.5036 0.759893 15.5092V16.5202C0.758988 17.1555 0.929271 17.7796 1.25287 18.3263C1.38741 18.5462 1.57638 18.7276 1.80146 18.8532C2.02654 18.9788 2.28016 19.0441 2.53791 19.0431H13.9809C14.2389 19.0447 14.4928 18.9795 14.718 18.8537C14.9432 18.7278 15.132 18.5458 15.2659 18.3254C15.5887 17.7804 15.759 17.1587 15.7589 16.5253V15.5143C15.768 14.5079 15.4399 13.5272 14.827 12.7289C14.214 11.9306 13.3515 11.3605 12.3769 11.1093Z" fill="#5DB05A"/>
</svg>
