<svg width="21" height="19" viewBox="0 0 21 19" fill="none" xmlns="http://www.w3.org/2000/svg">
<path d="M18.6098 4.24832C18.6095 5.03849 18.3559 5.80778 17.8861 6.44314C17.4163 7.0785 16.7552 7.54647 15.9998 7.77835C16.1728 7.21456 16.2604 6.62808 16.2598 6.03836C16.2599 4.99956 15.9899 3.9786 15.4762 3.07571C14.9625 2.17281 14.2229 1.41912 13.3298 0.888453C13.825 0.658792 14.3641 0.539277 14.9099 0.538356C15.8924 0.539946 16.8341 0.931765 17.5279 1.62747C18.2217 2.32317 18.6109 3.26577 18.6098 4.24832ZM17.8598 8.8384C17.4397 8.72079 16.9901 8.77464 16.6098 8.98831C16.1822 9.22533 15.7077 9.36546 15.2198 9.39846C15.0179 9.70623 14.7832 9.99108 14.5198 10.2483C15.4645 10.5592 16.3056 11.1238 16.951 11.8804C17.5965 12.637 18.0216 13.5565 18.1798 14.5384H18.8698C19.0914 14.5415 19.3098 14.4845 19.5017 14.3736C19.6936 14.2626 19.8519 14.1021 19.9598 13.9085C20.1583 13.5361 20.2614 13.1202 20.2598 12.6983V11.9883C20.2642 11.2718 20.0311 10.5741 19.5969 10.0042C19.1626 9.43424 18.5518 9.02432 17.8598 8.8384ZM7.18982 0.888453C6.6947 0.658792 6.1556 0.539277 5.6098 0.538356C4.72159 0.535044 3.86184 0.851291 3.18756 1.42947C2.51328 2.00765 2.06949 2.8092 1.93726 3.68753C1.80502 4.56585 1.99319 5.46233 2.46735 6.2134C2.9415 6.96448 3.67002 7.51999 4.51984 7.77835C4.34686 7.21456 4.25921 6.62808 4.25983 6.03836C4.25973 4.99956 4.52977 3.9786 5.04346 3.07571C5.55714 2.17281 6.2968 1.41912 7.18982 0.888453ZM5.99982 10.2483C5.73649 9.99108 5.50178 9.70623 5.29981 9.39846C4.812 9.36546 4.33748 9.22533 3.90985 8.98831C3.52952 8.77464 3.07993 8.72079 2.65985 8.8384C1.96788 9.02432 1.35702 9.43424 0.922791 10.0042C0.488558 10.5741 0.255406 11.2718 0.259827 11.9883V12.6983C0.25822 13.1202 0.361286 13.5362 0.559815 13.9085C0.666588 14.1009 0.823248 14.2607 1.01331 14.3716C1.20336 14.4825 1.41981 14.5401 1.63983 14.5384H2.33984C2.49807 13.5565 2.92312 12.637 3.5686 11.8804C4.21409 11.1238 5.05514 10.5592 5.99982 10.2483ZM13.8398 11.6084C13.6664 11.5648 13.4886 11.5413 13.3098 11.5384C12.963 11.5392 12.6223 11.6287 12.3198 11.7984C11.6889 12.1461 10.9802 12.3284 10.2598 12.3284C9.53943 12.3284 8.83076 12.1461 8.19983 11.7984C7.89739 11.6287 7.55661 11.5392 7.20984 11.5384C7.03107 11.5413 6.85321 11.5649 6.67981 11.6084C5.83934 11.8363 5.09761 12.3351 4.56964 13.0276C4.04167 13.7201 3.757 14.5674 3.75983 15.4383V16.3084C3.76014 16.8182 3.88729 17.3199 4.12982 17.7683C4.25602 18.0049 4.44516 18.202 4.67633 18.3379C4.9075 18.4738 5.17171 18.5432 5.43982 18.5384H15.0798C15.3479 18.5432 15.6122 18.4738 15.8433 18.3379C16.0745 18.202 16.2636 18.0049 16.3898 17.7683C16.6324 17.3199 16.7595 16.8182 16.7598 16.3084V15.4383C16.7626 14.5674 16.478 13.7201 15.95 13.0276C15.422 12.3351 14.6803 11.8363 13.8398 11.6084ZM14.7598 6.03836C14.7598 5.14834 14.4959 4.27838 14.0015 3.53836C13.507 2.79833 12.8041 2.22148 11.9819 1.88089C11.1596 1.54029 10.2548 1.45115 9.3819 1.62478C8.50898 1.79842 7.70716 2.22713 7.07782 2.85647C6.44848 3.48581 6.01995 4.28751 5.84631 5.16043C5.67268 6.03334 5.76176 6.93826 6.10236 7.76052C6.44295 8.58279 7.01974 9.28559 7.75977 9.78006C8.49979 10.2745 9.36981 10.5384 10.2598 10.5384C11.4533 10.5384 12.5979 10.0642 13.4418 9.22024C14.2857 8.37633 14.7598 7.23183 14.7598 6.03836Z" fill="#5DB05A"/>
</svg>
