<svg width="20" height="18" viewBox="0 0 20 18" fill="none" xmlns="http://www.w3.org/2000/svg">
<path d="M10.0113 9.88474C10.9508 9.88474 11.8691 9.60614 12.6503 9.0842C13.4314 8.56227 14.0402 7.82044 14.3997 6.95249C14.7592 6.08454 14.8533 5.12951 14.67 4.2081C14.4868 3.28669 14.0344 2.44027 13.3701 1.77597C12.7058 1.11167 11.8594 0.659327 10.938 0.476048C10.0166 0.292768 9.06149 0.386795 8.19355 0.746311C7.3256 1.10583 6.58377 1.71469 6.06183 2.49582C5.5399 3.27696 5.26129 4.19528 5.26129 5.13474C5.26288 6.39403 5.76385 7.60134 6.6543 8.49179C7.54475 9.38225 8.752 9.88315 10.0113 9.88474ZM10.0113 1.88474C10.6541 1.88474 11.2824 2.07535 11.8169 2.43247C12.3514 2.78958 12.7679 3.2971 13.0139 3.89096C13.2599 4.48482 13.3243 5.13833 13.1989 5.76877C13.0735 6.39921 12.7639 6.97831 12.3094 7.43283C11.8549 7.88736 11.2758 8.19684 10.6453 8.32224C10.0149 8.44764 9.36144 8.38329 8.76758 8.1373C8.17372 7.89132 7.66614 7.47486 7.30902 6.9404C6.95191 6.40594 6.76129 5.77753 6.76129 5.13474C6.76235 4.27311 7.10509 3.44713 7.71436 2.83786C8.32362 2.2286 9.14967 1.8858 10.0113 1.88474ZM16.7613 14.5348V15.4007C16.7623 16.2246 16.4588 17.0199 15.9093 17.6338C15.7763 17.7807 15.5906 17.869 15.3928 17.8795C15.1949 17.8899 15.0009 17.8217 14.8532 17.6895C14.7055 17.5574 14.6161 17.3722 14.6045 17.1744C14.5929 16.9766 14.6601 16.7822 14.7913 16.6338C15.094 16.2945 15.261 15.8554 15.2603 15.4007V14.5348C15.266 13.9352 15.0709 13.3509 14.7061 12.875C14.3413 12.3991 13.8278 12.059 13.2473 11.9088C13.0581 11.8599 12.8574 11.8853 12.6863 11.9797C11.8682 12.4332 10.9482 12.6712 10.0128 12.6712C9.07743 12.6712 8.15739 12.4332 7.3393 11.9797C7.16731 11.8829 6.96476 11.8557 6.77332 11.9038C6.19263 12.0542 5.67893 12.3944 5.31397 12.8705C4.94901 13.3465 4.75374 13.9309 4.75928 14.5307V15.3967C4.7586 15.8514 4.92557 16.2904 5.22827 16.6297C5.35952 16.7782 5.4267 16.9726 5.4151 17.1704C5.40351 17.3682 5.31408 17.5534 5.16639 17.6855C5.01869 17.8176 4.82472 17.8859 4.62683 17.8755C4.42895 17.865 4.24326 17.7767 4.11029 17.6297C3.56091 17.0158 3.25753 16.2206 3.2583 15.3967V14.5307C3.25264 13.5969 3.55926 12.6878 4.12946 11.9482C4.69966 11.2086 5.50069 10.6808 6.40528 10.4487C6.96943 10.3068 7.56658 10.387 8.07331 10.6727C8.66669 11.0004 9.33345 11.1723 10.0113 11.1723C10.6891 11.1723 11.3559 11.0004 11.9493 10.6727C12.4545 10.3887 13.0497 10.3103 13.6113 10.4537C14.5165 10.6847 15.3184 11.2121 15.8893 11.9516C16.4601 12.6912 16.7671 13.6005 16.7613 14.5348ZM15.3043 1.05576C15.3707 0.868268 15.5087 0.714824 15.6882 0.629124C15.8676 0.543423 16.0738 0.532452 16.2613 0.598728C16.8753 0.815747 17.4222 1.18891 17.8481 1.68149C18.2741 2.17408 18.5644 2.76917 18.6906 3.40805C18.8167 4.04694 18.7743 4.70765 18.5675 5.32517C18.3607 5.94268 17.9967 6.49569 17.5113 6.92978C17.438 6.99612 17.3523 7.04732 17.2592 7.08042C17.166 7.11352 17.0672 7.12787 16.9685 7.12265C16.8698 7.11744 16.7731 7.09275 16.6839 7.05002C16.5948 7.0073 16.5149 6.94731 16.449 6.87363C16.3831 6.79995 16.3324 6.71404 16.2999 6.6207C16.2673 6.52736 16.2536 6.4285 16.2593 6.32981C16.2651 6.23112 16.2904 6.13453 16.3336 6.04563C16.3769 5.95673 16.4372 5.87722 16.5113 5.81174C16.8026 5.55119 17.0211 5.21922 17.1452 4.84861C17.2693 4.47799 17.2947 4.08154 17.2191 3.69809C17.1434 3.31465 16.9692 2.95739 16.7136 2.66172C16.458 2.36604 16.1298 2.14202 15.7613 2.01169C15.574 1.94536 15.4208 1.8075 15.3351 1.62827C15.2494 1.44904 15.2384 1.24314 15.3043 1.05576ZM19.7613 11.9677V12.6898C19.7613 12.8887 19.6823 13.0794 19.5416 13.2201C19.401 13.3607 19.2102 13.4398 19.0113 13.4398C18.8124 13.4398 18.6216 13.3607 18.481 13.2201C18.3403 13.0794 18.2613 12.8887 18.2613 12.6898V11.9677C18.2659 11.496 18.1126 11.0362 17.8257 10.6616C17.5389 10.287 17.135 10.0192 16.6783 9.90073C16.4853 9.85233 16.3196 9.72923 16.2174 9.55857C16.1151 9.38791 16.0849 9.18364 16.1333 8.9907C16.1817 8.79775 16.3047 8.63197 16.4754 8.52976C16.6461 8.42755 16.8503 8.39737 17.0433 8.44577C17.8244 8.6453 18.5163 9.10038 19.0089 9.73862C19.5014 10.3769 19.7663 11.1616 19.7613 11.9677ZM2.5113 7.37375C2.02586 6.93966 1.66186 6.38665 1.45508 5.76914C1.2483 5.15162 1.20589 4.49091 1.33203 3.85202C1.45818 3.21314 1.74848 2.61805 2.17444 2.12546C2.6004 1.63288 3.1473 1.25972 3.7613 1.0427C3.94787 0.980143 4.15156 0.993435 4.32843 1.07969C4.50531 1.16594 4.64119 1.31823 4.70679 1.50376C4.77239 1.68928 4.76248 1.89324 4.67914 2.07151C4.5958 2.24977 4.44572 2.38813 4.26129 2.45676C3.89282 2.58709 3.56463 2.81111 3.30902 3.10679C3.05342 3.40246 2.87921 3.75959 2.80353 4.14304C2.72785 4.52649 2.75328 4.92306 2.87738 5.29367C3.00149 5.66429 3.21997 5.99613 3.5113 6.25669C3.65822 6.38965 3.74657 6.57541 3.75702 6.77329C3.76747 6.97117 3.69919 7.16514 3.56708 7.31284C3.43497 7.46054 3.24976 7.5499 3.05194 7.5615C2.85413 7.57309 2.65976 7.50598 2.5113 7.37473V7.37375ZM3.3443 10.3447C2.88763 10.4632 2.4837 10.7311 2.19684 11.1057C1.90998 11.4803 1.75666 11.9399 1.7613 12.4117V13.1347C1.7613 13.3337 1.68228 13.5244 1.54163 13.665C1.40098 13.8057 1.21021 13.8847 1.0113 13.8847C0.812383 13.8847 0.621613 13.8057 0.480961 13.665C0.340308 13.5244 0.261295 13.3337 0.261295 13.1347V12.4127C0.256477 11.6066 0.5214 10.822 1.01392 10.1838C1.50644 9.5456 2.19828 9.0904 2.97931 8.89072C3.07604 8.86287 3.17736 8.85477 3.27729 8.86692C3.37721 8.87906 3.47367 8.91119 3.56092 8.9614C3.64816 9.01161 3.7244 9.07897 3.7851 9.15928C3.8458 9.23958 3.88974 9.33117 3.91425 9.42881C3.93876 9.52644 3.94337 9.62806 3.9278 9.72751C3.91222 9.82696 3.87673 9.9222 3.82355 10.0077C3.77037 10.0931 3.70057 10.167 3.61823 10.2249C3.53589 10.2829 3.44272 10.3236 3.3443 10.3447Z" fill="#484848"/>
</svg>
