<svg width="20" height="18" viewBox="0 0 20 18" fill="none" xmlns="http://www.w3.org/2000/svg">
<path d="M14.7613 14.7727V15.2798C14.762 16.1514 14.4379 16.9922 13.8523 17.6378C13.7186 17.7853 13.5318 17.8735 13.333 17.8833C13.1342 17.893 12.9397 17.8235 12.7923 17.6898C12.6448 17.5561 12.5565 17.3693 12.5467 17.1705C12.537 16.9717 12.6066 16.7772 12.7403 16.6297C13.0757 16.2598 13.2615 15.7782 13.2613 15.2788V14.7717C13.264 14.1145 13.0461 13.4754 12.6425 12.9566C12.239 12.4379 11.673 12.0697 11.0352 11.9107C10.8133 11.8541 10.5782 11.8838 10.3773 11.9937C9.49922 12.4733 8.51473 12.7246 7.51424 12.7246C6.51376 12.7246 5.52933 12.4733 4.65127 11.9937C4.44902 11.8804 4.21099 11.8489 3.98623 11.9057C3.34841 12.0646 2.78238 12.4329 2.37862 12.9516C1.97487 13.4703 1.75675 14.1094 1.75924 14.7667V15.2738C1.75894 15.7732 1.94468 16.2548 2.28023 16.6247C2.40753 16.773 2.47195 16.9651 2.45974 17.1601C2.44753 17.3552 2.35966 17.5378 2.21487 17.669C2.07007 17.8003 1.87976 17.8697 1.68447 17.8628C1.48918 17.8558 1.30436 17.7729 1.16927 17.6317C0.583599 16.9861 0.259519 16.1455 0.260276 15.2738V14.7667C0.257135 13.7745 0.586864 12.81 1.19674 12.0273C1.80661 11.2447 2.66134 10.6891 3.62423 10.4497C4.21788 10.3029 4.8451 10.3858 5.38027 10.6817C6.03494 11.038 6.76841 11.2247 7.51376 11.2247C8.25911 11.2247 8.99257 11.038 9.64724 10.6817C10.1811 10.3883 10.806 10.3068 11.3972 10.4537C12.3599 10.6942 13.2144 11.2502 13.8241 12.0331C14.4339 12.8159 14.7638 13.7804 14.7613 14.7727ZM16.3972 10.4568C16.2042 10.4088 16 10.4394 15.8295 10.542C15.659 10.6445 15.5362 10.8107 15.4882 11.0038C15.4402 11.1968 15.4709 11.401 15.5735 11.5715C15.6761 11.742 15.8422 11.8647 16.0352 11.9127C16.673 12.0716 17.239 12.44 17.6425 12.9587C18.0461 13.4774 18.264 14.1166 18.2613 14.7738V15.2807C18.2617 15.7802 18.076 16.2619 17.7403 16.6317C17.6066 16.7791 17.537 16.9737 17.5467 17.1725C17.5565 17.3712 17.6448 17.5581 17.7923 17.6917C17.9397 17.8254 18.1342 17.895 18.333 17.8852C18.5318 17.8755 18.7186 17.7872 18.8523 17.6397C19.4379 16.9941 19.762 16.1534 19.7613 15.2817V14.7748C19.7644 13.7824 19.4347 12.8177 18.8249 12.0349C18.215 11.2521 17.3602 10.6964 16.3972 10.4568ZM2.76125 5.13474C2.76125 4.19528 3.03985 3.27696 3.56179 2.49582C4.08373 1.71469 4.82555 1.10583 5.6935 0.746311C6.56145 0.386795 7.51654 0.292768 8.43795 0.476048C9.35936 0.659327 10.2057 1.11167 10.87 1.77597C11.5343 2.44027 11.9867 3.28669 12.17 4.2081C12.3533 5.12951 12.2592 6.08454 11.8997 6.95249C11.5402 7.82044 10.9314 8.56227 10.1502 9.0842C9.3691 9.60614 8.45071 9.88474 7.51125 9.88474C6.25196 9.88315 5.04471 9.38225 4.15426 8.49179C3.2638 7.60134 2.76284 6.39403 2.76125 5.13474ZM4.26125 5.13474C4.26125 5.77753 4.45187 6.40594 4.80898 6.9404C5.1661 7.47486 5.67368 7.89132 6.26754 8.1373C6.8614 8.38329 7.51485 8.44764 8.14529 8.32224C8.77572 8.19684 9.35483 7.88736 9.80935 7.43283C10.2639 6.97831 10.5734 6.39921 10.6988 5.76877C10.8242 5.13833 10.7599 4.48482 10.5139 3.89096C10.2679 3.2971 9.85132 2.78958 9.31686 2.43247C8.7824 2.07535 8.15404 1.88474 7.51125 1.88474C6.64962 1.8858 5.82358 2.2286 5.21432 2.83786C4.60505 3.44713 4.26231 4.27311 4.26125 5.13474ZM17.2613 5.13474C17.2606 3.97781 16.8381 2.86078 16.0728 1.99314C15.3075 1.12549 14.2521 0.566798 13.1043 0.421726C12.9094 0.402041 12.7146 0.45934 12.5614 0.581394C12.4083 0.703449 12.3089 0.880598 12.2846 1.07492C12.2603 1.26925 12.313 1.46531 12.4314 1.62131C12.5498 1.77731 12.7245 1.88088 12.9182 1.90976C13.5518 1.98992 14.1478 2.25495 14.6317 2.67173C15.1157 3.0885 15.4661 3.63855 15.6394 4.25327C15.8126 4.86799 15.8009 5.52014 15.6058 6.12827C15.4107 6.7364 15.0408 7.27351 14.5423 7.6727C14.4628 7.73338 14.3963 7.80933 14.3466 7.89609C14.2969 7.98286 14.2651 8.07871 14.253 8.17795C14.2408 8.2772 14.2487 8.37793 14.276 8.47409C14.3034 8.57026 14.3497 8.66 14.4123 8.73801C14.4748 8.81602 14.5523 8.8807 14.6402 8.92832C14.7281 8.97594 14.8247 9.00547 14.9242 9.01523C15.0237 9.02499 15.1241 9.01483 15.2196 8.9852C15.3151 8.95558 15.4037 8.90711 15.4802 8.84275C16.037 8.39857 16.4864 7.83439 16.7948 7.19236C17.1031 6.55032 17.2626 5.84699 17.2613 5.13474Z" fill="#484848"/>
</svg>
