<svg width="16" height="20" viewBox="0 0 16 20" fill="none" xmlns="http://www.w3.org/2000/svg">
<path d="M8.01126 10.8848C9.04962 10.8848 10.0647 10.5769 10.928 10C11.7914 9.42315 12.4642 8.60314 12.8616 7.64383C13.259 6.68452 13.3629 5.62903 13.1604 4.61063C12.9578 3.59223 12.4578 2.65674 11.7235 1.92252C10.9893 1.18829 10.0539 0.688199 9.0355 0.485626C8.0171 0.283054 6.96148 0.387094 6.00217 0.784455C5.04286 1.18181 4.22291 1.85469 3.64603 2.71805C3.06915 3.58141 2.76126 4.59644 2.76126 5.6348C2.76285 7.0267 3.31647 8.36115 4.30069 9.34537C5.28492 10.3296 6.61937 10.8832 8.01126 10.8848ZM8.01126 1.8848C8.75294 1.8848 9.47795 2.1047 10.0946 2.51675C10.7113 2.92881 11.192 3.51451 11.4758 4.19974C11.7596 4.88496 11.8339 5.63893 11.6892 6.36636C11.5445 7.09379 11.1874 7.76196 10.6629 8.28641C10.1385 8.81085 9.47026 9.16808 8.74283 9.31277C8.0154 9.45747 7.26143 9.38322 6.57621 9.0994C5.89098 8.81557 5.30534 8.33485 4.89328 7.71817C4.48123 7.10149 4.26126 6.37648 4.26126 5.6348C4.26232 4.64056 4.65778 3.68732 5.36081 2.98428C6.06385 2.28125 7.01703 1.88586 8.01126 1.8848ZM15.7613 16.1018V17.1128C15.7632 18.0433 15.4209 18.9416 14.8003 19.6348C14.7357 19.7118 14.6562 19.775 14.5667 19.8207C14.4772 19.8664 14.3793 19.8936 14.2791 19.9008C14.1788 19.9079 14.0782 19.8949 13.9831 19.8623C13.888 19.8298 13.8004 19.7785 13.7255 19.7115C13.6506 19.6444 13.59 19.563 13.5472 19.4721C13.5043 19.3811 13.4802 19.2825 13.4763 19.182C13.4724 19.0816 13.4887 18.9815 13.5242 18.8875C13.5598 18.7935 13.6139 18.7075 13.6833 18.6348C14.057 18.2164 14.2631 17.6748 14.2622 17.1138V16.1028C14.2689 15.3754 14.032 14.6667 13.5893 14.0895C13.1466 13.5123 12.5235 13.0999 11.8192 12.9178C11.5669 12.8548 11.3001 12.8906 11.0733 13.0179C10.1375 13.5365 9.0852 13.8086 8.01529 13.8086C6.94539 13.8086 5.89302 13.5365 4.95725 13.0179C4.72944 12.8881 4.46008 12.8522 4.20627 12.9178C3.50193 13.1002 2.87879 13.5128 2.43595 14.0901C1.9931 14.6674 1.75595 15.3762 1.76224 16.1038V17.1148C1.76099 17.6758 1.96725 18.2176 2.34128 18.6358C2.46647 18.785 2.52867 18.977 2.5148 19.1713C2.50094 19.3656 2.4121 19.5468 2.267 19.6767C2.1219 19.8066 1.93194 19.875 1.73734 19.8673C1.54274 19.8597 1.35876 19.7766 1.22428 19.6358C0.603945 18.9424 0.261699 18.0442 0.263279 17.1138V16.1028C0.256565 15.0412 0.604998 14.0079 1.25315 13.1671C1.9013 12.3264 2.81191 11.7264 3.84024 11.4628C4.4672 11.3051 5.13079 11.3939 5.69425 11.7108C6.4051 12.1038 7.20406 12.3098 8.01627 12.3098C8.82848 12.3098 9.62744 12.1038 10.3383 11.7108C10.901 11.3969 11.5624 11.3096 12.1873 11.4668C13.2147 11.7301 14.1245 12.3292 14.7721 13.1691C15.4197 14.009 15.7679 15.0413 15.7613 16.1018Z" fill="#484848"/>
</svg>
