<svg width="20" height="14" viewBox="0 0 20 14" fill="none" xmlns="http://www.w3.org/2000/svg">
<path d="M18.7332 2.65479C18.4225 2.48808 18.0724 2.40874 17.7202 2.42529C17.368 2.44185 17.0269 2.55367 16.7332 2.74878L13.7232 4.74878C13.6289 3.56282 13.0921 2.45569 12.2194 1.64709C11.3467 0.838503 10.2019 0.38757 9.01221 0.383789H5.01221C3.75292 0.385377 2.54567 0.88628 1.65521 1.77673C0.764759 2.66719 0.263795 3.8745 0.262207 5.13379V9.13379C0.263795 10.3931 0.764759 11.6003 1.65521 12.4907C2.54567 13.3812 3.75292 13.8822 5.01221 13.8838H9.01221C10.2019 13.88 11.3467 13.4291 12.2194 12.6205C13.0921 11.8119 13.6289 10.7048 13.7232 9.5188L16.7332 11.5188C17.027 11.7139 17.3681 11.8257 17.7204 11.8423C18.0727 11.8589 18.4228 11.7797 18.7336 11.613C19.0444 11.4464 19.3042 11.1986 19.4854 10.896C19.6665 10.5934 19.7622 10.2474 19.7622 9.89478V4.37183C19.7623 4.01926 19.6667 3.67326 19.4854 3.37085C19.3042 3.06843 19.0442 2.82092 18.7332 2.65479ZM12.2612 9.13477C12.2602 9.99639 11.9174 10.8224 11.3082 11.4316C10.6989 12.0409 9.87286 12.3837 9.01123 12.3848H5.01123C4.1496 12.3837 3.32356 12.0409 2.71429 11.4316C2.10503 10.8224 1.76229 9.99639 1.76123 9.13477V5.13477C1.76229 4.27314 2.10503 3.44715 2.71429 2.83789C3.32356 2.22863 4.1496 1.88582 5.01123 1.88477H9.01123C9.87286 1.88582 10.6989 2.22863 11.3082 2.83789C11.9174 3.44715 12.2602 4.27314 12.2612 5.13477V9.13477ZM18.2612 9.89575C18.2614 9.97731 18.2393 10.0574 18.1975 10.1274C18.1557 10.1975 18.0956 10.2547 18.0237 10.2932C17.9518 10.3317 17.8708 10.35 17.7894 10.3461C17.7079 10.3421 17.629 10.3161 17.5612 10.2708L13.7612 7.74475V6.5238L17.5612 3.9978C17.629 3.95254 17.7077 3.92649 17.7891 3.92249C17.8705 3.91848 17.9515 3.93658 18.0233 3.97498C18.0952 4.01337 18.1552 4.07063 18.1971 4.1405C18.239 4.21038 18.2612 4.29035 18.2612 4.37183V9.89575Z" fill="#484848"/>
</svg>
