<svg width="20" height="18" viewBox="0 0 20 18" fill="none" xmlns="http://www.w3.org/2000/svg">
<path d="M1.73224 14.1648C1.61094 14.1649 1.49143 14.1355 1.38397 14.0792C1.27651 14.023 1.18429 13.9415 1.11523 13.8418C0.560846 13.0478 0.262821 12.1031 0.26123 11.1348V7.13477C0.262818 5.87547 0.763782 4.66816 1.65424 3.77771C2.54469 2.88726 3.75194 2.38635 5.01123 2.38477H9.01123C9.97967 2.38584 10.9245 2.68392 11.7182 3.23877C11.7992 3.29491 11.8683 3.36649 11.9216 3.44934C11.9749 3.53219 12.0114 3.62474 12.0289 3.72168C12.0465 3.81862 12.0448 3.918 12.0239 4.01428C12.003 4.11056 11.9634 4.20175 11.9072 4.28271C11.8511 4.36367 11.7796 4.43289 11.6967 4.48621C11.6139 4.53952 11.5213 4.57596 11.4244 4.59351C11.3274 4.61106 11.228 4.60926 11.1317 4.58838C11.0354 4.56749 10.9442 4.52794 10.8632 4.4718C10.3201 4.09128 9.67341 3.88637 9.01025 3.88477H5.01025C4.14863 3.88582 3.32258 4.22863 2.71332 4.83789C2.10405 5.44715 1.76131 6.27314 1.76025 7.13477V11.1348C1.76205 11.7979 1.96688 12.4446 2.34723 12.9878C2.42545 13.1001 2.47137 13.2317 2.48004 13.3683C2.48871 13.5049 2.45982 13.6413 2.39642 13.7626C2.33303 13.8839 2.23758 13.9856 2.12048 14.0565C2.00339 14.1274 1.86912 14.1649 1.73224 14.1648ZM19.7612 6.3728V11.8958C19.7612 12.2484 19.6655 12.5945 19.4844 12.8971C19.3032 13.1997 19.0435 13.4474 18.7327 13.614C18.4219 13.7807 18.0717 13.86 17.7194 13.8434C17.3672 13.8268 17.026 13.7149 16.7322 13.5198L13.7222 11.5198C13.6279 12.7057 13.0911 13.8129 12.2184 14.6215C11.3457 15.4301 10.2009 15.881 9.01123 15.8848H5.01123C4.79702 15.8825 4.58318 15.8657 4.37122 15.8347L2.54126 17.6648C2.39974 17.8013 2.2102 17.8768 2.01355 17.875C1.8169 17.8732 1.62886 17.7943 1.48987 17.6552C1.35088 17.516 1.27206 17.3279 1.27045 17.1312C1.26883 16.9346 1.34451 16.7451 1.4812 16.6038L17.4812 0.60376C17.6219 0.463063 17.8127 0.384033 18.0117 0.384033C18.2107 0.384033 18.4015 0.463062 18.5422 0.60376C18.6829 0.744457 18.762 0.935301 18.762 1.13428C18.762 1.33325 18.6829 1.5241 18.5422 1.66479L13.7122 6.49475C13.7232 6.57675 13.7323 6.65879 13.7393 6.73779L16.7322 4.74878C17.0261 4.5536 17.3673 4.44174 17.7197 4.42517C18.072 4.40861 18.4223 4.48791 18.7331 4.65466C19.0439 4.82142 19.3037 5.06934 19.4847 5.37207C19.6658 5.6748 19.7614 6.02104 19.7612 6.37378V6.3728ZM12.2612 11.1348V7.9458L5.8222 14.3848H9.01123C9.87286 14.3837 10.6989 14.0409 11.3082 13.4316C11.9174 12.8224 12.2602 11.9964 12.2612 11.1348ZM18.2612 6.3728C18.2612 6.29133 18.239 6.21135 18.1971 6.14148C18.1552 6.07161 18.0952 6.01447 18.0233 5.97607C17.9515 5.93768 17.8705 5.91946 17.7891 5.92346C17.7077 5.92747 17.629 5.95352 17.5612 5.99878L13.7612 8.52478V9.74573L17.5612 12.2717C17.629 12.317 17.7079 12.3431 17.7894 12.347C17.8708 12.351 17.9518 12.3328 18.0237 12.2943C18.0956 12.2558 18.1557 12.1984 18.1975 12.1284C18.2393 12.0584 18.2614 11.9783 18.2612 11.8967V6.3728Z" fill="#484848"/>
</svg>
