<svg width="21" height="14" viewBox="0 0 21 14" fill="none" xmlns="http://www.w3.org/2000/svg">
<path d="M14.5098 4.53833V8.53833C14.5082 9.73132 14.0336 10.8749 13.19 11.7185C12.3464 12.5621 11.2028 13.0367 10.0098 13.0383H5.00977C3.81678 13.0367 2.6731 12.5621 1.82953 11.7185C0.985959 10.8749 0.511353 9.73132 0.509766 8.53833V4.53833C0.511353 3.34534 0.985959 2.20172 1.82953 1.35815C2.6731 0.514584 3.81678 0.0399176 5.00977 0.0383301H10.0098C11.2028 0.0399176 12.3464 0.514584 13.19 1.35815C14.0336 2.20172 14.5082 3.34534 14.5098 4.53833ZM19.1097 2.27734C18.8399 2.13264 18.5358 2.06413 18.23 2.0791C17.9242 2.09408 17.6282 2.19193 17.3738 2.3623L16.2338 3.12231C16.1652 3.16793 16.109 3.22967 16.0701 3.30225C16.0312 3.37482 16.0108 3.45599 16.0107 3.53833V9.53833C16.0108 9.62067 16.0312 9.70184 16.0701 9.77441C16.109 9.84699 16.1652 9.90873 16.2338 9.95435L17.3727 10.7134C17.6287 10.8827 17.9259 10.9795 18.2325 10.9937C18.5391 11.0078 18.8438 10.9388 19.1143 10.7937C19.3848 10.6486 19.611 10.4329 19.7688 10.1697C19.9266 9.90641 20.0102 9.60529 20.0107 9.29834V3.77832C20.0107 3.46983 19.9268 3.16725 19.7679 2.90283C19.609 2.63841 19.3812 2.42215 19.1088 2.27734H19.1097Z" fill="#5DB05A"/>
</svg>
