<svg width="20" height="19" viewBox="0 0 20 19" fill="none" xmlns="http://www.w3.org/2000/svg">
<path d="M1.33179 14.1175C0.796275 13.3642 0.508921 12.4626 0.509767 11.5384V7.53837C0.511355 6.34538 0.985961 5.20176 1.82953 4.35819C2.6731 3.51462 3.81678 3.03996 5.00977 3.03837H10.0098C10.6555 3.03578 11.2935 3.17929 11.8758 3.45829C11.948 3.49245 12.0107 3.54372 12.0588 3.60746C12.1068 3.6712 12.1388 3.74549 12.1518 3.82426C12.1653 3.90306 12.1597 3.98413 12.1356 4.06034C12.1114 4.13655 12.0693 4.20591 12.0128 4.26249L2.09278 14.1824C2.04626 14.2288 1.99104 14.2655 1.9303 14.2906C1.86956 14.3156 1.80448 14.3285 1.73877 14.3284H1.69678C1.62424 14.3219 1.55401 14.2997 1.49097 14.2632C1.42792 14.2268 1.37359 14.1771 1.33179 14.1175ZM19.0508 5.38847C18.8008 5.25468 18.5192 5.19113 18.236 5.20487C17.9528 5.21861 17.6786 5.309 17.4428 5.46635L16.3028 6.22636C16.2516 6.26079 16.2096 6.30723 16.1805 6.36161C16.1514 6.41599 16.136 6.47668 16.1357 6.53837V12.5384C16.1357 12.6001 16.151 12.6609 16.1802 12.7154C16.2093 12.7698 16.2514 12.8161 16.3028 12.8504L17.4418 13.6094C17.699 13.7823 18.0019 13.8745 18.3118 13.8743C18.7295 13.8735 19.1298 13.7071 19.4249 13.4114C19.72 13.1158 19.8857 12.7151 19.8857 12.2974V6.77738C19.8856 6.4919 19.8079 6.21175 19.6608 5.96708C19.5137 5.7224 19.3028 5.5225 19.0508 5.38847ZM18.7167 2.2454C18.8122 2.15315 18.8885 2.0427 18.9409 1.92069C18.9933 1.79869 19.0209 1.66748 19.022 1.53471C19.0232 1.40193 18.9979 1.2704 18.9476 1.1475C18.8973 1.0246 18.8231 0.912778 18.7292 0.818885C18.6353 0.724993 18.5236 0.650905 18.4007 0.600624C18.2778 0.550343 18.1461 0.525007 18.0134 0.526161C17.8806 0.527315 17.7494 0.554806 17.6274 0.607215C17.5054 0.659624 17.395 0.735826 17.3028 0.831337L1.3028 16.8313C1.20729 16.9236 1.13109 17.034 1.07868 17.156C1.02627 17.278 0.998653 17.4093 0.997499 17.542C0.996346 17.6748 1.02168 17.8063 1.07196 17.9292C1.12224 18.0521 1.19645 18.164 1.29035 18.2579C1.38424 18.3517 1.49594 18.4258 1.61884 18.4761C1.74173 18.5264 1.87339 18.5517 2.00617 18.5506C2.13895 18.5494 2.27015 18.5219 2.39215 18.4695C2.51416 18.4171 2.62449 18.3409 2.71674 18.2454L4.93274 16.0293C4.95974 16.0293 4.98277 16.0384 5.00977 16.0384H10.0098C11.2028 16.0368 12.3464 15.5621 13.19 14.7185C14.0336 13.875 14.5082 12.7314 14.5098 11.5384V7.53837C14.5096 7.20967 14.4731 6.88196 14.4008 6.56132L18.7167 2.2454Z" fill="#5DB05A"/>
</svg>
