<svg width="20" height="18" viewBox="0 0 20 18" fill="none" xmlns="http://www.w3.org/2000/svg">
<path d="M9.86584 0.68575C9.30257 0.422545 8.67505 0.32837 8.05933 0.414632C7.4436 0.500894 6.86611 0.763851 6.39685 1.17171L3.79688 3.39766C3.75235 3.43668 3.69506 3.45809 3.63586 3.45772H2.89789C2.19661 3.46037 1.52491 3.74064 1.02979 4.23726C0.534656 4.73389 0.256383 5.40647 0.255859 6.10775V12.1588C0.256648 12.8601 0.535169 13.5327 1.03046 14.0293C1.52574 14.5259 2.1975 14.806 2.89886 14.8087H3.63489C3.69469 14.8083 3.75257 14.8297 3.79785 14.8687L6.39185 17.0947C6.97474 17.6006 7.72005 17.8804 8.49188 17.8828C8.96323 17.8827 9.42894 17.7803 9.85687 17.5827C10.426 17.3264 10.9085 16.9104 11.2458 16.3851C11.5831 15.8598 11.7606 15.2479 11.7568 14.6237V3.64473C11.7619 3.02141 11.5859 2.40997 11.2502 1.88472C10.9146 1.35947 10.4336 0.943006 9.86584 0.68575ZM10.2659 14.6237C10.267 14.9587 10.1719 15.2869 9.99188 15.5694C9.81189 15.8519 9.55456 16.0767 9.25049 16.2172C8.94641 16.3577 8.6084 16.408 8.27661 16.362C7.94482 16.316 7.63321 16.1757 7.37885 15.9577L4.78589 13.7327C4.46882 13.4612 4.06534 13.3116 3.64789 13.3108H2.91089C2.60676 13.3094 2.31554 13.1877 2.10095 12.9721C1.88637 12.7566 1.76587 12.4649 1.76587 12.1607V6.1097C1.76587 5.80557 1.88637 5.51382 2.10095 5.2983C2.31554 5.08278 2.60676 4.961 2.91089 4.95968H3.64789C4.06493 4.95922 4.46808 4.81003 4.78485 4.53878L7.37988 2.31368C7.69105 2.0401 8.09056 1.88813 8.50488 1.8857C8.76066 1.88679 9.01314 1.94345 9.24487 2.05172C9.55358 2.1884 9.81509 2.41311 9.9967 2.69771C10.1783 2.98232 10.272 3.31414 10.2659 3.65169V14.6287V14.6237ZM14.6139 5.68075C15.3616 6.67703 15.7659 7.88905 15.7659 9.13472C15.7659 10.3804 15.3616 11.5924 14.6139 12.5887C14.4936 12.7478 14.315 12.8527 14.1174 12.8802C13.9199 12.9077 13.7195 12.8555 13.5604 12.7352C13.4012 12.6149 13.2964 12.4364 13.2689 12.2389C13.2414 12.0413 13.2936 11.8409 13.4139 11.6817C13.9643 10.947 14.2618 10.0537 14.2618 9.1357C14.2618 8.21768 13.9643 7.32436 13.4139 6.58968C13.2933 6.43055 13.241 6.23006 13.2682 6.03231C13.2955 5.83455 13.4003 5.65578 13.5594 5.53524C13.7185 5.4147 13.919 5.36232 14.1168 5.38961C14.3145 5.41689 14.4934 5.52162 14.6139 5.68075ZM19.7609 9.13472C19.7624 11.535 18.8746 13.8507 17.2689 15.6347C17.2047 15.7132 17.1253 15.7778 17.0355 15.8247C16.9456 15.8716 16.8473 15.8997 16.7463 15.9076C16.6453 15.9154 16.5437 15.9027 16.4477 15.8702C16.3517 15.8377 16.2633 15.786 16.1879 15.7183C16.1124 15.6507 16.0514 15.5686 16.0086 15.4768C15.9658 15.3849 15.9421 15.2853 15.9388 15.184C15.9355 15.0828 15.9528 14.9818 15.9896 14.8874C16.0264 14.793 16.0819 14.7071 16.1529 14.6347C17.5101 13.1243 18.2609 11.1654 18.2609 9.13472C18.2609 7.10409 17.5101 5.14517 16.1529 3.63472C16.0306 3.48529 15.9707 3.29451 15.9856 3.10201C16.0005 2.90951 16.0891 2.73013 16.2328 2.60128C16.3766 2.47243 16.5646 2.404 16.7576 2.41024C16.9505 2.41647 17.1337 2.49687 17.2689 2.63472C18.8745 4.41883 19.7623 6.73449 19.7609 9.13472Z" fill="#484848"/>
</svg>
