<svg width="21" height="18" viewBox="0 0 21 18" fill="none" xmlns="http://www.w3.org/2000/svg">
<path d="M11.7598 3.04935V14.0283C11.7626 14.6032 11.6 15.1667 11.2913 15.6516C10.9826 16.1366 10.5409 16.5225 10.0189 16.7632C9.49691 17.0039 8.9167 17.0892 8.34747 17.0091C7.77825 16.929 7.24408 16.6867 6.80878 16.3113L4.21478 14.0855C4.12461 14.0079 4.0097 13.9649 3.89075 13.9644H3.15277C2.51747 13.9625 1.90878 13.7089 1.46021 13.2591C1.01163 12.8092 0.759763 12.1995 0.759766 11.5642V5.51346C0.759762 4.87832 1.01154 4.26898 1.4599 3.81912C1.90826 3.36926 2.51666 3.11543 3.15179 3.11331H3.89075C4.00923 3.11284 4.1237 3.07044 4.21375 2.99344L6.81378 0.766386C7.24992 0.393338 7.78392 0.15319 8.35242 0.0744916C8.92092 -0.00420645 9.50004 0.0817553 10.0211 0.322294C10.5422 0.562833 10.9834 0.947959 11.2922 1.43167C11.6011 1.91538 11.7648 2.47738 11.7638 3.0513L11.7598 3.04935ZM15.0598 4.93435C14.8981 4.72695 14.6612 4.59166 14.4005 4.55765C14.1397 4.52363 13.876 4.59373 13.6666 4.75271C13.4571 4.9117 13.3186 5.14671 13.2812 5.40701C13.2439 5.66731 13.3105 5.93182 13.4667 6.14334C13.9841 6.835 14.2638 7.67556 14.2638 8.53934C14.2638 9.40311 13.9841 10.2437 13.4667 10.9353C13.3065 11.1467 13.2369 11.4131 13.2731 11.6758C13.3093 11.9385 13.4484 12.1763 13.6598 12.3365C13.8712 12.4966 14.1375 12.5663 14.4002 12.5301C14.6629 12.4939 14.9006 12.3547 15.0608 12.1433C15.8419 11.104 16.2642 9.83899 16.2642 8.53885C16.2642 7.2387 15.8419 5.97374 15.0608 4.93435H15.0598ZM17.7057 1.86941C17.6187 1.76885 17.5125 1.68649 17.3934 1.62747C17.2742 1.56845 17.1444 1.53393 17.0117 1.52566C16.879 1.51739 16.746 1.5356 16.6204 1.57937C16.4948 1.62315 16.3792 1.69156 16.2804 1.78055C16.1816 1.86953 16.1015 1.97737 16.0449 2.09769C15.9882 2.218 15.9561 2.34837 15.9504 2.48123C15.9448 2.61409 15.9657 2.74668 16.012 2.87137C16.0582 2.99605 16.1289 3.11025 16.2198 3.2073C17.5351 4.67142 18.2627 6.57018 18.2627 8.53836C18.2627 10.5065 17.5351 12.4053 16.2198 13.8694C16.1289 13.9665 16.0582 14.0807 16.012 14.2054C15.9657 14.33 15.9448 14.4626 15.9504 14.5955C15.9561 14.7284 15.9882 14.8587 16.0449 14.979C16.1015 15.0993 16.1816 15.2072 16.2804 15.2962C16.3792 15.3852 16.4948 15.4536 16.6204 15.4973C16.746 15.5411 16.879 15.5593 17.0117 15.5511C17.1444 15.5428 17.2742 15.5083 17.3934 15.4492C17.5125 15.3902 17.6187 15.3079 17.7057 15.2073C19.3518 13.376 20.2625 11.0007 20.2625 8.53836C20.2625 6.076 19.3518 3.70069 17.7057 1.86941Z" fill="#5DB05A"/>
</svg>
